<svg width="18" height="20" viewBox="0 0 18 20" fill="none" xmlns="http://www.w3.org/2000/svg">
<path d="M2 20C1.45 20 0.979 19.8043 0.587 19.413C0.195667 19.021 0 18.55 0 18V4C0 3.45 0.195667 2.979 0.587 2.587C0.979 2.19567 1.45 2 2 2H6.2C6.43333 1.4 6.8 0.916667 7.3 0.55C7.8 0.183333 8.36667 0 9 0C9.63333 0 10.2 0.183333 10.7 0.55C11.2 0.916667 11.5667 1.4 11.8 2H16C16.55 2 17.021 2.19567 17.413 2.587C17.8043 2.979 18 3.45 18 4V18C18 18.55 17.8043 19.021 17.413 19.413C17.021 19.8043 16.55 20 16 20H2ZM9 3.25C9.21667 3.25 9.396 3.179 9.538 3.037C9.67933 2.89567 9.75 2.71667 9.75 2.5C9.75 2.28333 9.67933 2.104 9.538 1.962C9.396 1.82067 9.21667 1.75 9 1.75C8.78333 1.75 8.60433 1.82067 8.463 1.962C8.321 2.104 8.25 2.28333 8.25 2.5C8.25 2.71667 8.321 2.89567 8.463 3.037C8.60433 3.179 8.78333 3.25 9 3.25ZM2 16.85C2.9 15.9667 3.946 15.2707 5.138 14.762C6.32933 14.254 7.61667 14 9 14C10.3833 14 11.671 14.254 12.863 14.762C14.0543 15.2707 15.1 15.9667 16 16.85V4H2V16.85ZM9 12C9.96667 12 10.7917 11.6583 11.475 10.975C12.1583 10.2917 12.5 9.46667 12.5 8.5C12.5 7.53333 12.1583 6.70833 11.475 6.025C10.7917 5.34167 9.96667 5 9 5C8.03333 5 7.20833 5.34167 6.525 6.025C5.84167 6.70833 5.5 7.53333 5.5 8.5C5.5 9.46667 5.84167 10.2917 6.525 10.975C7.20833 11.6583 8.03333 12 9 12ZM4 18H14V17.75C13.3 17.1667 12.525 16.7293 11.675 16.438C10.825 16.146 9.93333 16 9 16C8.06667 16 7.175 16.146 6.325 16.438C5.475 16.7293 4.7 17.1667 4 17.75V18ZM9 10C8.58333 10 8.22933 9.854 7.938 9.562C7.646 9.27067 7.5 8.91667 7.5 8.5C7.5 8.08333 7.646 7.72933 7.938 7.438C8.22933 7.146 8.58333 7 9 7C9.41667 7 9.77067 7.146 10.062 7.438C10.354 7.72933 10.5 8.08333 10.5 8.5C10.5 8.91667 10.354 9.27067 10.062 9.562C9.77067 9.854 9.41667 10 9 10Z" fill="#425466"/>
</svg>
