<svg width="172" height="94" viewBox="0 0 172 94" fill="none" xmlns="http://www.w3.org/2000/svg">
<rect y="6" width="172" height="88" rx="10" fill="#0A7ABF"/>
<path d="M19.1875 27.0838V17.0909H62.2166V27.0838H46.7798V68H34.6491V27.0838H19.1875ZM99.3109 33.7209C99.0292 32.6768 98.6149 31.7571 98.068 30.9616C97.5211 30.1496 96.85 29.4619 96.0545 28.8984C95.2591 28.335 94.3476 27.9124 93.3201 27.6307C92.2927 27.3324 91.1658 27.1832 89.9395 27.1832C87.4702 27.1832 85.3324 27.7798 83.5261 28.973C81.7363 30.1662 80.3526 31.9062 79.3748 34.1932C78.3971 36.4635 77.9082 39.2228 77.9082 42.4709C77.9082 45.7356 78.3805 48.5196 79.3251 50.8232C80.2697 53.1267 81.6369 54.8833 83.4267 56.093C85.2164 57.3028 87.3874 57.9077 89.9395 57.9077C92.1932 57.9077 94.099 57.5431 95.6568 56.8139C97.2311 56.0682 98.4243 55.0159 99.2363 53.657C100.048 52.2981 100.454 50.6989 100.454 48.8594L102.741 49.1328H90.362V40.1591H112.312V46.8956C112.312 51.4529 111.342 55.3556 109.403 58.6037C107.481 61.8518 104.829 64.3459 101.449 66.0859C98.0846 67.826 94.215 68.696 89.84 68.696C84.9844 68.696 80.7172 67.6437 77.0382 65.5391C73.3592 63.4344 70.4922 60.4349 68.4373 56.5405C66.3824 52.6295 65.3549 47.9893 65.3549 42.62C65.3549 38.4439 65.9764 34.7401 67.2193 31.5085C68.4622 28.2604 70.194 25.5095 72.4146 23.2557C74.6518 21.0019 77.237 19.295 80.1703 18.1349C83.1201 16.9749 86.2936 16.3949 89.6909 16.3949C92.6407 16.3949 95.3833 16.8175 97.9189 17.6626C100.471 18.5078 102.725 19.701 104.68 21.2422C106.652 22.7834 108.251 24.6146 109.478 26.7358C110.704 28.857 111.466 31.1854 111.765 33.7209H99.3109ZM119.564 68V17.0909H131.869V58.0071H153.048V68H119.564Z" fill="white"/>
<path d="M19.375 77.9858V76.2727H26.7514V77.9858H24.1051V85H22.0256V77.9858H19.375ZM27.7816 85V76.2727H29.891V79.7756H33.3299V76.2727H35.435V85H33.3299V81.4929H29.891V85H27.7816ZM38.8675 76.2727V85H36.7582V76.2727H38.8675ZM47.6193 76.2727V85H45.8295L42.3565 79.9631H42.3011V85H40.1918V76.2727H42.0071L45.4418 81.3011H45.5142V76.2727H47.6193ZM48.9457 85V76.2727H51.055V79.9631H51.1701L54.055 76.2727H56.5394L53.4457 80.1676L56.5948 85H54.0721L51.8988 81.5696L51.055 82.6349V85H48.9457Z" fill="white"/>
<path d="M74.3878 79.1236C74.3395 78.9446 74.2685 78.7869 74.1747 78.6506C74.081 78.5114 73.9659 78.3935 73.8295 78.2969C73.6932 78.2003 73.5369 78.1278 73.3608 78.0795C73.1847 78.0284 72.9915 78.0028 72.7812 78.0028C72.358 78.0028 71.9915 78.1051 71.6818 78.3097C71.375 78.5142 71.1378 78.8125 70.9702 79.2045C70.8026 79.5937 70.7188 80.0668 70.7188 80.6236C70.7188 81.1832 70.7997 81.6605 70.9616 82.0554C71.1236 82.4503 71.358 82.7514 71.6648 82.9588C71.9716 83.1662 72.3438 83.2699 72.7812 83.2699C73.1676 83.2699 73.4943 83.2074 73.7614 83.0824C74.0313 82.9545 74.2358 82.7741 74.375 82.5412C74.5142 82.3082 74.5838 82.0341 74.5838 81.7188L74.9759 81.7656H72.8537V80.2273H76.6165V81.3821C76.6165 82.1634 76.4503 82.8324 76.1179 83.3892C75.7884 83.946 75.3338 84.3736 74.7543 84.6719C74.1776 84.9702 73.5142 85.1193 72.7642 85.1193C71.9318 85.1193 71.2003 84.9389 70.5696 84.5781C69.9389 84.2173 69.4474 83.7031 69.0952 83.0355C68.7429 82.3651 68.5668 81.5696 68.5668 80.6491C68.5668 79.9332 68.6733 79.2983 68.8864 78.7443C69.0994 78.1875 69.3963 77.7159 69.777 77.3295C70.1605 76.9432 70.6037 76.6506 71.1065 76.4517C71.6122 76.2528 72.1563 76.1534 72.7386 76.1534C73.2443 76.1534 73.7145 76.2259 74.1491 76.3707C74.5866 76.5156 74.973 76.7202 75.3082 76.9844C75.6463 77.2486 75.9205 77.5625 76.1307 77.9261C76.3409 78.2898 76.4716 78.6889 76.5227 79.1236H74.3878ZM77.8597 85V76.2727H81.4648C82.1183 76.2727 82.6822 76.3906 83.1566 76.6264C83.6339 76.8594 84.0018 77.1946 84.2603 77.6321C84.5188 78.0668 84.6481 78.5824 84.6481 79.179C84.6481 79.7841 84.516 80.2983 84.2518 80.7216C83.9876 81.142 83.6126 81.4631 83.1268 81.6847C82.641 81.9034 82.0657 82.0128 81.4009 82.0128H79.1211V80.3509H81.0089C81.3271 80.3509 81.5927 80.3097 81.8058 80.2273C82.0217 80.142 82.185 80.0142 82.2958 79.8438C82.4066 79.6705 82.462 79.4489 82.462 79.179C82.462 78.9091 82.4066 78.6861 82.2958 78.5099C82.185 78.331 82.0217 78.1974 81.8058 78.1094C81.5898 78.0185 81.3242 77.973 81.0089 77.973H79.9691V85H77.8597ZM82.7731 81.0114L84.9464 85H82.6452L80.5146 81.0114H82.7731ZM94.0423 80.6364C94.0423 81.5966 93.8576 82.4105 93.4883 83.0781C93.119 83.7457 92.619 84.2528 91.9883 84.5994C91.3604 84.946 90.6559 85.1193 89.8746 85.1193C89.0906 85.1193 88.3846 84.9446 87.7567 84.5952C87.1289 84.2457 86.6303 83.7386 86.261 83.0739C85.8945 82.4062 85.7113 81.5937 85.7113 80.6364C85.7113 79.6761 85.8945 78.8622 86.261 78.1946C86.6303 77.527 87.1289 77.0199 87.7567 76.6733C88.3846 76.3267 89.0906 76.1534 89.8746 76.1534C90.6559 76.1534 91.3604 76.3267 91.9883 76.6733C92.619 77.0199 93.119 77.527 93.4883 78.1946C93.8576 78.8622 94.0423 79.6761 94.0423 80.6364ZM91.886 80.6364C91.886 80.0682 91.805 79.5881 91.6431 79.196C91.484 78.804 91.2539 78.5071 90.9528 78.3054C90.6545 78.1037 90.2951 78.0028 89.8746 78.0028C89.457 78.0028 89.0977 78.1037 88.7965 78.3054C88.4954 78.5071 88.2638 78.804 88.1019 79.196C87.9428 79.5881 87.8633 80.0682 87.8633 80.6364C87.8633 81.2045 87.9428 81.6847 88.1019 82.0767C88.2638 82.4687 88.4954 82.7656 88.7965 82.9673C89.0977 83.169 89.457 83.2699 89.8746 83.2699C90.2951 83.2699 90.6545 83.169 90.9528 82.9673C91.2539 82.7656 91.484 82.4687 91.6431 82.0767C91.805 81.6847 91.886 81.2045 91.886 80.6364ZM96.9325 85L94.3928 76.2727H96.7237L98.0405 81.9915H98.1129L99.6172 76.2727H101.518L103.022 82.0043H103.094L104.415 76.2727H106.742L104.207 85H102.174L100.602 79.7074H100.533L98.9609 85H96.9325Z" fill="white"/>
<path d="M119.661 85V76.2727H121.77V83.2869H125.401V85H119.661ZM126.493 85V76.2727H132.578V77.9858H128.602V79.7756H132.267V81.4929H128.602V83.2869H132.578V85H126.493ZM135.787 85H133.52L136.464 76.2727H139.272L142.217 85H139.95L137.9 78.4716H137.832L135.787 85ZM135.484 81.5653H140.223V83.1676H135.484V81.5653ZM146.382 85H143.157V76.2727H146.378C147.267 76.2727 148.033 76.4474 148.675 76.7969C149.32 77.1435 149.817 77.6435 150.167 78.2969C150.516 78.9474 150.691 79.7259 150.691 80.6321C150.691 81.5412 150.516 82.3224 150.167 82.9759C149.82 83.6293 149.324 84.1307 148.679 84.4801C148.034 84.8267 147.269 85 146.382 85ZM145.266 83.2017H146.301C146.79 83.2017 147.203 83.1193 147.542 82.9545C147.882 82.7869 148.14 82.5156 148.313 82.1406C148.489 81.7628 148.577 81.2599 148.577 80.6321C148.577 80.0043 148.489 79.5043 148.313 79.1321C148.137 78.7571 147.877 78.4872 147.533 78.3224C147.192 78.1548 146.772 78.071 146.272 78.071H145.266V83.2017Z" fill="white"/>
</svg>
