<svg width="1440" height="1024" viewBox="0 0 1440 1024" fill="none" xmlns="http://www.w3.org/2000/svg">
<g clip-path="url(#clip0_205_20455)">
<rect width="1440" height="1024" fill="white"/>
<path fill-rule="evenodd" clip-rule="evenodd" d="M1119.84 433.528C1276.05 589.738 1529.32 589.738 1685.53 433.528C1841.74 277.318 1841.74 24.0524 1685.53 -132.157C1529.32 -288.367 1276.05 -288.367 1119.84 -132.157C963.633 24.0524 963.633 277.318 1119.84 433.528ZM1190.55 362.817C1307.71 479.975 1497.66 479.975 1614.82 362.817C1731.97 245.66 1731.97 55.7107 1614.82 -61.4466C1497.66 -178.604 1307.71 -178.604 1190.55 -61.4466C1073.4 55.7107 1073.4 245.66 1190.55 362.817Z" fill="url(#paint0_linear_205_20455)"/>
<path fill-rule="evenodd" clip-rule="evenodd" d="M-45.6088 1342.62C174.417 1362.41 368.828 1200.09 388.621 980.069C408.415 760.044 246.095 565.632 26.0692 545.839C-193.956 526.046 -388.368 688.366 -408.161 908.391C-427.954 1128.42 -265.634 1322.83 -45.6088 1342.62ZM-36.649 1243.02C128.37 1257.87 274.179 1136.13 289.024 971.109C303.869 806.09 182.129 660.282 17.1095 645.437C-147.91 630.592 -293.718 752.332 -308.563 917.351C-323.408 1082.37 -201.668 1228.18 -36.649 1243.02Z" fill="url(#paint1_linear_205_20455)"/>
<g filter="url(#filter0_b_205_20455)">
<rect x="89" y="91" width="1260" height="842" rx="32" fill="url(#paint2_linear_205_20455)"/>
<rect x="89.5" y="91.5" width="1259" height="841" rx="31.5" stroke="#1967D2"/>
</g>
<path d="M294.062 384.891H294.273L300.695 408H307.375L316.352 374.18H309.016L303.672 398.672H303.484L297.156 374.18H291.18L284.852 398.672H284.664L279.344 374.18H272.008L280.961 408H287.641L294.062 384.891ZM328.047 387.398C331.094 387.398 333.18 389.602 333.32 392.812H322.656C322.891 389.672 325.047 387.398 328.047 387.398ZM333.414 400.312C332.781 402.234 330.859 403.477 328.352 403.477C324.859 403.477 322.586 401.016 322.586 397.43V397.008H339.906V394.922C339.906 387.281 335.289 382.336 327.977 382.336C320.547 382.336 315.859 387.539 315.859 395.555C315.859 403.594 320.5 408.539 328.234 408.539C334.445 408.539 338.945 405.234 339.695 400.312H333.414ZM343.609 408H350.453V374.18H343.609V408ZM377.898 392.227C377.594 386.531 373.281 382.336 366.484 382.336C358.961 382.336 354.156 387.352 354.156 395.414C354.156 403.617 358.961 408.539 366.531 408.539C373.141 408.539 377.57 404.719 377.922 398.789H371.547C371.125 401.531 369.344 403.172 366.602 403.172C363.203 403.172 361.094 400.359 361.094 395.414C361.094 390.562 363.203 387.703 366.578 387.703C369.391 387.703 371.148 389.578 371.547 392.227H377.898ZM392.758 408.539C400.352 408.539 405.203 403.688 405.203 395.414C405.203 387.258 400.281 382.336 392.758 382.336C385.234 382.336 380.312 387.281 380.312 395.414C380.312 403.664 385.164 408.539 392.758 408.539ZM392.758 403.312C389.383 403.312 387.25 400.477 387.25 395.438C387.25 390.445 389.43 387.562 392.758 387.562C396.086 387.562 398.242 390.445 398.242 395.438C398.242 400.477 396.109 403.312 392.758 403.312ZM408.742 408H415.586V392.836C415.586 390.023 417.344 388.055 419.945 388.055C422.477 388.055 424 389.648 424 392.344V408H430.586V392.742C430.586 389.953 432.297 388.055 434.898 388.055C437.547 388.055 439 389.648 439 392.555V408H445.844V390.844C445.844 385.781 442.539 382.406 437.617 382.406C433.938 382.406 430.938 384.398 429.812 387.562H429.672C428.828 384.281 426.297 382.406 422.664 382.406C419.242 382.406 416.547 384.398 415.492 387.422H415.352V382.875H408.742V408ZM461.453 387.398C464.5 387.398 466.586 389.602 466.727 392.812H456.062C456.297 389.672 458.453 387.398 461.453 387.398ZM466.82 400.312C466.188 402.234 464.266 403.477 461.758 403.477C458.266 403.477 455.992 401.016 455.992 397.43V397.008H473.312V394.922C473.312 387.281 468.695 382.336 461.383 382.336C453.953 382.336 449.266 387.539 449.266 395.555C449.266 403.594 453.906 408.539 461.641 408.539C467.852 408.539 472.352 405.234 473.102 400.312H466.82ZM488.195 377.086V382.875H484.656V388.031H488.195V401.227C488.195 406.125 490.492 408.094 496.398 408.094C497.781 408.094 498.953 407.977 499.656 407.812V402.773C499.234 402.844 498.602 402.891 497.992 402.891C495.977 402.891 495.039 401.977 495.039 400.055V388.031H499.68V382.875H495.039V377.086H488.195ZM514.586 408.539C522.18 408.539 527.031 403.688 527.031 395.414C527.031 387.258 522.109 382.336 514.586 382.336C507.062 382.336 502.141 387.281 502.141 395.414C502.141 403.664 506.992 408.539 514.586 408.539ZM514.586 403.312C511.211 403.312 509.078 400.477 509.078 395.438C509.078 390.445 511.258 387.562 514.586 387.562C517.914 387.562 520.07 390.445 520.07 395.438C520.07 400.477 517.938 403.312 514.586 403.312ZM555.836 408V380.016H565.633V374.18H538.984V380.016H548.758V408H555.836ZM597.906 393.797V389.977H583.656V395.133H591.016L590.992 395.672C590.852 399.867 587.641 402.703 583.023 402.703C577.398 402.703 573.836 398.227 573.836 390.891C573.836 383.695 577.188 379.453 582.766 379.453C586.586 379.453 589.469 381.562 590.5 385.102H597.602C596.594 378.258 590.641 373.594 582.742 373.594C572.805 373.594 566.617 380.156 566.617 390.984C566.617 401.977 572.805 408.586 582.906 408.586C592.328 408.586 597.906 403.008 597.906 393.797ZM624.461 402.141H609.672V374.18H602.594V408H624.461V402.141ZM636.086 398.039C636.086 404.508 640.609 408.703 647.523 408.703C654.766 408.703 659.078 404.602 659.078 397.406V374.18H652V397.359C652 400.758 650.406 402.586 647.453 402.586C644.781 402.586 643 400.781 642.953 398.039H636.086ZM675.93 408.539C683.523 408.539 688.375 403.688 688.375 395.414C688.375 387.258 683.453 382.336 675.93 382.336C668.406 382.336 663.484 387.281 663.484 395.414C663.484 403.664 668.336 408.539 675.93 408.539ZM675.93 403.312C672.555 403.312 670.422 400.477 670.422 395.438C670.422 390.445 672.602 387.562 675.93 387.562C679.258 387.562 681.414 390.445 681.414 395.438C681.414 400.477 679.281 403.312 675.93 403.312ZM706.844 408.398C713.172 408.398 717.039 403.523 717.039 395.438C717.039 387.328 713.148 382.477 706.82 382.477C703.234 382.477 700.445 384.258 699.062 387.234H698.922V374.18H692.078V408H698.828V403.688H698.969C700.352 406.617 703.164 408.398 706.844 408.398ZM704.477 387.961C707.875 387.961 710.031 390.867 710.031 395.438C710.031 400.031 707.898 402.891 704.477 402.891C701.148 402.891 698.898 399.984 698.898 395.438C698.898 390.938 701.172 387.961 704.477 387.961ZM730.703 374.18V408H737.781V397.336H744.109C751.234 397.336 756.18 392.695 756.18 385.758C756.18 378.797 751.398 374.18 744.461 374.18H730.703ZM737.781 379.781H742.586C746.641 379.781 748.984 381.938 748.984 385.781C748.984 389.648 746.617 391.805 742.562 391.805H737.781V379.781ZM770.477 408.539C778.07 408.539 782.922 403.688 782.922 395.414C782.922 387.258 778 382.336 770.477 382.336C762.953 382.336 758.031 387.281 758.031 395.414C758.031 403.664 762.883 408.539 770.477 408.539ZM770.477 403.312C767.102 403.312 764.969 400.477 764.969 395.438C764.969 390.445 767.148 387.562 770.477 387.562C773.805 387.562 775.961 390.445 775.961 395.438C775.961 400.477 773.828 403.312 770.477 403.312ZM786.461 408H793.305V393.961C793.305 390.422 795.273 388.359 798.648 388.359C799.633 388.359 800.57 388.523 801.133 388.758V382.734C800.664 382.594 799.984 382.477 799.188 382.477C796.234 382.477 794.102 384.211 793.211 387.398H793.07V382.875H786.461V408ZM805.773 377.086V382.875H802.234V388.031H805.773V401.227C805.773 406.125 808.07 408.094 813.977 408.094C815.359 408.094 816.531 407.977 817.234 407.812V402.773C816.812 402.844 816.18 402.891 815.57 402.891C813.555 402.891 812.617 401.977 812.617 400.055V388.031H817.258V382.875H812.617V377.086H805.773ZM830.477 403.453C828.156 403.453 826.609 402.281 826.609 400.406C826.609 398.625 828.062 397.477 830.617 397.289L835.914 396.961V398.789C835.914 401.508 833.453 403.453 830.477 403.453ZM828.227 408.398C831.367 408.398 834.484 406.828 835.891 404.156H836.031V408H842.641V390.727C842.641 385.664 838.445 382.336 832 382.336C825.344 382.336 821.195 385.688 820.938 390.562H827.195C827.523 388.711 829.141 387.445 831.695 387.445C834.273 387.445 835.914 388.805 835.914 391.148V392.812L829.586 393.188C823.328 393.562 819.812 396.211 819.812 400.781C819.812 405.305 823.445 408.398 828.227 408.398ZM847.234 408H854.078V374.18H847.234V408ZM870.039 408H876.883V388.031H881.711V382.992H876.719V381.328C876.719 379.547 877.703 378.562 879.953 378.562C880.633 378.562 881.312 378.609 881.805 378.703V374.18C881.008 374.016 879.578 373.875 878.312 373.875C872.359 373.875 870.039 376.172 870.039 381.094V382.992H866.617V388.031H870.039V408ZM896.148 408.539C903.742 408.539 908.594 403.688 908.594 395.414C908.594 387.258 903.672 382.336 896.148 382.336C888.625 382.336 883.703 387.281 883.703 395.414C883.703 403.664 888.555 408.539 896.148 408.539ZM896.148 403.312C892.773 403.312 890.641 400.477 890.641 395.438C890.641 390.445 892.82 387.562 896.148 387.562C899.477 387.562 901.633 390.445 901.633 395.438C901.633 400.477 899.5 403.312 896.148 403.312ZM912.133 408H918.977V393.961C918.977 390.422 920.945 388.359 924.32 388.359C925.305 388.359 926.242 388.523 926.805 388.758V382.734C926.336 382.594 925.656 382.477 924.859 382.477C921.906 382.477 919.773 384.211 918.883 387.398H918.742V382.875H912.133V408ZM962.125 402.141H946.797V393.609H961.258V388.172H946.797V380.016H962.125V374.18H939.719V408H962.125V402.141ZM966.648 408H973.492V392.836C973.492 390.023 975.25 388.055 977.852 388.055C980.383 388.055 981.906 389.648 981.906 392.344V408H988.492V392.742C988.492 389.953 990.203 388.055 992.805 388.055C995.453 388.055 996.906 389.648 996.906 392.555V408H1003.75V390.844C1003.75 385.781 1000.45 382.406 995.523 382.406C991.844 382.406 988.844 384.398 987.719 387.562H987.578C986.734 384.281 984.203 382.406 980.57 382.406C977.148 382.406 974.453 384.398 973.398 387.422H973.258V382.875H966.648V408ZM1022.76 382.477C1019.12 382.477 1016.34 384.305 1014.98 387.258H1014.84V382.875H1008.09V416.203H1014.93V403.781H1015.07C1016.41 406.617 1019.22 408.398 1022.88 408.398C1029.16 408.398 1033.05 403.523 1033.05 395.438C1033.05 387.328 1029.13 382.477 1022.76 382.477ZM1020.46 402.891C1017.11 402.891 1014.91 399.984 1014.91 395.438C1014.91 390.938 1017.11 387.961 1020.46 387.961C1023.88 387.961 1026.04 390.891 1026.04 395.438C1026.04 400.008 1023.88 402.891 1020.46 402.891ZM1036.75 408H1043.59V374.18H1036.75V408ZM1059.74 408.539C1067.34 408.539 1072.19 403.688 1072.19 395.414C1072.19 387.258 1067.27 382.336 1059.74 382.336C1052.22 382.336 1047.3 387.281 1047.3 395.414C1047.3 403.664 1052.15 408.539 1059.74 408.539ZM1059.74 403.312C1056.37 403.312 1054.23 400.477 1054.23 395.438C1054.23 390.445 1056.41 387.562 1059.74 387.562C1063.07 387.562 1065.23 390.445 1065.23 395.438C1065.23 400.477 1063.09 403.312 1059.74 403.312ZM1078.33 417.305C1084.75 417.305 1087.89 415.008 1090.05 408.562L1098.7 382.875H1091.48L1086.13 402.516H1086.02L1080.67 382.875H1073.15L1081.89 408.023C1081.94 408.117 1081.68 409.125 1081.68 409.219C1081.21 411.211 1079.97 412.008 1077.46 412.008C1077.2 412.008 1075.96 412.008 1075.75 411.961V417.234C1075.96 417.281 1078.09 417.305 1078.33 417.305ZM1111.75 387.398C1114.8 387.398 1116.88 389.602 1117.02 392.812H1106.36C1106.59 389.672 1108.75 387.398 1111.75 387.398ZM1117.12 400.312C1116.48 402.234 1114.56 403.477 1112.05 403.477C1108.56 403.477 1106.29 401.016 1106.29 397.43V397.008H1123.61V394.922C1123.61 387.281 1118.99 382.336 1111.68 382.336C1104.25 382.336 1099.56 387.539 1099.56 395.555C1099.56 403.594 1104.2 408.539 1111.94 408.539C1118.15 408.539 1122.65 405.234 1123.4 400.312H1117.12ZM1127.15 408H1133.99V393.961C1133.99 390.422 1135.96 388.359 1139.34 388.359C1140.32 388.359 1141.26 388.523 1141.82 388.758V382.734C1141.35 382.594 1140.67 382.477 1139.88 382.477C1136.92 382.477 1134.79 384.211 1133.9 387.398H1133.76V382.875H1127.15V408ZM1144.21 390.258C1144.21 393.961 1146.65 396.445 1151.41 397.523L1156.05 398.555C1158.3 399.094 1159.14 399.797 1159.14 401.062C1159.14 402.703 1157.57 403.734 1154.97 403.734C1152.25 403.734 1150.59 402.516 1150.26 400.406H1143.58C1143.95 405.305 1148.08 408.539 1154.78 408.539C1161.41 408.539 1165.96 405.281 1165.96 400.336C1165.96 396.586 1163.92 394.594 1158.88 393.469L1154.08 392.438C1151.88 391.922 1150.8 391.078 1150.8 389.836C1150.8 388.219 1152.34 387.141 1154.71 387.141C1157.24 387.141 1158.86 388.383 1159 390.398H1165.3C1165.21 385.523 1161.11 382.336 1154.8 382.336C1148.36 382.336 1144.21 385.477 1144.21 390.258Z" fill="black"/>
<path d="M363.203 520V510.297L371.203 497.453H368L361.844 507.578H361.75L355.594 497.453H352.391L360.391 510.297V520H363.203ZM377.125 520.281C381.609 520.281 384.641 517.047 384.641 511.875C384.641 506.688 381.609 503.469 377.125 503.469C372.625 503.469 369.594 506.688 369.594 511.875C369.594 517.047 372.625 520.281 377.125 520.281ZM377.125 517.891C374.25 517.891 372.359 515.703 372.359 511.875C372.359 508.047 374.25 505.859 377.125 505.859C380 505.859 381.875 508.047 381.875 511.875C381.875 515.703 380 517.891 377.125 517.891ZM400.734 503.75H398.016V513.297C398.016 516.062 396.422 517.875 393.781 517.875C391.266 517.875 390.031 516.453 390.031 513.812V503.75H387.312V514.297C387.312 517.984 389.391 520.281 392.938 520.281C395.438 520.281 397.125 519.234 398.094 517.359H398.156V520H400.734V503.75ZM410.969 520H413.688V510.531C413.688 507.719 415.359 505.875 418.062 505.875C420.609 505.875 421.906 507.422 421.906 510V520H424.625V509.5C424.625 505.875 422.469 503.469 418.906 503.469C416.438 503.469 414.656 504.531 413.75 506.344H413.688V497.453H410.969V520ZM433.438 517.969C431.484 517.969 430.188 516.953 430.188 515.406C430.188 513.875 431.438 512.906 433.625 512.766L437.969 512.5V513.828C437.969 516.172 436 517.969 433.438 517.969ZM432.828 520.281C435.016 520.281 437.078 519.062 438.047 517.203H438.109V520H440.688V508.766C440.688 505.531 438.281 503.469 434.469 503.469C430.625 503.469 428.219 505.625 428.031 508.438H430.656C431 506.844 432.312 505.859 434.406 505.859C436.656 505.859 437.969 507.047 437.969 509.031V510.391L433.312 510.656C429.562 510.875 427.422 512.625 427.422 515.406C427.422 518.328 429.594 520.281 432.828 520.281ZM457.469 503.75H454.641L450.141 517.109H450.078L445.594 503.75H442.734L448.719 520H451.5L457.469 503.75ZM465.656 505.828C468.219 505.828 469.922 507.766 469.984 510.484H461.156C461.328 507.781 463.109 505.828 465.656 505.828ZM469.922 515.344C469.469 516.875 467.953 517.922 465.891 517.922C462.969 517.922 461.141 515.875 461.141 512.766V512.609H472.797V511.578C472.797 506.656 470.094 503.469 465.703 503.469C461.219 503.469 458.344 506.891 458.344 511.938C458.344 517.047 461.172 520.281 465.828 520.281C469.375 520.281 472.125 518.188 472.594 515.344H469.922ZM475.547 520H478.266V510.438C478.266 507.688 479.938 505.875 482.5 505.875C485 505.875 486.234 507.312 486.234 509.938V520H488.953V509.453C488.953 505.766 486.891 503.469 483.328 503.469C480.812 503.469 479.078 504.594 478.172 506.344H478.109V503.75H475.547V520ZM493.516 505.406L495.656 497.453H492.766L491.25 505.406H493.516ZM500.297 499.828V503.75H497.875V505.984H500.297V515.781C500.297 518.906 501.453 520.125 504.438 520.125C505.078 520.125 505.828 520.078 506.156 520V517.719C505.969 517.75 505.344 517.797 505.031 517.797C503.641 517.797 503.016 517.125 503.016 515.641V505.984H506.172V503.75H503.016V499.828H500.297ZM523.531 503.469C521.172 503.469 519.281 504.672 518.281 506.5H518.219V503.75H515.641V525.422H518.359V517.359H518.422C519.391 519.141 521.266 520.281 523.594 520.281C527.688 520.281 530.484 516.969 530.484 511.875C530.484 506.781 527.672 503.469 523.531 503.469ZM523 517.891C520.219 517.891 518.344 515.5 518.344 511.875C518.344 508.266 520.219 505.859 523 505.859C525.891 505.859 527.703 508.203 527.703 511.875C527.703 515.562 525.891 517.891 523 517.891ZM539.969 520.281C544.453 520.281 547.484 517.047 547.484 511.875C547.484 506.688 544.453 503.469 539.969 503.469C535.469 503.469 532.438 506.688 532.438 511.875C532.438 517.047 535.469 520.281 539.969 520.281ZM539.969 517.891C537.094 517.891 535.203 515.703 535.203 511.875C535.203 508.047 537.094 505.859 539.969 505.859C542.844 505.859 544.719 508.047 544.719 511.875C544.719 515.703 542.844 517.891 539.969 517.891ZM549.953 508.234C549.953 510.453 551.359 511.922 554.219 512.656L557.078 513.391C558.906 513.875 559.578 514.5 559.578 515.656C559.578 517.125 558.219 518.062 556.016 518.062C553.812 518.062 552.531 517.156 552.234 515.469H549.516C549.797 518.344 552.281 520.281 555.844 520.281C559.641 520.281 562.312 518.281 562.312 515.453C562.312 513.062 561.125 511.875 557.844 511.047L555.328 510.438C553.484 509.969 552.625 509.219 552.625 508.094C552.625 506.672 553.938 505.688 555.922 505.688C557.922 505.688 559.188 506.656 559.375 508.219H561.969C561.844 505.469 559.375 503.469 556.016 503.469C552.438 503.469 549.953 505.453 549.953 508.234ZM566.016 499.828V503.75H563.594V505.984H566.016V515.781C566.016 518.906 567.172 520.125 570.156 520.125C570.797 520.125 571.547 520.078 571.875 520V517.719C571.688 517.75 571.062 517.797 570.75 517.797C569.359 517.797 568.734 517.125 568.734 515.641V505.984H571.891V503.75H568.734V499.828H566.016ZM580.844 505.828C583.406 505.828 585.109 507.766 585.172 510.484H576.344C576.516 507.781 578.297 505.828 580.844 505.828ZM585.109 515.344C584.656 516.875 583.141 517.922 581.078 517.922C578.156 517.922 576.328 515.875 576.328 512.766V512.609H587.984V511.578C587.984 506.656 585.281 503.469 580.891 503.469C576.406 503.469 573.531 506.891 573.531 511.938C573.531 517.047 576.359 520.281 581.016 520.281C584.562 520.281 587.312 518.188 587.781 515.344H585.109ZM596.891 520.281C599.234 520.281 601.094 519.125 602.141 517.25H602.188V520H604.781V497.453H602.062V506.391H602C601.031 504.609 599.156 503.469 596.828 503.469C592.734 503.469 589.938 506.781 589.938 511.875C589.938 516.969 592.75 520.281 596.891 520.281ZM597.406 505.859C600.203 505.859 602.078 508.25 602.078 511.875C602.078 515.516 600.203 517.891 597.406 517.891C594.531 517.891 592.719 515.562 592.719 511.875C592.719 508.203 594.531 505.859 597.406 505.859ZM615.891 520H618.609V505.984H621.922V503.75H618.594V501.953C618.594 500.344 619.297 499.562 620.766 499.562C621.219 499.562 621.672 499.609 622 499.656V497.453C621.609 497.391 620.953 497.328 620.344 497.328C617.344 497.328 615.891 498.812 615.891 501.938V503.75H613.625V505.984H615.891V520ZM624.734 520H627.453V509.875C627.453 507.578 628.828 506.062 630.938 506.062C631.594 506.062 632.172 506.141 632.391 506.219V503.578C632.172 503.547 631.766 503.469 631.297 503.469C629.391 503.469 627.891 504.609 627.359 506.406H627.297V503.75H624.734V520ZM640.562 520.281C645.047 520.281 648.078 517.047 648.078 511.875C648.078 506.688 645.047 503.469 640.562 503.469C636.062 503.469 633.031 506.688 633.031 511.875C633.031 517.047 636.062 520.281 640.562 520.281ZM640.562 517.891C637.688 517.891 635.797 515.703 635.797 511.875C635.797 508.047 637.688 505.859 640.562 505.859C643.438 505.859 645.312 508.047 645.312 511.875C645.312 515.703 643.438 517.891 640.562 517.891ZM650.828 520H653.547V509.812C653.547 507.562 655.109 505.875 657.266 505.875C659.281 505.875 660.594 507.156 660.594 509.109V520H663.312V509.672C663.312 507.469 664.828 505.875 666.984 505.875C669.125 505.875 670.359 507.188 670.359 509.406V520H673.078V508.781C673.078 505.562 671 503.469 667.781 503.469C665.5 503.469 663.594 504.625 662.688 506.562H662.625C661.922 504.594 660.281 503.469 658.062 503.469C655.875 503.469 654.219 504.625 653.453 506.344H653.391V503.75H650.828V520ZM683.984 499.828V503.75H681.562V505.984H683.984V515.781C683.984 518.906 685.141 520.125 688.125 520.125C688.766 520.125 689.516 520.078 689.844 520V517.719C689.656 517.75 689.031 517.797 688.719 517.797C687.328 517.797 686.703 517.125 686.703 515.641V505.984H689.859V503.75H686.703V499.828H683.984ZM692.906 520H695.625V510.531C695.625 507.719 697.297 505.875 700 505.875C702.547 505.875 703.844 507.422 703.844 510V520H706.562V509.5C706.562 505.875 704.406 503.469 700.844 503.469C698.375 503.469 696.594 504.531 695.688 506.344H695.625V497.453H692.906V520ZM710.156 520H712.875V503.75H710.156V520ZM711.516 501.016C712.453 501.016 713.219 500.25 713.219 499.328C713.219 498.391 712.453 497.641 711.516 497.641C710.594 497.641 709.828 498.391 709.828 499.328C709.828 500.25 710.594 501.016 711.516 501.016ZM716.266 508.234C716.266 510.453 717.672 511.922 720.531 512.656L723.391 513.391C725.219 513.875 725.891 514.5 725.891 515.656C725.891 517.125 724.531 518.062 722.328 518.062C720.125 518.062 718.844 517.156 718.547 515.469H715.828C716.109 518.344 718.594 520.281 722.156 520.281C725.953 520.281 728.625 518.281 728.625 515.453C728.625 513.062 727.438 511.875 724.156 511.047L721.641 510.438C719.797 509.969 718.938 509.219 718.938 508.094C718.938 506.672 720.25 505.688 722.234 505.688C724.234 505.688 725.5 506.656 725.688 508.219H728.281C728.156 505.469 725.688 503.469 722.328 503.469C718.75 503.469 716.266 505.453 716.266 508.234ZM743.375 517.969C741.422 517.969 740.125 516.953 740.125 515.406C740.125 513.875 741.375 512.906 743.562 512.766L747.906 512.5V513.828C747.906 516.172 745.938 517.969 743.375 517.969ZM742.766 520.281C744.953 520.281 747.016 519.062 747.984 517.203H748.047V520H750.625V508.766C750.625 505.531 748.219 503.469 744.406 503.469C740.562 503.469 738.156 505.625 737.969 508.438H740.594C740.938 506.844 742.25 505.859 744.344 505.859C746.594 505.859 747.906 507.047 747.906 509.031V510.391L743.25 510.656C739.5 510.875 737.359 512.625 737.359 515.406C737.359 518.328 739.531 520.281 742.766 520.281ZM767.578 509.078C767.234 506.156 764.812 503.469 760.75 503.469C756.266 503.469 753.281 506.75 753.281 511.875C753.281 517.109 756.281 520.281 760.781 520.281C764.469 520.281 767.188 518 767.609 514.766H764.938C764.469 516.719 763.016 517.891 760.797 517.891C757.984 517.891 756.047 515.656 756.047 511.875C756.047 508.188 757.953 505.859 760.766 505.859C763.156 505.859 764.531 507.312 764.922 509.078H767.578ZM783.609 509.078C783.266 506.156 780.844 503.469 776.781 503.469C772.297 503.469 769.312 506.75 769.312 511.875C769.312 517.109 772.312 520.281 776.812 520.281C780.5 520.281 783.219 518 783.641 514.766H780.969C780.5 516.719 779.047 517.891 776.828 517.891C774.016 517.891 772.078 515.656 772.078 511.875C772.078 508.188 773.984 505.859 776.797 505.859C779.188 505.859 780.562 507.312 780.953 509.078H783.609ZM792.875 520.281C797.359 520.281 800.391 517.047 800.391 511.875C800.391 506.688 797.359 503.469 792.875 503.469C788.375 503.469 785.344 506.688 785.344 511.875C785.344 517.047 788.375 520.281 792.875 520.281ZM792.875 517.891C790 517.891 788.109 515.703 788.109 511.875C788.109 508.047 790 505.859 792.875 505.859C795.75 505.859 797.625 508.047 797.625 511.875C797.625 515.703 795.75 517.891 792.875 517.891ZM816.484 503.75H813.766V513.297C813.766 516.062 812.172 517.875 809.531 517.875C807.016 517.875 805.781 516.453 805.781 513.812V503.75H803.062V514.297C803.062 517.984 805.141 520.281 808.688 520.281C811.188 520.281 812.875 519.234 813.844 517.359H813.906V520H816.484V503.75ZM820.016 520H822.734V510.438C822.734 507.688 824.406 505.875 826.969 505.875C829.469 505.875 830.703 507.312 830.703 509.938V520H833.422V509.453C833.422 505.766 831.359 503.469 827.797 503.469C825.281 503.469 823.547 504.594 822.641 506.344H822.578V503.75H820.016V520ZM837.766 499.828V503.75H835.344V505.984H837.766V515.781C837.766 518.906 838.922 520.125 841.906 520.125C842.547 520.125 843.297 520.078 843.625 520V517.719C843.438 517.75 842.812 517.797 842.5 517.797C841.109 517.797 840.484 517.125 840.484 515.641V505.984H843.641V503.75H840.484V499.828H837.766ZM867.219 517.469H856.344V497.453H853.531V520H867.219V517.469ZM875.938 505.828C878.5 505.828 880.203 507.766 880.266 510.484H871.438C871.609 507.781 873.391 505.828 875.938 505.828ZM880.203 515.344C879.75 516.875 878.234 517.922 876.172 517.922C873.25 517.922 871.422 515.875 871.422 512.766V512.609H883.078V511.578C883.078 506.656 880.375 503.469 875.984 503.469C871.5 503.469 868.625 506.891 868.625 511.938C868.625 517.047 871.453 520.281 876.109 520.281C879.656 520.281 882.406 518.188 882.875 515.344H880.203ZM886.703 499.828V503.75H884.281V505.984H886.703V515.781C886.703 518.906 887.859 520.125 890.844 520.125C891.484 520.125 892.234 520.078 892.562 520V517.719C892.375 517.75 891.75 517.797 891.438 517.797C890.047 517.797 889.422 517.125 889.422 515.641V505.984H892.578V503.75H889.422V499.828H886.703ZM915.391 503.75H912.672V513.297C912.672 516.062 911.078 517.875 908.438 517.875C905.922 517.875 904.688 516.453 904.688 513.812V503.75H901.969V514.297C901.969 517.984 904.047 520.281 907.594 520.281C910.094 520.281 911.781 519.234 912.75 517.359H912.812V520H915.391V503.75ZM918.641 508.234C918.641 510.453 920.047 511.922 922.906 512.656L925.766 513.391C927.594 513.875 928.266 514.5 928.266 515.656C928.266 517.125 926.906 518.062 924.703 518.062C922.5 518.062 921.219 517.156 920.922 515.469H918.203C918.484 518.344 920.969 520.281 924.531 520.281C928.328 520.281 931 518.281 931 515.453C931 513.062 929.812 511.875 926.531 511.047L924.016 510.438C922.172 509.969 921.312 509.219 921.312 508.094C921.312 506.672 922.625 505.688 924.609 505.688C926.609 505.688 927.875 506.656 928.062 508.219H930.656C930.531 505.469 928.062 503.469 924.703 503.469C921.125 503.469 918.641 505.453 918.641 508.234ZM947 517.734C944.203 517.734 942.375 515.453 942.375 511.812C942.375 508.172 944.203 505.859 947 505.859C949.828 505.859 951.719 508.234 951.719 511.812C951.719 515.391 949.828 517.734 947 517.734ZM947.094 526.125C951.578 526.125 954.438 523.547 954.438 519.672V503.75H951.844V506.484H951.797C950.719 504.594 948.812 503.469 946.516 503.469C942.312 503.469 939.594 506.719 939.594 511.812C939.594 516.859 942.312 520.125 946.453 520.125C948.734 520.125 950.656 518.969 951.656 517.203H951.719V519.766C951.719 522.188 950.016 523.812 947.203 523.812C945.172 523.812 943.562 522.828 943.031 521.344H940.234C940.688 524.109 943.516 526.125 947.094 526.125ZM964.5 505.828C967.062 505.828 968.766 507.766 968.828 510.484H960C960.172 507.781 961.953 505.828 964.5 505.828ZM968.766 515.344C968.312 516.875 966.797 517.922 964.734 517.922C961.812 517.922 959.984 515.875 959.984 512.766V512.609H971.641V511.578C971.641 506.656 968.938 503.469 964.547 503.469C960.062 503.469 957.188 506.891 957.188 511.938C957.188 517.047 960.016 520.281 964.672 520.281C968.219 520.281 970.969 518.188 971.438 515.344H968.766ZM975.266 499.828V503.75H972.844V505.984H975.266V515.781C975.266 518.906 976.422 520.125 979.406 520.125C980.047 520.125 980.797 520.078 981.125 520V517.719C980.938 517.75 980.312 517.797 980 517.797C978.609 517.797 977.984 517.125 977.984 515.641V505.984H981.141V503.75H977.984V499.828H975.266ZM989.953 513.797C990.219 517.781 993.531 520.375 998.312 520.375C1003.5 520.375 1006.75 517.797 1006.75 513.672C1006.75 510.438 1004.86 508.641 1000.19 507.469L997.828 506.844C994.766 506.047 993.516 505.031 993.516 503.328C993.516 501.125 995.547 499.609 998.469 499.609C1001.41 499.609 1003.36 501.094 1003.61 503.516H1006.42C1006.3 499.734 1003.05 497.078 998.562 497.078C993.875 497.078 990.594 499.703 990.594 503.453C990.594 506.516 992.438 508.344 996.594 509.406L999.484 510.156C1002.52 510.938 1003.84 512.109 1003.84 514.016C1003.84 516.234 1001.62 517.844 998.578 517.844C995.359 517.844 993.047 516.234 992.781 513.797H989.953ZM1010.48 499.828V503.75H1008.06V505.984H1010.48V515.781C1010.48 518.906 1011.64 520.125 1014.62 520.125C1015.27 520.125 1016.02 520.078 1016.34 520V517.719C1016.16 517.75 1015.53 517.797 1015.22 517.797C1013.83 517.797 1013.2 517.125 1013.2 515.641V505.984H1016.36V503.75H1013.2V499.828H1010.48ZM1024.31 517.969C1022.36 517.969 1021.06 516.953 1021.06 515.406C1021.06 513.875 1022.31 512.906 1024.5 512.766L1028.84 512.5V513.828C1028.84 516.172 1026.88 517.969 1024.31 517.969ZM1023.7 520.281C1025.89 520.281 1027.95 519.062 1028.92 517.203H1028.98V520H1031.56V508.766C1031.56 505.531 1029.16 503.469 1025.34 503.469C1021.5 503.469 1019.09 505.625 1018.91 508.438H1021.53C1021.88 506.844 1023.19 505.859 1025.28 505.859C1027.53 505.859 1028.84 507.047 1028.84 509.031V510.391L1024.19 510.656C1020.44 510.875 1018.3 512.625 1018.3 515.406C1018.3 518.328 1020.47 520.281 1023.7 520.281ZM1035.02 520H1037.73V509.875C1037.73 507.578 1039.11 506.062 1041.22 506.062C1041.88 506.062 1042.45 506.141 1042.67 506.219V503.578C1042.45 503.547 1042.05 503.469 1041.58 503.469C1039.67 503.469 1038.17 504.609 1037.64 506.406H1037.58V503.75H1035.02V520ZM1045.77 499.828V503.75H1043.34V505.984H1045.77V515.781C1045.77 518.906 1046.92 520.125 1049.91 520.125C1050.55 520.125 1051.3 520.078 1051.62 520V517.719C1051.44 517.75 1050.81 517.797 1050.5 517.797C1049.11 517.797 1048.48 517.125 1048.48 515.641V505.984H1051.64V503.75H1048.48V499.828H1045.77ZM1060.59 505.828C1063.16 505.828 1064.86 507.766 1064.92 510.484H1056.09C1056.27 507.781 1058.05 505.828 1060.59 505.828ZM1064.86 515.344C1064.41 516.875 1062.89 517.922 1060.83 517.922C1057.91 517.922 1056.08 515.875 1056.08 512.766V512.609H1067.73V511.578C1067.73 506.656 1065.03 503.469 1060.64 503.469C1056.16 503.469 1053.28 506.891 1053.28 511.938C1053.28 517.047 1056.11 520.281 1060.77 520.281C1064.31 520.281 1067.06 518.188 1067.53 515.344H1064.86ZM1076.64 520.281C1078.98 520.281 1080.84 519.125 1081.89 517.25H1081.94V520H1084.53V497.453H1081.81V506.391H1081.75C1080.78 504.609 1078.91 503.469 1076.58 503.469C1072.48 503.469 1069.69 506.781 1069.69 511.875C1069.69 516.969 1072.5 520.281 1076.64 520.281ZM1077.16 505.859C1079.95 505.859 1081.83 508.25 1081.83 511.875C1081.83 515.516 1079.95 517.891 1077.16 517.891C1074.28 517.891 1072.47 515.562 1072.47 511.875C1072.47 508.203 1074.28 505.859 1077.16 505.859Z" fill="#7C7C7C"/>
<rect x="461" y="599" width="518" height="62" rx="16" fill="#1967D2"/>
<path d="M519.852 626H517.386C517.241 625.291 516.985 624.668 516.621 624.131C516.263 623.594 515.825 623.143 515.308 622.778C514.798 622.407 514.231 622.129 513.608 621.943C512.985 621.758 512.335 621.665 511.659 621.665C510.426 621.665 509.309 621.976 508.308 622.599C507.314 623.223 506.522 624.141 505.932 625.354C505.348 626.567 505.057 628.055 505.057 629.818C505.057 631.581 505.348 633.07 505.932 634.283C506.522 635.496 507.314 636.414 508.308 637.037C509.309 637.66 510.426 637.972 511.659 637.972C512.335 637.972 512.985 637.879 513.608 637.693C514.231 637.508 514.798 637.232 515.308 636.868C515.825 636.497 516.263 636.043 516.621 635.506C516.985 634.962 517.241 634.339 517.386 633.636H519.852C519.667 634.677 519.329 635.608 518.838 636.43C518.348 637.252 517.738 637.952 517.009 638.528C516.279 639.098 515.461 639.533 514.553 639.831C513.651 640.129 512.687 640.278 511.659 640.278C509.922 640.278 508.378 639.854 507.026 639.006C505.673 638.157 504.609 636.951 503.834 635.386C503.058 633.822 502.67 631.966 502.67 629.818C502.67 627.67 503.058 625.814 503.834 624.25C504.609 622.686 505.673 621.479 507.026 620.631C508.378 619.782 509.922 619.358 511.659 619.358C512.687 619.358 513.651 619.507 514.553 619.805C515.461 620.104 516.279 620.541 517.009 621.118C517.738 621.688 518.348 622.384 518.838 623.206C519.329 624.021 519.667 624.953 519.852 626ZM523.519 640V624.727H525.786V627.034H525.945C526.223 626.278 526.727 625.665 527.456 625.195C528.185 624.724 529.007 624.489 529.922 624.489C530.095 624.489 530.31 624.492 530.569 624.499C530.827 624.505 531.023 624.515 531.155 624.528V626.915C531.076 626.895 530.893 626.865 530.608 626.825C530.33 626.779 530.035 626.756 529.723 626.756C528.981 626.756 528.318 626.911 527.735 627.223C527.158 627.528 526.701 627.952 526.363 628.496C526.031 629.033 525.865 629.646 525.865 630.335V640H523.519ZM539.875 640.318C538.404 640.318 537.134 639.993 536.067 639.344C535.007 638.688 534.188 637.773 533.611 636.599C533.041 635.42 532.756 634.047 532.756 632.483C532.756 630.919 533.041 629.54 533.611 628.347C534.188 627.147 534.99 626.212 536.017 625.543C537.051 624.866 538.258 624.528 539.637 624.528C540.432 624.528 541.218 624.661 541.993 624.926C542.769 625.191 543.475 625.622 544.111 626.219C544.748 626.809 545.255 627.591 545.632 628.565C546.01 629.54 546.199 630.74 546.199 632.165V633.159H534.426V631.131H543.813C543.813 630.269 543.641 629.5 543.296 628.824C542.958 628.148 542.474 627.614 541.844 627.223C541.221 626.832 540.485 626.636 539.637 626.636C538.702 626.636 537.893 626.868 537.211 627.332C536.534 627.79 536.014 628.386 535.65 629.122C535.285 629.858 535.103 630.647 535.103 631.489V632.841C535.103 633.994 535.301 634.972 535.699 635.774C536.104 636.57 536.664 637.176 537.38 637.594C538.096 638.005 538.927 638.21 539.875 638.21C540.492 638.21 541.049 638.124 541.546 637.952C542.05 637.773 542.484 637.508 542.848 637.156C543.213 636.798 543.495 636.354 543.694 635.824L545.961 636.46C545.722 637.229 545.321 637.905 544.757 638.489C544.194 639.065 543.498 639.516 542.669 639.841C541.841 640.159 540.909 640.318 539.875 640.318ZM554.263 640.358C553.295 640.358 552.417 640.176 551.628 639.811C550.839 639.44 550.213 638.906 549.749 638.21C549.285 637.508 549.053 636.659 549.053 635.665C549.053 634.79 549.225 634.08 549.57 633.537C549.915 632.987 550.375 632.556 550.952 632.244C551.529 631.933 552.165 631.701 552.861 631.548C553.564 631.389 554.27 631.263 554.979 631.17C555.907 631.051 556.659 630.962 557.236 630.902C557.819 630.836 558.244 630.726 558.509 630.574C558.781 630.421 558.917 630.156 558.917 629.778V629.699C558.917 628.718 558.648 627.955 558.111 627.412C557.581 626.868 556.775 626.597 555.695 626.597C554.575 626.597 553.696 626.842 553.06 627.332C552.424 627.823 551.976 628.347 551.718 628.903L549.49 628.108C549.888 627.18 550.418 626.457 551.081 625.94C551.751 625.417 552.48 625.052 553.269 624.847C554.064 624.634 554.846 624.528 555.615 624.528C556.106 624.528 556.669 624.588 557.306 624.707C557.949 624.82 558.569 625.055 559.165 625.413C559.768 625.771 560.269 626.312 560.667 627.034C561.064 627.757 561.263 628.724 561.263 629.938V640H558.917V637.932H558.797C558.638 638.263 558.373 638.618 558.002 638.996C557.631 639.374 557.137 639.695 556.52 639.96C555.904 640.225 555.151 640.358 554.263 640.358ZM554.621 638.25C555.549 638.25 556.331 638.068 556.968 637.703C557.611 637.339 558.095 636.868 558.419 636.291C558.751 635.714 558.917 635.108 558.917 634.472V632.324C558.817 632.443 558.598 632.553 558.26 632.652C557.929 632.745 557.544 632.828 557.107 632.901C556.676 632.967 556.255 633.027 555.844 633.08C555.44 633.126 555.112 633.166 554.86 633.199C554.25 633.278 553.68 633.408 553.15 633.587C552.626 633.759 552.202 634.021 551.877 634.372C551.559 634.717 551.4 635.187 551.4 635.784C551.4 636.599 551.701 637.216 552.304 637.634C552.914 638.045 553.686 638.25 554.621 638.25ZM572.188 624.727V626.716H564.273V624.727H572.188ZM566.58 621.068H568.927V635.625C568.927 636.288 569.023 636.785 569.215 637.116C569.414 637.441 569.666 637.66 569.971 637.773C570.282 637.879 570.611 637.932 570.955 637.932C571.214 637.932 571.426 637.919 571.592 637.892C571.757 637.859 571.89 637.832 571.989 637.812L572.467 639.92C572.308 639.98 572.085 640.04 571.8 640.099C571.515 640.166 571.154 640.199 570.717 640.199C570.054 640.199 569.404 640.056 568.768 639.771C568.138 639.486 567.614 639.052 567.197 638.469C566.786 637.885 566.58 637.15 566.58 636.261V621.068ZM581.957 640.318C580.486 640.318 579.216 639.993 578.149 639.344C577.089 638.688 576.27 637.773 575.693 636.599C575.123 635.42 574.838 634.047 574.838 632.483C574.838 630.919 575.123 629.54 575.693 628.347C576.27 627.147 577.072 626.212 578.099 625.543C579.134 624.866 580.34 624.528 581.719 624.528C582.514 624.528 583.3 624.661 584.075 624.926C584.851 625.191 585.557 625.622 586.193 626.219C586.83 626.809 587.337 627.591 587.714 628.565C588.092 629.54 588.281 630.74 588.281 632.165V633.159H576.509V631.131H585.895C585.895 630.269 585.723 629.5 585.378 628.824C585.04 628.148 584.556 627.614 583.926 627.223C583.303 626.832 582.567 626.636 581.719 626.636C580.784 626.636 579.975 626.868 579.293 627.332C578.616 627.79 578.096 628.386 577.732 629.122C577.367 629.858 577.185 630.647 577.185 631.489V632.841C577.185 633.994 577.384 634.972 577.781 635.774C578.186 636.57 578.746 637.176 579.462 637.594C580.178 638.005 581.009 638.21 581.957 638.21C582.574 638.21 583.131 638.124 583.628 637.952C584.132 637.773 584.566 637.508 584.93 637.156C585.295 636.798 585.577 636.354 585.776 635.824L588.043 636.46C587.804 637.229 587.403 637.905 586.839 638.489C586.276 639.065 585.58 639.516 584.751 639.841C583.923 640.159 582.991 640.318 581.957 640.318ZM598.294 619.636H601.118L606.766 629.142H607.004L612.652 619.636H615.476L608.118 631.608V640H605.652V631.608L598.294 619.636ZM622.391 640.318C621.013 640.318 619.803 639.99 618.762 639.334C617.728 638.678 616.919 637.759 616.336 636.58C615.759 635.4 615.471 634.021 615.471 632.443C615.471 630.852 615.759 629.464 616.336 628.277C616.919 627.09 617.728 626.169 618.762 625.513C619.803 624.857 621.013 624.528 622.391 624.528C623.77 624.528 624.977 624.857 626.011 625.513C627.051 626.169 627.86 627.09 628.437 628.277C629.02 629.464 629.312 630.852 629.312 632.443C629.312 634.021 629.02 635.4 628.437 636.58C627.86 637.759 627.051 638.678 626.011 639.334C624.977 639.99 623.77 640.318 622.391 640.318ZM622.391 638.21C623.439 638.21 624.3 637.942 624.977 637.405C625.653 636.868 626.153 636.162 626.478 635.287C626.803 634.412 626.965 633.464 626.965 632.443C626.965 631.422 626.803 630.471 626.478 629.589C626.153 628.708 625.653 627.995 624.977 627.452C624.3 626.908 623.439 626.636 622.391 626.636C621.344 626.636 620.482 626.908 619.806 627.452C619.13 627.995 618.629 628.708 618.305 629.589C617.98 630.471 617.817 631.422 617.817 632.443C617.817 633.464 617.98 634.412 618.305 635.287C618.629 636.162 619.13 636.868 619.806 637.405C620.482 637.942 621.344 638.21 622.391 638.21ZM642.519 633.756V624.727H644.865V640H642.519V637.415H642.36C642.002 638.19 641.445 638.85 640.689 639.393C639.934 639.93 638.979 640.199 637.826 640.199C636.871 640.199 636.023 639.99 635.28 639.572C634.538 639.148 633.954 638.512 633.53 637.663C633.106 636.808 632.894 635.731 632.894 634.432V624.727H635.24V634.273C635.24 635.386 635.552 636.275 636.175 636.938C636.805 637.6 637.607 637.932 638.581 637.932C639.165 637.932 639.758 637.783 640.361 637.484C640.971 637.186 641.481 636.729 641.892 636.112C642.31 635.496 642.519 634.71 642.519 633.756ZM649.163 640V624.727H651.43V627.034H651.589C651.868 626.278 652.372 625.665 653.101 625.195C653.83 624.724 654.652 624.489 655.567 624.489C655.739 624.489 655.955 624.492 656.213 624.499C656.472 624.505 656.667 624.515 656.8 624.528V626.915C656.72 626.895 656.538 626.865 656.253 626.825C655.974 626.779 655.679 626.756 655.368 626.756C654.625 626.756 653.963 626.911 653.379 627.223C652.803 627.528 652.345 627.952 652.007 628.496C651.676 629.033 651.51 629.646 651.51 630.335V640H649.163ZM675.57 619.636H678.036V634.193C678.036 635.492 677.797 636.596 677.32 637.504C676.843 638.412 676.17 639.102 675.301 639.572C674.433 640.043 673.409 640.278 672.229 640.278C671.115 640.278 670.124 640.076 669.256 639.672C668.388 639.261 667.705 638.678 667.208 637.922C666.711 637.166 666.462 636.268 666.462 635.227H668.888C668.888 635.804 669.031 636.308 669.316 636.739C669.607 637.163 670.005 637.494 670.509 637.733C671.013 637.972 671.586 638.091 672.229 638.091C672.938 638.091 673.542 637.942 674.039 637.643C674.536 637.345 674.914 636.908 675.172 636.331C675.437 635.748 675.57 635.035 675.57 634.193V619.636ZM688.864 640.318C687.485 640.318 686.275 639.99 685.235 639.334C684.201 638.678 683.392 637.759 682.809 636.58C682.232 635.4 681.944 634.021 681.944 632.443C681.944 630.852 682.232 629.464 682.809 628.277C683.392 627.09 684.201 626.169 685.235 625.513C686.275 624.857 687.485 624.528 688.864 624.528C690.243 624.528 691.449 624.857 692.483 625.513C693.524 626.169 694.333 627.09 694.909 628.277C695.493 629.464 695.784 630.852 695.784 632.443C695.784 634.021 695.493 635.4 694.909 636.58C694.333 637.759 693.524 638.678 692.483 639.334C691.449 639.99 690.243 640.318 688.864 640.318ZM688.864 638.21C689.911 638.21 690.773 637.942 691.449 637.405C692.125 636.868 692.626 636.162 692.951 635.287C693.275 634.412 693.438 633.464 693.438 632.443C693.438 631.422 693.275 630.471 692.951 629.589C692.626 628.708 692.125 627.995 691.449 627.452C690.773 626.908 689.911 626.636 688.864 626.636C687.817 626.636 686.955 626.908 686.279 627.452C685.603 627.995 685.102 628.708 684.777 629.589C684.453 630.471 684.29 631.422 684.29 632.443C684.29 633.464 684.453 634.412 684.777 635.287C685.102 636.162 685.603 636.868 686.279 637.405C686.955 637.942 687.817 638.21 688.864 638.21ZM699.685 640V619.636H702.031V627.153H702.23C702.402 626.888 702.641 626.55 702.946 626.139C703.258 625.722 703.702 625.35 704.278 625.026C704.862 624.694 705.651 624.528 706.645 624.528C707.931 624.528 709.064 624.85 710.045 625.493C711.027 626.136 711.792 627.047 712.342 628.227C712.893 629.407 713.168 630.799 713.168 632.403C713.168 634.021 712.893 635.423 712.342 636.609C711.792 637.789 711.03 638.704 710.055 639.354C709.081 639.997 707.957 640.318 706.685 640.318C705.704 640.318 704.918 640.156 704.328 639.831C703.738 639.5 703.284 639.125 702.966 638.707C702.648 638.283 702.402 637.932 702.23 637.653H701.952V640H699.685ZM701.991 632.364C701.991 633.517 702.161 634.535 702.499 635.416C702.837 636.291 703.33 636.977 703.98 637.474C704.63 637.965 705.425 638.21 706.366 638.21C707.348 638.21 708.166 637.952 708.822 637.435C709.485 636.911 709.982 636.208 710.314 635.327C710.652 634.438 710.821 633.451 710.821 632.364C710.821 631.29 710.655 630.322 710.324 629.46C709.999 628.592 709.505 627.906 708.842 627.402C708.186 626.892 707.361 626.636 706.366 626.636C705.412 626.636 704.61 626.878 703.96 627.362C703.311 627.839 702.82 628.509 702.489 629.371C702.157 630.226 701.991 631.223 701.991 632.364ZM724.632 645.727V624.727H726.899V627.153H727.178C727.35 626.888 727.589 626.55 727.893 626.139C728.205 625.722 728.649 625.35 729.226 625.026C729.809 624.694 730.598 624.528 731.592 624.528C732.878 624.528 734.012 624.85 734.993 625.493C735.974 626.136 736.74 627.047 737.29 628.227C737.84 629.407 738.115 630.799 738.115 632.403C738.115 634.021 737.84 635.423 737.29 636.609C736.74 637.789 735.977 638.704 735.003 639.354C734.028 639.997 732.905 640.318 731.632 640.318C730.651 640.318 729.866 640.156 729.276 639.831C728.686 639.5 728.232 639.125 727.913 638.707C727.595 638.283 727.35 637.932 727.178 637.653H726.979V645.727H724.632ZM726.939 632.364C726.939 633.517 727.108 634.535 727.446 635.416C727.784 636.291 728.278 636.977 728.928 637.474C729.577 637.965 730.373 638.21 731.314 638.21C732.295 638.21 733.114 637.952 733.77 637.435C734.433 636.911 734.93 636.208 735.261 635.327C735.599 634.438 735.768 633.451 735.768 632.364C735.768 631.29 735.603 630.322 735.271 629.46C734.946 628.592 734.453 627.906 733.79 627.402C733.134 626.892 732.308 626.636 731.314 626.636C730.359 626.636 729.557 626.878 728.908 627.362C728.258 627.839 727.768 628.509 727.436 629.371C727.105 630.226 726.939 631.223 726.939 632.364ZM747.899 640.318C746.52 640.318 745.311 639.99 744.27 639.334C743.236 638.678 742.427 637.759 741.844 636.58C741.267 635.4 740.979 634.021 740.979 632.443C740.979 630.852 741.267 629.464 741.844 628.277C742.427 627.09 743.236 626.169 744.27 625.513C745.311 624.857 746.52 624.528 747.899 624.528C749.278 624.528 750.484 624.857 751.518 625.513C752.559 626.169 753.368 627.09 753.945 628.277C754.528 629.464 754.82 630.852 754.82 632.443C754.82 634.021 754.528 635.4 753.945 636.58C753.368 637.759 752.559 638.678 751.518 639.334C750.484 639.99 749.278 640.318 747.899 640.318ZM747.899 638.21C748.946 638.21 749.808 637.942 750.484 637.405C751.161 636.868 751.661 636.162 751.986 635.287C752.311 634.412 752.473 633.464 752.473 632.443C752.473 631.422 752.311 630.471 751.986 629.589C751.661 628.708 751.161 627.995 750.484 627.452C749.808 626.908 748.946 626.636 747.899 626.636C746.852 626.636 745.99 626.908 745.314 627.452C744.638 627.995 744.137 628.708 743.812 629.589C743.488 630.471 743.325 631.422 743.325 632.443C743.325 633.464 743.488 634.412 743.812 635.287C744.137 636.162 744.638 636.868 745.314 637.405C745.99 637.942 746.852 638.21 747.899 638.21ZM769.22 628.148L767.112 628.744C766.979 628.393 766.784 628.052 766.525 627.72C766.273 627.382 765.929 627.104 765.491 626.885C765.054 626.666 764.493 626.557 763.811 626.557C762.876 626.557 762.097 626.772 761.474 627.203C760.858 627.627 760.549 628.168 760.549 628.824C760.549 629.407 760.761 629.868 761.186 630.206C761.61 630.544 762.273 630.826 763.174 631.051L765.441 631.608C766.807 631.939 767.824 632.446 768.494 633.129C769.163 633.805 769.498 634.677 769.498 635.744C769.498 636.619 769.246 637.402 768.743 638.091C768.245 638.78 767.549 639.324 766.654 639.722C765.76 640.119 764.719 640.318 763.532 640.318C761.975 640.318 760.685 639.98 759.664 639.304C758.644 638.628 757.997 637.64 757.725 636.341L759.953 635.784C760.165 636.606 760.566 637.223 761.156 637.634C761.752 638.045 762.531 638.25 763.493 638.25C764.586 638.25 765.455 638.018 766.098 637.554C766.747 637.083 767.072 636.52 767.072 635.864C767.072 635.333 766.886 634.889 766.515 634.531C766.144 634.167 765.574 633.895 764.805 633.716L762.26 633.119C760.861 632.788 759.833 632.274 759.177 631.578C758.528 630.875 758.203 629.997 758.203 628.943C758.203 628.081 758.445 627.319 758.929 626.656C759.419 625.993 760.085 625.473 760.927 625.095C761.776 624.717 762.737 624.528 763.811 624.528C765.322 624.528 766.509 624.86 767.37 625.523C768.239 626.186 768.855 627.061 769.22 628.148ZM779.673 624.727V626.716H771.758V624.727H779.673ZM774.065 621.068H776.411V635.625C776.411 636.288 776.507 636.785 776.7 637.116C776.898 637.441 777.15 637.66 777.455 637.773C777.767 637.879 778.095 637.932 778.44 637.932C778.698 637.932 778.91 637.919 779.076 637.892C779.242 637.859 779.374 637.832 779.474 637.812L779.951 639.92C779.792 639.98 779.57 640.04 779.285 640.099C779 640.166 778.638 640.199 778.201 640.199C777.538 640.199 776.888 640.056 776.252 639.771C775.622 639.486 775.099 639.052 774.681 638.469C774.27 637.885 774.065 637.15 774.065 636.261V621.068ZM783.202 640V624.727H785.549V640H783.202ZM784.396 622.182C783.938 622.182 783.544 622.026 783.212 621.714C782.888 621.403 782.725 621.028 782.725 620.591C782.725 620.153 782.888 619.779 783.212 619.467C783.544 619.156 783.938 619 784.396 619C784.853 619 785.244 619.156 785.569 619.467C785.9 619.779 786.066 620.153 786.066 620.591C786.066 621.028 785.9 621.403 785.569 621.714C785.244 622.026 784.853 622.182 784.396 622.182ZM792.194 630.812V640H789.847V624.727H792.114V627.114H792.313C792.671 626.338 793.214 625.715 793.944 625.244C794.673 624.767 795.614 624.528 796.767 624.528C797.801 624.528 798.706 624.741 799.482 625.165C800.257 625.582 800.861 626.219 801.292 627.074C801.722 627.922 801.938 628.996 801.938 630.295V640H799.591V630.455C799.591 629.255 799.28 628.32 798.657 627.651C798.033 626.974 797.178 626.636 796.091 626.636C795.342 626.636 794.673 626.799 794.083 627.124C793.499 627.448 793.039 627.922 792.701 628.545C792.363 629.169 792.194 629.924 792.194 630.812ZM812.391 646.045C811.257 646.045 810.283 645.9 809.467 645.608C808.652 645.323 807.973 644.945 807.429 644.474C806.892 644.01 806.464 643.513 806.146 642.983L808.016 641.67C808.228 641.949 808.496 642.267 808.821 642.625C809.146 642.99 809.59 643.304 810.153 643.57C810.723 643.841 811.469 643.977 812.391 643.977C813.624 643.977 814.641 643.679 815.443 643.082C816.245 642.486 816.646 641.551 816.646 640.278V637.176H816.447C816.275 637.455 816.03 637.799 815.712 638.21C815.4 638.615 814.949 638.976 814.359 639.294C813.776 639.606 812.987 639.761 811.993 639.761C810.76 639.761 809.653 639.47 808.672 638.886C807.697 638.303 806.925 637.455 806.355 636.341C805.792 635.227 805.51 633.875 805.51 632.284C805.51 630.72 805.785 629.357 806.335 628.197C806.885 627.031 807.651 626.129 808.632 625.493C809.613 624.85 810.747 624.528 812.033 624.528C813.027 624.528 813.816 624.694 814.399 625.026C814.989 625.35 815.44 625.722 815.751 626.139C816.07 626.55 816.315 626.888 816.487 627.153H816.726V624.727H818.993V640.438C818.993 641.75 818.695 642.817 818.098 643.639C817.508 644.468 816.713 645.074 815.712 645.459C814.717 645.85 813.61 646.045 812.391 646.045ZM812.311 637.653C813.252 637.653 814.048 637.438 814.697 637.007C815.347 636.576 815.841 635.956 816.179 635.148C816.517 634.339 816.686 633.371 816.686 632.244C816.686 631.144 816.52 630.173 816.189 629.331C815.857 628.489 815.367 627.83 814.717 627.352C814.068 626.875 813.266 626.636 812.311 626.636C811.317 626.636 810.488 626.888 809.825 627.392C809.169 627.896 808.675 628.572 808.344 629.42C808.019 630.269 807.857 631.21 807.857 632.244C807.857 633.305 808.022 634.243 808.354 635.058C808.692 635.867 809.189 636.503 809.845 636.967C810.508 637.425 811.33 637.653 812.311 637.653ZM832.317 640H829.732L837.209 619.636H839.754L847.232 640H844.646L838.561 622.858H838.402L832.317 640ZM833.271 632.045H843.692V634.233H833.271V632.045ZM856.29 640.318C854.858 640.318 853.625 639.98 852.591 639.304C851.557 638.628 850.761 637.696 850.205 636.51C849.648 635.323 849.369 633.968 849.369 632.443C849.369 630.892 849.654 629.523 850.224 628.337C850.801 627.143 851.603 626.212 852.631 625.543C853.665 624.866 854.871 624.528 856.25 624.528C857.324 624.528 858.292 624.727 859.153 625.125C860.015 625.523 860.721 626.08 861.271 626.795C861.821 627.511 862.163 628.347 862.295 629.301H859.949C859.77 628.605 859.372 627.989 858.756 627.452C858.146 626.908 857.324 626.636 856.29 626.636C855.375 626.636 854.573 626.875 853.884 627.352C853.201 627.823 852.667 628.489 852.283 629.351C851.905 630.206 851.716 631.21 851.716 632.364C851.716 633.544 851.902 634.571 852.273 635.446C852.651 636.321 853.181 637 853.864 637.484C854.553 637.968 855.362 638.21 856.29 638.21C856.9 638.21 857.453 638.104 857.95 637.892C858.447 637.68 858.868 637.375 859.213 636.977C859.558 636.58 859.803 636.102 859.949 635.545H862.295C862.163 636.447 861.835 637.259 861.311 637.982C860.794 638.697 860.108 639.268 859.253 639.692C858.404 640.109 857.417 640.318 856.29 640.318ZM871.93 640.318C870.499 640.318 869.266 639.98 868.232 639.304C867.197 638.628 866.402 637.696 865.845 636.51C865.288 635.323 865.01 633.968 865.01 632.443C865.01 630.892 865.295 629.523 865.865 628.337C866.442 627.143 867.244 626.212 868.271 625.543C869.305 624.866 870.512 624.528 871.891 624.528C872.964 624.528 873.932 624.727 874.794 625.125C875.656 625.523 876.362 626.08 876.912 626.795C877.462 627.511 877.804 628.347 877.936 629.301H875.589C875.411 628.605 875.013 627.989 874.396 627.452C873.786 626.908 872.964 626.636 871.93 626.636C871.016 626.636 870.214 626.875 869.524 627.352C868.841 627.823 868.308 628.489 867.923 629.351C867.545 630.206 867.357 631.21 867.357 632.364C867.357 633.544 867.542 634.571 867.913 635.446C868.291 636.321 868.821 637 869.504 637.484C870.194 637.968 871.002 638.21 871.93 638.21C872.54 638.21 873.094 638.104 873.591 637.892C874.088 637.68 874.509 637.375 874.854 636.977C875.198 636.58 875.444 636.102 875.589 635.545H877.936C877.804 636.447 877.475 637.259 876.952 637.982C876.435 638.697 875.749 639.268 874.893 639.692C874.045 640.109 873.057 640.318 871.93 640.318ZM887.571 640.318C886.192 640.318 884.982 639.99 883.942 639.334C882.908 638.678 882.099 637.759 881.516 636.58C880.939 635.4 880.651 634.021 880.651 632.443C880.651 630.852 880.939 629.464 881.516 628.277C882.099 627.09 882.908 626.169 883.942 625.513C884.982 624.857 886.192 624.528 887.571 624.528C888.95 624.528 890.156 624.857 891.19 625.513C892.231 626.169 893.04 627.09 893.616 628.277C894.2 629.464 894.491 630.852 894.491 632.443C894.491 634.021 894.2 635.4 893.616 636.58C893.04 637.759 892.231 638.678 891.19 639.334C890.156 639.99 888.95 640.318 887.571 640.318ZM887.571 638.21C888.618 638.21 889.48 637.942 890.156 637.405C890.832 636.868 891.333 636.162 891.658 635.287C891.982 634.412 892.145 633.464 892.145 632.443C892.145 631.422 891.982 630.471 891.658 629.589C891.333 628.708 890.832 627.995 890.156 627.452C889.48 626.908 888.618 626.636 887.571 626.636C886.524 626.636 885.662 626.908 884.986 627.452C884.31 627.995 883.809 628.708 883.484 629.589C883.16 630.471 882.997 631.422 882.997 632.443C882.997 633.464 883.16 634.412 883.484 635.287C883.809 636.162 884.31 636.868 884.986 637.405C885.662 637.942 886.524 638.21 887.571 638.21ZM907.699 633.756V624.727H910.045V640H907.699V637.415H907.539C907.181 638.19 906.625 638.85 905.869 639.393C905.113 639.93 904.159 640.199 903.005 640.199C902.051 640.199 901.202 639.99 900.46 639.572C899.717 639.148 899.134 638.512 898.71 637.663C898.286 636.808 898.074 635.731 898.074 634.432V624.727H900.42V634.273C900.42 635.386 900.732 636.275 901.355 636.938C901.984 637.6 902.787 637.932 903.761 637.932C904.344 637.932 904.938 637.783 905.541 637.484C906.151 637.186 906.661 636.729 907.072 636.112C907.49 635.496 907.699 634.71 907.699 633.756ZM916.69 630.812V640H914.343V624.727H916.61V627.114H916.809C917.167 626.338 917.71 625.715 918.44 625.244C919.169 624.767 920.11 624.528 921.263 624.528C922.298 624.528 923.202 624.741 923.978 625.165C924.754 625.582 925.357 626.219 925.788 627.074C926.219 627.922 926.434 628.996 926.434 630.295V640H924.087V630.455C924.087 629.255 923.776 628.32 923.153 627.651C922.53 626.974 921.674 626.636 920.587 626.636C919.838 626.636 919.169 626.799 918.579 627.124C917.996 627.448 917.535 627.922 917.197 628.545C916.859 629.169 916.69 629.924 916.69 630.812ZM937.364 624.727V626.716H929.449V624.727H937.364ZM931.756 621.068H934.103V635.625C934.103 636.288 934.199 636.785 934.391 637.116C934.59 637.441 934.842 637.66 935.147 637.773C935.458 637.879 935.786 637.932 936.131 637.932C936.39 637.932 936.602 637.919 936.767 637.892C936.933 637.859 937.066 637.832 937.165 637.812L937.642 639.92C937.483 639.98 937.261 640.04 936.976 640.099C936.691 640.166 936.33 640.199 935.892 640.199C935.23 640.199 934.58 640.056 933.944 639.771C933.314 639.486 932.79 639.052 932.373 638.469C931.962 637.885 931.756 637.15 931.756 636.261V621.068Z" fill="white"/>
</g>
<defs>
<filter id="filter0_b_205_20455" x="49" y="51" width="1340" height="922" filterUnits="userSpaceOnUse" color-interpolation-filters="sRGB">
<feFlood flood-opacity="0" result="BackgroundImageFix"/>
<feGaussianBlur in="BackgroundImageFix" stdDeviation="20"/>
<feComposite in2="SourceAlpha" operator="in" result="effect1_backgroundBlur_205_20455"/>
<feBlend mode="normal" in="SourceGraphic" in2="effect1_backgroundBlur_205_20455" result="shape"/>
</filter>
<linearGradient id="paint0_linear_205_20455" x1="1685.53" y1="-132.157" x2="1671.03" y2="419.032" gradientUnits="userSpaceOnUse">
<stop stop-color="#1967D2"/>
<stop offset="1" stop-color="#198FD2" stop-opacity="0.34"/>
</linearGradient>
<linearGradient id="paint1_linear_205_20455" x1="26.0692" y1="545.839" x2="368.204" y2="978.232" gradientUnits="userSpaceOnUse">
<stop stop-color="#19D2C7" stop-opacity="0"/>
<stop offset="1" stop-color="#1967D2"/>
</linearGradient>
<linearGradient id="paint2_linear_205_20455" x1="428.981" y1="91" x2="596.249" y2="1016.62" gradientUnits="userSpaceOnUse">
<stop stop-color="white" stop-opacity="0.4"/>
<stop offset="1" stop-color="white" stop-opacity="0.1"/>
</linearGradient>
<clipPath id="clip0_205_20455">
<rect width="1440" height="1024" fill="white"/>
</clipPath>
</defs>
</svg>
