<svg width="20" height="13" viewBox="0 0 20 13" fill="none" xmlns="http://www.w3.org/2000/svg">
<path d="M9.99984 10.3333C8.95817 10.3333 8.07261 9.96887 7.34317 9.23998C6.61428 8.51054 6.24984 7.62498 6.24984 6.58331C6.24984 5.54165 6.61428 4.65609 7.34317 3.92665C8.07261 3.19776 8.95817 2.83331 9.99984 2.83331C11.0415 2.83331 11.9271 3.19776 12.6565 3.92665C13.3854 4.65609 13.7498 5.54165 13.7498 6.58331C13.7498 7.62498 13.3854 8.51054 12.6565 9.23998C11.9271 9.96887 11.0415 10.3333 9.99984 10.3333ZM9.99984 8.83331C10.6248 8.83331 11.1559 8.61442 11.5932 8.17665C12.0309 7.73942 12.2498 7.20831 12.2498 6.58331C12.2498 5.95831 12.0309 5.42692 11.5932 4.98915C11.1559 4.55192 10.6248 4.33331 9.99984 4.33331C9.37484 4.33331 8.84345 4.55192 8.40567 4.98915C7.96845 5.42692 7.74984 5.95831 7.74984 6.58331C7.74984 7.20831 7.96845 7.73942 8.40567 8.17665C8.84345 8.61442 9.37484 8.83331 9.99984 8.83331ZM9.99984 12.8333C12.0276 12.8333 13.8748 12.2672 15.5415 11.135C17.2082 10.0033 18.4165 8.48609 19.1665 6.58331C18.4165 4.68054 17.2082 3.16304 15.5415 2.03081C13.8748 0.899146 12.0276 0.333313 9.99984 0.333313C7.97206 0.333313 6.12484 0.899146 4.45817 2.03081C2.7915 3.16304 1.58317 4.68054 0.83317 6.58331C1.58317 8.48609 2.7915 10.0033 4.45817 11.135C6.12484 12.2672 7.97206 12.8333 9.99984 12.8333ZM9.99984 11.1666C8.43039 11.1666 6.98928 10.7533 5.6765 9.92665C4.36428 9.10054 3.36095 7.98609 2.6665 6.58331C3.36095 5.18054 4.36428 4.06581 5.6765 3.23915C6.98928 2.41304 8.43039 1.99998 9.99984 1.99998C11.5693 1.99998 13.0104 2.41304 14.3232 3.23915C15.6354 4.06581 16.6387 5.18054 17.3332 6.58331C16.6387 7.98609 15.6354 9.10054 14.3232 9.92665C13.0104 10.7533 11.5693 11.1666 9.99984 11.1666Z" fill="#1967D2"/>
</svg>
