<svg width="21" height="21" viewBox="0 0 21 21" fill="none" xmlns="http://www.w3.org/2000/svg">
<path d="M2 19C1.45 19 0.979333 18.8043 0.588 18.413C0.196 18.021 0 17.55 0 17V6C0 5.45 0.196 4.97933 0.588 4.588C0.979333 4.196 1.45 4 2 4H6V2C6 1.45 6.196 0.979 6.588 0.587C6.97933 0.195667 7.45 0 8 0H12C12.55 0 13.021 0.195667 13.413 0.587C13.8043 0.979 14 1.45 14 2V4H18C18.55 4 19.021 4.196 19.413 4.588C19.8043 4.97933 20 5.45 20 6V10.275C19.7 10.0583 19.3833 9.87067 19.05 9.712C18.7167 9.554 18.3667 9.41667 18 9.3V6H2V17H9.075C9.125 17.35 9.2 17.6917 9.3 18.025C9.4 18.3583 9.525 18.6833 9.675 19H2ZM8 4H12V2H8V4ZM16 21C14.6167 21 13.4377 20.5127 12.463 19.538C11.4877 18.5627 11 17.3833 11 16C11 14.6167 11.4877 13.4373 12.463 12.462C13.4377 11.4873 14.6167 11 16 11C17.3833 11 18.5627 11.4873 19.538 12.462C20.5127 13.4373 21 14.6167 21 16C21 17.3833 20.5127 18.5627 19.538 19.538C18.5627 20.5127 17.3833 21 16 21ZM17.65 18.35L18.35 17.65L16.5 15.8V13H15.5V16.2L17.65 18.35Z" fill="#425466"/>
</svg>
