<svg width="24" height="24" viewBox="0 0 24 24" fill="none" xmlns="http://www.w3.org/2000/svg">
<path fill-rule="evenodd" clip-rule="evenodd" d="M11.0832 0.022573C9.344 0.18926 8.02204 0.559292 6.5773 1.28389C4.67591 2.23746 2.91285 3.85531 1.7533 5.71062C0.91616 7.04998 0.305426 8.78178 0.0588164 10.5153C-0.0196055 11.0666 -0.0196055 12.9171 0.0588164 13.4684C0.255223 14.8491 0.620145 16.0586 1.19029 17.2184C1.83533 18.5307 2.46716 19.4122 3.51027 20.4554C4.54199 21.4871 5.4373 22.1313 6.70035 22.7509C7.58165 23.1832 8.15066 23.3937 9.0441 23.6178C11.3885 24.2058 13.7398 24.093 16.0303 23.2827C16.7246 23.0372 17.9366 22.4297 18.5597 22.0151C20.2706 20.8767 21.6845 19.3047 22.6206 17.5003C23.4676 15.8676 23.8914 14.2478 23.9575 12.3903C24.0287 10.3911 23.6176 8.48848 22.7281 6.70001C22.1441 5.52565 21.4939 4.60526 20.5809 3.66059C19.5686 2.61293 18.5756 1.89012 17.2472 1.23378C15.8587 0.54776 14.565 0.181573 13.0285 0.0395886C12.5509 -0.00452077 11.4652 -0.0140364 11.0832 0.022573ZM15.1504 6.63265L15.1629 7.81254L14.3066 7.82796C13.0119 7.85135 13.005 7.85839 13.005 9.15443V9.97624H14.1066C14.7125 9.97624 15.2082 9.98253 15.2082 9.99021C15.2082 9.9979 15.1554 10.5063 15.091 11.12C15.0265 11.7337 14.9738 12.2759 14.9738 12.3248C14.9738 12.4093 14.9248 12.4137 13.9894 12.4137H13.005V15.8825V19.3512H11.5519H10.0988V15.8825V12.4137H9.4191H8.73941V11.195V9.97624H9.41366H10.0879L10.1108 8.8864C10.1368 7.6526 10.1855 7.38823 10.4957 6.79789C10.8813 6.06401 11.5878 5.59854 12.497 5.47943C12.6604 5.45801 13.3214 5.44324 13.966 5.44662L15.1378 5.45281L15.1504 6.63265Z" fill="white"/>
</svg>
