<svg width="24" height="24" viewBox="0 0 24 24" fill="none" xmlns="http://www.w3.org/2000/svg">
<circle cx="12" cy="12" r="12" fill="white"/>
<path d="M9.18814 11.034C8.96373 11.6869 8.97363 12.3976 9.21614 13.044C9.36825 13.4495 9.60713 13.817 9.91607 14.1205C10.225 14.4241 10.5966 14.6565 11.0047 14.8015C11.4129 14.9464 11.8477 15.0005 12.279 14.9598C12.7102 14.9191 13.1273 14.7847 13.5011 14.566C14.0906 14.2207 14.5436 13.6834 14.7841 13.044H12.1101V11.066H16.9131C17.082 11.9575 17.0052 12.8782 16.6912 13.7295C16.3771 14.5808 15.8375 15.3307 15.1301 15.899C14.5069 16.3993 13.7728 16.743 12.9894 16.9011C12.206 17.0593 11.396 17.0273 10.6275 16.8079C9.85898 16.5886 9.15424 16.1881 8.57237 15.6402C7.99049 15.0923 7.54843 14.4129 7.28325 13.659C7.01807 12.905 6.93749 12.0985 7.04826 11.307C7.15903 10.5155 7.45793 9.76206 7.91991 9.10987C8.38188 8.45769 8.99347 7.92575 9.7034 7.55865C10.4133 7.19155 11.2009 6.99998 12.0001 7C13.2131 7.001 14.3261 7.433 15.1911 8.152L13.5711 9.478C13.1916 9.24172 12.7637 9.09404 12.3193 9.04594C11.8748 8.99784 11.4253 9.05056 11.004 9.20018C10.5827 9.3498 10.2006 9.59246 9.88605 9.91012C9.57149 10.2278 9.33261 10.6123 9.18714 11.035H9.18814V11.034Z" fill="#0A7ABF"/>
</svg>
