<svg width="77" height="73" viewBox="0 0 77 73" fill="none" xmlns="http://www.w3.org/2000/svg">
<rect width="77" height="73" fill="white"/>
<path d="M17 22.8179C17.101 22.5898 17.1833 22.3538 17.2462 22.1123C17.5353 20.4155 18.4125 18.8746 19.7241 17.7599C21.0357 16.6453 22.6979 16.028 24.4191 16.0165C32.5105 15.9947 40.602 15.9945 48.6934 16.0159C52.7296 16.0264 55.9594 19.1671 55.9849 23.2144C56.0362 31.3692 56.0352 39.5242 55.9817 47.6796C55.9562 51.6195 52.6696 54.8626 48.6385 54.8936C40.6113 54.9555 32.5836 54.957 24.5556 54.8981C20.9223 54.8772 17.9251 52.2488 17.2375 48.6794C17.1773 48.4689 17.0978 48.2643 17 48.0684V22.8179ZM41.7715 37.0787L42.0214 37.1952C42.0377 37.5357 42.0677 37.8762 42.0683 38.2167C42.0726 40.9585 42.0695 43.7003 42.0728 46.4421C42.0742 47.6175 42.124 47.6711 43.3205 47.6772C44.8189 47.6849 46.3182 47.6467 47.8155 47.6873C48.6039 47.7087 48.8623 47.4255 48.8533 46.6332C48.8166 43.4137 48.8378 40.1935 48.8383 36.9735C48.8391 32.4464 48.8468 27.9192 48.8288 23.3922C48.8275 23.0521 48.7509 22.5491 48.5269 22.4046C47.9282 22.0185 46.3276 22.4043 45.8083 22.9684C42.9598 26.0634 40.099 29.1475 37.2876 32.276C36.6642 32.9698 36.3247 32.9042 35.7391 32.2404C33.1248 29.277 30.434 26.3809 27.8303 23.4083C27.1386 22.6186 26.4373 22.2628 25.376 22.3195C24.5632 22.3629 24.2506 22.5618 24.2529 23.4055C24.2741 31.1526 24.2745 38.8998 24.2539 46.647C24.2519 47.454 24.5789 47.7044 25.3395 47.6881C26.901 47.6545 28.4643 47.6511 30.0256 47.6889C30.8135 47.708 31.0733 47.4143 31.0631 46.6267C31.0251 43.6943 31.0447 40.7611 31.0474 37.8282C31.0477 37.5612 31.0822 37.2943 31.1163 36.8048C32.6855 38.4551 34.0991 39.9541 35.5274 41.4391C36.4078 42.3544 36.7485 42.3377 37.6281 41.4145C39.007 39.9671 40.3882 38.5219 41.7715 37.0787V37.0787Z" fill="#0A7ABF"/>
</svg>
