<svg width="10" height="10" viewBox="0 0 10 10" fill="none" xmlns="http://www.w3.org/2000/svg">
<path d="M2.18814 4.034C1.96373 4.68691 1.97363 5.39759 2.21614 6.044C2.36825 6.44954 2.60713 6.81695 2.91607 7.12052C3.22502 7.42409 3.59656 7.6565 4.00471 7.80147C4.41285 7.94644 4.84775 8.00048 5.27897 7.9598C5.71018 7.91913 6.1273 7.78473 6.50114 7.566C7.09063 7.22073 7.54358 6.6834 7.78414 6.044H5.11014V4.066H9.91314C10.082 4.95754 10.0052 5.8782 9.69117 6.7295C9.37711 7.5808 8.83753 8.33071 8.13014 8.899C7.50691 9.39934 6.77281 9.74299 5.98938 9.90113C5.20596 10.0593 4.39604 10.0273 3.62751 9.80794C2.85898 9.58855 2.15424 9.18813 1.57237 8.64024C0.990492 8.09235 0.548435 7.41295 0.283251 6.659C0.0180677 5.90505 -0.0625143 5.09851 0.0482592 4.307C0.159033 3.51548 0.457934 2.76206 0.919908 2.10987C1.38188 1.45769 1.99347 0.925749 2.7034 0.558647C3.41333 0.191545 4.20092 -2.29525e-05 5.00014 2.06264e-09C6.21314 0.001 7.32614 0.433 8.19114 1.152L6.57114 2.478C6.19164 2.24172 5.76374 2.09404 5.31929 2.04594C4.87484 1.99784 4.42526 2.05056 4.00399 2.20018C3.58272 2.3498 3.2006 2.59246 2.88605 2.91012C2.57149 3.22779 2.33261 3.61228 2.18714 4.035H2.18814V4.034Z" fill="#0A7ABF"/>
</svg>
