<svg width="1440" height="500" viewBox="0 0 1440 500" fill="none" xmlns="http://www.w3.org/2000/svg">
<rect x="-240" width="1920" height="500" fill="#1967D2"/>
<mask id="mask0_1089_4575" style="mask-type:alpha" maskUnits="userSpaceOnUse" x="-240" y="0" width="1920" height="500">
<rect x="-240" width="1920" height="500" fill="#302EA7"/>
</mask>
<g mask="url(#mask0_1089_4575)">
<path d="M265.469 289.946C265.258 289.852 265.054 289.746 264.857 289.626C264.781 289.58 264.71 289.534 264.641 289.489C264.039 289.124 263.46 288.723 262.906 288.288C262.827 288.226 262.723 288.142 262.619 288.056L262.552 288.002C262.451 287.919 262.353 287.837 262.253 287.751C262.024 287.558 261.788 287.346 261.562 287.131L261.402 286.979L261.318 286.9L261.293 286.876L261.267 286.849L261.214 286.798C261.139 286.724 261.065 286.651 260.993 286.575C260.107 285.684 259.348 284.676 258.736 283.578C258.144 282.487 257.769 281.291 257.63 280.057C257.409 278.635 257.462 277.183 257.787 275.781C258.291 272.694 259.597 268.646 261.897 263.057L262.854 260.72L263.057 260.229C271.355 240.049 279.194 220.989 284.314 214.506C284.382 214.419 284.449 214.335 284.519 214.251L284.561 214.202C284.736 213.988 284.894 213.809 285.052 213.636L285.007 213.688C287.11 211.269 289.933 209.589 293.061 208.893C296.19 208.197 299.459 208.523 302.389 209.823C302.836 210.021 303.279 210.243 303.703 210.483C306.382 211.996 308.532 214.294 309.862 217.068C311.193 219.841 311.641 222.956 311.145 225.992C311.158 226.094 311.17 226.198 311.179 226.303L311.243 227.066L310.93 227.764C309.449 231.08 307.897 234.677 306.253 238.485C293.014 269.183 282.684 290.91 270.364 290.708L270.346 290.709C270.194 290.713 270.047 290.717 269.895 290.714L269.561 290.719L269.51 290.721L269.458 290.719C268.818 290.703 268.18 290.63 267.553 290.503L267.468 290.487C266.781 290.393 266.11 290.211 265.469 289.946V289.946Z" fill="#EA9603"/>
<path d="M321.122 467.118C321.015 467.118 320.904 467.117 320.796 467.115C315.792 467.023 311.03 464.95 307.553 461.352C304.076 457.753 302.169 452.922 302.25 447.919C302.25 447.897 302.25 447.869 302.251 447.838L296.778 340.81L296.614 337.616L297.156 337.628C297.983 332.456 300.633 327.749 304.626 324.359C308.62 320.97 313.694 319.12 318.933 319.144C319.11 319.144 319.291 319.145 319.469 319.15C325.321 319.295 330.877 321.756 334.917 325.992C338.958 330.228 341.153 335.894 341.022 341.747C341.015 342.051 340.99 342.346 340.963 342.641L340.946 342.824L339.943 446.988C339.984 447.582 339.997 448.086 339.989 448.565C339.883 453.507 337.851 458.211 334.327 461.677C330.803 465.142 326.065 467.094 321.122 467.118V467.118Z" fill="#FEAA00"/>
<path d="M323.848 517.733H323.843C323.499 517.733 323.146 517.73 322.786 517.722C310.465 517.487 307.532 515.131 306.352 513.103L305.996 512.49L305.954 511.781L302.421 450.68C302.295 449.766 302.237 448.842 302.249 447.919C302.355 442.978 304.386 438.273 307.911 434.808C311.435 431.343 316.173 429.391 321.115 429.369C321.225 429.369 321.335 429.37 321.445 429.371C323.923 429.413 326.368 429.944 328.642 430.932C330.915 431.919 332.971 433.345 334.693 435.128C336.415 436.91 337.769 439.014 338.678 441.32C339.587 443.626 340.033 446.088 339.99 448.567L340.217 509.896L340.218 510.1L340.189 510.305C340.022 511.545 338.443 517.733 323.848 517.733V517.733Z" fill="#FEAA00"/>
<path d="M370.096 466.721C365.266 466.718 360.621 464.863 357.117 461.539C353.613 458.214 351.517 453.673 351.261 448.85C351.26 448.827 351.259 448.802 351.257 448.77L338.266 342.39L337.877 339.209L338.426 339.185C338.933 333.89 341.329 328.956 345.177 325.284C349.024 321.612 354.065 319.448 359.377 319.189C359.728 319.172 360.076 319.164 360.425 319.164C366.103 319.159 371.564 321.344 375.67 325.266C379.776 329.187 382.21 334.542 382.465 340.214C382.48 340.52 382.475 340.817 382.469 341.114L382.467 341.303L388.795 445.256C388.877 445.845 388.927 446.349 388.954 446.833C389.216 451.831 387.484 456.729 384.14 460.452C380.795 464.176 376.11 466.42 371.113 466.694C370.771 466.712 370.433 466.721 370.096 466.721V466.721Z" fill="#FEAA00"/>
<path d="M373.115 517.938C369.881 517.938 362.085 517.533 359.535 513.785L359.464 513.68L359.402 513.57L359.201 513.213L359.108 513.045L359.036 512.868C358.856 512.426 358.747 511.958 358.715 511.482C358.703 511.314 358.702 511.146 358.714 510.978L351.625 451.574C351.085 448.918 351.124 446.177 351.74 443.538C352.355 440.899 353.533 438.424 355.192 436.281C356.851 434.138 358.952 432.379 361.353 431.122C363.754 429.865 366.398 429.141 369.104 428.999C369.445 428.981 369.784 428.972 370.121 428.972C374.951 428.973 379.596 430.827 383.1 434.152C386.603 437.476 388.698 442.017 388.954 446.84L393.14 508.81L393.16 509.111L393.12 509.409L393.108 509.508C392.593 514.802 384.118 517.274 376.358 517.822C375.268 517.899 374.176 517.938 373.115 517.938V517.938Z" fill="#FEAA00"/>
<path d="M340.117 483.188H304.3L304.926 494.015H340.158L340.117 483.188Z" fill="#DDDDDD"/>
<path d="M355.397 483.188L356.689 494.015H392.141L391.409 483.188H355.397Z" fill="#DDDDDD"/>
<path d="M305.129 497.507L305.532 504.492H340.197L340.171 497.507H305.129Z" fill="#DDDDDD"/>
<path d="M357.937 504.492H392.847L392.375 497.507H357.104L357.937 504.492Z" fill="#DDDDDD"/>
<path d="M296.965 325.246C296.965 325.246 289.03 367.393 333.105 363.946H345.695C360.363 363.946 371.167 362.558 376.118 356.279C386.333 346.496 381.889 324.952 381.889 324.952C381.074 321.645 381.702 320.065 381.889 318.226L297.345 318.402C297.619 320.341 297.548 321.588 296.965 325.246Z" fill="#FEAA00"/>
<g style="mix-blend-mode:multiply" opacity="0.42">
<path d="M382.771 338.508C383.001 333.97 382.705 329.421 381.889 324.952C381.075 321.645 381.703 320.065 381.889 318.226L297.346 318.402C297.62 320.341 297.548 321.588 296.966 325.246C296.287 329.582 296.222 333.993 296.773 338.347C309.985 338.837 357.642 340.399 382.771 338.508Z" fill="#B8B8B8"/>
</g>
<path d="M334.041 198.494C343.806 198.494 351.721 196.898 351.721 194.93C351.721 192.961 343.806 191.366 334.041 191.366C324.276 191.366 316.36 192.961 316.36 194.93C316.36 196.898 324.276 198.494 334.041 198.494Z" fill="#CC7F05"/>
<path d="M386.29 207.626C385.06 207.198 383.808 206.833 382.541 206.534C369.486 200.126 350.049 200.052 349.222 200.052H349.184L349.147 200.052L323.066 200.718H323.037L323.008 200.719C322.435 200.746 308.883 201.433 292.835 208.686C290.206 209.206 287.817 210.566 286.027 212.561C284.237 214.556 283.143 217.078 282.909 219.748C282.676 222.419 283.316 225.092 284.732 227.368C286.149 229.643 288.266 231.397 290.765 232.366C290.791 233.765 290.813 235.166 290.831 236.545C290.869 239.705 291.958 248.653 293.218 259.015C294.778 271.845 296.72 287.815 296.624 293.238L296.622 293.407L296.637 293.575C297.07 297.996 296.877 307.101 296.494 315.793L296.205 315.769C296.205 315.769 294.984 335.847 294.737 334.118L383.267 333.942C383.149 332.559 381.453 315.417 381.325 313.968C380.777 307.757 380.213 301.335 380.326 298.068C380.434 294.998 380.522 291.927 380.609 288.854C380.826 281.247 381.05 273.379 381.601 265.691C382.213 257.13 387.243 244.896 391.284 235.066C391.66 234.151 392.029 233.253 392.39 232.372C394.726 231.476 396.734 229.892 398.149 227.83C399.564 225.768 400.32 223.325 400.316 220.824C400.316 213.495 391.529 209.409 386.29 207.626Z" fill="#FEAA00"/>
<path d="M294.818 334.118L383.267 333.942C383.217 333.351 382.879 329.887 382.498 326H295.535C295.263 329.854 294.977 333.469 294.818 334.118Z" fill="#DDDDDD"/>
<path d="M295.862 281.997H380.815C380.99 276.575 381.215 271.09 381.602 265.692C381.788 263.506 382.148 261.339 382.681 259.211H293.242C294.149 266.665 295.179 275.145 295.862 281.997Z" fill="#DDDDDD"/>
<path d="M296.623 293.238L296.621 293.407L296.637 293.575C296.667 293.883 296.694 294.218 296.718 294.57H380.433C380.492 292.664 380.554 290.76 380.608 288.854C380.628 288.143 380.649 287.427 380.67 286.712H296.294C296.523 289.487 296.649 291.757 296.623 293.238Z" fill="#DDDDDD"/>
<path d="M342.279 187.23H324.212V205.715H342.279V187.23Z" fill="#EE8C72"/>
<path d="M324.212 189.75V194.945C327.932 196.059 335.476 198.05 342.279 198.177V189.75H324.212Z" fill="#DD725E"/>
<path d="M309.076 156.197C309.076 156.197 306.214 143.968 308.296 134.599L317.092 127.188L309.076 156.197Z" fill="#472004"/>
<path d="M313.134 152.938C313.134 152.938 304.46 149.889 304.46 158.564C304.46 167.238 313.134 164.659 313.134 164.659V152.938Z" fill="#EE8C72"/>
<path d="M355.959 152.938C355.959 152.938 364.634 149.889 364.634 158.564C364.634 167.238 355.959 164.659 355.959 164.659V152.938Z" fill="#F7A184"/>
<path d="M356.782 168.217C356.782 182.418 346.089 193.932 332.905 193.932C319.718 193.932 309.026 182.418 309.026 168.217V145.409C309.026 131.206 319.718 119.694 332.905 119.694C346.089 119.694 356.782 131.206 356.782 145.409V168.217Z" fill="#F7A184"/>
<path d="M320.496 132.692C320.496 132.692 325.385 133.74 326.782 134.788C326.891 134.87 330.331 133.207 330.676 133.094C332.206 132.553 333.82 132.288 335.443 132.312C337.743 132.379 339.977 133.075 342.233 133.463C347.236 134.322 352.43 135.514 356.098 139.297C353.549 128.046 344.134 119.694 332.905 119.694C322.438 119.694 313.549 126.949 310.325 137.044C312.758 134.559 316.694 131.497 320.496 132.692Z" fill="#EE8C72"/>
<path d="M353.788 132.951C355.265 136.366 356.027 140.047 356.027 143.768V166.577C356.027 180.778 345.337 192.291 332.147 192.291C323.157 192.291 315.341 186.936 311.264 179.035C315.062 187.823 323.31 193.932 332.905 193.932C346.09 193.932 356.783 182.418 356.783 168.217V145.409C356.794 141.077 355.767 136.805 353.788 132.951V132.951Z" fill="#EE8C72"/>
<path d="M354.614 162.963C356.41 160.771 357.659 158.185 358.258 155.416C359.296 150.733 365.282 144.228 364.502 137.982C364.502 137.982 367.365 132.258 360.337 127.053C354.651 122.841 355.134 118.207 351.752 115.083C348.37 111.961 335.877 105.457 323.649 111.18C323.649 111.18 318.445 114.043 316.884 117.166C316.884 117.166 319.226 109.359 324.951 107.539C324.951 107.539 304.654 109.099 308.297 136.161L308.168 142.536C308.168 142.536 310.38 123.93 327.553 130.436C327.553 130.436 342.904 125.492 351.752 135.12C351.752 135.12 353.051 137.982 352.53 145.007L353.832 142.926C353.832 142.926 354.092 151.513 354.614 162.963Z" fill="#472004"/>
<path d="M319.357 160.857C319.357 162.673 318.629 164.145 317.729 164.145C316.829 164.145 316.1 162.673 316.1 160.857C316.1 159.038 316.829 157.569 317.729 157.569C318.629 157.569 319.357 159.038 319.357 160.857Z" fill="#3D1A01"/>
<path d="M341.689 160.857C341.689 162.673 340.958 164.145 340.057 164.145C339.159 164.145 338.428 162.673 338.428 160.857C338.428 159.038 339.159 157.569 340.057 157.569C340.958 157.569 341.689 159.038 341.689 160.857Z" fill="#3D1A01"/>
<path d="M322.758 174.422H338.256C338.256 174.422 339.788 174.377 338.686 176.74C337.997 178.233 336.118 181.337 330.772 181.477C324.429 181.644 322.244 176.602 322.244 176.602C322.244 176.602 321.195 174.422 322.758 174.422Z" fill="#D24646"/>
<path d="M338.948 176.082C339.474 174.383 338.257 174.422 338.257 174.422H322.758C321.59 174.422 321.881 175.635 322.1 176.262C325.083 177.037 331.166 177.995 338.948 176.082Z" fill="white"/>
<path d="M327.778 164.652C327.778 164.652 324.052 164.516 324.052 167.699C324.052 170.883 329.824 170.063 330.004 167.699C330.188 165.335 330.503 147.873 327.778 164.652Z" fill="#EE8C72"/>
<path d="M342.849 154.06C341.831 153.729 340.767 153.56 339.696 153.56V153.56C338.626 153.56 337.563 153.729 336.546 154.06C336.456 154.09 336.36 154.101 336.265 154.094C336.17 154.086 336.078 154.06 335.993 154.017C335.908 153.974 335.833 153.914 335.771 153.842C335.709 153.77 335.662 153.686 335.632 153.595C335.603 153.505 335.591 153.41 335.599 153.315C335.606 153.22 335.632 153.128 335.675 153.043C335.719 152.958 335.778 152.883 335.85 152.821C335.923 152.759 336.006 152.712 336.097 152.683V152.683C337.259 152.304 338.474 152.111 339.696 152.111V152.111C340.919 152.111 342.133 152.304 343.296 152.683V152.683C343.386 152.712 343.47 152.759 343.543 152.821C343.615 152.883 343.674 152.958 343.718 153.043C343.761 153.128 343.787 153.22 343.794 153.315C343.802 153.41 343.79 153.505 343.761 153.595V153.595C343.713 153.741 343.621 153.868 343.497 153.958C343.373 154.047 343.224 154.096 343.071 154.096V154.096C342.995 154.096 342.92 154.084 342.849 154.06V154.06Z" fill="#6D320A"/>
<path d="M311.853 153.596C311.824 153.505 311.812 153.41 311.82 153.315C311.827 153.22 311.853 153.127 311.896 153.043C311.94 152.958 311.999 152.882 312.072 152.821C312.144 152.759 312.228 152.712 312.319 152.683V152.683C313.48 152.305 314.694 152.112 315.916 152.113V152.113C317.139 152.112 318.353 152.305 319.516 152.683V152.683C319.698 152.743 319.849 152.872 319.936 153.043C320.023 153.215 320.039 153.413 319.979 153.596V153.596C319.92 153.778 319.79 153.93 319.619 154.017C319.448 154.104 319.249 154.12 319.067 154.06V154.06C318.049 153.729 316.986 153.561 315.916 153.562C314.847 153.561 313.783 153.729 312.766 154.06C312.694 154.084 312.619 154.096 312.543 154.096V154.096C312.39 154.096 312.241 154.048 312.117 153.958C311.993 153.868 311.901 153.741 311.853 153.596Z" fill="#6D320A"/>
<path d="M352.741 168.422C352.741 169.539 350.254 170.443 347.19 170.443C344.125 170.443 341.64 169.539 341.64 168.422C341.64 167.308 344.125 166.405 347.19 166.405C350.254 166.405 352.741 167.308 352.741 168.422Z" fill="#EE8C72"/>
<path d="M319.066 168.422C319.066 169.066 317.627 169.591 315.852 169.591C314.081 169.591 312.645 169.066 312.645 168.422C312.645 167.779 314.081 167.254 315.852 167.254C317.627 167.254 319.066 167.779 319.066 168.422Z" fill="#EE8C72"/>
<path d="M358.879 141.627C358.879 141.627 366.912 192.268 334.083 194.363C334.083 194.363 344.735 191.919 349.973 183.886C355.212 175.853 355.562 162.232 354.863 154.2C354.164 146.167 353.99 142.325 353.99 142.325L358.879 141.627Z" fill="#333333"/>
<path d="M384.377 139.27C384.377 141.826 373.08 143.897 359.144 143.897C345.209 143.897 333.911 141.826 333.911 139.27C333.911 136.714 345.209 134.642 359.144 134.642C373.08 134.642 384.377 136.714 384.377 139.27Z" fill="#FEAA00"/>
<path d="M338.8 137.174C338.8 139.73 327.503 141.802 313.567 141.802C299.631 141.802 288.334 139.73 288.334 137.174C288.334 134.618 299.631 132.546 313.567 132.546C327.503 132.546 338.8 134.618 338.8 137.174Z" fill="#FEAA00"/>
<path d="M302.873 133.333C302.873 133.333 287.241 139.185 305.456 141.254C305.456 141.254 297.803 149.833 323.498 150.646C349.192 151.46 353.068 143.564 353.068 143.564C353.068 143.564 385.149 143.676 366.28 134.657C347.412 125.637 302.873 133.333 302.873 133.333Z" fill="#FEAA00"/>
<path d="M303.372 137.442C303.372 137.442 331.491 143.376 365.422 138.737C365.422 138.737 374.646 101.938 335.72 99.552C296.664 97.1593 303.372 137.442 303.372 137.442Z" fill="#FEAA00"/>
<g style="mix-blend-mode:multiply" opacity="0.42">
<path d="M361.738 112.225C355.813 135.578 321.152 138.15 308.221 138.286C327.175 141.084 346.426 141.235 365.422 138.737C365.422 138.737 369.19 123.698 361.738 112.225Z" fill="#919191"/>
</g>
<path d="M334.783 141.976L338.355 140.509C338.355 140.509 336.578 108.505 345.713 101.146L345.102 98.5896C345.102 98.5896 326.033 101.166 334.783 141.976Z" fill="#C97C00"/>
<path d="M334.784 141.976C334.784 141.976 332.604 104.121 345.102 98.5898C345.102 98.5898 338.697 96.0047 326.94 97.4274C326.94 97.4274 314.215 106.096 318.202 140.796C323.669 141.802 329.23 142.198 334.784 141.976V141.976Z" fill="#FFC05C"/>
<g style="mix-blend-mode:multiply" opacity="0.42">
<path d="M335.201 203.421H326.558V334.294H335.201V203.421Z" fill="#B8B8B8"/>
</g>
<path d="M334.232 198.366C325.578 198.366 316.358 194.846 316.358 194.846L316.383 201.509C316.383 201.509 318.56 207.138 334.04 207.138C349.206 207.138 351.721 200.134 351.721 200.134V194.799C351.721 194.799 342.887 198.366 334.232 198.366Z" fill="#EA9603"/>
<g style="mix-blend-mode:multiply" opacity="0.42">
<path d="M321.124 467.118C321.016 467.118 320.906 467.116 320.797 467.114C316.307 467.031 311.993 465.352 308.628 462.378C305.263 459.403 303.068 455.328 302.435 450.882L305.955 511.781L305.997 512.489L306.354 513.103C307.533 515.131 310.467 517.486 322.787 517.721C323.148 517.729 323.501 517.733 323.845 517.733H323.85C338.444 517.733 340.024 511.545 340.191 510.305L340.22 510.1L340.218 509.895L339.991 448.566C339.991 448.553 339.991 448.54 339.991 448.526C339.991 448.54 339.991 448.552 339.991 448.565C339.884 453.507 337.852 458.211 334.328 461.676C330.804 465.142 326.066 467.094 321.124 467.118V467.118Z" fill="#B8B8B8"/>
</g>
<g style="mix-blend-mode:multiply" opacity="0.42">
<path d="M393.141 508.81L388.956 446.859C389.21 451.853 387.475 456.744 384.131 460.462C380.787 464.179 376.106 466.42 371.113 466.694C370.772 466.713 370.434 466.721 370.096 466.721C365.774 466.718 361.584 465.232 358.226 462.511C354.868 459.789 352.546 455.998 351.648 451.77L358.715 510.978C358.703 511.146 358.703 511.314 358.715 511.482C358.748 511.958 358.856 512.426 359.037 512.868L359.108 513.045L359.201 513.213L359.403 513.57L359.464 513.68L359.536 513.785C362.086 517.533 369.881 517.938 373.116 517.938C374.177 517.938 375.268 517.899 376.358 517.822C384.118 517.274 392.593 514.802 393.109 509.508L393.12 509.409L393.161 509.111L393.141 508.81Z" fill="#B8B8B8"/>
</g>
<path d="M334.826 129.615C334.826 131.499 334.267 133.342 333.22 134.909C332.173 136.476 330.685 137.697 328.943 138.418C327.202 139.139 325.286 139.328 323.438 138.96C321.589 138.593 319.891 137.685 318.558 136.352C317.226 135.019 316.318 133.321 315.951 131.473C315.583 129.624 315.772 127.708 316.493 125.967C317.214 124.226 318.436 122.738 320.003 121.691C321.57 120.644 323.412 120.085 325.297 120.085C327.824 120.085 330.248 121.089 332.035 122.876C333.822 124.663 334.826 127.087 334.826 129.615V129.615Z" fill="#111111"/>
<path d="M330.004 129.615C330.004 131.754 329.369 133.846 328.181 135.624C326.992 137.403 325.303 138.79 323.326 139.608C321.349 140.427 319.174 140.641 317.076 140.224C314.978 139.806 313.05 138.776 311.537 137.263C310.025 135.75 308.994 133.823 308.577 131.725C308.16 129.626 308.374 127.451 309.193 125.475C310.011 123.498 311.398 121.809 313.177 120.62C314.956 119.431 317.047 118.797 319.187 118.797C320.607 118.797 322.014 119.077 323.326 119.621C324.639 120.164 325.831 120.961 326.836 121.966C327.84 122.97 328.637 124.163 329.181 125.475C329.724 126.787 330.004 128.194 330.004 129.615V129.615Z" fill="#2B2B2B"/>
<path d="M327.839 129.615C327.839 131.326 327.331 132.999 326.38 134.422C325.429 135.845 324.078 136.954 322.497 137.609C320.915 138.263 319.175 138.435 317.497 138.101C315.818 137.767 314.277 136.942 313.066 135.732C311.856 134.522 311.032 132.98 310.698 131.301C310.365 129.623 310.536 127.883 311.191 126.302C311.846 124.721 312.955 123.369 314.378 122.418C315.801 121.467 317.474 120.96 319.186 120.96C320.322 120.96 321.448 121.184 322.497 121.619C323.547 122.054 324.501 122.691 325.305 123.495C326.109 124.299 326.746 125.253 327.181 126.303C327.616 127.353 327.839 128.478 327.839 129.615V129.615Z" fill="#8FF4F9"/>
<path d="M326.083 129.615C326.083 130.866 325.712 132.089 325.017 133.129C324.322 134.17 323.334 134.98 322.178 135.459C321.022 135.938 319.75 136.063 318.523 135.819C317.296 135.575 316.168 134.973 315.284 134.088C314.399 133.204 313.796 132.076 313.552 130.849C313.308 129.622 313.433 128.35 313.912 127.194C314.391 126.038 315.202 125.05 316.242 124.355C317.282 123.66 318.505 123.289 319.756 123.289C321.434 123.289 323.043 123.955 324.23 125.142C325.416 126.328 326.083 127.937 326.083 129.615V129.615Z" fill="#1B9393"/>
<path opacity="0.51" d="M315.672 121.711L311.284 126.099C310.845 127.089 310.596 128.152 310.552 129.234L318.807 120.979C317.725 121.024 316.661 121.272 315.672 121.711V121.711Z" fill="white"/>
<path opacity="0.51" d="M321.028 121.162L310.732 131.457C310.869 132.076 311.073 132.678 311.341 133.252L322.822 121.771C322.249 121.502 321.647 121.297 321.028 121.162V121.162Z" fill="white"/>
<path d="M325.297 120.085C324.695 120.085 324.095 120.142 323.504 120.256C325.681 120.673 327.644 121.835 329.056 123.543C330.468 125.251 331.24 127.398 331.24 129.614C331.24 131.831 330.468 133.977 329.056 135.686C327.644 137.394 325.681 138.556 323.504 138.973C324.095 139.086 324.695 139.143 325.297 139.144C327.82 139.138 330.238 138.131 332.021 136.345C333.803 134.558 334.804 132.138 334.804 129.614C334.804 127.091 333.803 124.67 332.021 122.884C330.238 121.097 327.82 120.091 325.297 120.085Z" fill="#2B2B2B"/>
<path d="M403.072 317.899L396.703 314.187L392.254 315.493C387.865 314.474 385.741 311.822 383.574 311.676C381.407 311.532 377.878 309.574 377.878 309.574C376.167 312.724 380.28 315.599 380.28 315.599C379.978 315.564 379.676 315.528 379.372 315.492C378.628 315.407 377.881 315.316 377.135 315.233C376.184 315.128 375.236 315.005 374.283 314.903C373.362 314.806 372.445 314.673 371.522 314.59C370.811 314.504 370.094 314.465 369.378 314.474C368.641 314.536 367.915 314.687 367.215 314.925C366.319 315.185 361.676 317.29 360.888 317.541C360.521 317.657 359.759 317.895 359.759 317.897C359.6 318.345 359.541 318.822 359.588 319.294C359.634 319.767 359.784 320.224 360.027 320.632C360.971 322.05 363.14 321.84 364.228 321.556C365.14 321.274 366.03 320.923 366.89 320.508C367.562 320.207 367.364 320.076 368.577 320.103C369.279 320.161 369.978 320.258 370.669 320.395C372.186 320.601 373.702 320.816 375.217 321.04C375.563 321.092 375.908 321.143 376.252 321.195C376.252 321.195 369.162 323.119 366.972 323.941C365.333 324.554 360.992 329.506 360.992 329.506C357.852 333.045 363.306 333.853 363.306 333.853C362.989 334.23 362.804 334.701 362.78 335.194C362.851 335.546 363.055 335.857 363.349 336.062C363.792 336.395 364.31 336.615 364.858 336.701C365.831 336.955 366.855 336.929 367.813 336.627C368.083 336.528 368.347 336.411 368.602 336.278C368.854 336.149 369.102 336.006 369.346 335.861C369.656 335.675 369.959 335.478 370.261 335.273C371.213 334.66 372.123 333.985 372.986 333.252C373.09 333.16 373.319 332.857 373.458 332.839L379.018 332.04C377.219 333.23 375.561 336.809 373.14 338.586C372.758 338.853 372.415 339.171 372.119 339.531C371.949 339.711 371.819 339.924 371.738 340.158C371.657 340.392 371.627 340.64 371.649 340.886C371.755 341.366 372.216 341.47 372.564 341.574C373.685 341.878 374.874 341.827 375.965 341.428C376.551 341.231 377.11 340.959 377.627 340.618C378.019 340.362 378.389 340.072 378.732 339.751C378.892 339.611 379.042 339.459 379.18 339.296C382.255 335.235 385.879 333.022 390.937 335.116C398.225 338.135 402.827 327.258 402.827 327.258L403.072 317.899Z" fill="#6D6D6D"/>
<path d="M387.807 313.589L388.513 311.538C390.277 306.41 395.664 294.625 411.918 273.307C414.87 269.436 417.055 266.471 418.803 264.082C420.278 262.007 422.089 260.193 424.162 258.714C425.564 257.57 427.202 256.748 428.958 256.309C430.714 255.869 432.545 255.822 434.321 256.17C434.784 256.246 435.243 256.347 435.694 256.474L436.131 256.591L436.493 256.792C436.98 256.974 437.455 257.191 437.913 257.439C438.628 257.833 439.303 258.298 439.927 258.824L439.943 258.838L439.969 258.861C440.029 258.912 440.086 258.965 440.141 259.018L440.222 259.086C441.914 260.534 443.14 262.449 443.747 264.592C444.259 266.23 444.424 267.957 444.231 269.662C444.21 269.927 444.189 270.151 444.171 270.321L444.157 270.47L444.126 270.84L444.007 271.19C443.965 271.309 443.917 271.437 443.867 271.565L443.838 271.64C443.567 272.589 443.184 273.502 442.697 274.36C434.466 291.861 411.91 319.544 405.331 324.191L403.785 325.281L402.142 324.342C400.064 323.154 395.485 319.569 391.353 316.303C390.476 315.609 389.821 315.091 389.547 314.885L387.807 313.589V313.589Z" fill="#FEAA00"/>
<path d="M388.963 310.298L406.484 323.279C408.141 321.815 409.718 320.263 411.208 318.629L391.705 304.179C390.689 306.171 389.774 308.213 388.963 310.298V310.298Z" fill="#DDDDDD"/>
<path d="M434.215 278.61C433.532 278.867 432.828 279.063 432.111 279.197C430.884 279.418 429.626 279.401 428.406 279.145C426.985 278.908 425.623 278.402 424.393 277.654C421.622 276.212 418.188 273.705 413.604 269.779L411.685 268.141L411.196 267.723C394.669 253.57 379.055 240.199 374.499 233.317C374.436 233.226 374.378 233.134 374.321 233.042L374.288 232.989C374.141 232.76 374.023 232.558 373.911 232.361C372.256 229.551 371.56 226.278 371.93 223.037C372.299 219.796 373.713 216.763 375.958 214.397C378.204 212.031 381.158 210.46 384.375 209.922C387.592 209.384 390.897 209.907 393.791 211.413C393.895 211.434 393.999 211.456 394.108 211.482L394.847 211.661L395.407 212.172C398.092 214.615 401.021 217.21 404.123 219.96C429.156 242.14 446.567 258.747 442.513 270.388C442.462 270.556 442.422 270.693 442.375 270.829L442.277 271.141L442.261 271.193L442.243 271.244C442.024 271.856 441.751 272.448 441.427 273.012L441.4 273.065C441.006 273.903 440.449 274.654 439.763 275.276C439.69 275.338 439.622 275.391 439.554 275.444C439.026 275.902 438.468 276.324 437.883 276.707C437.78 276.779 437.644 276.864 437.507 276.952C437.402 277.019 437.299 277.083 437.194 277.147C436.918 277.316 436.645 277.472 436.375 277.619C436.253 277.685 436.143 277.743 436.032 277.801L435.957 277.84C435.854 277.892 435.752 277.944 435.648 277.995C435.19 278.219 434.696 278.431 434.215 278.61V278.61Z" fill="#FEAA00"/>
<path d="M219.198 310.021C219.198 310.021 214.106 306.249 209.127 305.177C207.246 304.773 203.211 306.155 199.411 308.188L190.571 312.518C190.571 312.518 187.487 314.115 188.261 316.753C188.431 317.403 188.845 317.961 189.418 318.311C189.99 318.661 190.676 318.775 191.331 318.63V318.63C191.331 318.63 189.134 320.513 189.976 322.611C190.867 324.826 193.573 324.666 193.573 324.666C193.573 324.666 192.758 325.788 193.892 327.867C194.824 329.574 196.872 329.685 196.872 329.685C197.107 330.45 197.479 331.166 197.971 331.798C199.144 333.17 201.687 333.419 201.687 333.419C201.687 333.419 210.544 332.379 221.896 325.964C221.896 325.964 233.225 316.143 219.198 310.021Z" fill="#6D6D6D"/>
<path d="M199.855 308.565L191.196 312.999L191.332 318.63L193.574 324.666L196.873 329.685L201.599 332.859C203.448 332.882 209.256 330.472 209.256 330.472C207.967 321.75 213.313 317.568 213.313 317.568C204.884 317.372 199.855 308.565 199.855 308.565Z" fill="#333333"/>
<path d="M233.618 258.43C233.169 257.653 232.524 257.007 231.746 256.558C230.969 256.109 230.087 255.873 229.19 255.873H226.57C227.468 255.873 228.35 256.109 229.127 256.558C229.904 257.007 230.55 257.653 230.998 258.43C231.447 259.207 231.683 260.089 231.683 260.987C231.683 261.884 231.447 262.766 230.998 263.544L205.769 307.24C205.432 307.823 204.983 308.334 204.448 308.743C203.913 309.153 203.303 309.452 202.651 309.624C203.737 309.913 204.887 309.836 205.925 309.405C206.962 308.974 207.828 308.213 208.389 307.24L233.618 263.544C234.066 262.766 234.303 261.884 234.303 260.987C234.303 260.089 234.066 259.208 233.618 258.43V258.43Z" fill="#2E2E2E"/>
<path d="M195.506 511.58V300.499H207.127V511.58H195.506Z" fill="#C99465"/>
<path d="M230.146 546.377C223.738 557.213 201.706 567.606 201.706 567.606C201.706 567.606 179.045 557.467 172.487 546.377V485.792H230.146V546.377Z" fill="#616161"/>
<path d="M230.146 485.792H172.487V497.87H230.146V485.792Z" fill="#ADADAD"/>
<g style="mix-blend-mode:multiply" opacity="0.32">
<path d="M193.525 535.855C193.526 537.767 194.285 539.6 195.637 540.951C196.988 542.303 198.822 543.062 200.733 543.062C204.713 543.062 208.963 539.835 208.963 535.855V489.103C208.963 487.95 208.685 486.814 208.153 485.792H194.335C193.803 486.815 193.525 487.95 193.525 489.103V535.855Z" fill="#424242"/>
</g>
<path d="M208.173 459.76H194.46V485.792H208.173V459.76Z" fill="#4A4A4A"/>
<path d="M208.083 299.578H194.37V325.61H208.083V299.578Z" fill="#4A4A4A"/>
<path d="M196.914 307.24L171.685 263.544C171.236 262.766 171 261.884 171 260.987C171 260.089 171.236 259.208 171.685 258.43V258.43C172.134 257.653 172.779 257.007 173.556 256.558C174.334 256.109 175.216 255.873 176.113 255.873H226.57C227.468 255.873 228.35 256.109 229.127 256.558C229.904 257.007 230.55 257.653 230.998 258.43C231.447 259.208 231.683 260.089 231.683 260.987C231.683 261.884 231.447 262.766 230.998 263.544V263.544L205.769 307.24C205.321 308.017 204.675 308.662 203.898 309.111C203.121 309.56 202.24 309.796 201.342 309.796V309.796C200.445 309.797 199.563 309.56 198.785 309.112C198.008 308.663 197.363 308.017 196.914 307.24V307.24ZM201.341 294.456L217.713 266.101H184.97L201.341 294.456V294.456Z" fill="#4A4A4A"/>
<path d="M184.971 266.1L201.342 294.456L202.968 291.638L188.224 266.1H184.971Z" fill="#2E2E2E"/>
<path d="M199.908 332.291C200.946 331.832 201.365 331.314 201.206 330.196C201.047 329.079 200.401 328.291 199.081 328.318C199.76 328.196 200.366 327.821 200.777 327.268C201.189 326.714 201.373 326.025 201.293 325.34C201.123 322.748 199.18 322.976 198.729 322.989C198.729 322.989 201.188 322.852 201.169 320.04C201.151 317.227 198.721 317.418 198.721 317.418C199.267 317.374 199.78 317.143 200.175 316.764C200.57 316.385 200.822 315.881 200.888 315.338C201.262 313.314 199.319 312.627 198.216 312.444C196.752 312.07 195.309 311.618 193.894 311.089C193.894 311.089 192.779 310.636 192.585 310.279C191.993 310.353 186.767 311.359 186.489 313.8C186.392 314.465 186.557 315.14 186.948 315.685C187.34 316.23 187.928 316.602 188.588 316.723C188.588 316.723 185.83 317.604 185.791 319.863C185.751 322.251 188.305 323.156 188.305 323.156C188.305 323.156 187.118 323.873 187.353 326.229C187.549 328.163 189.393 329.063 189.393 329.063C189.311 329.859 189.375 330.664 189.583 331.437C190.13 333.157 195.502 333.522 195.502 333.522C195.502 333.522 195.742 332.962 196.992 332.785C198.242 332.61 198.873 332.748 199.908 332.291Z" fill="#6D6D6D"/>
<path d="M189.393 329.063C192.637 329.093 195.879 328.844 199.081 328.318C199.081 328.318 191.082 328.699 189.393 329.063Z" fill="#333333"/>
<path d="M188.305 323.156C188.305 323.156 194.103 323.733 198.728 322.989C198.728 322.989 191.002 322.74 188.305 323.156Z" fill="#333333"/>
<path d="M188.587 316.723C191.916 317.423 195.327 317.657 198.72 317.418C198.72 317.418 191.662 316.658 188.587 316.723Z" fill="#333333"/>
<path d="M205.486 312.934C205.486 312.934 211.345 313.007 211.574 309.714C211.805 306.422 208.898 305.139 206.667 305.344C204.129 305.89 200.825 307.132 196.802 306.72C192.948 306.323 191.973 305.401 191.71 306.085C190.555 309.086 191.404 312.592 205.486 312.934Z" fill="#6D6D6D"/>
<path d="M224.947 322.864L223.704 321.436C222.137 319.635 218.995 314.754 216.171 310.32C215.593 309.411 215.094 308.628 214.918 308.366L213.698 306.568L215.041 304.863C218.396 300.599 227.361 291.236 249.711 276.451C253.726 273.793 256.784 271.699 259.246 269.999C261.326 268.521 263.639 267.403 266.088 266.689C267.785 266.072 269.596 265.836 271.394 265.997C273.192 266.158 274.933 266.713 276.493 267.622C276.779 267.776 277.023 267.925 277.224 268.052C277.376 268.148 277.503 268.232 277.602 268.299L277.703 268.368L278.08 268.622L278.349 268.927C278.75 269.261 279.127 269.623 279.477 270.01C280.026 270.616 280.511 271.276 280.925 271.98C280.964 272.043 281.012 272.132 281.06 272.224C282.221 274.164 282.771 276.409 282.636 278.666C282.584 280.389 282.171 282.081 281.425 283.634C281.325 283.863 281.234 284.057 281.166 284.207L281.098 284.357L280.944 284.705L280.709 285.004C280.63 285.102 280.544 285.205 280.454 285.308L280.402 285.37C279.836 286.178 279.174 286.915 278.431 287.565C264.904 301.387 234.505 320.116 226.765 322.342L224.947 322.864V322.864Z" fill="#EA9603"/>
<path d="M216.812 302.761L229.757 321.186C231.405 320.447 233.408 319.435 235.667 318.204L221.477 298.008C219.503 299.867 217.982 301.449 216.812 302.761Z" fill="#DDDDDD"/>
<path d="M1068.2 295.383C1068.2 295.383 1065.37 291.4 1061.98 289.423C1060.7 288.676 1057.41 288.722 1054.14 289.302L1046.62 290.357C1046.62 290.357 1043.98 290.789 1043.92 292.908C1043.89 293.424 1044.06 293.933 1044.39 294.326C1044.73 294.72 1045.2 294.967 1045.72 295.017V295.017C1045.72 295.017 1043.66 295.871 1043.77 297.61C1043.89 299.447 1045.92 299.977 1045.92 299.977C1045.92 299.977 1045.05 300.604 1045.38 302.399C1045.49 302.853 1045.71 303.275 1046.01 303.63C1046.32 303.985 1046.7 304.264 1047.13 304.444C1047.12 305.061 1047.22 305.676 1047.43 306.256C1047.96 307.542 1049.76 308.333 1049.76 308.333C1049.76 308.333 1056.5 309.692 1066.36 307.711C1066.36 307.711 1077.01 303.227 1068.2 295.383Z" fill="#FAA284"/>
<path d="M1054.37 289.684L1046.97 290.86L1045.72 295.017L1045.92 299.977L1047.13 304.444L1049.83 307.901C1051.18 308.361 1056.01 307.987 1056.01 307.987C1057.16 301.287 1062.08 299.502 1062.08 299.502C1055.95 297.341 1054.37 289.684 1054.37 289.684Z" fill="#EF8D72"/>
<path d="M1057.45 294.233C1057.45 294.233 1061.73 295.689 1062.68 293.332C1063.64 290.975 1061.82 289.34 1060.13 288.956C1058.14 288.747 1055.43 288.866 1052.58 287.6C1049.85 286.387 1049.35 285.478 1049 285.915C1047.43 287.839 1047.22 290.61 1057.45 294.233Z" fill="#FAA284"/>
<path d="M1117.96 291.776C1118 288.959 1118.65 284.986 1120.16 279.066L1120.78 276.591C1125.93 256.287 1131.3 235.019 1135.31 228.13C1135.37 228.027 1135.43 227.932 1135.49 227.834C1135.59 227.662 1135.7 227.505 1135.8 227.354C1137.26 225.105 1139.42 223.402 1141.95 222.507C1144.47 221.613 1147.22 221.579 1149.77 222.41C1152.32 223.241 1154.52 224.89 1156.04 227.102C1157.55 229.313 1158.29 231.963 1158.14 234.639C1158.2 234.847 1158.26 235.04 1158.31 235.257C1151.22 260.043 1142.44 300.209 1129.22 301.773L1129.19 301.778C1129.06 301.801 1128.93 301.826 1128.79 301.843L1128.39 301.905C1127.91 301.96 1127.42 301.972 1126.93 301.941C1126.34 301.968 1125.74 301.882 1125.18 301.689C1125.09 301.651 1125.01 301.608 1124.92 301.57C1124.38 301.352 1123.86 301.091 1123.36 300.79C1123.24 300.723 1123.13 300.653 1123.01 300.584C1122.92 300.531 1122.83 300.475 1122.74 300.418C1122.52 300.276 1122.3 300.129 1122.08 299.979C1122 299.915 1121.91 299.85 1121.81 299.785C1121.73 299.721 1121.64 299.659 1121.56 299.591C1120.75 298.991 1120.04 298.285 1119.43 297.491C1118.89 296.77 1118.51 295.95 1118.29 295.079C1117.96 294.011 1117.85 292.888 1117.96 291.776Z" fill="#05334C"/>
<path d="M1128.37 283.278C1129.77 283.472 1131.11 283.974 1132.29 284.749C1133.47 285.525 1134.46 286.553 1135.19 287.759C1135.42 288.114 1135.63 288.483 1135.82 288.862L1135.86 289.065C1136.04 289.499 1136.2 289.947 1136.31 290.405C1136.46 291.019 1136.55 291.646 1136.57 292.277C1136.57 292.345 1136.57 292.414 1136.57 292.48C1136.66 294.202 1136.21 295.909 1135.3 297.371C1134.62 298.539 1133.71 299.551 1132.61 300.338C1132.31 300.579 1132.06 300.755 1131.94 300.851C1131.79 300.916 1131.6 300.98 1131.44 301.048C1130.7 301.43 1129.92 301.712 1129.1 301.887C1110.96 307.555 1075.37 309.567 1067.97 307.947C1067.29 304.897 1066.65 294.005 1066.5 292.486C1072.53 289.87 1085.58 286.307 1109.98 284.127C1114.83 283.695 1118.52 283.304 1121.6 282.969C1123.85 282.681 1126.15 282.786 1128.37 283.278V283.278Z" fill="#05334C"/>
<path d="M1228.76 276.319C1229.51 265.86 1235.96 251.307 1240.56 239.976C1242.66 239.458 1244.53 238.251 1245.86 236.548C1247.2 234.845 1247.92 232.743 1247.92 230.579C1247.92 225.227 1240.66 221.622 1235.59 219.898C1234.32 219.453 1233.02 219.082 1231.71 218.788C1218.82 212.3 1198.59 212.299 1198.59 212.299L1171.88 212.981C1171.88 212.981 1157.62 213.621 1141.11 221.316C1141.11 221.316 1141.64 234.793 1141.78 246.642C1141.87 253.828 1147.89 294.725 1147.71 304.8C1148.41 311.926 1147.6 330.159 1146.83 341.341C1146.83 341.419 1146.85 341.496 1146.88 341.567C1146.91 341.638 1146.96 341.702 1147.01 341.753C1147.86 343.871 1165.98 345.564 1188.23 345.564C1210.24 345.564 1228.21 343.909 1229.42 341.823C1229.45 341.822 1229.47 341.821 1229.49 341.82C1229.49 341.753 1229.49 341.669 1229.49 341.6V341.599C1229.59 334.578 1227.21 316.387 1227.45 309.589C1227.84 298.5 1227.97 287.39 1228.76 276.319Z" fill="#0A4469"/>
<path d="M1168.53 206.802C1168.53 206.802 1199.06 204.338 1206.12 205.717C1208.72 206.225 1199.28 217.485 1199.28 217.485L1164 219.427L1168.53 206.802Z" fill="#95B2BF"/>
<path d="M1236.75 161.165C1235.45 171.889 1209.27 177.55 1178.26 173.809C1147.24 170.068 1123.15 158.342 1124.45 147.619C1125.74 136.895 1151.93 131.234 1182.94 134.975C1213.95 138.716 1238.04 150.442 1236.75 161.165Z" fill="#75421C"/>
<g style="mix-blend-mode:multiply" opacity="0.42">
<path d="M1169.98 227.087L1177.71 237.527L1191.65 228.739L1196.11 237.361L1197.6 235.875C1204.15 229.326 1208.99 217.549 1210.65 213.152C1206.65 212.643 1202.62 212.359 1198.59 212.299L1171.88 212.981C1167.42 213.316 1163 214.045 1158.67 215.159C1159.57 220.539 1161.13 225.787 1163.31 230.787L1169.98 227.087Z" fill="#B8B8B8"/>
</g>
<path d="M1193.48 199.057H1175.25V217.709H1193.48V199.057Z" fill="#EE8C72"/>
<path d="M1175.25 201.601V206.841C1179.01 207.966 1186.62 209.974 1193.48 210.102V201.601H1175.25Z" fill="#DD725E"/>
<path d="M1159.98 167.745C1159.98 167.745 1157.09 155.406 1159.2 145.954L1168.07 138.476L1159.98 167.745Z" fill="#472004"/>
<path d="M1164.08 164.457C1164.08 164.457 1155.32 161.38 1155.32 170.133C1155.32 178.886 1164.08 176.284 1164.08 176.284V164.457Z" fill="#EE8C72"/>
<path d="M1207.29 164.457C1207.29 164.457 1216.04 161.38 1216.04 170.133C1216.04 178.886 1207.29 176.284 1207.29 176.284V164.457Z" fill="#F7A184"/>
<path d="M1208.12 179.874C1208.12 194.201 1197.33 205.819 1184.03 205.819C1170.72 205.819 1159.93 194.201 1159.93 179.874V156.861C1159.93 142.529 1170.72 130.914 1184.03 130.914C1197.33 130.914 1208.12 142.529 1208.12 156.861V179.874Z" fill="#F7A184"/>
<path d="M1208.12 156.861C1208.12 142.529 1197.33 130.914 1184.03 130.914C1171.64 130.914 1161.44 140.978 1160.09 153.927C1170.38 154.088 1191.63 155.381 1208.12 162.721V156.861Z" fill="#EE8C72"/>
<path d="M1171.5 144.029C1171.5 144.029 1176.44 145.087 1177.85 146.144C1177.96 146.226 1181.43 144.549 1181.78 144.434C1183.32 143.889 1184.95 143.622 1186.59 143.645C1188.91 143.713 1191.16 144.416 1193.44 144.807C1198.48 145.674 1203.73 146.877 1207.43 150.693C1204.85 139.34 1195.35 130.914 1184.02 130.914C1173.46 130.914 1164.5 138.235 1161.24 148.42C1163.7 145.912 1167.67 142.824 1171.5 144.029Z" fill="#EE8C72"/>
<path d="M1205.09 144.29C1206.59 147.736 1207.35 151.45 1207.35 155.205V178.219C1207.35 192.547 1196.57 204.164 1183.26 204.164C1174.19 204.164 1166.3 198.761 1162.19 190.788C1166.02 199.655 1174.34 205.819 1184.02 205.819C1197.33 205.819 1208.12 194.201 1208.12 179.873V156.861C1208.13 152.489 1207.09 148.179 1205.09 144.29V144.29Z" fill="#EE8C72"/>
<path d="M1205.93 174.571C1207.74 172.36 1209 169.751 1209.6 166.957C1210.65 162.232 1216.69 155.668 1215.9 149.367C1215.9 149.367 1218.79 143.59 1211.7 138.339C1205.97 134.09 1206.45 129.414 1203.04 126.262C1199.63 123.111 1187.02 116.55 1174.68 122.324C1174.68 122.324 1169.43 125.212 1167.86 128.363C1167.86 128.363 1170.22 120.486 1176 118.649C1176 118.649 1155.52 120.223 1159.19 147.529L1159.06 153.962C1159.06 153.962 1161.3 135.188 1178.62 141.753C1178.62 141.753 1194.11 136.764 1203.04 146.479C1203.04 146.479 1204.35 149.367 1203.83 156.455L1205.14 154.355C1205.14 154.355 1205.4 163.019 1205.93 174.571Z" fill="#472004"/>
<path d="M1170.35 172.448C1170.35 174.28 1169.62 175.765 1168.71 175.765C1167.8 175.765 1167.07 174.28 1167.07 172.448C1167.07 170.612 1167.8 169.13 1168.71 169.13C1169.62 169.13 1170.35 170.612 1170.35 172.448Z" fill="#3D1A01"/>
<path d="M1192.88 172.448C1192.88 174.28 1192.15 175.765 1191.24 175.765C1190.33 175.765 1189.59 174.28 1189.59 172.448C1189.59 170.612 1190.33 169.13 1191.24 169.13C1192.15 169.13 1192.88 170.612 1192.88 172.448Z" fill="#3D1A01"/>
<path d="M1173.78 186.133H1189.42C1189.42 186.133 1190.97 186.088 1189.85 188.473C1189.16 189.979 1187.26 193.111 1181.87 193.253C1175.47 193.421 1173.26 188.334 1173.26 188.334C1173.26 188.334 1172.21 186.133 1173.78 186.133Z" fill="#D24646"/>
<path d="M1190.12 187.809C1190.65 186.096 1189.42 186.133 1189.42 186.133H1173.78C1172.61 186.133 1172.9 187.358 1173.12 187.991C1176.13 188.773 1182.27 189.74 1190.12 187.809Z" fill="white"/>
<path d="M1178.85 176.276C1178.85 176.276 1175.09 176.139 1175.09 179.351C1175.09 182.563 1180.91 181.735 1181.09 179.351C1181.28 176.965 1181.6 159.347 1178.85 176.276Z" fill="#EE8C72"/>
<path d="M1194.05 165.59C1193.03 165.255 1191.95 165.085 1190.87 165.085V165.085C1189.79 165.085 1188.72 165.255 1187.7 165.59V165.59C1187.51 165.65 1187.31 165.634 1187.14 165.546C1186.96 165.458 1186.83 165.305 1186.77 165.121V165.121C1186.74 165.03 1186.73 164.934 1186.74 164.838C1186.75 164.742 1186.77 164.649 1186.82 164.563C1186.86 164.478 1186.92 164.402 1186.99 164.339C1187.07 164.277 1187.15 164.23 1187.24 164.2V164.2C1188.41 163.818 1189.64 163.623 1190.87 163.623V163.623C1192.11 163.623 1193.33 163.818 1194.51 164.2V164.2C1194.6 164.23 1194.68 164.277 1194.75 164.339C1194.83 164.402 1194.89 164.478 1194.93 164.563C1194.98 164.649 1195 164.742 1195.01 164.838C1195.02 164.933 1195.01 165.03 1194.98 165.121V165.121C1194.93 165.268 1194.83 165.396 1194.71 165.486C1194.58 165.577 1194.43 165.625 1194.28 165.625V165.625C1194.2 165.625 1194.13 165.613 1194.05 165.59V165.59Z" fill="#6D320A"/>
<path d="M1162.78 165.121C1162.75 165.03 1162.74 164.933 1162.75 164.838C1162.75 164.742 1162.78 164.649 1162.82 164.563C1162.87 164.478 1162.93 164.401 1163 164.339C1163.07 164.277 1163.16 164.23 1163.25 164.2V164.2C1164.42 163.818 1165.65 163.624 1166.88 163.624V163.624C1168.11 163.623 1169.34 163.818 1170.51 164.2V164.2C1170.7 164.26 1170.85 164.391 1170.94 164.564C1171.02 164.736 1171.04 164.937 1170.98 165.121V165.121C1170.92 165.305 1170.79 165.458 1170.62 165.546C1170.44 165.634 1170.24 165.649 1170.06 165.59V165.59C1169.03 165.256 1167.96 165.086 1166.88 165.086C1165.8 165.086 1164.73 165.256 1163.7 165.59C1163.63 165.613 1163.55 165.625 1163.48 165.625C1163.32 165.625 1163.17 165.577 1163.05 165.486C1162.92 165.396 1162.83 165.268 1162.78 165.121V165.121Z" fill="#6D320A"/>
<path d="M1204.04 180.08C1204.04 181.207 1201.53 182.119 1198.44 182.119C1195.34 182.119 1192.83 181.207 1192.83 180.08C1192.83 178.957 1195.34 178.045 1198.44 178.045C1201.53 178.045 1204.04 178.957 1204.04 180.08Z" fill="#EE8C72"/>
<path d="M1170.06 180.08C1170.06 180.731 1168.61 181.26 1166.82 181.26C1165.03 181.26 1163.58 180.731 1163.58 180.08C1163.58 179.432 1165.03 178.902 1166.82 178.902C1168.61 178.902 1170.06 179.432 1170.06 180.08Z" fill="#EE8C72"/>
<path d="M1170.38 480.421H1170.37C1170.26 480.421 1170.15 480.421 1170.04 480.418C1165 480.324 1160.19 478.233 1156.68 474.602C1153.17 470.971 1151.25 466.097 1151.33 461.048C1151.33 461.027 1151.33 461 1151.33 460.97L1145.81 352.977L1145.87 350.092L1146.19 349.761C1147.03 344.543 1149.7 339.796 1153.73 336.377C1157.76 332.957 1162.88 331.092 1168.16 331.116C1168.34 331.116 1168.52 331.119 1168.71 331.123C1174.61 331.263 1180.22 333.744 1184.3 338.019C1188.38 342.295 1190.59 348.016 1190.45 353.923C1190.45 354.232 1190.42 354.538 1190.39 354.845L1190.37 355.027L1189.36 460.089C1189.4 460.688 1189.42 461.204 1189.41 461.707C1189.3 466.691 1187.25 471.436 1183.7 474.932C1180.14 478.427 1175.36 480.397 1170.38 480.421V480.421Z" fill="#75421C"/>
<path d="M1219.79 480.02C1214.91 480.018 1210.23 478.146 1206.69 474.792C1203.16 471.437 1201.04 466.854 1200.78 461.988L1200.79 462.041C1200.78 461.994 1200.78 461.947 1200.78 461.903L1187.67 354.572L1187.27 351.336L1187.83 351.315C1188.35 345.978 1190.77 341.004 1194.65 337.304C1198.53 333.604 1203.62 331.423 1208.97 331.161C1209.33 331.144 1209.68 331.136 1210.03 331.136C1215.76 331.13 1221.27 333.335 1225.41 337.292C1229.55 341.248 1232.01 346.651 1232.27 352.374C1232.28 352.686 1232.28 352.987 1232.27 353.288L1232.27 353.484L1238.65 458.363C1238.74 458.943 1238.79 459.465 1238.81 459.955C1239.08 464.998 1237.33 469.94 1233.96 473.696C1230.58 477.452 1225.85 479.717 1220.81 479.992C1220.47 480.012 1220.13 480.02 1219.79 480.02V480.02Z" fill="#75421C"/>
<path d="M1238.81 459.96C1238.56 455.094 1236.44 450.512 1232.91 447.158C1229.37 443.804 1224.69 441.933 1219.81 441.932C1219.47 441.932 1219.13 441.941 1218.79 441.959C1216.29 442.092 1213.84 442.715 1211.59 443.793C1209.33 444.872 1207.31 446.384 1205.64 448.244C1203.96 450.104 1202.67 452.275 1201.84 454.633C1201.01 456.992 1200.65 459.491 1200.78 461.988C1200.84 462.903 1200.96 463.813 1201.14 464.71L1206.8 517.301H1242.97L1238.81 459.96Z" fill="#75421C"/>
<g style="mix-blend-mode:multiply" opacity="0.42">
<path d="M1220.81 479.992C1220.47 480.012 1220.13 480.02 1219.79 480.02C1215.42 480.018 1211.18 478.512 1207.79 475.756C1204.4 473 1202.06 469.161 1201.16 464.884L1206.8 517.3H1242.97L1238.81 459.969C1239.07 465.01 1237.33 469.948 1233.95 473.701C1230.58 477.455 1225.85 479.717 1220.81 479.992V479.992Z" fill="#B8B8B8"/>
</g>
<path d="M1230.93 338.796L1230.61 283.834C1221.62 283.305 1222.68 260.576 1222.68 260.576H1146.04L1145.79 343.176C1145.39 348.999 1145.75 359.977 1152.58 368.233C1158.17 374.978 1166.76 378.4 1178.14 378.4C1179.65 378.4 1181.24 378.338 1182.86 378.215H1194.42C1208.75 378.215 1219.43 376.849 1224.87 370.217C1235.25 360.157 1230.93 338.796 1230.93 338.796Z" fill="#75421C"/>
<path d="M1216.87 213.533C1216.87 213.533 1211.05 233.883 1209.2 252.383H1218.19C1218.19 252.383 1223.21 223.84 1226.12 215.647L1216.87 213.533Z" fill="#75421C"/>
<path d="M1210.53 265.333C1208.99 265.333 1207.51 264.72 1206.42 263.63C1205.33 262.539 1204.71 261.06 1204.71 259.518V259.518V254.5C1204.71 252.957 1205.32 251.478 1206.42 250.387C1207.51 249.296 1208.99 248.683 1210.53 248.683H1215.28C1216.82 248.683 1218.3 249.296 1219.39 250.387C1220.49 251.478 1221.1 252.957 1221.1 254.5V259.518C1221.1 261.06 1220.48 262.539 1219.39 263.63C1218.3 264.72 1216.82 265.333 1215.28 265.333H1210.53ZM1207.35 254.5V259.518C1207.36 260.359 1207.69 261.165 1208.29 261.76C1208.88 262.355 1209.69 262.69 1210.53 262.691H1215.28C1216.12 262.69 1216.93 262.355 1217.52 261.76C1218.12 261.165 1218.45 260.359 1218.45 259.518V259.518V254.5C1218.45 253.659 1218.12 252.852 1217.52 252.257C1216.93 251.662 1216.12 251.327 1215.28 251.326H1210.53C1209.69 251.327 1208.88 251.662 1208.29 252.257C1207.69 252.852 1207.36 253.658 1207.35 254.5V254.5Z" fill="#B7B7B7"/>
<path d="M1151.85 216.176L1159.78 213.797C1159.78 213.797 1160.04 244.191 1160.84 251.591H1152.91C1152.91 251.591 1150.53 229.39 1151.85 216.176Z" fill="#75421C"/>
<path d="M1149.1 259.981L1148.82 254.974C1148.81 254.871 1148.81 254.757 1148.81 254.635C1148.81 253.15 1149.38 251.722 1150.4 250.643C1151.42 249.565 1152.81 248.917 1154.29 248.832L1159.03 248.561C1159.15 248.554 1159.26 248.551 1159.37 248.551C1160.86 248.553 1162.28 249.121 1163.36 250.141C1164.44 251.16 1165.09 252.553 1165.18 254.035V254.035L1165.46 259.044L1164.14 259.12L1165.46 259.049C1165.47 259.163 1165.47 259.272 1165.47 259.379C1165.47 260.864 1164.9 262.292 1163.88 263.371C1162.86 264.45 1161.47 265.098 1159.99 265.184L1155.24 265.455C1155.13 265.462 1155.02 265.465 1154.9 265.465C1153.42 265.464 1151.99 264.895 1150.91 263.876C1149.84 262.856 1149.19 261.463 1149.1 259.981ZM1159.19 251.199L1154.44 251.47C1153.63 251.516 1152.87 251.87 1152.32 252.458C1151.76 253.046 1151.45 253.825 1151.45 254.635C1151.45 254.684 1151.45 254.746 1151.46 254.821L1151.74 259.831C1151.79 260.639 1152.14 261.399 1152.73 261.955C1153.32 262.511 1154.1 262.821 1154.9 262.822V262.822C1154.97 262.822 1155.03 262.82 1155.09 262.817L1159.84 262.546C1160.64 262.499 1161.4 262.145 1161.96 261.556C1162.52 260.968 1162.83 260.189 1162.83 259.379C1162.83 259.316 1162.83 259.255 1162.82 259.195H1162.82L1162.54 254.187C1162.49 253.378 1162.14 252.618 1161.55 252.062C1160.96 251.506 1160.18 251.195 1159.37 251.193C1159.31 251.193 1159.25 251.196 1159.19 251.199Z" fill="#B7B7B7"/>
<path d="M1157.08 280.152V311.067C1157.08 311.584 1157.18 312.095 1157.38 312.573C1157.58 313.05 1157.87 313.484 1158.23 313.849C1158.6 314.214 1159.03 314.504 1159.51 314.702C1159.99 314.9 1160.5 315.001 1161.02 315.001H1208.35C1208.87 315.001 1209.38 314.899 1209.86 314.702C1210.33 314.504 1210.77 314.214 1211.13 313.849C1211.5 313.483 1211.79 313.05 1211.99 312.572C1212.18 312.095 1212.29 311.584 1212.29 311.067V280.152H1157.08Z" fill="#603314"/>
<path d="M1189.41 461.702C1189.49 456.654 1187.57 451.781 1184.06 448.15C1180.55 444.52 1175.75 442.429 1170.7 442.336C1170.59 442.334 1170.48 442.332 1170.37 442.332C1165.38 442.355 1160.6 444.324 1157.05 447.82C1153.49 451.316 1151.44 456.062 1151.33 461.048C1151.32 461.969 1151.38 462.891 1151.5 463.804L1153.51 517.301H1189.55L1189.41 461.702Z" fill="#75421C"/>
<g style="mix-blend-mode:multiply" opacity="0.42">
<path d="M1170.38 480.421H1170.37C1170.26 480.421 1170.15 480.421 1170.04 480.418C1165.5 480.334 1161.14 478.633 1157.75 475.621C1154.35 472.61 1152.14 468.486 1151.51 463.989L1153.51 517.301H1189.55L1189.41 461.702V461.707C1189.3 466.691 1187.25 471.437 1183.7 474.932C1180.14 478.428 1175.36 480.397 1170.38 480.421V480.421Z" fill="#B8B8B8"/>
</g>
<path d="M1215.39 160.982C1206 157.012 1193.7 153.824 1180.07 152.179C1170.29 150.944 1160.42 150.709 1150.6 151.479C1150.6 151.479 1147.93 135.223 1160.66 131.207C1173.39 127.191 1190.98 131.137 1209.56 138.607C1225.32 144.95 1215.39 160.982 1215.39 160.982Z" fill="#75421C"/>
<path d="M1215.76 142.766C1213.68 131.28 1206 116.51 1185.87 115.097C1166.39 113.73 1157.46 127.113 1154.11 134.223C1163.72 133.519 1173.38 133.771 1182.94 134.975C1195.4 136.478 1206.74 139.27 1215.76 142.766Z" fill="#603314"/>
<path d="M1157.06 129.022C1155.95 130.678 1154.96 132.417 1154.11 134.223C1163.72 133.519 1173.38 133.771 1182.94 134.975C1195.4 136.478 1206.74 139.27 1215.76 142.766C1215.4 140.775 1214.89 138.814 1214.24 136.897C1196.45 126.819 1167.72 128.116 1157.06 129.022Z" fill="#9B5729"/>
<path d="M1193.07 223.391C1193.07 223.391 1185.36 230.22 1178.09 235.063C1178.09 235.063 1170.16 224.934 1167.3 218.106C1163.59 209.271 1167.96 212.489 1167.96 212.489C1167.96 212.489 1190.43 209.186 1202.65 211.168C1202.65 211.168 1200.67 222.4 1199.34 223.722C1198.02 225.043 1193.07 223.391 1193.07 223.391Z" fill="#EE8C72"/>
<path d="M1178.09 235.063C1182.41 230.175 1187.09 225.611 1192.08 221.409L1193.4 224.713C1193.4 224.713 1183.16 232.421 1178.09 235.063Z" fill="#AFCAD8"/>
<path d="M1171.81 221.519L1178.09 235.064L1167.96 222.07L1171.81 221.519Z" fill="#AFCAD8"/>
<path d="M1201.22 211.059C1201.22 211.059 1196.81 216.344 1190.43 222.51L1197.03 233.633C1197.03 233.633 1205.95 222.07 1210.25 212.82L1206.44 205.893L1201.22 211.059Z" fill="#AFCAD8"/>
<path d="M1174.4 225.208C1174.4 225.208 1165.65 226.365 1163.67 229.007C1163.67 229.007 1161.02 220.748 1160.03 214.802L1168.53 206.802C1168.36 213.424 1170.43 219.908 1174.4 225.208V225.208Z" fill="#AFCAD8"/>
<path d="M1190.42 222.51L1190.32 226.982L1192.24 225.572L1190.42 222.51Z" fill="#8AABBA"/>
<path d="M1174.4 225.208L1173.23 228.833L1170.91 225.848L1174.4 225.208Z" fill="#8AABBA"/>
<path d="M1050.98 574.805V227.416C1050.98 226.154 1051.48 224.944 1052.37 224.052C1053.26 223.159 1054.47 222.658 1055.73 222.658V222.658C1057 222.658 1058.21 223.159 1059.1 224.052C1059.99 224.944 1060.49 226.154 1060.49 227.416V227.416V574.805C1060.49 575.429 1060.37 576.048 1060.13 576.625C1059.89 577.202 1059.54 577.727 1059.1 578.168C1058.66 578.61 1058.13 578.96 1057.55 579.199C1056.98 579.438 1056.36 579.561 1055.73 579.561C1055.11 579.561 1054.49 579.438 1053.91 579.199C1053.34 578.96 1052.81 578.61 1052.37 578.168C1051.93 577.727 1051.58 577.202 1051.34 576.625C1051.1 576.048 1050.98 575.429 1050.98 574.805Z" fill="#C99465"/>
<path d="M1062.65 222.422H1048.82V248.688H1062.65V222.422Z" fill="#4A4A4A"/>
<path d="M1055.42 306.247C1056.18 305.828 1056.47 305.403 1056.28 304.554C1056.25 304.351 1056.19 304.155 1056.09 303.978C1055.98 303.801 1055.85 303.647 1055.68 303.524C1055.52 303.402 1055.33 303.315 1055.13 303.267C1054.93 303.22 1054.73 303.213 1054.52 303.248C1055.04 303.111 1055.48 302.784 1055.76 302.333C1056.04 301.881 1056.14 301.34 1056.03 300.82C1055.73 298.839 1054.26 299.139 1053.91 299.178C1054.18 299.131 1054.44 299.031 1054.67 298.884C1054.9 298.737 1055.1 298.545 1055.26 298.319C1055.42 298.094 1055.53 297.839 1055.58 297.571C1055.64 297.302 1055.65 297.025 1055.6 296.755C1055.4 294.596 1053.55 294.9 1053.55 294.9C1053.96 294.831 1054.34 294.62 1054.62 294.304C1054.9 293.987 1055.06 293.584 1055.08 293.162C1055.23 291.584 1053.7 291.181 1052.84 291.111C1051.98 291.043 1046.97 290.86 1046.97 290.86C1046.8 290.715 1046.66 290.552 1046.54 290.374C1046.09 290.469 1043.97 291.014 1043.92 292.908C1043.89 293.424 1044.06 293.933 1044.39 294.326C1044.73 294.72 1045.2 294.967 1045.72 295.017C1045.72 295.017 1043.66 295.871 1043.77 297.609C1043.89 299.447 1045.92 299.977 1045.92 299.977C1045.92 299.977 1045.05 300.604 1045.38 302.399C1045.49 302.853 1045.71 303.275 1046.01 303.63C1046.32 303.985 1046.7 304.264 1047.13 304.444C1047.12 305.061 1047.22 305.675 1047.43 306.256C1047.96 307.541 1049.76 308.333 1049.76 308.333C1050.17 307.986 1050.65 307.75 1051.18 307.65C1052.63 307.301 1054.04 306.831 1055.42 306.247V306.247Z" fill="#FAA284"/>
<path d="M1047.13 304.444C1049.63 304.259 1052.1 303.858 1054.52 303.248C1054.52 303.248 1048.4 304.057 1047.13 304.444Z" fill="#EF8D72"/>
<path d="M1045.92 299.977C1048.6 300 1051.28 299.732 1053.91 299.177C1053.91 299.177 1047.96 299.484 1045.92 299.977Z" fill="#EF8D72"/>
<path d="M1045.72 295.017C1048.32 295.341 1050.96 295.302 1053.55 294.9C1053.55 294.9 1048.08 294.77 1045.72 295.017Z" fill="#EF8D72"/>
<path d="M1275.66 287.412C1273.19 286.045 1270 283.59 1265.49 279.47L1263.61 277.751C1248.14 263.624 1231.93 248.844 1227.76 242.052C1227.69 241.956 1227.64 241.854 1227.58 241.756C1227.48 241.583 1227.39 241.417 1227.3 241.256C1226.01 238.908 1225.53 236.199 1225.93 233.55C1226.34 230.901 1227.61 228.459 1229.54 226.606C1231.48 224.752 1233.97 223.59 1236.64 223.3C1239.3 223.01 1241.99 223.609 1244.28 225.003C1244.49 225.055 1244.69 225.088 1244.9 225.147C1263.4 243.102 1294.66 269.812 1289.79 282.205L1289.78 282.231C1289.74 282.362 1289.7 282.49 1289.65 282.619L1289.52 282.998C1289.33 283.451 1289.11 283.887 1288.86 284.302C1288.6 284.84 1288.24 285.324 1287.81 285.731C1287.73 285.791 1287.65 285.842 1287.58 285.901C1287.13 286.274 1286.65 286.611 1286.15 286.909C1286.04 286.983 1285.92 287.049 1285.81 287.117C1285.72 287.169 1285.63 287.222 1285.54 287.274C1285.3 287.407 1285.07 287.532 1284.84 287.647C1284.74 287.697 1284.64 287.745 1284.54 287.794C1284.44 287.841 1284.34 287.889 1284.25 287.93C1283.34 288.354 1282.38 288.651 1281.39 288.815C1280.5 288.945 1279.6 288.898 1278.73 288.677C1277.63 288.464 1276.59 288.034 1275.66 287.412V287.412Z" fill="#0A4469"/>
<path d="M1239.47 316.003L1234.91 312.437L1231.31 312.981C1228.01 311.72 1226.64 309.432 1224.97 309.088C1223.3 308.745 1220.76 306.846 1220.76 306.846C1219.1 309.114 1221.99 311.787 1221.99 311.787C1221.76 311.728 1221.53 311.668 1221.29 311.608C1220.72 311.462 1220.15 311.313 1219.58 311.168C1218.85 310.984 1218.13 310.788 1217.4 310.607C1216.69 310.433 1215.99 310.233 1215.29 310.07C1214.74 309.927 1214.19 309.821 1213.63 309.752C1213.05 309.721 1212.47 309.762 1211.9 309.873C1211.18 309.979 1207.34 311.121 1206.7 311.233C1206.4 311.283 1205.79 311.387 1205.79 311.387C1205.61 311.718 1205.52 312.083 1205.5 312.456C1205.49 312.829 1205.56 313.2 1205.7 313.544C1206.29 314.748 1208 314.816 1208.87 314.71C1209.61 314.588 1210.34 314.41 1211.05 314.179C1211.26 314.068 1211.48 313.999 1211.72 313.976C1211.95 313.953 1212.18 313.975 1212.41 314.043C1212.95 314.163 1213.48 314.313 1214 314.493C1215.16 314.815 1216.32 315.144 1217.47 315.479C1217.73 315.556 1218 315.632 1218.26 315.709C1218.26 315.709 1212.54 316.45 1210.75 316.857C1209.41 317.159 1205.51 320.547 1205.51 320.547C1202.69 322.965 1206.85 324.174 1206.85 324.174C1206.56 324.434 1206.36 324.78 1206.29 325.161C1206.31 325.442 1206.44 325.705 1206.64 325.896C1206.95 326.203 1207.33 326.428 1207.75 326.554C1208.48 326.856 1209.28 326.945 1210.05 326.81C1210.28 326.762 1210.49 326.7 1210.71 326.623C1210.91 326.55 1211.12 326.466 1211.33 326.379C1211.59 326.267 1211.84 326.145 1212.1 326.019C1212.91 325.643 1213.69 325.215 1214.44 324.737C1214.53 324.676 1214.74 324.466 1214.85 324.466L1219.26 324.437C1217.73 325.17 1216.06 327.776 1213.99 328.902C1213.66 329.069 1213.36 329.279 1213.09 329.527C1212.94 329.649 1212.82 329.801 1212.73 329.974C1212.64 330.147 1212.59 330.337 1212.58 330.531C1212.61 330.916 1212.96 331.046 1213.22 331.164C1214.06 331.52 1214.99 331.607 1215.88 331.413C1216.36 331.322 1216.82 331.169 1217.26 330.959C1217.59 330.802 1217.91 330.616 1218.21 330.403C1218.35 330.311 1218.48 330.208 1218.61 330.096C1221.43 327.266 1224.49 325.932 1228.2 328.099C1233.54 331.222 1238.28 323.255 1238.28 323.255L1239.47 316.003Z" fill="#FAA284"/>
<path d="M1276.9 270.695C1278.18 270.101 1279.57 269.8 1280.99 269.813C1282.4 269.826 1283.79 270.154 1285.06 270.772C1285.44 270.945 1285.82 271.141 1286.18 271.358L1286.32 271.508C1286.72 271.773 1287.09 272.067 1287.43 272.388C1287.89 272.824 1288.3 273.304 1288.66 273.823C1288.7 273.879 1288.73 273.938 1288.77 273.995C1289.78 275.396 1290.33 277.071 1290.35 278.795C1290.42 280.142 1290.19 281.488 1289.7 282.743C1289.57 283.111 1289.46 283.391 1289.41 283.539C1289.32 283.678 1289.2 283.83 1289.1 283.973C1288.68 284.695 1288.17 285.358 1287.58 285.945C1275.39 300.534 1246.56 321.488 1239.47 324.132C1237.24 321.937 1230.81 313.123 1229.86 311.929C1233.52 306.461 1242.55 296.406 1261.89 281.365C1265.73 278.377 1268.63 276.047 1271.03 274.102C1272.78 272.637 1274.76 271.484 1276.9 270.695V270.695Z" fill="#0A4469"/>
<path d="M1013.29 229.576C1011.88 229.576 1010.54 229.019 1009.55 228.027C1008.56 227.036 1008 225.692 1008 224.29V224.29V133.552C1008 132.29 1008.5 131.08 1009.39 130.188C1010.29 129.296 1011.5 128.795 1012.76 128.795V128.795C1013.38 128.795 1014 128.918 1014.58 129.157C1015.15 129.396 1015.68 129.746 1016.12 130.188C1016.56 130.63 1016.91 131.154 1017.15 131.731C1017.39 132.308 1017.51 132.927 1017.51 133.552V220.062H1096.1V133.552C1096.1 132.29 1096.6 131.08 1097.49 130.188C1098.38 129.296 1099.59 128.795 1100.85 128.795V128.795C1101.48 128.795 1102.1 128.917 1102.67 129.156C1103.25 129.395 1103.78 129.746 1104.22 130.188C1104.66 130.629 1105.01 131.154 1105.25 131.731C1105.49 132.308 1105.61 132.927 1105.61 133.552L1105.61 224.29C1105.61 225.691 1105.05 227.036 1104.06 228.027C1103.07 229.018 1101.73 229.575 1100.33 229.576H1013.29V229.576Z" fill="#4A4A4A"/>
<path d="M1036.81 224.246V133.551C1036.81 132.29 1037.31 131.08 1038.2 130.187C1039.09 129.295 1040.3 128.794 1041.57 128.794C1042.83 128.794 1044.04 129.295 1044.93 130.188C1045.82 131.08 1046.32 132.29 1046.32 133.551V133.551V224.246C1046.32 225.508 1045.82 226.718 1044.93 227.61C1044.04 228.502 1042.83 229.004 1041.57 229.004C1040.94 229.004 1040.32 228.881 1039.74 228.642C1039.17 228.403 1038.64 228.052 1038.2 227.61C1037.76 227.169 1037.41 226.644 1037.17 226.067C1036.93 225.49 1036.81 224.871 1036.81 224.246V224.246Z" fill="#4A4A4A"/>
<path d="M1068.26 224.247V133.552C1068.26 132.29 1068.76 131.08 1069.65 130.188C1070.54 129.296 1071.75 128.795 1073.01 128.794V128.794C1073.64 128.794 1074.26 128.917 1074.83 129.157C1075.41 129.396 1075.94 129.746 1076.38 130.188C1076.82 130.63 1077.17 131.154 1077.41 131.731C1077.65 132.308 1077.77 132.927 1077.77 133.552V133.552V224.247C1077.77 224.872 1077.65 225.49 1077.41 226.067C1077.17 226.645 1076.82 227.169 1076.38 227.611C1075.94 228.053 1075.41 228.403 1074.83 228.642C1074.26 228.881 1073.64 229.004 1073.01 229.004V229.004C1071.75 229.004 1070.54 228.503 1069.65 227.611C1068.76 226.718 1068.26 225.509 1068.26 224.247V224.247Z" fill="#4A4A4A"/>
<path opacity="0.1" d="M1033.25 936.823C1115.97 936.823 1201 919.652 1201 819.552C1201 710.076 1068.58 710.746 1068.58 595.972C1068.58 491.793 1022.54 426.764 960.012 426.764C873.58 426.764 792.562 527.229 643.845 417.631C464.047 285.2 338.079 445.761 422.626 572.895C482.842 663.436 316 680.424 316 810.358C316 926.715 421.348 936.823 474.631 936.823C527.913 936.823 1033.25 936.823 1033.25 936.823Z" fill="white"/>
<path opacity="0.1" d="M1545.5 209C1401.46 209 1285 325.464 1285 469.5C1285 613.536 1401.46 730 1545.5 730C1689.54 730 1806 613.536 1806 469.5C1806 325.464 1689.12 209 1545.5 209ZM1545.5 627.528C1458.26 627.528 1387.47 556.745 1387.47 469.5C1387.47 382.255 1457.84 311.06 1545.5 311.06C1633.16 311.06 1703.53 381.844 1703.53 469.088C1703.53 556.333 1632.74 627.528 1545.5 627.528Z" fill="white"/>
<path opacity="0.1" d="M1224.5 45C1180.54 45 1145 80.5427 1145 124.5C1145 168.457 1180.54 204 1224.5 204C1268.46 204 1304 168.457 1304 124.5C1304 80.5427 1268.33 45 1224.5 45ZM1224.5 172.727C1197.87 172.727 1176.27 151.126 1176.27 124.5C1176.27 97.8744 1197.75 76.1469 1224.5 76.1469C1251.25 76.1469 1272.73 97.7488 1272.73 124.374C1272.73 151 1251.13 172.727 1224.5 172.727Z" fill="white"/>
<circle opacity="0.1" cx="280" cy="-20" r="262" stroke="white" stroke-width="2"/>
<g opacity="0.1">
<path d="M-68.9661 309.889L-43.1106 284.034C-47.6275 286.682 -51.9887 289.797 -55.7268 293.379L-59.4649 297.117C-63.2031 301.011 -66.3182 305.217 -68.9661 309.889Z" fill="white"/>
<path d="M-76.598 330.293L-22.5506 276.246C-24.1082 276.558 -25.51 276.869 -26.9118 277.336L-75.3519 325.777C-75.975 327.334 -76.2865 328.892 -76.598 330.293Z" fill="white"/>
<path d="M-78 344C-78 344.156 -78 344.311 -78 344.467L-8.53284 275C-8.6886 275 -8.84434 275 -9.00009 275C-9.93463 275 -11.0249 275 -11.9594 275L-78 341.041C-78 342.131 -78 343.065 -78 344Z" fill="white"/>
<path d="M-76.9095 356.304L3.30486 276.09C2.37033 275.934 1.4358 275.779 0.345512 275.623L-77.3767 353.345C-77.221 354.28 -77.0653 355.214 -76.9095 356.304Z" fill="white"/>
<path d="M-74.2616 366.429L13.429 278.738C12.6502 278.426 11.7157 278.115 10.9369 277.959L-75.0404 363.781C-74.8847 364.715 -74.5731 365.494 -74.2616 366.429Z" fill="white"/>
<path d="M-70.5235 375.463L22.3071 282.632C21.5283 282.32 20.7495 281.853 19.9707 281.542L-71.6139 373.126C-71.3023 373.905 -70.8351 374.684 -70.5235 375.463Z" fill="white"/>
<path d="M-65.6953 383.406L30.4062 287.305C29.7831 286.837 29.0044 286.37 28.3814 285.903L-67.0971 381.381C-66.6298 382.004 -66.1626 382.783 -65.6953 383.406Z" fill="white"/>
<path d="M-60.0881 390.571L37.4152 293.068C36.7922 292.601 36.1692 291.978 35.5461 291.51L-61.6456 388.702" fill="white"/>
<path d="M-53.5461 396.801L43.8014 299.454C43.3341 298.831 42.7111 298.208 42.2438 297.585L-55.2595 395.088" fill="white"/>
<path d="M-46.2256 402.253L49.2528 306.774C48.7856 306.151 48.3183 305.373 47.851 304.75L-48.2504 400.851" fill="white"/>
<path d="M-37.8147 406.77L53.9256 315.029C53.6141 314.25 53.1468 313.472 52.8353 312.693L-39.9953 405.523" fill="white"/>
<path d="M-28.6254 410.352L57.1962 324.53C56.8847 323.596 56.7289 322.817 56.4174 322.038L-31.2732 409.729" fill="white"/>
<path d="M-18.0337 412.533L59.5327 334.966C59.377 334.032 59.2213 332.941 59.0655 332.007L-20.9931 412.065" fill="white"/>
<path d="M-5.72926 413L60.1555 347.115C60.1555 346.025 60.1555 344.935 60.1555 344C60.1555 343.844 60.1555 343.844 60.1555 343.689L-9.15591 413" fill="white"/>
<path d="M9.37905 410.664L57.5077 362.535C57.975 361.133 58.2864 359.576 58.598 358.018L4.86214 411.754" fill="white"/>
<path d="M25.7337 403.81C36.1693 397.736 44.7359 389.169 50.8104 378.734L25.7337 403.81Z" fill="white"/>
</g>
</g>
</svg>
