<svg width="260" height="271" viewBox="0 0 260 271" fill="none" xmlns="http://www.w3.org/2000/svg">
<g filter="url(#filter0_d_468_10234)">
<rect x="60" y="45" width="139.096" height="150.336" rx="15" fill="white"/>
</g>
<path d="M78.3307 152.127C78.3307 151.295 78.5107 150.555 78.8707 149.907C79.2307 149.251 79.7307 148.743 80.3707 148.383C81.0187 148.015 81.7507 147.831 82.5667 147.831C83.5667 147.831 84.4227 148.095 85.1347 148.623C85.8467 149.151 86.3227 149.871 86.5627 150.783H84.3067C84.1387 150.431 83.8987 150.163 83.5867 149.979C83.2827 149.795 82.9347 149.703 82.5427 149.703C81.9107 149.703 81.3987 149.923 81.0067 150.363C80.6147 150.803 80.4187 151.391 80.4187 152.127C80.4187 152.863 80.6147 153.451 81.0067 153.891C81.3987 154.331 81.9107 154.551 82.5427 154.551C82.9347 154.551 83.2827 154.459 83.5867 154.275C83.8987 154.091 84.1387 153.823 84.3067 153.471H86.5627C86.3227 154.383 85.8467 155.103 85.1347 155.631C84.4227 156.151 83.5667 156.411 82.5667 156.411C81.7507 156.411 81.0187 156.231 80.3707 155.871C79.7307 155.503 79.2307 154.995 78.8707 154.347C78.5107 153.699 78.3307 152.959 78.3307 152.127ZM90.8673 156.447C90.2113 156.447 89.6193 156.307 89.0913 156.027C88.5713 155.747 88.1593 155.347 87.8553 154.827C87.5593 154.307 87.4113 153.699 87.4113 153.003C87.4113 152.315 87.5633 151.711 87.8673 151.191C88.1713 150.663 88.5873 150.259 89.1153 149.979C89.6433 149.699 90.2353 149.559 90.8913 149.559C91.5473 149.559 92.1393 149.699 92.6673 149.979C93.1953 150.259 93.6113 150.663 93.9153 151.191C94.2193 151.711 94.3713 152.315 94.3713 153.003C94.3713 153.691 94.2153 154.299 93.9033 154.827C93.5993 155.347 93.1793 155.747 92.6433 156.027C92.1153 156.307 91.5233 156.447 90.8673 156.447ZM90.8673 154.671C91.2593 154.671 91.5913 154.527 91.8633 154.239C92.1433 153.951 92.2833 153.539 92.2833 153.003C92.2833 152.467 92.1473 152.055 91.8753 151.767C91.6113 151.479 91.2833 151.335 90.8913 151.335C90.4913 151.335 90.1593 151.479 89.8953 151.767C89.6313 152.047 89.4993 152.459 89.4993 153.003C89.4993 153.539 89.6273 153.951 89.8833 154.239C90.1473 154.527 90.4753 154.671 90.8673 154.671ZM99.5399 149.583C100.324 149.583 100.948 149.839 101.412 150.351C101.884 150.855 102.12 151.551 102.12 152.439V156.351H100.08V152.715C100.08 152.267 99.9639 151.919 99.7319 151.671C99.4999 151.423 99.1879 151.299 98.7959 151.299C98.4039 151.299 98.0919 151.423 97.8599 151.671C97.6279 151.919 97.5119 152.267 97.5119 152.715V156.351H95.4599V149.655H97.5119V150.543C97.7199 150.247 97.9999 150.015 98.3519 149.847C98.7039 149.671 99.0999 149.583 99.5399 149.583ZM106.09 149.559C106.562 149.559 106.974 149.655 107.326 149.847C107.686 150.039 107.962 150.291 108.154 150.603V149.655H110.206V156.339C110.206 156.955 110.082 157.511 109.834 158.007C109.594 158.511 109.222 158.911 108.718 159.207C108.222 159.503 107.602 159.651 106.858 159.651C105.866 159.651 105.062 159.415 104.446 158.943C103.83 158.479 103.478 157.847 103.39 157.047H105.418C105.482 157.303 105.634 157.503 105.874 157.647C106.114 157.799 106.41 157.875 106.762 157.875C107.186 157.875 107.522 157.751 107.77 157.503C108.026 157.263 108.154 156.875 108.154 156.339V155.391C107.954 155.703 107.678 155.959 107.326 156.159C106.974 156.351 106.562 156.447 106.09 156.447C105.538 156.447 105.038 156.307 104.59 156.027C104.142 155.739 103.786 155.335 103.522 154.815C103.266 154.287 103.138 153.679 103.138 152.991C103.138 152.303 103.266 151.699 103.522 151.179C103.786 150.659 104.142 150.259 104.59 149.979C105.038 149.699 105.538 149.559 106.09 149.559ZM108.154 153.003C108.154 152.491 108.01 152.087 107.722 151.791C107.442 151.495 107.098 151.347 106.69 151.347C106.282 151.347 105.934 151.495 105.646 151.791C105.366 152.079 105.226 152.479 105.226 152.991C105.226 153.503 105.366 153.911 105.646 154.215C105.934 154.511 106.282 154.659 106.69 154.659C107.098 154.659 107.442 154.511 107.722 154.215C108.01 153.919 108.154 153.515 108.154 153.003ZM113.742 150.771C113.982 150.403 114.282 150.115 114.642 149.907C115.002 149.691 115.402 149.583 115.842 149.583V151.755H115.278C114.766 151.755 114.382 151.867 114.126 152.091C113.87 152.307 113.742 152.691 113.742 153.243V156.351H111.69V149.655H113.742V150.771ZM116.415 152.991C116.415 152.303 116.543 151.699 116.799 151.179C117.063 150.659 117.419 150.259 117.867 149.979C118.315 149.699 118.815 149.559 119.367 149.559C119.839 149.559 120.251 149.655 120.603 149.847C120.963 150.039 121.239 150.291 121.431 150.603V149.655H123.483V156.351H121.431V155.403C121.231 155.715 120.951 155.967 120.591 156.159C120.239 156.351 119.827 156.447 119.355 156.447C118.811 156.447 118.315 156.307 117.867 156.027C117.419 155.739 117.063 155.335 116.799 154.815C116.543 154.287 116.415 153.679 116.415 152.991ZM121.431 153.003C121.431 152.491 121.287 152.087 120.999 151.791C120.719 151.495 120.375 151.347 119.967 151.347C119.559 151.347 119.211 151.495 118.923 151.791C118.643 152.079 118.503 152.479 118.503 152.991C118.503 153.503 118.643 153.911 118.923 154.215C119.211 154.511 119.559 154.659 119.967 154.659C120.375 154.659 120.719 154.511 120.999 154.215C121.287 153.919 121.431 153.515 121.431 153.003ZM128.7 154.611V156.351H127.656C126.912 156.351 126.332 156.171 125.916 155.811C125.5 155.443 125.292 154.847 125.292 154.023V151.359H124.476V149.655H125.292V148.023H127.344V149.655H128.688V151.359H127.344V154.047C127.344 154.247 127.392 154.391 127.488 154.479C127.584 154.567 127.744 154.611 127.968 154.611H128.7ZM136.455 149.655V156.351H134.403V155.439C134.195 155.735 133.911 155.975 133.551 156.159C133.199 156.335 132.807 156.423 132.375 156.423C131.863 156.423 131.411 156.311 131.019 156.087C130.627 155.855 130.323 155.523 130.107 155.091C129.891 154.659 129.783 154.151 129.783 153.567V149.655H131.823V153.291C131.823 153.739 131.939 154.087 132.171 154.335C132.403 154.583 132.715 154.707 133.107 154.707C133.507 154.707 133.823 154.583 134.055 154.335C134.287 154.087 134.403 153.739 134.403 153.291V149.655H136.455ZM139.981 147.471V156.351H137.929V147.471H139.981ZM141.06 152.991C141.06 152.303 141.188 151.699 141.444 151.179C141.708 150.659 142.064 150.259 142.512 149.979C142.96 149.699 143.46 149.559 144.012 149.559C144.484 149.559 144.896 149.655 145.248 149.847C145.608 150.039 145.884 150.291 146.076 150.603V149.655H148.128V156.351H146.076V155.403C145.876 155.715 145.596 155.967 145.236 156.159C144.884 156.351 144.472 156.447 144 156.447C143.456 156.447 142.96 156.307 142.512 156.027C142.064 155.739 141.708 155.335 141.444 154.815C141.188 154.287 141.06 153.679 141.06 152.991ZM146.076 153.003C146.076 152.491 145.932 152.087 145.644 151.791C145.364 151.495 145.02 151.347 144.612 151.347C144.204 151.347 143.856 151.495 143.568 151.791C143.288 152.079 143.148 152.479 143.148 152.991C143.148 153.503 143.288 153.911 143.568 154.215C143.856 154.511 144.204 154.659 144.612 154.659C145.02 154.659 145.364 154.511 145.644 154.215C145.932 153.919 146.076 153.515 146.076 153.003ZM153.344 154.611V156.351H152.3C151.556 156.351 150.976 156.171 150.56 155.811C150.144 155.443 149.936 154.847 149.936 154.023V151.359H149.12V149.655H149.936V148.023H151.988V149.655H153.332V151.359H151.988V154.047C151.988 154.247 152.036 154.391 152.132 154.479C152.228 154.567 152.388 154.611 152.612 154.611H153.344ZM155.519 148.959C155.159 148.959 154.863 148.855 154.631 148.647C154.407 148.431 154.295 148.167 154.295 147.855C154.295 147.535 154.407 147.271 154.631 147.063C154.863 146.847 155.159 146.739 155.519 146.739C155.871 146.739 156.159 146.847 156.383 147.063C156.615 147.271 156.731 147.535 156.731 147.855C156.731 148.167 156.615 148.431 156.383 148.647C156.159 148.855 155.871 148.959 155.519 148.959ZM156.539 149.655V156.351H154.487V149.655H156.539ZM161.074 156.447C160.418 156.447 159.826 156.307 159.298 156.027C158.778 155.747 158.366 155.347 158.062 154.827C157.766 154.307 157.618 153.699 157.618 153.003C157.618 152.315 157.77 151.711 158.074 151.191C158.378 150.663 158.794 150.259 159.322 149.979C159.85 149.699 160.442 149.559 161.098 149.559C161.754 149.559 162.346 149.699 162.874 149.979C163.402 150.259 163.818 150.663 164.122 151.191C164.426 151.711 164.578 152.315 164.578 153.003C164.578 153.691 164.422 154.299 164.11 154.827C163.806 155.347 163.386 155.747 162.85 156.027C162.322 156.307 161.73 156.447 161.074 156.447ZM161.074 154.671C161.466 154.671 161.798 154.527 162.07 154.239C162.35 153.951 162.49 153.539 162.49 153.003C162.49 152.467 162.354 152.055 162.082 151.767C161.818 151.479 161.49 151.335 161.098 151.335C160.698 151.335 160.366 151.479 160.102 151.767C159.838 152.047 159.706 152.459 159.706 153.003C159.706 153.539 159.834 153.951 160.09 154.239C160.354 154.527 160.682 154.671 161.074 154.671ZM169.747 149.583C170.531 149.583 171.155 149.839 171.619 150.351C172.091 150.855 172.327 151.551 172.327 152.439V156.351H170.287V152.715C170.287 152.267 170.171 151.919 169.939 151.671C169.707 151.423 169.395 151.299 169.003 151.299C168.611 151.299 168.299 151.423 168.067 151.671C167.835 151.919 167.719 152.267 167.719 152.715V156.351H165.667V149.655H167.719V150.543C167.927 150.247 168.207 150.015 168.559 149.847C168.911 149.671 169.307 149.583 169.747 149.583ZM178.996 147.627L178.756 153.375H177.016L176.776 147.627H178.996ZM177.916 156.447C177.556 156.447 177.26 156.343 177.028 156.135C176.804 155.919 176.692 155.655 176.692 155.343C176.692 155.023 176.804 154.755 177.028 154.539C177.26 154.323 177.556 154.215 177.916 154.215C178.268 154.215 178.556 154.323 178.78 154.539C179.012 154.755 179.128 155.023 179.128 155.343C179.128 155.655 179.012 155.919 178.78 156.135C178.556 156.343 178.268 156.447 177.916 156.447Z" fill="#1967D2"/>
<path d="M87.4192 170.706V173.336H88.3292V170.706L90.5992 166.366H89.5892L87.8692 169.896L86.1492 166.366H85.1392L87.4192 170.706ZM96.7591 170.586C96.7591 168.856 95.5491 167.766 93.9891 167.766C92.4391 167.766 91.2191 168.856 91.2191 170.586C91.2191 172.326 92.3991 173.426 93.9491 173.426C95.5091 173.426 96.7591 172.326 96.7591 170.586ZM92.1491 170.586C92.1491 169.206 93.0191 168.556 93.9791 168.556C94.9191 168.556 95.8291 169.206 95.8291 170.586C95.8291 171.976 94.8991 172.626 93.9491 172.626C92.9991 172.626 92.1491 171.976 92.1491 170.586ZM102.816 167.856H101.906V170.866C101.906 172.046 101.276 172.626 100.336 172.626C99.4155 172.626 98.8055 172.056 98.8055 170.946V167.856H97.9055V171.066C97.9055 172.636 98.8955 173.416 100.156 173.416C100.886 173.416 101.556 173.096 101.906 172.526V173.336H102.816V167.856ZM106.678 170.576C106.678 172.276 107.808 173.426 109.268 173.426C110.278 173.426 110.988 172.906 111.318 172.316V173.336H112.238V167.856H111.318V168.856C110.998 168.286 110.298 167.766 109.278 167.766C107.808 167.766 106.678 168.866 106.678 170.576ZM111.318 170.586C111.318 171.876 110.458 172.626 109.458 172.626C108.458 172.626 107.608 171.866 107.608 170.576C107.608 169.286 108.458 168.556 109.458 168.556C110.458 168.556 111.318 169.316 111.318 170.586ZM114.686 170.356C114.686 169.086 115.346 168.696 116.216 168.696H116.456V167.756C115.586 167.756 114.996 168.136 114.686 168.746V167.856H113.776V173.336H114.686V170.356ZM119.836 168.536C120.776 168.536 121.576 169.126 121.566 170.196H118.106C118.206 169.126 118.946 168.536 119.836 168.536ZM122.396 171.646H121.416C121.216 172.236 120.696 172.656 119.876 172.656C118.946 172.656 118.166 172.046 118.096 170.936H122.476C122.496 170.746 122.506 170.586 122.506 170.386C122.506 168.886 121.466 167.766 119.876 167.766C118.276 167.766 117.166 168.856 117.166 170.586C117.166 172.326 118.316 173.426 119.876 173.426C121.236 173.426 122.116 172.646 122.396 171.646ZM131.054 173.336H132.014L129.504 166.406H128.454L125.934 173.336H126.894L127.454 171.786H130.494L131.054 173.336ZM130.234 171.046H127.714L128.974 167.526L130.234 171.046ZM132.772 170.586C132.772 172.326 133.882 173.426 135.442 173.426C136.802 173.426 137.692 172.666 137.972 171.576H136.992C136.792 172.266 136.252 172.656 135.442 172.656C134.442 172.656 133.702 171.946 133.702 170.586C133.702 169.246 134.442 168.536 135.442 168.536C136.252 168.536 136.802 168.956 136.992 169.616H137.972C137.692 168.466 136.802 167.766 135.442 167.766C133.882 167.766 132.772 168.866 132.772 170.586ZM138.846 170.586C138.846 172.326 139.956 173.426 141.516 173.426C142.876 173.426 143.766 172.666 144.046 171.576H143.066C142.866 172.266 142.326 172.656 141.516 172.656C140.516 172.656 139.776 171.946 139.776 170.586C139.776 169.246 140.516 168.536 141.516 168.536C142.326 168.536 142.876 168.956 143.066 169.616H144.046C143.766 168.466 142.876 167.766 141.516 167.766C139.956 167.766 138.846 168.866 138.846 170.586ZM147.59 168.536C148.53 168.536 149.33 169.126 149.32 170.196H145.86C145.96 169.126 146.7 168.536 147.59 168.536ZM150.15 171.646H149.17C148.97 172.236 148.45 172.656 147.63 172.656C146.7 172.656 145.92 172.046 145.85 170.936H150.23C150.25 170.746 150.26 170.586 150.26 170.386C150.26 168.886 149.22 167.766 147.63 167.766C146.03 167.766 144.92 168.856 144.92 170.586C144.92 172.326 146.07 173.426 147.63 173.426C148.99 173.426 149.87 172.646 150.15 171.646ZM152.371 168.866V167.856H151.461V175.936H152.371V172.326C152.711 172.886 153.421 173.426 154.421 173.426C155.891 173.426 157.021 172.276 157.021 170.576C157.021 168.866 155.891 167.766 154.421 167.766C153.421 167.766 152.701 168.286 152.371 168.866ZM156.091 170.576C156.091 171.866 155.241 172.626 154.231 172.626C153.241 172.626 152.371 171.876 152.371 170.586C152.371 169.316 153.241 168.556 154.231 168.556C155.241 168.556 156.091 169.286 156.091 170.576ZM158.419 171.836C158.419 172.936 158.969 173.336 159.939 173.336H160.759V172.566H160.089C159.529 172.566 159.329 172.376 159.329 171.836V168.606H160.759V167.856H159.329V166.476H158.419V167.856H157.709V168.606H158.419V171.836ZM164.192 168.536C165.132 168.536 165.932 169.126 165.922 170.196H162.462C162.562 169.126 163.302 168.536 164.192 168.536ZM166.752 171.646H165.772C165.572 172.236 165.052 172.656 164.232 172.656C163.302 172.656 162.522 172.046 162.452 170.936H166.832C166.852 170.746 166.862 170.586 166.862 170.386C166.862 168.886 165.822 167.766 164.232 167.766C162.632 167.766 161.522 168.856 161.522 170.586C161.522 172.326 162.672 173.426 164.232 173.426C165.592 173.426 166.472 172.646 166.752 171.646ZM167.723 170.576C167.723 172.276 168.853 173.426 170.323 173.426C171.323 173.426 172.033 172.916 172.363 172.306V173.336H173.283V165.936H172.363V168.836C171.983 168.206 171.193 167.766 170.333 167.766C168.853 167.766 167.723 168.866 167.723 170.576ZM172.363 170.586C172.363 171.876 171.503 172.626 170.503 172.626C169.503 172.626 168.653 171.866 168.653 170.576C168.653 169.286 169.503 168.556 170.503 168.556C171.503 168.556 172.363 169.316 172.363 170.586Z" fill="#565656"/>
<rect x="94.0867" y="61.8604" width="69.548" height="69.548" rx="10" fill="#1967D2"/>
<g clip-path="url(#clip0_468_10234)">
<path d="M147.652 77.8425H142.384V75.2081C142.384 73.7592 141.198 72.5737 139.749 72.5737H118.674C117.225 72.5737 116.04 73.7592 116.04 75.2081V77.8425H110.771C107.873 77.8425 105.502 80.2135 105.502 83.1113V85.7457C105.502 92.4634 110.56 97.9429 117.067 98.7596C118.727 102.711 122.283 105.688 126.577 106.557V114.724H118.674C117.225 114.724 116.04 115.909 116.04 117.358C116.04 118.807 117.225 119.993 118.674 119.993H139.749C141.198 119.993 142.384 118.807 142.384 117.358C142.384 115.909 141.198 114.724 139.749 114.724H131.846V106.557C136.14 105.688 139.697 102.711 141.356 98.7596C147.863 97.9429 152.921 92.4634 152.921 85.7457V83.1113C152.921 80.2135 150.55 77.8425 147.652 77.8425ZM110.771 85.7457V83.1113H116.04V93.1747C112.984 92.0682 110.771 89.1704 110.771 85.7457ZM147.652 85.7457C147.652 89.1704 145.44 92.0682 142.384 93.1747V83.1113H147.652V85.7457Z" fill="white"/>
</g>
<defs>
<filter id="filter0_d_468_10234" x="0" y="0" width="259.096" height="270.336" filterUnits="userSpaceOnUse" color-interpolation-filters="sRGB">
<feFlood flood-opacity="0" result="BackgroundImageFix"/>
<feColorMatrix in="SourceAlpha" type="matrix" values="0 0 0 0 0 0 0 0 0 0 0 0 0 0 0 0 0 0 127 0" result="hardAlpha"/>
<feOffset dy="15"/>
<feGaussianBlur stdDeviation="30"/>
<feColorMatrix type="matrix" values="0 0 0 0 1 0 0 0 0 0.674 0 0 0 0 0.185 0 0 0 0.2 0"/>
<feBlend mode="normal" in2="BackgroundImageFix" result="effect1_dropShadow_468_10234"/>
<feBlend mode="normal" in="SourceGraphic" in2="effect1_dropShadow_468_10234" result="shape"/>
</filter>
<clipPath id="clip0_468_10234">
<rect width="63.2254" height="63.2254" fill="white" transform="translate(97.5991 64.6704)"/>
</clipPath>
</defs>
</svg>
