<svg width="188" height="39" viewBox="0 0 188 39" fill="none" xmlns="http://www.w3.org/2000/svg">
<path fill-rule="evenodd" clip-rule="evenodd" d="M0.24622 6.11227C0.183337 6.35376 0.100994 6.58975 0 6.81794V32.0684C0.0977932 32.2643 0.177302 32.4689 0.237515 32.6794C0.925115 36.2488 3.92233 38.8772 7.5556 38.8981C15.5836 38.957 23.6113 38.9555 31.6385 38.8936C35.6696 38.8626 38.9562 35.6195 38.9817 31.6796C39.0352 23.5242 39.0362 15.3692 38.9849 7.21436C38.9594 3.1671 35.7296 0.0264132 31.6934 0.0159171C23.602 -0.00548588 15.5105 -0.00530415 7.41914 0.0164622C5.69792 0.0280396 4.03573 0.645286 2.72412 1.75993C1.41252 2.87458 0.535262 4.41545 0.24622 6.11227ZM25.0214 21.1952L24.7715 21.0787C23.3882 22.5219 22.007 23.9671 20.6281 25.4145C19.7485 26.3377 19.4078 26.3544 18.5274 25.4391C17.5318 24.404 16.5434 23.3621 15.5045 22.2669C15.0529 21.7909 14.5917 21.3048 14.1163 20.8048C14.1042 20.9792 14.0919 21.1254 14.0813 21.2533L14.0812 21.2535L14.0812 21.2536L14.0812 21.2537L14.0812 21.2537C14.0619 21.4847 14.0476 21.6564 14.0474 21.8282C14.0468 22.4909 14.0453 23.1537 14.0438 23.8164C14.0388 26.0867 14.0337 28.3569 14.0631 30.6267C14.0733 31.4143 13.8135 31.708 13.0256 31.6889C11.4643 31.6511 9.90101 31.6545 8.33954 31.6881C7.57885 31.7044 7.2519 31.454 7.25388 30.647C7.27446 22.8998 7.27413 15.1526 7.25288 7.40553C7.25056 6.56179 7.56324 6.3629 8.37601 6.3195C9.43728 6.26283 10.1386 6.61859 10.8303 7.40832C12.2156 8.98988 13.6256 10.5498 15.0356 12.1098L15.0356 12.1098L15.0357 12.1099L15.0357 12.1099C16.2758 13.4818 17.5158 14.8538 18.7391 16.2404C19.3247 16.9042 19.6642 16.9698 20.2876 16.276C22.5416 13.7678 24.8274 11.288 27.1132 8.80833C27.6784 8.19517 28.2436 7.58202 28.8083 6.96844C29.3276 6.40425 30.9282 6.01846 31.5269 6.4046C31.7509 6.54905 31.8275 7.05208 31.8288 7.39219C31.8429 10.9588 31.8412 14.5254 31.8394 18.092C31.839 19.0525 31.8385 20.013 31.8383 20.9735C31.8382 21.8207 31.8366 22.6679 31.835 23.5151C31.8306 25.8879 31.8262 28.2608 31.8533 30.6332C31.8623 31.4256 31.6039 31.7087 30.8155 31.6873C29.869 31.6616 28.9217 31.6674 27.9744 31.6733C27.4231 31.6767 26.8717 31.68 26.3205 31.6772C25.1241 31.6711 25.0742 31.6175 25.0728 30.4421C25.0713 29.1755 25.0711 27.9088 25.071 26.6422C25.0708 25.1671 25.0706 23.6919 25.0683 22.2167C25.0679 21.984 25.0538 21.7513 25.0396 21.5186C25.0331 21.4108 25.0265 21.303 25.0214 21.1952ZM118.446 20.2797C118.361 20.5055 118.264 20.7263 118.154 20.9411L117.885 20.9469C117.848 20.8472 117.809 20.748 117.77 20.6487C117.686 20.4343 117.602 20.2198 117.531 20.0013C117.357 19.4679 117.183 18.9347 117.009 18.4015L117.008 18.3989L117.007 18.3962C116.381 16.482 115.755 14.5677 115.161 12.6436C114.971 12.0284 114.778 11.6693 114.026 11.652C113.246 11.634 113.105 12.0883 112.941 12.6193L112.921 12.6853C112.154 15.1469 111.38 17.6061 110.599 20.063C110.535 20.2642 110.445 20.4573 110.324 20.7177C110.258 20.8617 110.181 21.0263 110.094 21.2243C110.022 21.0492 109.962 20.9101 109.911 20.7934L109.911 20.7923L109.911 20.7922L109.911 20.7918C109.824 20.5913 109.766 20.4566 109.721 20.3176C109.449 19.478 109.179 18.638 108.908 17.798C108.31 15.9436 107.712 14.0891 107.102 12.2388C107.012 11.9658 106.781 11.5376 106.599 11.5291C105.607 11.4828 104.612 11.4878 103.581 11.493C103.249 11.4946 102.913 11.4963 102.572 11.4963C102.616 11.7739 102.675 12.0488 102.749 12.3198C103.316 13.8853 103.885 15.4501 104.453 17.015L104.454 17.0161C105.809 20.7468 107.165 24.4775 108.492 28.2187C108.75 28.9479 109.213 28.9547 109.723 28.9622H109.724C109.818 28.9636 109.914 28.965 110.01 28.971C110.653 29.0108 111.065 28.8628 111.288 28.1542C111.83 26.4252 112.414 24.7093 112.998 22.9935L112.998 22.9933L112.998 22.9932L112.998 22.993L112.998 22.9929L112.998 22.9927L112.999 22.9916C113.173 22.4785 113.348 21.9654 113.521 21.4519C113.586 21.262 113.667 21.0779 113.749 20.8937L113.749 20.8935C113.787 20.8082 113.825 20.7228 113.861 20.6369L114.117 20.6301C114.171 20.7513 114.228 20.8713 114.285 20.9914C114.41 21.2518 114.534 21.5122 114.626 21.7837C114.74 22.1225 114.855 22.4611 114.969 22.7998C115.549 24.5119 116.129 26.2242 116.653 27.9531C116.886 28.7193 117.234 29.0223 118.057 28.9902C118.881 28.9581 119.454 28.9207 119.751 27.9229C120.188 26.4536 120.719 25.0123 121.25 23.571C121.457 23.0102 121.663 22.4495 121.864 21.8871C122.131 21.1404 122.397 20.3933 122.663 19.6463C123.518 17.2462 124.373 14.8461 125.255 12.4559C125.552 11.6531 125.334 11.4178 124.531 11.4557C123.703 11.4969 122.874 11.4961 122.047 11.4532C121.417 11.4189 121.137 11.6973 120.962 12.2671C120.213 14.7036 119.443 17.1335 118.673 19.5634L118.673 19.5637L118.673 19.5639L118.673 19.5641L118.672 19.5644L118.672 19.5646L118.672 19.5648L118.446 20.2797ZM53.4322 21.3338L53.4321 21.3339L53.4319 21.3341L53.4319 21.3341L53.4317 21.3342L53.4315 21.3345L53.4311 21.3348C53.1501 21.5903 52.9282 21.7919 52.7181 22.0053C52.5558 22.17 52.3922 22.3338 52.2286 22.4976L52.2282 22.4979C51.6709 23.0556 51.1133 23.6137 50.6068 24.2145C50.0028 24.9309 49.5435 24.8054 48.9878 24.1784C48.4131 23.5299 47.808 22.9081 47.2032 22.2865L47.2031 22.2864L47.2031 22.2864L47.203 22.2863L47.203 22.2863L47.2029 22.2862L47.2021 22.2854C47.052 22.1311 46.9018 21.9767 46.7522 21.822C46.5992 21.6639 46.435 21.5167 46.2208 21.3247L46.2207 21.3246C46.106 21.2218 45.977 21.1062 45.8277 20.9692C45.753 21.392 45.7001 21.8184 45.6693 22.2467L45.6659 22.6812C45.6525 24.3839 45.6392 26.087 45.6724 27.7891C45.6866 28.5152 45.4751 28.8499 44.7017 28.8016C43.9383 28.7547 43.1727 28.7569 42.4096 28.8081C41.6291 28.8598 41.3595 28.5814 41.3643 27.7786C41.3816 24.8811 41.3828 21.9835 41.3839 19.086C41.3848 16.855 41.3857 14.6239 41.394 12.393C41.3951 12.0867 41.5449 11.5496 41.7004 11.5205C42.1248 11.4421 42.5633 11.4993 42.9534 11.6841C43.2384 11.833 43.4641 12.1019 43.6869 12.3674C43.7574 12.4515 43.8276 12.5351 43.8994 12.6145C44.3175 13.0776 44.7369 13.5396 45.1564 14.0015L45.1566 14.0018L45.1569 14.0022L45.1572 14.0025L45.1575 14.0028L45.1578 14.0031C46.472 15.4507 47.7863 16.8983 49.0618 18.3792C49.6507 19.0629 50.0026 18.9715 50.5499 18.3594C52.4388 16.2467 54.3645 14.1666 56.2943 12.091C56.5366 11.8055 56.8514 11.5907 57.2056 11.4694C57.8394 11.3067 58.2942 11.4466 58.2902 12.303C58.2659 17.4951 58.2666 22.6874 58.2923 27.8797C58.2954 28.6016 58.0198 28.8381 57.3316 28.8023C56.5681 28.7585 55.8026 28.7597 55.0393 28.806C54.2627 28.8573 53.9682 28.5944 53.9898 27.7823C54.028 26.3465 54.0195 24.9094 54.011 23.4725V23.4724V23.4724V23.4723V23.4723C54.0082 22.9978 54.0054 22.5234 54.0042 22.0489C54.0038 21.8713 53.9899 21.6937 53.9695 21.4327L53.9695 21.4324L53.9694 21.4322L53.9694 21.432L53.9694 21.4317L53.9694 21.4315C53.9575 21.2807 53.9435 21.102 53.9287 20.8794C53.7426 21.0517 53.5795 21.1999 53.4326 21.3334L53.4322 21.3338ZM138.508 29.1347C143.683 29.0968 147.325 25.3678 147.315 20.1184C147.412 14.838 143.631 11.1317 138.467 11.1603C133.334 11.1888 129.6 14.5596 129.596 20.2156C129.591 25.4335 133.357 29.1726 138.508 29.1347ZM143.087 20.1632C143.087 23.0545 141.151 25.0786 138.393 25.0682C135.725 25.0582 133.831 22.9888 133.859 20.1143C133.886 17.2692 135.846 15.2018 138.493 15.2257C141.157 15.2498 143.086 17.3235 143.087 20.1632ZM93.8871 22.621C93.6226 22.621 93.358 22.618 93.0934 22.615C92.481 22.6081 91.8686 22.6012 91.258 22.6313C90.5509 22.6663 90.3269 22.4007 90.3195 21.6937L90.3188 21.6243C90.3054 20.3518 90.2987 19.7161 90.6132 19.3988C90.9271 19.082 91.5612 19.0826 92.8284 19.0838H92.8302C93.2379 19.0842 93.6457 19.0826 94.0535 19.081H94.0536C95.1753 19.0767 96.297 19.0723 97.4174 19.1088C97.7106 19.1183 98.2289 19.4019 98.2467 19.5955C98.5018 22.3746 97.9838 25.6983 94.9663 27.6445C90.2603 30.6798 81.9917 28.5239 81.3004 21.1957C80.8284 16.1925 83.512 12.3249 88.4516 11.3996C92.3807 10.6635 96.1232 12.2802 97.6058 15.9166C98.0515 17.0098 97.9738 17.128 96.8336 17.137C96.6879 17.1381 96.5419 17.135 96.396 17.1318C96.1271 17.1259 95.8582 17.1201 95.5914 17.1413C94.5993 17.2201 93.8653 17.0034 93.1265 16.1529C92 14.856 90.3491 14.8261 88.775 15.2434C87.0323 15.7055 86.0402 16.9807 85.7172 18.6946C85.5497 19.5998 85.5404 20.5271 85.6898 21.4354C85.9868 23.2025 86.9858 24.5266 88.799 24.9165C90.444 25.2703 92.1191 25.3175 93.401 23.8871C93.6281 23.5955 93.8331 23.2874 94.0145 22.9653L93.8871 22.621ZM166.818 28.7607L166.819 28.7607C167.226 28.759 167.646 28.7572 168.083 28.7572C167.992 28.571 167.92 28.4148 167.857 28.2789L167.856 28.2786C167.743 28.0337 167.66 27.8552 167.558 27.6878C167.351 27.345 167.146 27.0001 166.941 26.6553C166.35 25.6579 165.758 24.6603 165.097 23.7109C164.566 22.9489 164.639 22.5255 165.325 21.8971C167.121 20.2536 167.622 17.4746 166.684 15.1066C165.825 12.9381 163.69 11.5036 161.214 11.4769C160.163 11.4656 159.112 11.467 158.062 11.4685C156.82 11.4702 155.578 11.4719 154.336 11.4525C153.62 11.4413 153.397 11.707 153.399 12.3996C153.415 17.5583 153.416 22.7169 153.403 27.8755C153.401 28.5043 153.586 28.8264 154.272 28.7979C155.099 28.7637 155.928 28.7706 156.755 28.8024C157.391 28.8269 157.583 28.5436 157.567 27.9419C157.535 26.7964 157.545 25.6492 157.569 24.5033C157.574 24.2384 157.625 23.8849 157.797 23.7298C158.313 23.265 160.161 23.6455 160.526 24.257C160.833 24.77 161.135 25.2855 161.438 25.8009L161.439 25.8025L161.44 25.8044L161.44 25.8046L161.44 25.8049C161.894 26.5778 162.348 27.3508 162.815 28.1154C162.97 28.368 163.24 28.7199 163.469 28.7287C164.548 28.7704 165.629 28.7658 166.818 28.7607ZM157.549 18.767C157.578 18.3236 157.581 17.8789 157.558 17.4351C157.552 15.1701 157.552 15.17 159.817 15.1592C159.899 15.1588 159.982 15.158 160.064 15.1572C160.267 15.1552 160.471 15.1532 160.674 15.1575C162.13 15.1883 162.97 16.045 162.968 17.4904C162.965 18.9251 162.109 19.8335 160.7 19.8737C160.423 19.8816 160.146 19.8772 159.868 19.8728C159.478 19.8666 159.089 19.8604 158.701 19.8883C157.861 19.949 157.437 19.6788 157.549 18.767ZM178.593 24.2574L178.59 24.2622C178.114 25.0735 177.684 25.8066 177.261 26.5438L177.254 26.5554C175.967 28.7977 175.966 28.7996 173.395 28.7916C173.266 28.7912 173.137 28.7925 173.009 28.7937C172.723 28.7965 172.437 28.7993 172.153 28.784C171.383 28.7428 171.236 28.4861 171.641 27.8316C172.066 27.1449 172.511 26.4701 172.955 25.7954L172.955 25.7948L172.957 25.7927C173.09 25.5908 173.223 25.3889 173.355 25.1867C173.628 24.769 173.9 24.35 174.172 23.931L174.175 23.9252L174.176 23.9249C174.907 22.796 175.639 21.6671 176.408 20.5641C176.897 19.8625 176.916 19.3273 176.403 18.6046C175.199 16.9081 174.057 15.1676 172.915 13.4277L172.914 13.4269L172.901 13.4065C172.737 13.1572 172.574 12.9079 172.41 12.6587C172.286 12.4705 172.217 12.2462 172.148 12.0219C172.117 11.9181 172.085 11.8143 172.047 11.7141C172.149 11.6877 172.249 11.66 172.35 11.6322C172.568 11.5723 172.786 11.5124 173.006 11.466C175.511 10.9393 177.183 11.8949 178.127 14.2678C178.293 14.6852 178.552 15.0655 178.847 15.4993L178.847 15.4995C178.995 15.716 179.151 15.9459 179.31 16.2004C179.58 15.772 179.842 15.3632 180.096 14.9666C180.686 14.0455 181.234 13.1905 181.74 12.3113C182.102 11.6814 182.517 11.3922 183.259 11.4476C183.755 11.4846 184.253 11.4782 184.752 11.4718C185.114 11.4672 185.476 11.4625 185.838 11.4745C186.104 11.5154 186.364 11.5888 186.612 11.6931C186.586 11.776 186.565 11.8625 186.544 11.9489C186.499 12.1353 186.454 12.3217 186.354 12.4721L186.217 12.6809L186.216 12.6819C184.875 14.7104 183.535 16.7394 182.147 18.7359C181.721 19.3495 181.697 19.8043 182.128 20.4363C183.361 22.2441 184.561 24.0741 185.762 25.9041L185.763 25.906C186.152 26.498 186.54 27.09 186.93 27.6812C187.04 27.8482 187.142 28.0203 187.28 28.2532C187.357 28.3825 187.445 28.5304 187.551 28.7066C187.308 28.7183 187.085 28.7225 186.876 28.7264C186.46 28.7342 186.099 28.741 185.749 28.8044C183.499 29.2112 182.016 28.4231 181.186 26.2249C180.921 25.5216 180.501 24.8767 180.029 24.1529C179.8 23.8005 179.558 23.4293 179.316 23.0235C179.061 23.459 178.822 23.8672 178.593 24.2574ZM65.4856 17.9831C65.4839 18.684 65.4822 19.3849 65.4822 20.0857C65.4822 20.8013 65.4841 21.5168 65.4861 22.2324C65.4913 24.0957 65.4965 25.959 65.4662 27.8217C65.4537 28.5913 65.7256 28.8417 66.4601 28.8021C67.2537 28.7594 68.0525 28.7676 68.8469 28.8027C69.5006 28.8317 69.763 28.5877 69.7452 27.9186C69.7289 27.3045 69.7326 26.6898 69.7363 26.0751C69.7404 25.3842 69.7446 24.6933 69.7203 24.0034C69.6951 23.2867 69.9675 23.0376 70.6611 23.0541C71.292 23.069 71.9234 23.0658 72.5547 23.0625C73.197 23.0592 73.8393 23.0559 74.4811 23.0718C75.151 23.0884 75.3963 22.8106 75.3648 22.1645C75.3302 21.5285 75.3299 20.8911 75.3637 20.2551C75.4043 19.5659 75.1648 19.2833 74.4375 19.3102C73.7188 19.3368 72.999 19.3322 72.2792 19.3276C71.6934 19.3238 71.1076 19.3201 70.5223 19.3332C69.9571 19.3458 69.7052 19.1655 69.7194 18.5747C69.7325 18.0315 69.722 17.4879 69.7115 16.9442C69.7054 16.6293 69.6994 16.3145 69.6979 15.9997C69.6951 15.4134 69.9733 15.1373 70.5836 15.1539C71.2183 15.1712 71.8536 15.1671 72.4889 15.1629C72.777 15.161 73.0651 15.1592 73.3532 15.1593C74.7795 15.1599 75.4876 15.1603 75.8304 14.8067C76.1728 14.4535 76.1509 13.7471 76.1162 12.3349C76.1001 11.6747 75.8877 11.4479 75.2249 11.4537C72.2961 11.4794 69.3668 11.4868 66.4383 11.4485C65.6684 11.4385 65.4576 11.7069 65.4682 12.4452C65.4947 14.2909 65.4901 16.137 65.4856 17.9831Z" fill="#1EBF2F"/>
</svg>

