<svg width="805" height="664" viewBox="0 0 805 664" fill="none" xmlns="http://www.w3.org/2000/svg">
<path d="M380.499 656.971C654.513 684.701 795.732 617.297 804.163 454.754C816.804 210.94 603.839 237.278 541.819 173.02C479.796 108.762 549.276 200.081 429.83 66.923C350.195 -21.85 244.084 -22.3059 111.496 65.5588C4.54933 152.602 -7.01744 266.753 76.7925 408.01C160.602 549.264 261.837 632.252 380.499 656.971Z" fill="#0A7ABF" fill-opacity="0.19"/>
<path d="M43.5678 501.964L35.3114 510.22L21.7978 496.7L8.25638 510.241L0 501.985L13.5345 488.443L0.020876 474.93L8.27726 466.666L21.7909 480.187L35.3323 466.652L43.5887 474.909L30.0542 488.45L43.5678 501.964Z" fill="#0A7ABF"/>
<path d="M747.467 194.67C734.215 194.67 723.484 183.922 723.484 170.673C723.484 157.424 734.215 146.676 747.467 146.676C760.719 146.676 771.45 157.424 771.45 170.673C771.45 183.922 760.719 194.67 747.467 194.67ZM747.467 180.993C753.138 180.993 757.746 176.378 757.746 170.673C757.746 164.967 753.138 160.353 747.467 160.353C741.792 160.353 737.185 164.967 737.185 170.673C737.185 176.378 741.792 180.993 747.467 180.993Z" fill="#0A7ABF"/>
<path d="M255.97 53.4708C311.231 53.4708 318.139 86.1334 318.139 118.737V154.308C318.139 159.945 322.425 164.524 327.699 164.524L653.306 161.692C658.583 161.692 662.866 157.116 662.866 151.479V113.132C662.866 78.1517 636.334 49.7891 603.609 49.7891C601.392 49.7891 253.656 53.4708 255.97 53.4708Z" fill="#0A7ABF" fill-opacity="0.2"/>
<path d="M255.96 59.4494C255.96 64.782 260.294 69.1096 265.631 69.1096C603.678 69.1096 603.74 69.1062 603.803 69.1096C625.955 69.1476 643.905 87.2525 643.939 109.602V155.427H653.499C658.773 155.427 663.056 151.11 663.056 145.787V109.602C663.198 76.5526 636.755 49.6475 603.996 49.5059H603.613H600.045C599.168 49.5577 598.315 49.6993 597.448 49.7925H265.617C260.284 49.7925 255.96 54.1167 255.96 59.4494Z" fill="#4F5D73"/>
<path d="M603.613 67.9235V49.791H259.314C214.2 49.8601 177.645 86.7225 177.576 132.209V605.473C177.576 610.792 181.859 615.109 187.133 615.109H481.925C526.98 614.968 563.445 578.119 563.476 532.691V109.535V109.082C563.756 86.9194 581.636 67.9856 603.613 67.9545C603.703 67.9545 603.786 67.9269 603.872 67.9235H603.613Z" fill="white"/>
<path d="M259.127 49.7927C214.01 49.8652 177.451 86.7276 177.382 132.214V409.285L383.236 49.5371L259.127 49.7927Z" fill="#F0F0F0"/>
<path d="M177.573 243.965V138.32C177.645 92.8299 214.2 55.971 259.317 55.8984H603.613M153.106 602.007C173.666 602.007 177.386 580.161 177.386 566.356C177.386 453.462 177.573 373.659 177.573 345.03M179.372 276.241V288.933" stroke="#0A7ABF" stroke-width="7.2" stroke-miterlimit="10" stroke-linecap="round"/>
<path d="M603.613 49.5059H600.045C568.795 51.4089 544.401 77.5024 544.359 109.087V109.989V532.454C544.301 561.242 525.018 586.372 497.408 593.645C494.39 594.429 491.299 594.816 488.211 594.847V594.858H487.973H487.727H130.335C144.682 607.523 163.45 615.221 184.01 615.239H184.138H287.182H481.928C484.028 615.239 487.275 615.239 489.382 614.917C493.095 614.575 496.776 613.954 500.399 613.056C537.41 604.362 563.621 571.109 563.67 532.776V109.409V108.96C563.943 88.185 579.726 70.9885 600.232 69.1096C601.364 69.0475 603.533 69.0544 604.659 69.1096L603.613 49.5059Z" fill="#4F5D73"/>
<path d="M603.608 49.5059H600.04C568.79 51.4124 544.406 77.5024 544.361 109.087V109.989V532.454C544.302 561.242 525.02 586.375 497.41 593.645C491.142 595.279 484.559 595.279 478.293 593.645C450.597 586.272 431.322 560.965 431.398 532.071V519.216C431.436 513.894 427.188 509.542 421.91 509.511H361.334H312.632H237.55H158.938H111.952C106.678 509.511 102.396 513.831 102.396 519.154V532.779C102.354 578.283 138.902 615.201 184.012 615.239H184.133H287.177H481.92C484.023 615.239 487.273 615.239 489.377 614.917C493.093 614.575 496.778 613.957 500.401 613.056C537.412 604.366 563.62 571.113 563.665 532.779V109.412V108.96C563.937 88.1884 579.725 70.985 600.233 69.1131C601.422 69.0475 602.61 69.0475 603.801 69.1131C625.954 69.1476 643.903 87.2559 643.941 109.602V155.43H653.498C658.775 155.43 663.058 151.113 663.058 145.791V109.602C663.196 76.5526 636.754 49.6509 603.995 49.5059H603.608Z" fill="#0A7ABF"/>
<path d="M602.463 437.291C608.973 430.802 619.507 430.812 626.011 437.305L708.17 519.329C714.653 525.802 714.66 536.305 708.187 542.791L708.16 542.819C701.649 549.305 691.115 549.302 684.608 542.805L602.449 460.784C595.966 454.308 595.959 443.805 602.432 437.322L602.463 437.291Z" fill="#6F7C90"/>
<path d="M619.991 454.258C670.723 407.77 674.238 329.043 627.847 278.416C581.452 227.785 502.721 224.429 451.989 270.916C401.257 317.403 397.734 396.132 444.128 446.763C490.52 497.39 569.259 500.745 619.991 454.258Z" fill="#6F7C90"/>
<path d="M619.991 454.258C670.723 407.77 674.238 329.043 627.847 278.416C581.452 227.785 502.721 224.429 451.989 270.916C401.257 317.403 397.734 396.132 444.128 446.763C490.52 497.39 569.259 500.745 619.991 454.258Z" stroke="#6F7C90" stroke-width="7.2" stroke-miterlimit="10"/>
<path d="M254.575 425.445H348.018" stroke="#4F5D73" stroke-width="7.2" stroke-miterlimit="10" stroke-linecap="round"/>
<path d="M254.575 338.412H348.018" stroke="#4F5D73" stroke-width="7.2" stroke-miterlimit="10" stroke-linecap="round"/>
<path d="M254.572 251.373H466.376" stroke="#4F5D73" stroke-width="7.2" stroke-miterlimit="10" stroke-linecap="round"/>
<path d="M254.572 158.123H490.85" stroke="#4F5D73" stroke-width="7.2" stroke-miterlimit="10" stroke-linecap="round"/>
<path d="M626.294 416.219C632.805 409.729 643.339 409.74 649.842 416.233L732.001 498.257C738.484 504.73 738.491 515.233 732.019 521.719L731.991 521.747C725.48 528.233 714.946 528.229 708.439 521.733L626.28 439.712C619.798 433.236 619.791 422.733 626.263 416.25L626.294 416.219Z" fill="#0A7ABF"/>
<path d="M643.822 433.183C694.554 386.696 698.07 307.969 651.678 257.341C605.284 206.711 526.553 203.354 475.821 249.842C425.089 296.329 421.566 375.058 467.96 425.688C514.352 476.316 593.09 479.671 643.822 433.183Z" fill="white"/>
<path d="M643.822 433.183C694.554 386.696 698.07 307.969 651.678 257.341C605.284 206.711 526.553 203.354 475.821 249.842C425.089 296.329 421.566 375.058 467.96 425.688C514.352 476.316 593.09 479.671 643.822 433.183Z" stroke="#0A7ABF" stroke-width="7.2" stroke-miterlimit="10"/>
<path d="M605.768 369.458L593.984 381.236L563.653 350.905L533.549 381.005L521.699 369.158L551.803 339.051L521.468 308.716L533.252 296.936L563.584 327.27L593.687 297.167L605.537 309.017L575.434 339.124L605.768 369.458Z" fill="#0A7ABF"/>
</svg>
