<svg width="246" height="256" viewBox="0 0 246 256" fill="none" xmlns="http://www.w3.org/2000/svg">
<g filter="url(#filter0_d_468_10259)">
<rect x="60" y="45" width="126" height="136" rx="15" fill="white"/>
</g>
<path d="M106.643 139.149H108.371V130.401H105.479V131.949H106.643V139.149ZM110.031 134.661C110.031 137.217 110.799 139.125 113.271 139.125C115.743 139.125 116.511 137.217 116.511 134.661C116.511 132.129 115.743 130.233 113.271 130.233C110.799 130.233 110.031 132.129 110.031 134.661ZM114.855 134.661C114.855 136.221 114.687 137.565 113.271 137.565C111.855 137.565 111.687 136.221 111.687 134.661C111.687 133.161 111.855 131.793 113.271 131.793C114.687 131.793 114.855 133.161 114.855 134.661ZM117.788 134.661C117.788 137.217 118.556 139.125 121.028 139.125C123.5 139.125 124.268 137.217 124.268 134.661C124.268 132.129 123.5 130.233 121.028 130.233C118.556 130.233 117.788 132.129 117.788 134.661ZM122.612 134.661C122.612 136.221 122.444 137.565 121.028 137.565C119.612 137.565 119.444 136.221 119.444 134.661C119.444 133.161 119.612 131.793 121.028 131.793C122.444 131.793 122.612 133.161 122.612 134.661ZM130.466 139.149H132.59L129.038 134.925L132.494 130.773H130.466L127.418 134.529V130.773H125.738V139.149H127.418V135.417L130.466 139.149ZM136.119 131.817V134.145H133.851V135.609H136.119V137.937H137.703V135.609H139.971V134.145H137.703V131.817H136.119Z" fill="black"/>
<path d="M89.4459 155.329C89.4459 155.909 89.1559 156.409 88.4359 156.409C87.7159 156.409 87.4159 155.899 87.4059 155.259H86.4959C86.4959 156.479 87.2759 157.219 88.4359 157.219C89.5859 157.219 90.3659 156.489 90.3659 155.329V150.179H89.4459V155.329ZM97.3587 154.399C97.3587 152.669 96.1487 151.579 94.5887 151.579C93.0387 151.579 91.8187 152.669 91.8187 154.399C91.8187 156.139 92.9987 157.239 94.5487 157.239C96.1087 157.239 97.3587 156.139 97.3587 154.399ZM92.7487 154.399C92.7487 153.019 93.6187 152.369 94.5787 152.369C95.5187 152.369 96.4287 153.019 96.4287 154.399C96.4287 155.789 95.4987 156.439 94.5487 156.439C93.5987 156.439 92.7487 155.789 92.7487 154.399ZM99.4652 152.689V149.749H98.5552V157.149H99.4652V156.139C99.8052 156.739 100.515 157.239 101.515 157.239C102.985 157.239 104.115 156.089 104.115 154.389C104.115 152.679 102.995 151.579 101.515 151.579C100.545 151.579 99.8152 152.079 99.4652 152.689ZM103.185 154.389C103.185 155.679 102.335 156.439 101.325 156.439C100.335 156.439 99.4652 155.689 99.4652 154.399C99.4652 153.129 100.335 152.369 101.325 152.369C102.335 152.369 103.185 153.099 103.185 154.389ZM110.589 156.189L108.399 150.179H107.429L110.059 157.149H111.109L113.739 150.179H112.779L110.589 156.189ZM114.397 154.389C114.397 156.089 115.527 157.239 116.987 157.239C117.997 157.239 118.707 156.719 119.037 156.129V157.149H119.957V151.669H119.037V152.669C118.717 152.099 118.017 151.579 116.997 151.579C115.527 151.579 114.397 152.679 114.397 154.389ZM119.037 154.399C119.037 155.689 118.177 156.439 117.177 156.439C116.177 156.439 115.327 155.679 115.327 154.389C115.327 153.099 116.177 152.369 117.177 152.369C118.177 152.369 119.037 153.129 119.037 154.399ZM121.155 154.399C121.155 156.139 122.265 157.239 123.825 157.239C125.185 157.239 126.075 156.479 126.355 155.389H125.375C125.175 156.079 124.635 156.469 123.825 156.469C122.825 156.469 122.085 155.759 122.085 154.399C122.085 153.059 122.825 152.349 123.825 152.349C124.635 152.349 125.185 152.769 125.375 153.429H126.355C126.075 152.279 125.185 151.579 123.825 151.579C122.265 151.579 121.155 152.679 121.155 154.399ZM127.229 154.389C127.229 156.089 128.359 157.239 129.819 157.239C130.829 157.239 131.539 156.719 131.869 156.129V157.149H132.789V151.669H131.869V152.669C131.549 152.099 130.849 151.579 129.829 151.579C128.359 151.579 127.229 152.679 127.229 154.389ZM131.869 154.399C131.869 155.689 131.009 156.439 130.009 156.439C129.009 156.439 128.159 155.679 128.159 154.389C128.159 153.099 129.009 152.369 130.009 152.369C131.009 152.369 131.869 153.129 131.869 154.399ZM138.337 157.149H139.237V153.919C139.237 152.349 138.267 151.569 136.997 151.569C136.257 151.569 135.597 151.879 135.237 152.449V151.669H134.327V157.149H135.237V154.119C135.237 152.939 135.877 152.359 136.807 152.359C137.727 152.359 138.337 152.929 138.337 154.049V157.149ZM140.383 154.399C140.383 156.139 141.493 157.239 143.053 157.239C144.413 157.239 145.303 156.479 145.583 155.389H144.603C144.403 156.079 143.863 156.469 143.053 156.469C142.053 156.469 141.313 155.759 141.313 154.399C141.313 153.059 142.053 152.349 143.053 152.349C143.863 152.349 144.413 152.769 144.603 153.429H145.583C145.303 152.279 144.413 151.579 143.053 151.579C141.493 151.579 140.383 152.679 140.383 154.399ZM146.797 157.149H147.707V151.669H146.797V157.149ZM147.267 150.779C147.597 150.779 147.867 150.509 147.867 150.159C147.867 149.809 147.597 149.539 147.267 149.539C146.917 149.539 146.647 149.809 146.647 150.159C146.647 150.509 146.917 150.779 147.267 150.779ZM151.588 152.349C152.528 152.349 153.328 152.939 153.318 154.009H149.858C149.958 152.939 150.698 152.349 151.588 152.349ZM154.148 155.459H153.168C152.968 156.049 152.448 156.469 151.628 156.469C150.698 156.469 149.918 155.859 149.848 154.749H154.228C154.248 154.559 154.258 154.399 154.258 154.199C154.258 152.699 153.218 151.579 151.628 151.579C150.028 151.579 148.918 152.669 148.918 154.399C148.918 156.139 150.068 157.239 151.628 157.239C152.988 157.239 153.868 156.459 154.148 155.459ZM159.399 155.659C159.359 153.699 156.179 154.409 156.179 153.109C156.179 152.669 156.579 152.349 157.249 152.349C157.979 152.349 158.399 152.749 158.439 153.299H159.349C159.289 152.229 158.489 151.579 157.279 151.579C156.059 151.579 155.269 152.269 155.269 153.109C155.269 155.149 158.509 154.439 158.509 155.659C158.509 156.109 158.109 156.469 157.389 156.469C156.619 156.469 156.149 156.069 156.099 155.539H155.159C155.219 156.539 156.119 157.239 157.399 157.239C158.609 157.239 159.399 156.559 159.399 155.659Z" fill="#565656"/>
<rect x="95.7991" y="58" width="52.5561" height="52.5561" rx="10" fill="#1967D2"/>
<g clip-path="url(#clip0_468_10259)">
<path d="M136.676 73.2338H131.345V69.6793C131.345 67.7065 129.763 66.1248 127.79 66.1248H117.126C115.154 66.1248 113.572 67.7065 113.572 69.6793V73.2338H108.24C106.267 73.2338 104.686 74.8155 104.686 76.7883V96.3381C104.686 98.3109 106.267 99.8927 108.24 99.8927H136.676C138.649 99.8927 140.231 98.3109 140.231 96.3381V76.7883C140.231 74.8155 138.649 73.2338 136.676 73.2338ZM117.126 69.6793H127.79V73.2338H117.126V69.6793ZM136.676 96.3381H108.24V92.7836H136.676V96.3381ZM136.676 87.4519H108.24V78.5656C108.24 77.5881 109.04 76.7883 110.017 76.7883H113.572V78.5656C113.572 79.5431 114.372 80.3428 115.349 80.3428C116.327 80.3428 117.126 79.5431 117.126 78.5656V76.7883H127.79V78.5656C127.79 79.5431 128.59 80.3428 129.567 80.3428C130.545 80.3428 131.345 79.5431 131.345 78.5656V76.7883H134.899C135.877 76.7883 136.676 77.5881 136.676 78.5656V87.4519Z" fill="white"/>
</g>
<defs>
<filter id="filter0_d_468_10259" x="0" y="0" width="246" height="256" filterUnits="userSpaceOnUse" color-interpolation-filters="sRGB">
<feFlood flood-opacity="0" result="BackgroundImageFix"/>
<feColorMatrix in="SourceAlpha" type="matrix" values="0 0 0 0 0 0 0 0 0 0 0 0 0 0 0 0 0 0 127 0" result="hardAlpha"/>
<feOffset dy="15"/>
<feGaussianBlur stdDeviation="30"/>
<feColorMatrix type="matrix" values="0 0 0 0 0.050875 0 0 0 0 0.4625 0 0 0 0 0.0665063 0 0 0 0.2 0"/>
<feBlend mode="normal" in2="BackgroundImageFix" result="effect1_dropShadow_468_10259"/>
<feBlend mode="normal" in="SourceGraphic" in2="effect1_dropShadow_468_10259" result="shape"/>
</filter>
<clipPath id="clip0_468_10259">
<rect width="42.6542" height="42.6542" fill="white" transform="translate(101.131 62.5703)"/>
</clipPath>
</defs>
</svg>
