<svg width="463" height="196" viewBox="0 0 463 196" fill="none" xmlns="http://www.w3.org/2000/svg">
<path d="M457.435 36.3374H214.477V195.649H457.435V36.3374Z" fill="#DBDBDB"/>
<path d="M462.406 186.711H214.48V195.649H462.406V186.711Z" fill="#18525C"/>
<g style="mix-blend-mode:multiply" opacity="0.3">
<path d="M224.585 36.3374H212.295V195.649H224.585V36.3374Z" fill="#787878"/>
</g>
<path d="M432.627 99.3213H345.357V195.649H432.627V99.3213Z" fill="#B8B8B8"/>
<path d="M428.732 103.821H349.25V195.649H428.732V103.821Z" fill="#103940"/>
<g style="mix-blend-mode:multiply" opacity="0.3">
<path fill-rule="evenodd" clip-rule="evenodd" d="M349.25 103.821H428.732V192.095L349.25 112.413V103.821Z" fill="black"/>
</g>
<path d="M14.3851 0H2.83594V17.3029H14.3851V0Z" fill="#DBDBDB"/>
<path d="M214.477 0H202.932V17.3029H214.477V0Z" fill="#DBDBDB"/>
<path d="M214.477 11.999H2.83594V195.649H214.477V11.999Z" fill="#EDEDED"/>
<path d="M214.477 54.4487H2.83594V59.9844H214.477V54.4487Z" fill="#38949C"/>
<path d="M109.348 99.3213H10.459V127.931H109.348V99.3213Z" fill="#DBDBDB"/>
<path d="M104.961 102.668H14.8457V124.584H104.961V102.668Z" fill="#3CA2AB"/>
<path d="M37.0323 99.3213H33.332V127.931H37.0323V99.3213Z" fill="#DBDBDB"/>
<path d="M86.4776 99.3213H82.7773V127.931H86.4776V99.3213Z" fill="#DBDBDB"/>
<path d="M214.477 59.9844H2.83594V64.0237H214.477V59.9844Z" fill="#DBDBDB"/>
<path d="M459.227 65.0635H214.477V70.5991H459.227V65.0635Z" fill="#18525C"/>
<path d="M459.227 70.5991H214.477V74.6355H459.227V70.5991Z" fill="#B8B8B8"/>
<path d="M333.004 99.3213H234.115V127.931H333.004V99.3213Z" fill="#B8B8B8"/>
<path d="M328.617 102.668H238.502V124.584H328.617V102.668Z" fill="#227482"/>
<path d="M260.692 99.3213H256.988V127.931H260.692V99.3213Z" fill="#B8B8B8"/>
<path d="M310.134 99.3213H306.434V127.931H310.134V99.3213Z" fill="#B8B8B8"/>
<g style="mix-blend-mode:multiply" opacity="0.3">
<path fill-rule="evenodd" clip-rule="evenodd" d="M214.477 36.3359H250.902L410.747 195.648H214.477V36.3359Z" fill="#9C9C9C"/>
</g>
<path d="M217.317 188.894H0V195.649H217.317V188.894Z" fill="#227482"/>
<path d="M203.582 99.3213H116.312V195.649H203.582V99.3213Z" fill="#DBDBDB"/>
<path d="M199.689 103.821H120.207V195.649H199.689V103.821Z" fill="#227482"/>
<path d="M199.689 132.546H120.207V135.546H199.689V132.546Z" fill="#18525C"/>
<path d="M161.451 133.699H158.447V195.649H161.451V133.699Z" fill="#18525C"/>
<path d="M155.442 154.461H154.172V178.111H155.442V154.461Z" fill="#DBDBDB"/>
<path d="M165.723 154.461H164.453V178.111H165.723V154.461Z" fill="#DBDBDB"/>
<g style="mix-blend-mode:multiply" opacity="0.3">
<path fill-rule="evenodd" clip-rule="evenodd" d="M120.207 103.821H199.689V192.095L120.207 112.413V103.821Z" fill="black"/>
</g>
</svg>
