<svg width="68" height="85" viewBox="0 0 68 85" fill="none" xmlns="http://www.w3.org/2000/svg">
<g opacity="0.257452">
<path d="M7.83943 0.175781H41.9834L67.257 25.4481V77.0684C67.285 80.9016 64.1992 84.0302 60.366 84.0582C60.3327 84.0582 60.2993 84.0582 60.2659 84.0582H7.84209C4.00887 84.0875 0.877696 81.0044 0.848334 77.1712C0.848334 77.1365 0.848334 77.1031 0.848334 77.0684V7.16554C0.820306 3.33232 3.9061 0.20381 7.73932 0.175781C7.77269 0.175781 7.80606 0.175781 7.83943 0.175781Z" fill="#D9E3EB"/>
<path d="M42.2515 0.173828L67.5251 25.4475H42.2515V0.173828Z" fill="#B2C1D1"/>
<path d="M8.91393 20.6074H25.5828C26.0179 20.6328 26.3636 20.9785 26.389 21.4136V24.1016C26.3636 24.5367 26.0179 24.8838 25.5828 24.9091H8.91393C8.47882 24.8838 8.13181 24.5367 8.10645 24.1016V21.4136C8.13181 20.9785 8.47882 20.6328 8.91393 20.6074ZM8.91393 59.0531H33.3801C33.8152 59.0784 34.1622 59.4255 34.1876 59.8606V62.5486C34.1622 62.9837 33.8152 63.3294 33.3801 63.3548H8.91393C8.47882 63.3294 8.13181 62.9837 8.10645 62.5486V59.8606C8.13181 59.4255 8.47882 59.0784 8.91393 59.0531ZM8.91393 49.9131H59.4585C59.8936 49.9385 60.2407 50.2842 60.266 50.7193V53.4087C60.2407 53.8438 59.8936 54.1895 59.4585 54.2148H8.91393C8.47882 54.1895 8.13181 53.8438 8.10645 53.4087V50.718C8.13181 50.2842 8.48016 49.9385 8.91393 49.9131ZM8.91393 40.7719H59.4585C59.8936 40.7972 60.2407 41.1442 60.266 41.5794V44.2674C60.2407 44.7025 59.8936 45.0495 59.4585 45.0749H8.91393C8.47882 45.0495 8.13181 44.7025 8.10645 44.2674V41.578C8.13181 41.1429 8.47882 40.7959 8.91393 40.7705V40.7719ZM8.91393 30.5562H20.475C20.9101 30.5815 21.2558 30.9272 21.2811 31.3623V34.0491C21.2558 34.4842 20.9101 34.8312 20.475 34.8565H8.91393C8.47882 34.8312 8.13181 34.4842 8.10645 34.0491V31.361C8.13181 30.9259 8.47882 30.5789 8.91393 30.5535V30.5562Z" fill="#B2C1D1"/>
</g>
</svg>
