<svg width="96" height="121" viewBox="0 0 96 121" fill="none" xmlns="http://www.w3.org/2000/svg">
<g opacity="0.757452">
<path d="M10.4922 0.835938H59.4041L95.6076 37.0394V110.985C95.6473 116.476 91.2275 120.96 85.7361 120.999C85.6885 120.999 85.6409 120.999 85.5933 120.999H10.4967C5.00537 121.041 0.519761 116.624 0.477804 111.132C0.477804 111.084 0.477804 111.034 0.477804 110.985V10.8503C0.438119 5.35896 4.85797 0.875623 10.3493 0.835938C10.3969 0.835938 10.4446 0.835938 10.4922 0.835938Z" fill="#D9E3EB"/>
<path d="M59.7896 0.835938L95.9942 37.0406H59.7896V0.835938Z" fill="#B2C1D1"/>
<path d="M12.033 30.1055H35.9102C36.5327 30.1418 37.0304 30.6395 37.0667 31.262V35.1127C37.0304 35.7352 36.5327 36.2329 35.9102 36.2692H12.033C11.4105 36.2329 10.9128 35.7352 10.8765 35.1127V31.262C10.9128 30.6395 11.4105 30.1418 12.033 30.1055ZM12.033 85.18H47.0811C47.7036 85.2163 48.2002 85.7141 48.2365 86.3366V90.1872C48.2002 90.8097 47.7036 91.3075 47.0811 91.3438H12.033C11.4105 91.3075 10.9128 90.8097 10.8765 90.1872V86.3366C10.9128 85.7141 11.4105 85.2163 12.033 85.18ZM12.033 72.0872H84.4377C85.0602 72.1235 85.558 72.6201 85.5943 73.2426V77.0932C85.558 77.7157 85.0602 78.2135 84.4377 78.2498H12.033C11.4105 78.2135 10.9128 77.7157 10.8765 77.0932V73.2403C10.9139 72.619 11.4105 72.1235 12.033 72.0872ZM12.033 58.9932H84.4377C85.0602 59.0295 85.558 59.5261 85.5943 60.1486V64.0004C85.558 64.6229 85.0602 65.1195 84.4377 65.1558H12.033C11.4105 65.1195 10.9128 64.6229 10.8765 64.0004V60.1463C10.9128 59.5238 11.4105 59.0272 12.033 58.9909V58.9932ZM12.033 44.3571H28.5944C29.2169 44.3934 29.7135 44.8912 29.7498 45.5137V49.3621C29.7135 49.9846 29.2169 50.4823 28.5944 50.5186H12.033C11.4105 50.4823 10.9128 49.9846 10.8765 49.3621V45.5114C10.9128 44.8889 11.4105 44.3923 12.033 44.356V44.3571Z" fill="#B2C1D1"/>
</g>
</svg>
