<svg width="68" height="85" viewBox="0 0 68 85" fill="none" xmlns="http://www.w3.org/2000/svg">
<g opacity="0.242548">
<path d="M7.75239 0.84375H42.0048L67.3577 26.1966V77.9798C67.3855 81.8254 64.2903 84.965 60.4448 84.9928C60.4115 84.9928 60.3781 84.9928 60.3448 84.9928H7.75557C3.91004 85.0222 0.768825 81.9286 0.739444 78.0831C0.739444 78.0489 0.739444 78.014 0.739444 77.9798V7.8567C0.711652 4.01117 3.80682 0.871541 7.65235 0.84375C7.6857 0.84375 7.71904 0.84375 7.75239 0.84375Z" fill="#D9E3EB"/>
<path d="M42.2749 0.84375L67.6286 26.1974H42.2749V0.84375Z" fill="#B2C1D1"/>
<path d="M8.83141 21.3398H25.5523C25.9882 21.3653 26.3368 21.7138 26.3622 22.1498V24.8463C26.3368 25.2822 25.9882 25.6308 25.5523 25.6562H8.83141C8.39548 25.6308 8.04689 25.2822 8.02148 24.8463V22.1498C8.04689 21.7138 8.39548 21.3653 8.83141 21.3398ZM8.83141 59.9079H33.3751C33.8111 59.9333 34.1589 60.2819 34.1843 60.7178V63.4144C34.1589 63.8503 33.8111 64.1989 33.3751 64.2243H8.83141C8.39548 64.1989 8.04689 63.8503 8.02148 63.4144V60.7178C8.04689 60.2819 8.39548 59.9333 8.83141 59.9079ZM8.83141 50.7391H59.5355C59.9715 50.7645 60.3201 51.1123 60.3455 51.5483V54.2448C60.3201 54.6807 59.9715 55.0293 59.5355 55.0547H8.83141C8.39548 55.0293 8.04689 54.6807 8.02148 54.2448V51.5467C8.04769 51.1115 8.39548 50.7645 8.83141 50.7391ZM8.83141 41.5696H59.5355C59.9715 41.595 60.3201 41.9428 60.3455 42.3787V45.076C60.3201 45.512 59.9715 45.8598 59.5355 45.8852H8.83141C8.39548 45.8598 8.04689 45.512 8.02148 45.076V42.3771C8.04689 41.9412 8.39548 41.5934 8.83141 41.568V41.5696ZM8.83141 31.3201H20.4291C20.8651 31.3455 21.2129 31.6941 21.2383 32.13V34.825C21.2129 35.2609 20.8651 35.6095 20.4291 35.6349H8.83141C8.39548 35.6095 8.04689 35.2609 8.02148 34.825V32.1284C8.04689 31.6925 8.39548 31.3447 8.83141 31.3193V31.3201Z" fill="#B2C1D1"/>
</g>
</svg>
