<svg width="800" height="200" viewBox="0 0 800 200" fill="none" xmlns="http://www.w3.org/2000/svg">
<g clip-path="url(#clip0_2038_12622)">
<path d="M800 0H0V200H800V0Z" fill="white"/>
<g opacity="0.242548">
<path d="M115.752 54.8438H150.005L175.358 80.1966V131.98C175.386 135.825 172.29 138.965 168.445 138.993C168.411 138.993 168.378 138.993 168.345 138.993H115.756C111.91 139.022 108.769 135.929 108.739 132.083C108.739 132.049 108.739 132.014 108.739 131.98V61.8567C108.712 58.0112 111.807 54.8715 115.652 54.8438C115.686 54.8438 115.719 54.8438 115.752 54.8438Z" fill="#D9E3EB"/>
<path d="M150.275 54.8438L175.629 80.1974H150.275V54.8438Z" fill="#B2C1D1"/>
<path d="M116.831 75.3398H133.552C133.988 75.3653 134.337 75.7138 134.362 76.1498V78.8463C134.337 79.2822 133.988 79.6308 133.552 79.6562H116.831C116.395 79.6308 116.047 79.2822 116.021 78.8463V76.1498C116.047 75.7138 116.395 75.3653 116.831 75.3398ZM116.831 113.908H141.375C141.811 113.933 142.159 114.282 142.184 114.718V117.414C142.159 117.85 141.811 118.199 141.375 118.224H116.831C116.395 118.199 116.047 117.85 116.021 117.414V114.718C116.047 114.282 116.395 113.933 116.831 113.908ZM116.831 104.739H167.536C167.971 104.765 168.32 105.112 168.345 105.548V108.245C168.32 108.681 167.971 109.029 167.536 109.055H116.831C116.395 109.029 116.047 108.681 116.021 108.245V105.547C116.048 105.112 116.395 104.765 116.831 104.739ZM116.831 95.5696H167.536C167.971 95.595 168.32 95.9428 168.345 96.3787V99.076C168.32 99.512 167.971 99.8598 167.536 99.8852H116.831C116.395 99.8598 116.047 99.512 116.021 99.076V96.3771C116.047 95.9412 116.395 95.5934 116.831 95.568V95.5696ZM116.831 85.3201H128.429C128.865 85.3455 129.213 85.6941 129.238 86.13V88.825C129.213 89.2609 128.865 89.6095 128.429 89.6349H116.831C116.395 89.6095 116.047 89.2609 116.021 88.825V86.1284C116.047 85.6925 116.395 85.3447 116.831 85.3193V85.3201Z" fill="#B2C1D1"/>
</g>
<g opacity="0.742548">
<path d="M260.651 37.6992H308.86L344.545 73.3835V146.268C344.584 151.68 340.228 156.1 334.816 156.139C334.769 156.139 334.722 156.139 334.675 156.139H260.656C255.243 156.18 250.823 151.826 250.781 146.413C250.781 146.364 250.781 146.316 250.781 146.268V47.5702C250.742 42.1577 255.098 37.7382 260.51 37.6992C260.557 37.6992 260.604 37.6992 260.651 37.6992Z" fill="#D9E3EB"/>
<path d="M309.242 37.6992L344.925 73.3827H309.242V37.6992Z" fill="#B2C1D1"/>
<path d="M262.168 66.5469H285.704C286.317 66.5823 286.808 67.0727 286.843 67.6863V71.4824C286.808 72.096 286.317 72.5863 285.704 72.6218H262.168C261.555 72.5863 261.065 72.096 261.03 71.4824V67.6863C261.065 67.0727 261.555 66.5823 262.168 66.5469ZM262.168 120.831H296.713C297.327 120.867 297.817 121.357 297.853 121.971V125.767C297.817 126.38 297.327 126.871 296.713 126.906H262.168C261.555 126.871 261.065 126.38 261.03 125.767V121.971C261.065 121.357 261.555 120.867 262.168 120.831ZM262.168 107.926H333.535C334.149 107.961 334.638 108.451 334.674 109.064V112.86C334.638 113.474 334.149 113.964 333.535 114H262.168C261.555 113.964 261.065 113.474 261.03 112.86V109.063C261.066 108.45 261.556 107.961 262.168 107.926ZM262.168 95.0195H333.535C334.149 95.055 334.638 95.5453 334.674 96.1589V99.955C334.638 100.569 334.149 101.059 333.535 101.094H262.168C261.555 101.059 261.065 100.569 261.03 99.955V96.1572C261.065 95.5436 261.555 95.0532 262.168 95.0177V95.0195ZM262.168 80.5943H278.492C279.106 80.6298 279.596 81.1201 279.631 81.7338V85.5271C279.596 86.1408 279.106 86.6311 278.492 86.6666H262.168C261.555 86.6311 261.065 86.1408 261.03 85.5271V81.7311C261.065 81.1175 261.555 80.628 262.168 80.5925V80.5943Z" fill="#B2C1D1"/>
</g>
<g opacity="0.757452">
<path d="M440.492 36.8359H489.404L525.608 73.0394V146.985C525.647 152.476 521.227 156.96 515.736 156.999C515.688 156.999 515.641 156.999 515.593 156.999H440.497C435.005 157.041 430.52 152.624 430.478 147.132C430.478 147.084 430.478 147.034 430.478 146.985V46.8503C430.438 41.359 434.858 36.8756 440.349 36.8359C440.397 36.8359 440.445 36.8359 440.492 36.8359Z" fill="#D9E3EB"/>
<path d="M489.79 36.8359L525.994 73.0406H489.79V36.8359Z" fill="#B2C1D1"/>
<path d="M442.033 66.1055H465.91C466.533 66.1418 467.03 66.6395 467.067 67.262V71.1127C467.03 71.7352 466.533 72.2329 465.91 72.2692H442.033C441.411 72.2329 440.913 71.7352 440.876 71.1127V67.262C440.913 66.6395 441.411 66.1418 442.033 66.1055ZM442.033 121.18H477.081C477.704 121.216 478.2 121.714 478.237 122.337V126.187C478.2 126.81 477.704 127.307 477.081 127.344H442.033C441.411 127.307 440.913 126.81 440.876 126.187V122.337C440.913 121.714 441.411 121.216 442.033 121.18ZM442.033 108.087H514.438C515.06 108.123 515.558 108.62 515.594 109.243V113.093C515.558 113.716 515.06 114.214 514.438 114.25H442.033C441.411 114.214 440.913 113.716 440.876 113.093V109.24C440.914 108.619 441.411 108.123 442.033 108.087ZM442.033 94.9932H514.438C515.06 95.0295 515.558 95.5261 515.594 96.1486V100C515.558 100.623 515.06 101.12 514.438 101.156H442.033C441.411 101.12 440.913 100.623 440.876 100V96.1463C440.913 95.5238 441.411 95.0272 442.033 94.9909V94.9932ZM442.033 80.3571H458.594C459.217 80.3934 459.714 80.8912 459.75 81.5137V85.3621C459.714 85.9846 459.217 86.4823 458.594 86.5186H442.033C441.411 86.4823 440.913 85.9846 440.876 85.3621V81.5114C440.913 80.8889 441.411 80.3923 442.033 80.356V80.3571Z" fill="#B2C1D1"/>
</g>
<g opacity="0.257452">
<path d="M618.839 57.1758H652.983L678.257 82.4481V134.068C678.285 137.902 675.199 141.03 671.366 141.058C671.333 141.058 671.299 141.058 671.266 141.058H618.842C615.009 141.088 611.878 138.004 611.848 134.171C611.848 134.136 611.848 134.103 611.848 134.068V64.1655C611.82 60.3323 614.906 57.2038 618.739 57.1758C618.773 57.1758 618.806 57.1758 618.839 57.1758Z" fill="#D9E3EB"/>
<path d="M653.251 57.1738L678.525 82.4475H653.251V57.1738Z" fill="#B2C1D1"/>
<path d="M619.914 77.6074H636.583C637.018 77.6328 637.364 77.9785 637.389 78.4136V81.1016C637.364 81.5367 637.018 81.8838 636.583 81.9091H619.914C619.479 81.8838 619.132 81.5367 619.106 81.1016V78.4136C619.132 77.9785 619.479 77.6328 619.914 77.6074ZM619.914 116.053H644.38C644.815 116.078 645.162 116.425 645.188 116.861V119.549C645.162 119.984 644.815 120.329 644.38 120.355H619.914C619.479 120.329 619.132 119.984 619.106 119.549V116.861C619.132 116.425 619.479 116.078 619.914 116.053ZM619.914 106.913H670.459C670.894 106.939 671.241 107.284 671.266 107.719V110.409C671.241 110.844 670.894 111.189 670.459 111.215H619.914C619.479 111.189 619.132 110.844 619.106 110.409V107.718C619.132 107.284 619.48 106.939 619.914 106.913ZM619.914 97.7719H670.459C670.894 97.7972 671.241 98.1442 671.266 98.5794V101.267C671.241 101.703 670.894 102.05 670.459 102.075H619.914C619.479 102.05 619.132 101.703 619.106 101.267V98.578C619.132 98.1429 619.479 97.7959 619.914 97.7705V97.7719ZM619.914 87.5562H631.475C631.91 87.5815 632.256 87.9272 632.281 88.3623V91.0491C632.256 91.4842 631.91 91.8312 631.475 91.8565H619.914C619.479 91.8312 619.132 91.4842 619.106 91.0491V88.361C619.132 87.9259 619.479 87.5789 619.914 87.5535V87.5562Z" fill="#B2C1D1"/>
</g>
<path d="M421.054 144.606L437.406 128.254L469.313 160.161C472.312 163.16 472.312 168.023 469.313 171.022L463.822 176.513C460.823 179.512 455.96 179.512 452.961 176.513L421.054 144.606Z" fill="#B6BBC4"/>
<path d="M382.711 163.878C341.575 163.824 308.271 130.432 308.325 89.2963C308.379 48.1593 341.771 14.8543 382.907 14.9083C424.043 14.9633 457.347 48.3543 457.293 89.4913C457.254 119.773 438.887 147.016 410.828 158.407C401.899 162.033 392.35 163.891 382.711 163.878ZM382.72 26.9043C348.364 26.9163 320.522 54.7773 320.535 89.1333C320.546 123.489 348.407 151.332 382.763 151.32C417.119 151.307 444.962 123.445 444.951 89.0893C444.945 72.6063 438.396 56.7983 426.745 45.1393C415.094 33.4243 399.241 26.8593 382.72 26.9043Z" fill="#CACED5"/>
</g>
<defs>
<clipPath id="clip0_2038_12622">
<rect width="800" height="200" fill="white"/>
</clipPath>
</defs>
</svg>
