<svg width="95" height="120" viewBox="0 0 95 120" fill="none" xmlns="http://www.w3.org/2000/svg">
<g opacity="0.742548">
<path d="M10.6511 0.699219H58.8604L94.5447 36.3836V109.268C94.5837 114.68 90.2281 119.1 84.8156 119.139C84.7686 119.139 84.7216 119.139 84.6746 119.139H10.6555C5.243 119.18 0.822695 114.826 0.781022 109.413C0.781022 109.364 0.781022 109.316 0.781022 109.268V10.5702C0.742004 5.15766 5.09758 0.73824 10.5101 0.699219C10.5571 0.699219 10.6041 0.699219 10.6511 0.699219Z" fill="#D9E3EB"/>
<path d="M59.2417 0.699219L94.9251 36.3827H59.2417V0.699219Z" fill="#B2C1D1"/>
<path d="M12.1683 29.5469H35.7037C36.3173 29.5823 36.8077 30.0727 36.8431 30.6863V34.4824C36.8077 35.096 36.3173 35.5863 35.7037 35.6218H12.1683C11.5547 35.5863 11.0653 35.096 11.0298 34.4824V30.6863C11.0653 30.0727 11.5547 29.5823 12.1683 29.5469ZM12.1683 83.8311H46.7132C47.3268 83.8665 47.8172 84.3569 47.8527 84.9705V88.7666C47.8172 89.3802 47.3268 89.8705 46.7132 89.906H12.1683C11.5547 89.8705 11.0653 89.3802 11.0298 88.7666V84.9705C11.0653 84.3569 11.5547 83.8665 12.1683 83.8311ZM12.1683 70.9257H83.5352C84.1488 70.9612 84.6383 71.4507 84.6738 72.0643V75.8603C84.6383 76.4739 84.1488 76.9643 83.5352 76.9998H12.1683C11.5547 76.9643 11.0653 76.4739 11.0298 75.8603V72.0625C11.0661 71.4498 11.5556 70.9612 12.1683 70.9257ZM12.1683 58.0195H83.5352C84.1488 58.055 84.6383 58.5453 84.6738 59.1589V62.955C84.6383 63.5686 84.1488 64.059 83.5352 64.0944H12.1683C11.5547 64.059 11.0653 63.5686 11.0298 62.955V59.1572C11.0653 58.5436 11.5547 58.0532 12.1683 58.0177V58.0195ZM12.1683 43.5943H28.492C29.1056 43.6298 29.596 44.1201 29.6314 44.7338V48.5271C29.596 49.1408 29.1056 49.6311 28.492 49.6666H12.1683C11.5547 49.6311 11.0653 49.1408 11.0298 48.5271V44.7311C11.0653 44.1175 11.5547 43.628 12.1683 43.5925V43.5943Z" fill="#B2C1D1"/>
</g>
</svg>
