<svg
    width="123"
    height="26"
    viewBox="0 0 123 26"
    fill="none"
    xmlns="http://www.w3.org/2000/svg"
  >
    <path
      fill-rule="evenodd"
      clip-rule="evenodd"
      d="M0.161477 4.00856C0.120236 4.16693 0.0662343 4.3217 0 4.47135V21.0311C0.0641349 21.1596 0.116278 21.2938 0.155767 21.4319C0.60671 23.7728 2.57235 25.4965 4.95512 25.5102C10.2201 25.5488 15.4848 25.5478 20.7492 25.5073C23.3929 25.4869 25.5483 23.36 25.565 20.7761C25.6001 15.4277 25.6008 10.0794 25.5671 4.73133C25.5504 2.07705 23.4323 0.0173223 20.7852 0.0104387C15.4787 -0.00359776 10.1721 -0.00347858 4.86563 0.0107963C3.73682 0.018389 2.64672 0.423192 1.78654 1.1542C0.926362 1.88521 0.351037 2.89575 0.161477 4.00856ZM16.4095 13.9003L16.2457 13.8239C15.3385 14.7703 14.4327 15.7182 13.5283 16.6674C12.9515 17.2728 12.728 17.2838 12.1506 16.6835C11.4978 16.0047 10.8496 15.3214 10.1682 14.6032L10.1682 14.6031L10.1681 14.6031C9.87198 14.2909 9.56957 13.9721 9.25778 13.6442C9.2498 13.7587 9.24179 13.8546 9.23478 13.9385L9.23477 13.9386L9.23477 13.9386C9.22211 14.0901 9.2127 14.2028 9.21259 14.3154C9.21219 14.75 9.21122 15.1847 9.21025 15.6194C9.20692 17.1082 9.2036 18.5971 9.22287 20.0857C9.22956 20.6022 9.05917 20.7948 8.54247 20.7823C7.51856 20.7575 6.49329 20.7597 5.46925 20.7817C4.97038 20.7924 4.75595 20.6282 4.75725 20.099C4.77075 15.0182 4.77053 9.93744 4.75659 4.85671C4.75508 4.30337 4.96014 4.17293 5.49317 4.14446C6.18917 4.1073 6.64911 4.34062 7.10276 4.85853C8.01131 5.89579 8.93603 6.91886 9.86076 7.94195L9.86079 7.94198L9.86083 7.94203L9.86088 7.94209L9.86093 7.94214L9.86098 7.94219L9.86103 7.94225L9.86108 7.9423C10.6742 8.84191 11.4873 9.74153 12.2895 10.6508C12.6735 11.0861 12.8962 11.1292 13.3051 10.6742C14.7831 9.02937 16.282 7.4033 17.7809 5.77725L17.7809 5.77723L17.7809 5.77722L17.7809 5.7772L17.781 5.77719L17.7811 5.77706L17.7812 5.77688L17.7838 5.77413C18.1537 5.37287 18.5235 4.9716 18.8931 4.57005C19.2336 4.20005 20.2834 3.94704 20.676 4.20028C20.8229 4.29501 20.8732 4.62491 20.874 4.84796C20.8833 7.18703 20.8821 9.52615 20.881 11.8653C20.8807 12.4951 20.8804 13.125 20.8803 13.7549C20.8802 14.3105 20.8791 14.8662 20.8781 15.4218C20.8752 16.9779 20.8723 18.5341 20.8901 20.0899C20.896 20.6096 20.7265 20.7952 20.2094 20.7812C19.5888 20.7644 18.9676 20.7682 18.3464 20.772H18.3463H18.3463H18.3463H18.3463H18.3463H18.3462C17.9847 20.7742 17.6231 20.7765 17.2616 20.7746C16.4769 20.7706 16.4442 20.7354 16.4433 19.9646C16.4423 19.134 16.4422 18.3033 16.4421 17.4727C16.442 16.5052 16.4419 15.5377 16.4403 14.5702C16.4401 14.4176 16.4308 14.265 16.4215 14.1124L16.4215 14.1123C16.4172 14.0417 16.4129 13.971 16.4095 13.9003ZM77.6795 13.3002C77.624 13.4483 77.5601 13.5931 77.4882 13.734L77.3119 13.7378C77.2873 13.6724 77.2619 13.6073 77.2364 13.5422C77.1814 13.4016 77.1264 13.261 77.0798 13.1176C76.9657 12.7674 76.8513 12.4173 76.7368 12.0673L76.7366 12.0666L76.7361 12.0653L76.7358 12.0642C76.3253 10.809 75.9149 9.55387 75.5252 8.29229C75.4006 7.88885 75.2744 7.65336 74.7808 7.64199C74.2694 7.63021 74.1772 7.92813 74.0695 8.27637L74.056 8.31966C73.5534 9.93402 73.0459 11.5468 72.5335 13.1581C72.4916 13.2901 72.4328 13.4167 72.3534 13.5875L72.3534 13.5876C72.3095 13.682 72.2594 13.7899 72.2024 13.9197C72.1547 13.8046 72.1153 13.7132 72.0823 13.6365L72.0822 13.6364C72.0254 13.5047 71.9873 13.4163 71.9578 13.3251C71.7796 12.7748 71.6022 12.2244 71.4248 11.6739L71.4246 11.6733C71.0326 10.4569 70.6405 9.24049 70.2403 8.02679C70.1813 7.84776 70.0295 7.56699 69.9101 7.56141C69.2594 7.531 68.6071 7.53428 67.9308 7.53768C67.7131 7.53877 67.4929 7.53988 67.2695 7.53988C67.2981 7.72193 67.3368 7.90222 67.3856 8.07991C67.7572 9.10678 68.1301 10.1331 68.5031 11.1595C69.3923 13.6063 70.2815 16.0531 71.1514 18.5068C71.3209 18.985 71.6244 18.9895 71.9593 18.9944C72.0212 18.9953 72.0841 18.9962 72.1475 19.0001C72.5687 19.0263 72.8393 18.9292 72.985 18.4645C73.3406 17.3303 73.7238 16.2047 74.107 15.0791L74.1076 15.0775L74.1081 15.0759L74.1087 15.0743C74.2227 14.7393 74.3368 14.4043 74.4501 14.069C74.4923 13.9444 74.5458 13.8236 74.5993 13.7028C74.6241 13.6468 74.6489 13.5908 74.6725 13.5345L74.8403 13.53C74.8759 13.6095 74.9135 13.6883 74.9511 13.767C75.0328 13.9378 75.1144 14.1086 75.1744 14.2866C75.248 14.505 75.322 14.7234 75.3959 14.9418L75.3977 14.9473L75.3996 14.9528L75.3997 14.9531C75.7798 16.0759 76.16 17.1988 76.5041 18.3326C76.6566 18.8351 76.8851 19.0338 77.4247 19.0128C77.9648 18.9917 78.3411 18.9672 78.5357 18.3128C78.8222 17.3493 79.1703 16.4042 79.5185 15.4591L79.5186 15.459L79.5186 15.4589L79.5186 15.4588L79.5187 15.4587C79.6541 15.0909 79.7896 14.7232 79.9215 14.3544C80.0965 13.8646 80.2711 13.3746 80.4457 12.8846L80.4459 12.8839L80.4461 12.8834L80.4463 12.8829C81.0068 11.3095 81.5673 9.73608 82.1454 8.16921C82.3397 7.64268 82.1971 7.48837 81.6703 7.51327C81.1276 7.54028 80.584 7.53973 80.0414 7.51162C79.6283 7.48911 79.4448 7.67168 79.3299 8.04537C78.8384 9.64436 78.3329 11.2391 77.8274 12.8337L77.6795 13.3002ZM35.0425 13.9914L35.0423 13.9916C34.8576 14.1594 34.7119 14.2918 34.574 14.4319C34.4677 14.5398 34.3605 14.6471 34.2533 14.7544L34.2531 14.7546L34.2527 14.755C33.8873 15.1207 33.5215 15.4868 33.1894 15.8808C32.7933 16.3506 32.4921 16.2683 32.1276 15.8571C31.7507 15.4319 31.354 15.0241 30.9574 14.6165L30.9573 14.6164L30.9573 14.6164L30.9572 14.6163L30.9572 14.6162L30.9571 14.6162L30.9567 14.6158L30.9563 14.6154C30.8579 14.5143 30.7595 14.4131 30.6614 14.3117C30.5611 14.2081 30.4535 14.1115 30.3131 13.9857L30.313 13.9857L30.313 13.9856L30.313 13.9856L30.3129 13.9855L30.3126 13.9853L30.3126 13.9852L30.3121 13.9849C30.2371 13.9176 30.1527 13.842 30.0552 13.7524C30.0062 14.0297 29.9715 14.3094 29.9513 14.5902L29.9491 14.8754C29.9403 15.992 29.9315 17.1089 29.9533 18.225C29.9626 18.7013 29.8239 18.9208 29.3167 18.8891C28.816 18.8583 28.3139 18.8598 27.8135 18.8933C27.3016 18.9273 27.1248 18.7447 27.128 18.2181C27.1393 16.3179 27.1401 14.4176 27.1408 12.5173C27.1414 11.0542 27.142 9.59104 27.1474 8.12795C27.1482 7.9271 27.2464 7.57484 27.3484 7.55577C27.6267 7.50433 27.9143 7.54186 28.1701 7.66303C28.3571 7.76069 28.5051 7.93708 28.6512 8.11119L28.6512 8.11121C28.6974 8.16631 28.7435 8.22118 28.7905 8.27326C29.065 8.57726 29.3404 8.88055 29.6157 9.18384C30.4776 10.1332 31.3396 11.0826 32.1761 12.0538C32.5624 12.5022 32.7931 12.4423 33.1521 12.0409C34.3908 10.6553 35.6538 9.29117 36.9194 7.92994C37.0783 7.74269 37.2847 7.60183 37.517 7.52222C37.9327 7.41552 38.2309 7.50732 38.2283 8.06892C38.2124 11.474 38.2129 14.8792 38.2297 18.2845C38.2317 18.7579 38.051 18.913 37.5997 18.8895C37.0989 18.8608 36.5969 18.8616 36.0963 18.892C35.587 18.9256 35.3938 18.7532 35.408 18.2206C35.4331 17.279 35.4275 16.3366 35.4219 15.3942V15.3941V15.3941V15.3941V15.394V15.394C35.4201 15.0828 35.4182 14.7717 35.4175 14.4605C35.4172 14.3439 35.4081 14.2272 35.3946 14.0556C35.3869 13.9567 35.3777 13.8395 35.3679 13.6935C35.2459 13.8066 35.1389 13.9038 35.0425 13.9914ZM90.8359 19.1075C94.2297 19.0825 96.6184 16.637 96.6117 13.1943C96.6755 9.73134 94.196 7.30068 90.8092 7.31944C87.4429 7.3381 84.9942 9.54875 84.9912 13.2581C84.9884 16.6801 87.4578 19.1323 90.8359 19.1075ZM93.8388 13.2238C93.8392 15.1199 92.5691 16.4473 90.7608 16.4405C89.011 16.434 87.7688 15.0768 87.787 13.1916C87.805 11.3258 89.0905 9.96991 90.8266 9.98563C92.5733 10.0014 93.8383 11.3614 93.8388 13.2238ZM61.5728 14.8357C61.3993 14.8357 61.2258 14.8337 61.0523 14.8317C60.6507 14.8272 60.249 14.8226 59.8486 14.8424C59.3848 14.8654 59.238 14.6912 59.2331 14.2275L59.2326 14.182C59.2238 13.3474 59.2194 12.9305 59.4257 12.7225C59.6316 12.5147 60.0475 12.5151 60.8785 12.5159H60.8797C61.1471 12.5161 61.4145 12.5151 61.6819 12.5141C62.4176 12.5112 63.1533 12.5084 63.8881 12.5323C64.0803 12.5385 64.4203 12.7245 64.4319 12.8515C64.5993 14.6741 64.2595 16.8538 62.2806 18.1302C59.1943 20.1208 53.7715 18.7069 53.3182 13.9009C53.0086 10.6197 54.7686 8.08329 58.0081 7.47642C60.5849 6.9937 63.0393 8.05395 64.0116 10.4388C64.3039 11.1557 64.253 11.2333 63.5052 11.2391C63.4097 11.2399 63.314 11.2378 63.2183 11.2357H63.2183H63.2182C63.0418 11.2319 62.8655 11.2281 62.6905 11.242C62.0399 11.2936 61.5585 11.1515 61.074 10.5938C60.3352 9.74319 59.2525 9.72357 58.2202 9.99729C57.0773 10.3004 56.4266 11.1366 56.2148 12.2606C56.105 12.8543 56.0989 13.4624 56.1968 14.0582C56.3916 15.217 57.0468 16.0854 58.2359 16.3411C59.3147 16.5731 60.4133 16.6041 61.254 15.666C61.4029 15.4748 61.5374 15.2727 61.6563 15.0615L61.5728 14.8357ZM109.403 18.8619C109.67 18.8607 109.946 18.8596 110.232 18.8596C110.173 18.7374 110.125 18.6348 110.084 18.5456C110.009 18.3851 109.955 18.268 109.888 18.1582C109.752 17.9335 109.618 17.7073 109.484 17.4812L109.484 17.481L109.484 17.4809C109.096 16.8269 108.707 16.1727 108.274 15.5501C107.926 15.0504 107.974 14.7727 108.424 14.3606C109.602 13.2828 109.93 11.4602 109.315 9.90724C108.751 8.48505 107.352 7.54431 105.727 7.52679C105.038 7.51936 104.349 7.52031 103.66 7.52126C102.846 7.52238 102.031 7.5235 101.217 7.51079C100.747 7.50345 100.601 7.67771 100.603 8.13196C100.613 11.5151 100.614 14.8982 100.605 18.2814C100.604 18.6937 100.725 18.905 101.175 18.8863C101.717 18.8639 102.261 18.8684 102.803 18.8893C103.221 18.9053 103.347 18.7195 103.336 18.3249C103.315 17.5737 103.321 16.8213 103.337 16.0698C103.34 15.8961 103.374 15.6642 103.487 15.5625C103.825 15.2577 105.037 15.5072 105.276 15.9083C105.478 16.2451 105.676 16.5835 105.875 16.9219L105.876 16.9228C106.173 17.43 106.471 17.9371 106.778 18.4387C106.879 18.6044 107.057 18.8351 107.207 18.8409C107.914 18.8683 108.623 18.8652 109.403 18.8619ZM103.324 12.3078C103.343 12.017 103.345 11.7254 103.33 11.4343C103.326 9.94888 103.326 9.94885 104.812 9.94172C104.866 9.94146 104.919 9.94093 104.973 9.9404C105.107 9.93908 105.24 9.93776 105.374 9.94059C106.328 9.9608 106.88 10.5227 106.878 11.4706C106.876 12.4115 106.315 13.0073 105.391 13.0336C105.209 13.0388 105.027 13.0359 104.845 13.033C104.589 13.0289 104.334 13.0248 104.08 13.0432C103.529 13.083 103.251 12.9058 103.324 12.3078ZM117.127 15.9048L117.123 15.9123C116.811 16.4442 116.529 16.925 116.251 17.4084L116.247 17.416C115.403 18.8865 115.402 18.8878 113.716 18.8826C113.632 18.8823 113.547 18.8831 113.463 18.8839C113.275 18.8858 113.088 18.8876 112.901 18.8776C112.396 18.8505 112.3 18.6822 112.566 18.253C112.845 17.8024 113.136 17.3597 113.428 16.917L113.428 16.916C113.516 16.7835 113.603 16.651 113.69 16.5183C113.87 16.2432 114.049 15.9671 114.228 15.691C114.708 14.9506 115.188 14.2102 115.692 13.4868C116.013 13.0266 116.025 12.6756 115.689 12.2017C114.899 11.0892 114.15 9.94793 113.401 8.80699L113.401 8.80672C113.291 8.63853 113.181 8.47034 113.07 8.30226C112.989 8.17883 112.944 8.03174 112.899 7.88465C112.878 7.81656 112.857 7.74848 112.832 7.68274C112.899 7.66542 112.965 7.64723 113.031 7.62903L113.031 7.62901C113.174 7.58974 113.317 7.55047 113.461 7.52004C115.104 7.17459 116.2 7.80129 116.819 9.35754C116.928 9.63126 117.098 9.8807 117.292 10.1652L117.292 10.1654C117.388 10.3074 117.491 10.4581 117.595 10.6249C117.772 10.3441 117.944 10.0761 118.11 9.81605L118.111 9.81591C118.498 9.2118 118.857 8.65105 119.189 8.07443C119.426 7.66132 119.699 7.47165 120.185 7.50797C120.51 7.53225 120.837 7.52806 121.164 7.52386C121.402 7.52082 121.639 7.51777 121.876 7.5256C122.051 7.55243 122.221 7.60058 122.384 7.66897C122.367 7.72332 122.353 7.78003 122.339 7.83674C122.31 7.95898 122.28 8.08121 122.215 8.17988L122.125 8.31577L122.125 8.31637C121.246 9.64709 120.366 10.9781 119.456 12.2878C119.176 12.6902 119.16 12.9884 119.443 13.4029C120.252 14.5891 121.04 15.7897 121.828 16.9904C122.082 17.3785 122.337 17.7667 122.592 18.1543C122.664 18.2638 122.731 18.3766 122.822 18.5294C122.872 18.6142 122.93 18.7112 123 18.8268C122.841 18.8345 122.694 18.8372 122.557 18.8398H122.557C122.284 18.8449 122.048 18.8493 121.818 18.8909C120.342 19.1577 119.37 18.6409 118.826 17.1992C118.652 16.738 118.376 16.3151 118.067 15.8404L118.067 15.84C117.916 15.609 117.758 15.3657 117.599 15.0997C117.433 15.3838 117.277 15.6502 117.127 15.9048ZM42.9466 11.7936C42.9455 12.2532 42.9443 12.7128 42.9443 13.1725C42.9443 13.6417 42.9456 14.111 42.9469 14.5803C42.9503 15.8023 42.9537 17.0243 42.9339 18.2459C42.9257 18.7506 43.104 18.9148 43.5857 18.8889C44.1061 18.8609 44.63 18.8662 45.151 18.8893C45.5797 18.9083 45.7518 18.7483 45.7401 18.3094C45.7294 17.9067 45.7318 17.5035 45.7343 17.1004C45.737 16.6473 45.7397 16.1942 45.7238 15.7418C45.7072 15.2717 45.8859 15.1084 46.3408 15.1192C46.7546 15.129 47.1686 15.1269 47.5826 15.1247C48.0038 15.1225 48.4251 15.1204 48.846 15.1308C49.2853 15.1417 49.4462 14.9595 49.4255 14.5357C49.4029 14.1187 49.4027 13.7006 49.4249 13.2835C49.4515 12.8316 49.2944 12.6462 48.8174 12.6638C48.3461 12.6813 47.874 12.6783 47.4019 12.6753C47.0178 12.6728 46.6336 12.6704 46.2498 12.6789C45.8791 12.6872 45.7139 12.569 45.7232 12.1815C45.7318 11.8253 45.7249 11.4687 45.718 11.1121C45.714 10.9057 45.71 10.6992 45.7091 10.4928C45.7072 10.1082 45.8897 9.92718 46.29 9.93808C46.7062 9.94941 47.1229 9.94669 47.5395 9.94397C47.7284 9.94274 47.9174 9.94151 48.1063 9.94159C49.0417 9.94198 49.5061 9.94229 49.7309 9.71038C49.9555 9.47875 49.9411 9.01548 49.9184 8.08929C49.9078 7.6563 49.7685 7.50757 49.3338 7.51139C47.4131 7.52827 45.4919 7.53308 43.5714 7.50799C43.0665 7.50139 42.9282 7.67747 42.9352 8.16162C42.9525 9.37208 42.9495 10.5828 42.9466 11.7936Z"
      fill="white"
    />
  </svg>