<svg width="450" height="371" viewBox="0 0 450 371" fill="none" xmlns="http://www.w3.org/2000/svg">
<path d="M212.78 367.386C366.012 382.893 444.983 345.2 449.698 254.304C456.767 117.96 337.674 132.689 302.992 96.7552C268.308 60.8213 307.162 111.888 240.366 37.4242C195.834 -12.2188 136.495 -12.4737 62.35 36.6613C2.54388 85.3367 -3.9244 149.172 42.9432 228.164C89.8108 307.155 146.422 353.563 212.78 367.386Z" fill="#0A7ABF" fill-opacity="0.19"/>
<path d="M24.3637 280.704L19.7466 285.321L12.1896 277.76L4.61707 285.332L0 280.715L7.56865 273.143L0.0116741 265.586L4.62875 260.965L12.1857 268.526L19.7583 260.957L24.3753 265.574L16.8067 273.147L24.3637 280.704Z" fill="#0A7ABF"/>
<path d="M417.993 108.862C410.582 108.862 404.581 102.852 404.581 95.4429C404.581 88.034 410.582 82.0234 417.993 82.0234C425.404 82.0234 431.405 88.034 431.405 95.4429C431.405 102.852 425.404 108.862 417.993 108.862ZM417.993 101.214C421.164 101.214 423.741 98.6336 423.741 95.4429C423.741 92.2522 421.164 89.6718 417.993 89.6718C414.82 89.6718 412.243 92.2522 412.243 95.4429C412.243 98.6336 414.82 101.214 417.993 101.214Z" fill="#0A7ABF"/>
<path d="M143.142 29.8987C174.044 29.8987 177.907 48.1641 177.907 66.3966V86.2882C177.907 89.4402 180.304 92.0013 183.253 92.0013L365.337 90.4175C368.288 90.4175 370.683 87.8584 370.683 84.7063V63.2619C370.683 43.7006 355.846 27.8398 337.546 27.8398C336.306 27.8398 141.848 29.8987 143.142 29.8987Z" fill="#0A7ABF" fill-opacity="0.2"/>
<path d="M143.136 33.2441C143.136 36.2262 145.56 38.6463 148.544 38.6463C337.585 38.6463 337.619 38.6443 337.654 38.6463C350.042 38.6675 360.08 48.792 360.099 61.2901V86.916H365.445C368.395 86.916 370.79 84.5018 370.79 81.5255V61.2901C370.869 42.8085 356.082 27.7628 337.762 27.6836H337.548H335.553C335.062 27.7126 334.585 27.7918 334.1 27.8439H148.536C145.554 27.8439 143.136 30.262 143.136 33.2441Z" fill="#4F5D73"/>
<path d="M337.548 37.9797V27.8398H145.012C119.784 27.8785 99.3416 48.4924 99.303 73.9291V338.584C99.303 341.559 101.698 343.973 104.647 343.973H269.499C294.694 343.894 315.086 323.288 315.103 297.884V61.2494V60.9963C315.26 48.6025 325.259 38.0145 337.548 37.9971C337.598 37.9971 337.645 37.9817 337.693 37.9797H337.548Z" fill="white"/>
<path d="M144.907 27.8421C119.677 27.8827 99.2331 48.4966 99.1945 73.9333V228.875L214.31 27.6992L144.907 27.8421Z" fill="#F0F0F0"/>
<path d="M99.3011 136.423V77.3451C99.3417 51.9065 119.784 31.2945 145.014 31.2539H337.548M85.619 336.644C97.1167 336.644 99.1968 324.428 99.1968 316.708C99.1968 253.576 99.3011 208.949 99.3011 192.94M100.307 154.472V161.57" stroke="#0A7ABF" stroke-width="7.2" stroke-miterlimit="10" stroke-linecap="round"/>
<path d="M337.548 27.6836H335.553C318.078 28.7478 304.436 43.3396 304.413 61.0023V61.5064V297.754C304.38 313.853 293.597 327.906 278.157 331.973C276.469 332.412 274.741 332.628 273.014 332.645V332.651H272.881H272.744H72.8853C80.9083 339.734 91.4036 344.039 102.901 344.048H102.973H160.596H269.501C270.675 344.048 272.491 344.048 273.669 343.869C275.745 343.678 277.804 343.33 279.83 342.828C300.527 337.966 315.184 319.371 315.211 297.934V61.182V60.9309C315.364 49.3135 324.191 39.697 335.657 38.6463C336.291 38.6115 337.504 38.6154 338.133 38.6463L337.548 27.6836Z" fill="#4F5D73"/>
<path d="M337.545 27.6836H335.55C318.075 28.7497 304.439 43.3396 304.414 61.0023V61.5064V297.754C304.381 313.853 293.598 327.908 278.158 331.973C274.653 332.887 270.971 332.887 267.468 331.973C251.98 327.85 241.201 313.698 241.243 297.54V290.351C241.264 287.375 238.889 284.942 235.938 284.924H202.063H174.828H132.841H88.8801H62.6052C59.656 284.924 57.261 287.34 57.261 290.317V297.936C57.2378 323.382 77.676 344.027 102.902 344.048H102.97H160.593H269.496C270.672 344.048 272.49 344.048 273.666 343.869C275.744 343.678 277.805 343.332 279.831 342.828C300.528 337.968 315.183 319.373 315.208 297.936V61.1839V60.9309C315.361 49.3154 324.19 39.695 335.658 38.6482C336.323 38.6115 336.987 38.6115 337.653 38.6482C350.041 38.6675 360.079 48.7939 360.1 61.2901V86.918H365.444C368.396 86.918 370.791 84.5037 370.791 81.5274V61.2901C370.868 42.8084 356.081 27.7647 337.762 27.6836H337.545Z" fill="#0A7ABF"/>
<path d="M336.905 244.539C340.546 240.91 346.437 240.916 350.073 244.547L396.018 290.416C399.643 294.035 399.647 299.909 396.027 303.536L396.012 303.551C392.371 307.178 386.481 307.177 382.842 303.544L336.897 257.676C333.272 254.055 333.268 248.182 336.888 244.556L336.905 244.539Z" fill="#6F7C90"/>
<path d="M346.707 254.025C375.077 228.029 377.043 184.004 351.1 155.692C325.156 127.379 281.128 125.502 252.758 151.498C224.388 177.495 222.418 221.521 248.362 249.834C274.305 278.145 318.337 280.021 346.707 254.025Z" fill="#6F7C90"/>
<path d="M346.707 254.025C375.077 228.029 377.043 184.004 351.1 155.692C325.156 127.379 281.128 125.502 252.758 151.498C224.388 177.495 222.418 221.521 248.362 249.834C274.305 278.145 318.337 280.021 346.707 254.025Z" stroke="#6F7C90" stroke-width="7.2" stroke-miterlimit="10"/>
<path d="M142.362 237.914H194.616" stroke="#4F5D73" stroke-width="7.2" stroke-miterlimit="10" stroke-linecap="round"/>
<path d="M142.362 189.242H194.616" stroke="#4F5D73" stroke-width="7.2" stroke-miterlimit="10" stroke-linecap="round"/>
<path d="M142.36 140.57H260.804" stroke="#4F5D73" stroke-width="7.2" stroke-miterlimit="10" stroke-linecap="round"/>
<path d="M142.36 88.4258H274.49" stroke="#4F5D73" stroke-width="7.2" stroke-miterlimit="10" stroke-linecap="round"/>
<path d="M350.232 232.754C353.872 229.125 359.763 229.131 363.4 232.762L409.344 278.631C412.97 282.25 412.973 288.124 409.354 291.751L409.339 291.766C405.698 295.393 399.807 295.391 396.168 291.758L350.224 245.891C346.599 242.27 346.595 236.396 350.214 232.771L350.232 232.754Z" fill="#0A7ABF"/>
<path d="M360.033 242.24C388.403 216.244 390.369 172.219 364.427 143.907C338.482 115.594 294.455 113.717 266.085 139.713C237.715 165.709 235.745 209.736 261.689 238.049C287.632 266.36 331.663 268.236 360.033 242.24Z" fill="white"/>
<path d="M360.033 242.24C388.403 216.244 390.369 172.219 364.427 143.907C338.482 115.594 294.455 113.717 266.085 139.713C237.715 165.709 235.745 209.736 261.689 238.049C287.632 266.36 331.663 268.236 360.033 242.24Z" stroke="#0A7ABF" stroke-width="7.2" stroke-miterlimit="10"/>
<path d="M338.753 206.607L332.163 213.193L315.202 196.231L298.368 213.063L291.741 206.438L308.575 189.602L291.611 172.639L298.201 166.051L315.163 183.014L331.997 166.18L338.624 172.807L321.79 189.643L338.753 206.607Z" fill="#0A7ABF"/>
</svg>
