<svg width="352" height="73" viewBox="0 0 352 73" fill="none" xmlns="http://www.w3.org/2000/svg">
<path fill-rule="evenodd" clip-rule="evenodd" d="M0.461571 11.4582C0.343688 11.9109 0.189326 12.3533 0 12.7811V60.1161C0.183325 60.4835 0.332374 60.8669 0.445251 61.2617C1.73424 67.9529 7.3529 72.8801 14.1639 72.9193C29.2135 73.0296 44.2623 73.0268 59.3103 72.9109C66.8672 72.8527 73.0282 66.7732 73.076 59.3873C73.1762 44.0991 73.1782 28.8114 73.082 13.5242C73.0343 5.93712 66.9796 0.0495148 59.4133 0.0298385C44.2448 -0.010284 29.0764 -0.00994329 13.9081 0.0308605C10.6814 0.0525636 7.56547 1.20967 5.10671 3.29921C2.64795 5.38876 1.00342 8.27731 0.461571 11.4582ZM46.9056 39.733L46.4373 39.5147C43.844 42.22 41.2549 44.9293 38.6699 47.6426C37.021 49.3733 36.3822 49.4046 34.7318 47.6887C32.8657 45.7485 31.0129 43.7954 29.0654 41.7425C28.2188 40.8499 27.3542 39.9385 26.4628 39.0011C26.44 39.3278 26.4171 39.6016 26.3971 39.8414L26.397 39.8421L26.397 39.8424L26.397 39.8425L26.397 39.8426C26.3608 40.2757 26.3339 40.5977 26.3336 40.9196C26.3324 42.162 26.3297 43.4044 26.3269 44.6468C26.3174 48.9026 26.3079 53.1585 26.363 57.4136C26.3821 58.89 25.8951 59.4406 24.4181 59.4048C21.4913 59.334 18.5607 59.3402 15.6335 59.4032C14.2075 59.4339 13.5946 58.9645 13.5983 57.4516C13.6369 42.9285 13.6362 28.4055 13.5964 13.8826C13.5921 12.3009 14.1782 11.928 15.7019 11.8467C17.6914 11.7404 19.0061 12.4074 20.3028 13.8878C22.8998 16.8527 25.5431 19.7771 28.1863 22.7016L28.1864 22.7016L28.1865 22.7017C30.511 25.2735 32.8356 27.8453 35.1287 30.4447C36.2265 31.689 36.863 31.812 38.0317 30.5115C42.2567 25.8098 46.5413 21.1616 50.8259 16.5135L50.826 16.5134L50.8262 16.5132L50.8263 16.5131L50.8265 16.5129L50.8266 16.5127L50.8268 16.5126C51.8864 15.3631 52.946 14.2135 54.0047 13.0632C54.9781 12.0056 57.9787 11.2824 59.1011 12.0062C59.521 12.277 59.6646 13.22 59.6671 13.8576C59.6936 20.5438 59.6903 27.2301 59.687 33.9164C59.6861 35.7168 59.6852 37.5171 59.6849 39.3174C59.6846 40.9056 59.6817 42.4938 59.6787 44.0821C59.6704 48.5302 59.6622 52.9783 59.7129 57.4258C59.7298 58.9111 59.2455 59.4418 57.7674 59.4017C55.9932 59.3536 54.2176 59.3645 52.4418 59.3754H52.4418H52.4417H52.4416H52.4416H52.4415H52.4414C51.408 59.3818 50.3744 59.3882 49.3411 59.3829C47.0981 59.3715 47.0048 59.2709 47.0021 57.0675C46.9993 54.6929 46.999 52.3183 46.9987 49.9437C46.9983 47.1785 46.998 44.4132 46.9936 41.648C46.9929 41.2117 46.9664 40.7755 46.9399 40.3393C46.9276 40.1372 46.9153 39.9351 46.9056 39.733ZM222.04 38.0163C221.881 38.4396 221.699 38.8535 221.493 39.2562L220.989 39.267C220.919 39.0812 220.847 38.8961 220.775 38.7111L220.773 38.7079C220.616 38.306 220.459 37.904 220.326 37.4943C219.999 36.491 219.671 35.4881 219.343 34.4851C218.17 30.8967 216.996 27.3083 215.882 23.7014C215.526 22.5482 215.165 21.8751 213.754 21.8426C212.293 21.8089 212.029 22.6605 211.721 23.6559L211.683 23.7797C210.246 28.3942 208.795 33.0043 207.331 37.61C207.211 37.9873 207.043 38.3493 206.816 38.8375L206.815 38.8383L206.815 38.8403C206.689 39.1096 206.547 39.4173 206.384 39.787C206.248 39.458 206.135 39.1969 206.041 38.9778L206.041 38.9772C205.878 38.6008 205.769 38.3481 205.685 38.0873C205.175 36.5134 204.668 34.9388 204.16 33.3642C203.04 29.8877 201.919 26.4113 200.776 22.9425C200.607 22.4308 200.173 21.6282 199.832 21.6123C197.972 21.5254 196.107 21.5347 194.174 21.5444H194.174H194.173H194.173H194.173H194.173C193.551 21.5476 192.922 21.5507 192.284 21.5507C192.365 22.0711 192.476 22.5865 192.616 23.0944C193.675 26.0212 194.738 28.9465 195.801 31.8718L195.81 31.8983L195.812 31.9016C198.353 38.8941 200.894 45.8867 203.38 52.8988C203.865 54.2659 204.732 54.2786 205.689 54.2927C205.866 54.2953 206.046 54.2979 206.227 54.3091C207.431 54.3838 208.205 54.1065 208.621 52.7781C209.638 49.5356 210.733 46.3178 211.829 43.1001C212.156 42.1382 212.484 41.1763 212.809 40.2138C212.93 39.8576 213.082 39.5124 213.235 39.1671C213.306 39.0071 213.377 38.8471 213.445 38.6859L213.925 38.6732C214.026 38.9003 214.134 39.1254 214.241 39.3505C214.474 39.8387 214.708 40.3268 214.879 40.8358C215.094 41.471 215.308 42.1059 215.523 42.7409C216.61 45.9502 217.697 49.1601 218.68 52.401C219.116 53.8374 219.769 54.4053 221.312 54.3452C222.856 54.2851 223.931 54.2149 224.487 52.3444C225.306 49.5901 226.302 46.888 227.297 44.1862C227.684 43.135 228.072 42.0838 228.449 41.0295C228.949 39.6297 229.448 38.2294 229.947 36.829C231.549 32.3297 233.152 27.8303 234.806 23.3496C235.361 21.8446 234.953 21.4035 233.447 21.4747C231.896 21.5519 230.342 21.5503 228.791 21.47C227.611 21.4056 227.086 21.9275 226.758 22.9957C225.354 27.563 223.91 32.1181 222.466 36.6731L222.465 36.6751L222.465 36.6767L222.04 38.0163ZM100.165 39.9935L100.165 39.994L100.164 39.9942C99.6366 40.4738 99.2202 40.8523 98.8259 41.2527C98.5226 41.5607 98.2167 41.8669 97.9107 42.1731L97.9099 42.1739L97.9091 42.1747L97.9084 42.1754L97.9076 42.1762C96.863 43.2217 95.8175 44.2679 94.868 45.3942C93.7358 46.7371 92.8748 46.5018 91.8331 45.3265C90.7557 44.1109 89.6215 42.9452 88.4876 41.7799L88.4876 41.7798L88.4875 41.7797L88.4874 41.7797L88.4874 41.7796L88.4873 41.7795L88.4817 41.7738C88.2016 41.4858 87.9214 41.1979 87.6421 40.9092C87.3554 40.6128 87.0475 40.3368 86.6461 39.977C86.431 39.7842 86.1891 39.5673 85.9091 39.3103C85.769 40.103 85.6699 40.9024 85.6122 41.7053L85.6058 42.5203V42.5204V42.5206V42.5208V42.5209V42.5211C85.5807 45.7126 85.5556 48.9048 85.6179 52.0951C85.6445 53.4563 85.2481 54.0838 83.7982 53.9932C82.3672 53.9053 80.9319 53.9094 79.5014 54.0054C78.0382 54.1024 77.5329 53.5805 77.5419 52.0754C77.5743 46.6436 77.5765 41.2117 77.5787 35.7797V35.7728C77.5804 31.5929 77.5821 27.413 77.5975 23.2332C77.5997 22.6591 77.8803 21.6522 78.1719 21.5977C78.9676 21.4507 79.7895 21.5579 80.5208 21.9043C81.0552 22.1834 81.4783 22.6876 81.8959 23.1853C82.0281 23.3428 82.1597 23.4997 82.2942 23.6486C83.0776 24.5162 83.8635 25.3818 84.6494 26.2474L84.6499 26.248L84.6505 26.2486L84.6511 26.2493L84.6517 26.2499L84.6532 26.2516C87.1169 28.9652 89.5806 31.6789 91.9718 34.4551C93.0757 35.7368 93.7354 35.5656 94.7614 34.418C98.3024 30.4575 101.912 26.5582 105.53 22.6672C105.984 22.132 106.574 21.7293 107.238 21.5018C108.426 21.1968 109.279 21.4592 109.272 23.0645C109.226 32.7978 109.227 42.5313 109.275 52.265C109.281 53.6183 108.765 54.0616 107.475 53.9945C106.043 53.9124 104.608 53.9147 103.177 54.0015C101.722 54.0977 101.169 53.6047 101.21 52.0824C101.281 49.391 101.266 46.6972 101.25 44.0036V44.0029V44.0029V44.0028V44.0027V44.0026C101.244 43.1132 101.239 42.2238 101.237 41.3345C101.236 41.001 101.21 40.6675 101.172 40.1769C101.149 39.8942 101.123 39.5593 101.095 39.1421C100.747 39.4647 100.442 39.7423 100.166 39.9924L100.165 39.9935ZM259.651 54.6159C269.351 54.5446 276.179 47.5542 276.16 37.7136C276.343 27.8148 269.255 20.8669 259.574 20.9206C249.952 20.9739 242.952 27.2929 242.944 37.8958C242.936 47.6773 249.995 54.6867 259.651 54.6159ZM268.234 37.7977C268.235 43.2177 264.605 47.0121 259.436 46.9926C254.434 46.9738 250.883 43.0946 250.935 37.7058C250.987 32.3724 254.661 28.4968 259.624 28.5417C264.617 28.5869 268.233 32.4742 268.234 37.7977ZM176.001 42.4055C175.505 42.4055 175.009 42.3998 174.513 42.3942C173.365 42.3813 172.217 42.3683 171.072 42.4248C169.746 42.4903 169.327 41.9924 169.313 40.6672L169.311 40.5371C169.286 38.1515 169.274 36.9598 169.863 36.365C170.452 35.7712 171.641 35.7723 174.016 35.7746H174.019C174.784 35.7753 175.548 35.7723 176.312 35.7693C178.415 35.7612 180.518 35.7531 182.619 35.8214C183.168 35.8393 184.14 36.3709 184.173 36.7338C184.652 41.9436 183.68 48.1743 178.024 51.8227C169.202 57.5127 153.701 53.4712 152.405 39.7336C151.521 30.3544 156.551 23.1042 165.811 21.3695C173.177 19.9897 180.192 23.0204 182.972 29.8372C183.807 31.8866 183.662 32.1083 181.524 32.125C181.251 32.1272 180.977 32.1212 180.704 32.1153C180.2 32.1043 179.696 32.0934 179.196 32.1331C177.336 32.2808 175.96 31.8747 174.575 30.2803C172.463 27.849 169.368 27.7929 166.417 28.5753C163.15 29.4416 161.291 31.832 160.685 35.045C160.371 36.7418 160.354 38.4802 160.634 40.183C161.19 43.4955 163.063 45.9778 166.462 46.7087C169.546 47.3719 172.686 47.4604 175.089 44.779C175.515 44.2323 175.899 43.6547 176.239 43.0509L176.001 42.4055ZM312.72 53.9159C313.485 53.9127 314.273 53.9093 315.092 53.9093C314.922 53.56 314.786 53.2668 314.668 53.012C314.454 52.553 314.299 52.2184 314.109 51.9046C313.72 51.2619 313.336 50.6154 312.952 49.9689C311.843 48.0993 310.733 46.2293 309.494 44.4495C308.5 43.0209 308.636 42.2272 309.923 41.0493C313.289 37.9684 314.228 32.7588 312.47 28.3197C310.859 24.2544 306.858 21.5654 302.215 21.5153C300.246 21.4941 298.276 21.4968 296.306 21.4995C293.978 21.5027 291.649 21.5059 289.322 21.4695C287.979 21.4486 287.562 21.9467 287.566 23.2451C287.595 32.9156 287.598 42.5861 287.573 52.2565C287.57 53.4353 287.915 54.039 289.202 53.9857C290.752 53.9216 292.307 53.9344 293.857 53.9941C295.05 54.0401 295.41 53.5089 295.379 52.3811C295.32 50.2337 295.337 48.083 295.382 45.9349C295.392 45.4383 295.488 44.7756 295.811 44.4849C296.778 43.6136 300.241 44.3269 300.926 45.4732C301.501 46.4352 302.069 47.4019 302.636 48.3685L302.637 48.3704L302.639 48.3735L302.639 48.374L302.64 48.3744C303.49 49.8236 304.341 51.2727 305.217 52.7063C305.507 53.1798 306.015 53.8394 306.443 53.856C308.466 53.9341 310.493 53.9255 312.72 53.9159ZM295.345 35.1815C295.4 34.3504 295.406 33.5166 295.362 32.6848C295.351 28.4387 295.351 28.4386 299.597 28.4182C299.752 28.4175 299.906 28.4159 300.06 28.4144C300.441 28.4107 300.823 28.4069 301.204 28.415C303.932 28.4728 305.508 30.0788 305.504 32.7883C305.499 35.478 303.894 37.1809 301.252 37.2562C300.733 37.271 300.213 37.2627 299.693 37.2544C298.962 37.2428 298.232 37.2311 297.506 37.2835C295.93 37.3973 295.136 36.8908 295.345 35.1815ZM336.149 43.161C335.671 43.9805 335.22 44.7487 334.789 45.4827L334.789 45.4837C333.897 47.0042 333.09 48.3784 332.297 49.7602L332.285 49.7819C329.872 53.9854 329.87 53.989 325.05 53.974C324.809 53.9733 324.568 53.9756 324.326 53.978C323.791 53.9832 323.255 53.9883 322.722 53.9598C321.278 53.8824 321.004 53.4012 321.763 52.1744C322.56 50.8868 323.393 49.6216 324.226 48.3565L324.228 48.3523C324.478 47.9738 324.727 47.5952 324.975 47.2161C325.49 46.4295 326.002 45.6403 326.513 44.8512C327.885 42.7348 329.257 40.6184 330.699 38.5505C331.616 37.2352 331.651 36.2319 330.69 34.8771C328.433 31.6968 326.291 28.4341 324.151 25.1724L324.15 25.1716C323.835 24.6912 323.519 24.2109 323.204 23.7309C322.972 23.3782 322.843 22.9579 322.714 22.5375L322.714 22.5372C322.654 22.3426 322.594 22.148 322.524 21.9601C322.714 21.9106 322.903 21.8586 323.092 21.8066C323.5 21.6943 323.909 21.582 324.322 21.495C329.017 20.5075 332.152 22.2989 333.921 26.7474C334.232 27.5298 334.717 28.2429 335.271 29.0562L335.272 29.0565C335.548 29.4624 335.841 29.8932 336.139 30.3701C336.644 29.5684 337.134 28.8031 337.61 28.0608L337.612 28.057L337.613 28.0558C338.719 26.3296 339.746 24.7273 340.694 23.0797C341.373 21.8988 342.152 21.3567 343.542 21.4605C344.471 21.5299 345.405 21.5179 346.341 21.5059C347.019 21.4972 347.698 21.4885 348.375 21.5109C348.874 21.5876 349.362 21.7252 349.828 21.9207C349.778 22.0761 349.739 22.2382 349.7 22.4003C349.615 22.7497 349.531 23.0991 349.345 23.3811L349.088 23.7694L349.084 23.7749C346.572 27.5774 344.058 31.3808 341.458 35.1233C340.659 36.2736 340.613 37.1261 341.421 38.3109C343.733 41.7012 345.985 45.1331 348.237 48.5649C348.965 49.6745 349.693 50.7842 350.423 51.8924C350.629 52.2052 350.82 52.5277 351.079 52.9642L351.081 52.9678C351.225 53.2093 351.389 53.4857 351.588 53.8145C351.133 53.8366 350.715 53.8444 350.322 53.8518C349.543 53.8664 348.866 53.8791 348.209 53.9979C343.991 54.7605 341.212 53.2831 339.656 49.1623C339.159 47.844 338.371 46.6351 337.487 45.2782C337.057 44.6175 336.603 43.9216 336.149 43.161ZM122.762 33.7113C122.758 35.0252 122.755 36.3391 122.755 37.653C122.755 38.9943 122.759 40.3356 122.762 41.677C122.772 45.17 122.782 48.6631 122.725 52.1551C122.702 53.5977 123.211 54.0671 124.588 53.993C126.076 53.9129 127.574 53.9282 129.063 53.9941C130.288 54.0484 130.78 53.5911 130.747 52.3367C130.716 51.1854 130.723 50.0331 130.73 48.8808C130.738 47.5856 130.745 46.2905 130.7 44.9972C130.653 43.6536 131.163 43.1867 132.464 43.2175C133.646 43.2456 134.83 43.2395 136.013 43.2334C137.217 43.2272 138.421 43.221 139.625 43.2508C140.88 43.2819 141.34 42.761 141.281 41.5499C141.216 40.3576 141.216 39.1628 141.279 37.9705C141.355 36.6785 140.906 36.1487 139.543 36.1992C138.196 36.249 136.846 36.2404 135.497 36.2318C134.399 36.2248 133.301 36.2178 132.203 36.2422C131.144 36.2659 130.672 35.928 130.698 34.8204C130.723 33.8021 130.703 32.7829 130.683 31.7636C130.672 31.1734 130.661 30.5833 130.658 29.9933C130.653 28.8941 131.174 28.3766 132.318 28.4077C133.508 28.4401 134.699 28.4324 135.89 28.4246C136.43 28.4211 136.97 28.4175 137.51 28.4178C140.184 28.4189 141.511 28.4198 142.154 27.7569C142.796 27.0948 142.755 25.7705 142.69 23.1231C142.66 21.8854 142.261 21.4603 141.019 21.4712C135.529 21.5195 130.037 21.5332 124.547 21.4615C123.104 21.4426 122.709 21.9459 122.729 23.3298C122.778 26.7898 122.77 30.2506 122.762 33.7113Z" fill="white"/>
</svg>

