<svg width="919" height="741" viewBox="0 0 919 741" fill="none" xmlns="http://www.w3.org/2000/svg">
<path d="M226.281 742.86C101.31 742.86 -3.05176e-05 740.27 -3.05176e-05 737.075C-3.05176e-05 733.88 101.31 731.29 226.281 731.29C351.253 731.29 452.563 733.88 452.563 737.075C452.563 740.27 351.253 742.86 226.281 742.86Z" fill="#99A9B5"/>
<path d="M151.618 25.3437V486.711C151.618 500.71 163.154 512.058 177.391 512.058H892.345C906.582 512.058 918.117 500.71 918.117 486.711V25.3437C918.117 11.3443 906.582 0 892.345 0H177.391C163.154 0 151.618 11.3443 151.618 25.3437Z" fill="#B3BBC3"/>
<path d="M151.618 28.6958V486.71C151.618 490.039 152.273 493.335 153.546 496.41C154.82 499.485 156.687 502.28 159.04 504.633C161.393 506.987 164.187 508.854 167.263 510.128C170.338 511.402 173.634 512.058 176.962 512.058H190.211V28.6958H151.618Z" fill="#4A5A66"/>
<path d="M151.618 25.3437V53.8712H918.117V25.3437C918.117 11.3443 906.582 0 892.345 0H177.391C163.154 0 151.618 11.3443 151.618 25.3437Z" fill="#343D76"/>
<path d="M715.237 0L770.024 53.8712H918.117V25.3437C918.117 11.3443 906.582 0 892.345 0H715.237Z" fill="#192057"/>
<path d="M859.76 37.1094C855.111 37.1094 851.343 33.3409 851.343 28.6921C851.343 24.0434 855.111 20.2749 859.76 20.2749C864.409 20.2749 868.177 24.0434 868.177 28.6921C868.177 33.3409 864.409 37.1094 859.76 37.1094Z" fill="#343D76"/>
<path d="M825.436 37.1094C820.787 37.1094 817.019 33.3409 817.019 28.6921C817.019 24.0434 820.787 20.2749 825.436 20.2749C830.085 20.2749 833.853 24.0434 833.853 28.6921C833.853 33.3409 830.085 37.1094 825.436 37.1094Z" fill="#343D76"/>
<path d="M791.111 37.1094C786.463 37.1094 782.694 33.3409 782.694 28.6921C782.694 24.0434 786.463 20.2749 791.111 20.2749C795.76 20.2749 799.529 24.0434 799.529 28.6921C799.529 33.3409 795.76 37.1094 791.111 37.1094Z" fill="#343D76"/>
<path d="M161.553 118.206H180.272C181.389 118.206 182.295 119.111 182.295 120.228V223.837C182.295 224.954 181.389 225.86 180.272 225.86H161.553C160.435 225.86 159.53 224.954 159.53 223.837V120.228C159.53 119.111 160.435 118.206 161.553 118.206Z" fill="white"/>
<path d="M254.399 202.474H838.811C844.988 202.512 851.045 200.762 856.25 197.436C863.484 192.743 868.177 185.203 868.177 176.697V112.263C868.177 104.635 864.4 97.7775 858.4 93.0612C853.201 88.9733 846.335 86.4906 838.811 86.4906H254.399C248.674 86.4627 243.046 87.9625 238.094 90.8353C230.217 95.4596 225.033 103.337 225.033 112.29V176.724C225.033 184.272 228.726 191.061 234.611 195.773C239.837 199.926 246.779 202.474 254.399 202.474Z" fill="white"/>
<path d="M756.102 144.473C756.101 152.973 758.621 161.283 763.343 168.352C768.066 175.42 774.778 180.93 782.632 184.183C790.485 187.437 799.127 188.288 807.464 186.63C815.802 184.972 823.46 180.878 829.471 174.867C835.482 168.856 839.576 161.198 841.234 152.86C842.892 144.523 842.041 135.881 838.787 128.027C835.534 120.174 830.025 113.461 822.956 108.739C815.888 104.017 807.578 101.497 799.077 101.497C793.429 101.484 787.835 102.586 782.615 104.741C777.395 106.896 772.652 110.061 768.658 114.054C764.665 118.047 761.5 122.79 759.345 128.011C757.19 133.231 756.088 138.825 756.102 144.473Z" fill="#B3BBC3"/>
<path d="M799.943 152.522C792.198 152.522 785.92 146.244 785.92 138.5C785.92 130.755 792.198 124.477 799.943 124.477C807.687 124.477 813.965 130.755 813.965 138.5C813.965 146.244 807.687 152.522 799.943 152.522Z" fill="white"/>
<path d="M770.863 176.893C778.684 183.707 788.706 187.46 799.078 187.46C809.451 187.46 819.473 183.707 827.294 176.893C826.323 170.264 823.05 164.189 818.048 159.732C813.046 155.275 806.635 152.721 799.938 152.519H799.889C799.808 152.519 799.732 152.519 799.651 152.519H799.394C792.495 152.443 785.802 154.871 780.555 159.352C775.309 163.834 771.866 170.066 770.863 176.893Z" fill="white"/>
<path d="M366.398 119.861H724.747C725.259 119.861 725.674 120.276 725.674 120.788V123.562C725.674 124.074 725.259 124.489 724.747 124.489H366.398C365.886 124.489 365.471 124.074 365.471 123.562V120.788C365.471 120.276 365.886 119.861 366.398 119.861Z" fill="#B3BBC3"/>
<path d="M447 164.472H644.144C644.656 164.472 645.072 164.887 645.072 165.399V168.173C645.072 168.685 644.656 169.1 644.144 169.1H447C446.488 169.1 446.073 168.685 446.073 168.173V165.399C446.073 164.887 446.488 164.472 447 164.472Z" fill="#B3BBC3"/>
<path d="M366.398 142.166H724.747C725.259 142.166 725.674 142.581 725.674 143.093V145.867C725.674 146.379 725.259 146.794 724.747 146.794H366.398C365.886 146.794 365.471 146.379 365.471 145.867V143.093C365.471 142.581 365.886 142.166 366.398 142.166Z" fill="#B3BBC3"/>
<path d="M250.361 169.314H329.737C332.762 169.314 335.663 168.113 337.802 165.974C339.941 163.835 341.143 160.934 341.143 157.909V133.791C341.143 130.766 339.941 127.865 337.802 125.726C335.663 123.587 332.762 122.385 329.737 122.385H250.361C247.336 122.385 244.435 123.587 242.296 125.726C240.157 127.865 238.955 130.766 238.955 133.791V157.909C238.955 160.934 240.157 163.835 242.296 165.974C244.435 168.113 247.336 169.314 250.361 169.314Z" fill="#4A5A66"/>
<path d="M250.361 166.79H329.737C332.762 166.79 335.663 165.588 337.802 163.449C339.941 161.31 341.143 158.409 341.143 155.384V131.247C341.143 129.749 340.848 128.266 340.275 126.883C339.702 125.499 338.862 124.241 337.803 123.183C336.744 122.124 335.486 121.284 334.102 120.711C332.718 120.139 331.235 119.844 329.737 119.845H250.361C248.863 119.844 247.38 120.139 245.996 120.711C244.612 121.284 243.354 122.124 242.295 123.183C241.236 124.241 240.396 125.499 239.823 126.883C239.25 128.266 238.955 129.749 238.955 131.247V155.384C238.955 158.409 240.157 161.31 242.296 163.449C244.435 165.588 247.336 166.79 250.361 166.79Z" fill="#B3BBC3"/>
<path d="M254.005 145.396C254.631 143.818 255.116 142.564 255.461 141.634L256.001 140.147C256.188 139.653 256.454 139.192 256.79 138.783C256.871 138.684 256.974 138.604 257.09 138.549C257.206 138.494 257.332 138.466 257.461 138.465C257.692 138.464 257.915 138.553 258.081 138.714C258.167 138.788 258.236 138.88 258.282 138.983C258.329 139.086 258.352 139.199 258.349 139.312C258.347 139.489 258.288 139.661 258.181 139.802C257.935 140.17 257.73 140.563 257.568 140.975C257.568 140.975 257.403 141.4 257.108 142.205C256.733 143.162 256.177 144.599 255.442 146.515C255.244 147.032 255.008 147.534 254.737 148.017C254.669 148.163 254.561 148.286 254.425 148.373C254.289 148.459 254.131 148.504 253.97 148.503C253.775 148.512 253.581 148.458 253.419 148.348C253.257 148.238 253.134 148.079 253.07 147.894C252.401 146.191 251.838 144.448 251.384 142.676C251.216 142.117 251.043 141.557 250.867 140.998C250.687 140.472 250.571 139.927 250.522 139.373C250.519 139.258 250.541 139.143 250.588 139.038C250.636 138.932 250.706 138.839 250.794 138.764C250.963 138.617 251.18 138.538 251.403 138.542C251.592 138.538 251.776 138.597 251.927 138.71C252.078 138.822 252.188 138.981 252.239 139.163C252.319 139.523 252.403 139.883 252.484 140.239C252.622 140.687 252.817 141.358 253.078 142.254C253.388 143.438 253.702 144.473 254.005 145.396Z" fill="white"/>
<path d="M264.457 140.641C264.258 140.641 263.714 140.584 262.821 140.465C262.762 141.231 262.734 142.245 262.737 143.507V146.3C263.288 146.3 263.852 146.3 264.422 146.3C264.537 146.297 264.651 146.317 264.757 146.36C264.863 146.403 264.959 146.467 265.039 146.549C265.119 146.627 265.183 146.72 265.226 146.822C265.268 146.925 265.29 147.036 265.288 147.147C265.289 147.258 265.268 147.368 265.224 147.47C265.18 147.572 265.116 147.665 265.035 147.741C264.951 147.821 264.852 147.884 264.744 147.927C264.635 147.969 264.52 147.989 264.403 147.986C264.166 147.986 263.809 147.986 263.334 147.986H262.269C261.847 147.997 261.426 148.032 261.009 148.093C260.592 148.155 260.173 148.192 259.752 148.204C259.636 148.207 259.52 148.187 259.412 148.145C259.303 148.103 259.204 148.04 259.12 147.959C259.04 147.883 258.976 147.791 258.933 147.688C258.89 147.586 258.869 147.476 258.871 147.365C258.868 147.253 258.889 147.141 258.934 147.037C258.979 146.934 259.047 146.842 259.132 146.768C259.22 146.684 259.324 146.619 259.438 146.576C259.552 146.534 259.673 146.514 259.794 146.519C260.192 146.512 260.588 146.48 260.982 146.423C260.982 145.936 260.982 144.998 260.982 143.614C260.982 142.488 261.024 141.412 261.108 140.385L259.756 140.423C259.641 140.426 259.527 140.406 259.42 140.365C259.313 140.323 259.215 140.261 259.132 140.182C259.05 140.104 258.985 140.01 258.942 139.906C258.899 139.801 258.879 139.689 258.882 139.576C258.877 139.466 258.896 139.355 258.938 139.253C258.98 139.15 259.043 139.058 259.124 138.982C259.273 138.84 259.466 138.754 259.672 138.737C260.024 138.707 260.637 138.688 261.515 138.688C262.533 138.707 263.55 138.795 264.557 138.952C264.663 138.954 264.769 138.979 264.865 139.025C264.962 139.07 265.048 139.135 265.118 139.216C265.188 139.297 265.241 139.392 265.272 139.494C265.303 139.596 265.313 139.704 265.3 139.81C265.304 139.929 265.28 140.048 265.23 140.156C265.18 140.265 265.106 140.36 265.012 140.435C264.86 140.57 264.661 140.644 264.457 140.641Z" fill="white"/>
<path d="M272.502 140.032C272.414 140.032 272.327 140.02 272.242 139.998C271.604 139.819 270.946 139.726 270.284 139.722C269.948 139.724 269.613 139.75 269.28 139.799C268.893 139.852 268.51 139.927 268.131 140.021C268.131 140.572 268.113 141.391 268.077 142.477C268.307 142.477 269.119 142.385 270.506 142.247C271.299 142.17 271.801 142.128 272.012 142.128C272.243 142.124 272.467 142.208 272.64 142.362C272.726 142.44 272.794 142.536 272.839 142.643C272.884 142.75 272.905 142.866 272.901 142.982C272.911 143.091 272.898 143.2 272.863 143.304C272.828 143.407 272.771 143.501 272.696 143.581C272.621 143.66 272.53 143.723 272.43 143.764C272.329 143.806 272.22 143.825 272.111 143.821C271.778 143.844 271.284 143.886 270.625 143.944C270.035 144.013 269.15 144.093 267.943 144.189C267.916 144.714 267.901 145.139 267.901 145.461C267.901 146.273 267.947 146.737 268.043 146.848C268.295 146.932 268.563 146.96 268.828 146.928C269.085 146.928 269.472 146.928 269.977 146.928C270.483 146.928 270.885 146.928 271.127 146.928C271.255 146.924 271.383 146.911 271.51 146.89C271.629 146.868 271.749 146.855 271.87 146.852C272.092 146.846 272.31 146.919 272.483 147.059C272.581 147.135 272.659 147.233 272.71 147.346C272.762 147.459 272.785 147.582 272.778 147.706C272.787 147.809 272.775 147.913 272.743 148.011C272.711 148.109 272.659 148.199 272.591 148.277C272.523 148.355 272.44 148.418 272.347 148.462C272.254 148.507 272.153 148.533 272.05 148.538C271.194 148.642 270.33 148.682 269.468 148.656C268.119 148.656 267.239 148.474 266.828 148.109C266.372 147.706 266.15 146.837 266.15 145.496C266.15 144.94 266.188 144.109 266.269 142.994C266.349 141.879 266.391 141.048 266.391 140.496C266.383 140.28 266.363 140.065 266.33 139.852C266.294 139.639 266.272 139.424 266.265 139.209C266.265 138.58 266.556 138.266 267.138 138.266C267.317 138.265 267.492 138.318 267.64 138.419C268.092 138.305 268.55 138.216 269.012 138.151C269.419 138.092 269.83 138.061 270.242 138.059C271.092 138.031 271.94 138.153 272.747 138.419C272.917 138.469 273.065 138.573 273.168 138.716C273.272 138.859 273.324 139.032 273.318 139.209C273.321 139.422 273.241 139.627 273.096 139.783C273.02 139.863 272.927 139.927 272.825 139.97C272.723 140.013 272.613 140.034 272.502 140.032Z" fill="white"/>
<path d="M286.326 140.028C286.257 140.197 286.172 140.412 286.076 140.657C285.981 140.902 285.893 141.254 285.736 141.726C285.503 142.334 285.128 143.221 284.609 144.388C284.084 145.572 283.705 146.457 283.479 147.043C283.345 147.402 283.185 147.75 283 148.086C282.916 148.247 282.788 148.382 282.631 148.474C282.473 148.565 282.293 148.61 282.111 148.603C281.883 148.605 281.66 148.539 281.471 148.411C281.369 148.348 281.282 148.262 281.219 148.16C281.156 148.057 281.117 147.941 281.107 147.821C280.95 147.443 280.83 147.051 280.751 146.649C280.567 145.763 280.312 144.431 279.985 142.653C279.742 143.419 279.452 144.168 279.115 144.898C278.742 145.651 278.436 146.435 278.203 147.243C278.239 147.336 278.257 147.434 278.257 147.534C278.258 147.659 278.227 147.782 278.167 147.892C278.107 148.002 278.021 148.095 277.916 148.162C277.722 148.296 277.492 148.367 277.257 148.365C276.983 148.378 276.712 148.297 276.491 148.135C276.385 148.053 276.3 147.947 276.242 147.826C276.185 147.705 276.155 147.572 276.157 147.438L275.966 146.714C275.828 146.068 275.603 145.101 275.292 143.814C275.018 142.833 274.561 141.435 273.92 139.619C273.882 139.519 273.863 139.414 273.863 139.308C273.859 139.193 273.883 139.079 273.933 138.976C273.983 138.872 274.057 138.783 274.15 138.714C274.326 138.58 274.542 138.51 274.763 138.515C274.913 138.509 275.061 138.541 275.195 138.608C275.329 138.675 275.444 138.775 275.529 138.898C275.68 139.145 275.798 139.41 275.882 139.687C276.428 141.368 276.887 143.075 277.257 144.802C277.586 143.994 277.927 143.04 278.268 141.94C278.458 141.289 278.685 140.65 278.947 140.025C279.365 139.12 279.788 138.668 280.215 138.668C280.415 138.669 280.61 138.734 280.77 138.854C280.93 138.974 281.047 139.143 281.104 139.335C281.236 139.707 281.326 140.092 281.372 140.484C281.399 140.653 281.452 141.071 281.537 141.733C281.621 142.396 281.881 143.745 282.303 145.626C282.745 144.604 283.336 143.123 284.077 141.182C284.119 141.063 284.23 140.684 284.398 140.032C284.486 139.642 284.641 139.27 284.854 138.933C284.937 138.797 285.054 138.686 285.193 138.609C285.332 138.533 285.489 138.494 285.647 138.496C285.762 138.492 285.877 138.51 285.985 138.55C286.093 138.59 286.192 138.651 286.276 138.73C286.358 138.806 286.422 138.9 286.465 139.004C286.508 139.107 286.528 139.219 286.525 139.331C286.489 139.571 286.422 139.806 286.326 140.028Z" fill="white"/>
<path d="M295.616 143.093C295.432 143.764 295.168 144.779 294.85 146.135C294.769 146.603 294.693 147.07 294.62 147.534C294.448 148.12 294.137 148.415 293.681 148.415C293.554 148.421 293.426 148.399 293.309 148.348C293.191 148.298 293.087 148.221 293.003 148.124C292.862 147.96 292.785 147.75 292.789 147.534C292.817 146.699 292.962 145.873 293.218 145.078C293.647 143.63 293.878 142.828 293.911 142.672C294.03 142.032 294.153 141.392 294.275 140.756C294.367 140.137 294.574 139.541 294.884 138.998C294.975 138.863 295.098 138.752 295.241 138.676C295.385 138.6 295.545 138.56 295.708 138.561C295.889 138.559 296.065 138.613 296.214 138.715C296.363 138.817 296.476 138.963 296.539 139.132C296.796 139.849 296.976 140.591 297.076 141.346C297.279 142.526 297.551 143.692 297.888 144.841C298.363 143.609 298.802 142.258 299.206 140.787L299.555 139.358C299.781 138.764 300.126 138.465 300.593 138.465C301.06 138.465 301.382 138.81 301.601 139.5C301.739 140.01 301.838 140.53 301.896 141.055C302.086 142.588 302.389 144.104 302.804 145.591C303.171 146.869 303.355 147.566 303.355 147.683C303.357 147.801 303.332 147.917 303.281 148.024C303.231 148.13 303.156 148.223 303.064 148.296C302.892 148.442 302.673 148.522 302.447 148.522C301.995 148.522 301.658 148.201 301.44 147.553L301.091 146.047C300.892 145.302 300.677 144.23 300.447 142.833C300.258 143.387 299.949 144.259 299.52 145.45L299.137 146.599C299.013 146.984 298.853 147.356 298.658 147.71C298.576 147.884 298.446 148.031 298.283 148.133C298.12 148.236 297.931 148.29 297.739 148.289C297.536 148.281 297.341 148.21 297.18 148.087C297.02 147.963 296.902 147.793 296.842 147.599L296.494 146.45C296.167 145.387 295.874 144.268 295.616 143.093Z" fill="white"/>
<path d="M308.459 148.384C307.321 148.415 306.211 148.04 305.324 147.327C304.882 146.98 304.527 146.535 304.287 146.027C304.047 145.519 303.928 144.962 303.941 144.4C303.938 143.003 304.405 141.645 305.267 140.546C305.684 139.939 306.243 139.443 306.896 139.101C307.548 138.759 308.274 138.582 309.01 138.584C310.458 138.584 311.543 138.916 312.263 139.58C312.983 140.243 313.347 141.239 313.347 142.572C313.358 143.947 312.93 145.289 312.125 146.404C311.732 147.018 311.189 147.522 310.548 147.868C309.907 148.215 309.188 148.393 308.459 148.384ZM309.01 140.27C308.088 140.27 307.296 140.718 306.635 141.615C306.03 142.417 305.704 143.395 305.708 144.4C305.7 144.723 305.769 145.044 305.909 145.335C306.049 145.627 306.255 145.881 306.512 146.078C307.068 146.506 307.757 146.726 308.459 146.699C309.37 146.699 310.137 146.252 310.757 145.358C311.32 144.539 311.615 143.566 311.6 142.572C311.6 141.699 311.405 141.093 311.014 140.756C310.623 140.419 309.955 140.253 309.01 140.258V140.27Z" fill="white"/>
<path d="M320.738 148.082C320.507 148.078 320.287 147.985 320.125 147.821C318.954 146.693 317.536 145.853 315.983 145.369C316.025 146.576 316.048 147.247 316.048 147.377C316.051 147.489 316.03 147.6 315.988 147.703C315.946 147.806 315.883 147.9 315.803 147.978C315.721 148.059 315.623 148.123 315.516 148.165C315.409 148.207 315.294 148.227 315.179 148.224C315.064 148.227 314.95 148.207 314.843 148.165C314.736 148.123 314.639 148.059 314.558 147.978C314.478 147.9 314.414 147.807 314.371 147.703C314.328 147.6 314.307 147.489 314.309 147.377C314.309 147.066 314.309 146.611 314.309 145.982C314.309 145.354 314.309 144.898 314.309 144.588V139.569C314.307 139.304 314.392 139.046 314.55 138.833C314.649 138.697 314.782 138.589 314.937 138.522C315.091 138.454 315.261 138.43 315.428 138.45L316.96 138.569C317.474 138.62 317.974 138.761 318.439 138.986C320.209 139.875 321.094 140.98 321.094 142.3C321.099 142.834 320.9 143.349 320.539 143.741C320.071 144.218 319.499 144.578 318.868 144.795C319.796 145.275 320.636 145.91 321.351 146.672C321.497 146.83 321.574 147.04 321.567 147.255C321.559 147.471 321.466 147.674 321.309 147.821C321.157 147.976 320.954 148.069 320.738 148.082ZM316.753 140.258C316.719 140.258 316.477 140.235 316.025 140.209V143.511H316.297C317.07 143.555 317.843 143.424 318.558 143.128C318.773 143.018 318.968 142.873 319.136 142.699C319.313 142.523 319.401 142.395 319.401 142.316C319.401 141.852 319.106 141.404 318.52 140.971C318.006 140.578 317.396 140.332 316.753 140.258Z" fill="white"/>
<path d="M328.783 140.032C328.695 140.031 328.607 140.02 328.522 139.998C327.885 139.819 327.227 139.726 326.565 139.722C326.23 139.724 325.896 139.75 325.565 139.798C325.178 139.852 324.794 139.926 324.415 140.021C324.415 140.572 324.396 141.391 324.358 142.476C324.592 142.476 325.4 142.385 326.791 142.247C327.58 142.17 328.082 142.128 328.293 142.128C328.524 142.124 328.748 142.207 328.921 142.362C329.008 142.439 329.077 142.535 329.122 142.642C329.168 142.75 329.189 142.866 329.185 142.982C329.196 143.091 329.183 143.201 329.147 143.304C329.112 143.408 329.054 143.502 328.979 143.582C328.904 143.661 328.813 143.724 328.712 143.765C328.61 143.806 328.501 143.826 328.392 143.821C328.063 143.844 327.568 143.886 326.906 143.944C326.319 144.013 325.431 144.093 324.247 144.189C324.216 144.714 324.201 145.139 324.201 145.461C324.201 146.273 324.251 146.737 324.346 146.848C324.593 146.93 324.854 146.957 325.113 146.928C325.369 146.928 325.76 146.928 326.262 146.928C326.764 146.928 327.166 146.928 327.411 146.928C327.54 146.924 327.668 146.911 327.794 146.89C327.913 146.868 328.034 146.855 328.155 146.852C328.378 146.846 328.596 146.92 328.771 147.059C328.869 147.135 328.946 147.234 328.996 147.347C329.047 147.459 329.07 147.583 329.062 147.706C329.071 147.809 329.059 147.913 329.027 148.011C328.995 148.109 328.944 148.199 328.876 148.277C328.808 148.355 328.725 148.418 328.632 148.462C328.539 148.507 328.438 148.533 328.335 148.538C327.479 148.642 326.617 148.682 325.756 148.656C324.405 148.656 323.524 148.474 323.113 148.108C322.661 147.705 322.435 146.834 322.435 145.496C322.435 144.94 322.473 144.109 322.557 142.994C322.641 141.879 322.676 141.047 322.676 140.496C322.67 140.28 322.649 140.065 322.615 139.852C322.579 139.639 322.559 139.424 322.553 139.208C322.553 138.58 322.841 138.266 323.423 138.266C323.602 138.264 323.777 138.318 323.925 138.419C324.377 138.305 324.835 138.215 325.296 138.151C325.704 138.092 326.115 138.061 326.526 138.059C327.376 138.03 328.225 138.152 329.032 138.419C329.201 138.469 329.349 138.573 329.453 138.716C329.556 138.859 329.609 139.032 329.603 139.208C329.605 139.421 329.526 139.627 329.381 139.783C329.304 139.864 329.211 139.928 329.108 139.971C329.005 140.014 328.894 140.035 328.783 140.032Z" fill="white"/>
<path d="M254.399 343.996H838.811C844.988 344.034 851.045 342.285 856.25 338.958C863.484 334.265 868.177 326.725 868.177 318.22V253.786C868.177 246.154 864.4 239.3 858.4 234.58C852.787 230.263 845.891 227.95 838.811 228.009H254.399C248.675 227.979 243.046 229.476 238.094 232.346C230.217 236.97 225.033 244.844 225.033 253.801V318.22C225.033 325.767 228.726 332.556 234.611 337.269C239.837 341.449 246.779 343.996 254.399 343.996Z" fill="#1967D2"/>
<path d="M756.102 285.999C756.101 294.5 758.621 302.81 763.343 309.878C768.066 316.947 774.778 322.456 782.632 325.709C790.485 328.963 799.127 329.814 807.464 328.156C815.802 326.498 823.46 322.404 829.471 316.394C835.482 310.383 839.576 302.724 841.234 294.387C842.892 286.049 842.041 277.407 838.787 269.554C835.534 261.7 830.025 254.988 822.956 250.265C815.888 245.543 807.578 243.023 799.077 243.024C793.43 243.011 787.836 244.114 782.616 246.269C777.396 248.425 772.654 251.59 768.661 255.583C764.667 259.576 761.502 264.318 759.347 269.538C757.192 274.758 756.089 280.352 756.102 285.999Z" fill="white"/>
<path d="M799.943 294.045C792.198 294.045 785.92 287.767 785.92 280.022C785.92 272.278 792.198 266 799.943 266C807.687 266 813.965 272.278 813.965 280.022C813.965 287.767 807.687 294.045 799.943 294.045Z" fill="#343D76"/>
<path d="M770.863 318.411C778.684 325.225 788.706 328.979 799.078 328.979C809.451 328.979 819.473 325.225 827.294 318.411C826.321 311.784 823.047 305.711 818.046 301.255C813.044 296.8 806.634 294.247 799.938 294.045H799.889C799.808 294.045 799.732 294.045 799.651 294.045H799.394C792.496 293.968 785.804 296.395 780.558 300.876C775.312 305.356 771.867 311.586 770.863 318.411Z" fill="#343D76"/>
<path d="M366.398 261.379H724.747C725.259 261.379 725.674 261.795 725.674 262.307V265.08C725.674 265.592 725.259 266.008 724.747 266.008H366.398C365.886 266.008 365.471 265.592 365.471 265.08V262.307C365.471 261.795 365.886 261.379 366.398 261.379Z" fill="white"/>
<path d="M447 305.994H644.144C644.656 305.994 645.072 306.41 645.072 306.922V309.695C645.072 310.207 644.656 310.623 644.144 310.623H447C446.488 310.623 446.073 310.207 446.073 309.695V306.922C446.073 306.41 446.488 305.994 447 305.994Z" fill="white"/>
<path d="M366.398 283.689H724.747C725.259 283.689 725.674 284.104 725.674 284.616V287.39C725.674 287.902 725.259 288.317 724.747 288.317H366.398C365.886 288.317 365.471 287.902 365.471 287.39V284.616C365.471 284.104 365.886 283.689 366.398 283.689Z" fill="white"/>
<path d="M250.361 310.837H329.737C332.762 310.837 335.663 309.636 337.802 307.497C339.941 305.358 341.143 302.456 341.143 299.432V275.295C341.142 272.27 339.939 269.37 337.801 267.232C335.662 265.094 332.761 263.893 329.737 263.893H250.361C247.337 263.893 244.436 265.094 242.297 267.232C240.159 269.37 238.956 272.27 238.955 275.295V299.432C238.955 302.456 240.157 305.358 242.296 307.497C244.435 309.636 247.336 310.837 250.361 310.837Z" fill="#192057"/>
<path d="M250.361 308.308H329.737C332.761 308.308 335.662 307.107 337.801 304.969C339.939 302.831 341.142 299.931 341.143 296.907V272.77C341.143 269.745 339.941 266.844 337.802 264.705C335.663 262.566 332.762 261.364 329.737 261.364H250.361C247.336 261.364 244.435 262.566 242.296 264.705C240.157 266.844 238.955 269.745 238.955 272.77V296.907C238.955 298.404 239.25 299.888 239.823 301.271C240.396 302.655 241.236 303.912 242.295 304.971C243.354 306.03 244.612 306.87 245.996 307.443C247.38 308.015 248.863 308.309 250.361 308.308Z" fill="white"/>
<path d="M254.005 286.915C254.631 285.341 255.116 284.087 255.461 283.152C255.641 282.662 255.821 282.164 256.001 281.666C256.187 281.172 256.454 280.713 256.79 280.306C256.871 280.207 256.974 280.127 257.09 280.072C257.206 280.017 257.332 279.988 257.461 279.988C257.691 279.986 257.914 280.074 258.081 280.233C258.168 280.307 258.237 280.399 258.283 280.503C258.33 280.608 258.352 280.721 258.349 280.835C258.347 281.012 258.288 281.183 258.181 281.325C257.936 281.685 257.731 282.07 257.568 282.474C257.568 282.474 257.403 282.903 257.108 283.708C256.733 284.666 256.177 286.101 255.442 288.014C255.243 288.532 255.007 289.036 254.737 289.52C254.669 289.666 254.561 289.79 254.425 289.876C254.289 289.962 254.131 290.007 253.97 290.007C253.775 290.016 253.581 289.961 253.419 289.852C253.257 289.742 253.134 289.582 253.07 289.397C252.401 287.694 251.838 285.952 251.384 284.179C251.216 283.62 251.043 283.06 250.867 282.501C250.688 281.975 250.572 281.43 250.522 280.877C250.519 280.761 250.541 280.646 250.588 280.541C250.636 280.435 250.706 280.342 250.794 280.267C250.963 280.12 251.18 280.041 251.403 280.045C251.592 280.042 251.776 280.101 251.927 280.213C252.078 280.325 252.188 280.485 252.239 280.666C252.319 281.026 252.403 281.386 252.484 281.743C252.622 282.191 252.817 282.861 253.078 283.758C253.392 284.956 253.701 286.008 254.005 286.915Z" fill="#0A7ABF"/>
<path d="M264.457 282.179C264.258 282.179 263.714 282.118 262.821 282.003C262.762 282.769 262.734 283.783 262.737 285.045V287.838C263.288 287.838 263.851 287.838 264.422 287.838C264.535 287.836 264.646 287.856 264.751 287.898C264.855 287.939 264.95 288.001 265.031 288.079C265.111 288.157 265.176 288.251 265.22 288.354C265.264 288.457 265.287 288.569 265.288 288.681C265.29 288.792 265.269 288.902 265.225 289.005C265.182 289.107 265.117 289.199 265.035 289.275C264.952 289.356 264.853 289.42 264.744 289.462C264.636 289.504 264.52 289.524 264.403 289.52C264.166 289.52 263.809 289.52 263.334 289.52H262.269C261.847 289.531 261.426 289.566 261.009 289.627C260.592 289.688 260.173 289.724 259.752 289.734C259.636 289.738 259.52 289.718 259.411 289.676C259.302 289.634 259.203 289.571 259.12 289.489C259.039 289.413 258.975 289.321 258.932 289.219C258.889 289.117 258.868 289.006 258.871 288.895C258.87 288.783 258.892 288.672 258.937 288.569C258.982 288.466 259.048 288.373 259.131 288.298C259.311 288.132 259.55 288.044 259.794 288.053C260.192 288.044 260.588 288.012 260.982 287.957C260.982 287.47 260.982 286.532 260.982 285.148C260.982 283.999 261.024 282.945 261.108 281.919L259.756 281.957C259.641 281.96 259.527 281.94 259.42 281.899C259.312 281.857 259.215 281.795 259.131 281.716C259.05 281.638 258.986 281.544 258.943 281.439C258.9 281.335 258.879 281.223 258.882 281.11C258.878 280.999 258.898 280.889 258.939 280.786C258.981 280.683 259.044 280.59 259.124 280.513C259.274 280.373 259.467 280.288 259.672 280.271C260.024 280.237 260.637 280.221 261.514 280.221C262.533 280.241 263.549 280.328 264.556 280.482C264.663 280.484 264.769 280.509 264.865 280.555C264.962 280.6 265.048 280.666 265.118 280.746C265.188 280.827 265.241 280.922 265.272 281.024C265.303 281.126 265.313 281.234 265.3 281.34C265.304 281.46 265.281 281.579 265.231 281.689C265.181 281.798 265.106 281.894 265.012 281.969C264.86 282.106 264.662 282.181 264.457 282.179Z" fill="#0A7ABF"/>
<path d="M272.502 281.555C272.414 281.554 272.327 281.543 272.242 281.52C271.604 281.341 270.946 281.248 270.284 281.244C269.948 281.247 269.613 281.272 269.28 281.321C268.893 281.375 268.51 281.449 268.131 281.543C268.131 282.095 268.113 282.914 268.077 283.999C268.307 283.999 269.119 283.907 270.506 283.769C271.299 283.689 271.801 283.65 272.012 283.65C272.243 283.645 272.468 283.729 272.64 283.884C272.726 283.962 272.794 284.058 272.839 284.166C272.884 284.273 272.905 284.389 272.901 284.505C272.911 284.613 272.898 284.723 272.863 284.826C272.828 284.929 272.771 285.024 272.696 285.103C272.621 285.183 272.53 285.245 272.43 285.287C272.329 285.328 272.22 285.348 272.111 285.344C271.778 285.367 271.284 285.409 270.625 285.466C270.035 285.532 269.15 285.616 267.943 285.708C267.916 286.237 267.901 286.662 267.901 286.984C267.901 287.796 267.947 288.259 268.043 288.371C268.295 288.455 268.563 288.482 268.828 288.451C269.085 288.451 269.472 288.451 269.977 288.451C270.483 288.451 270.885 288.451 271.127 288.451C271.255 288.448 271.383 288.436 271.51 288.417C271.629 288.394 271.749 288.382 271.87 288.378C272.092 288.372 272.31 288.445 272.483 288.585C272.58 288.661 272.658 288.759 272.709 288.871C272.761 288.983 272.784 289.106 272.778 289.229C272.787 289.332 272.776 289.436 272.744 289.534C272.712 289.633 272.661 289.724 272.593 289.802C272.525 289.88 272.441 289.944 272.348 289.989C272.255 290.034 272.154 290.059 272.05 290.064C271.193 290.166 270.33 290.206 269.468 290.183C268.119 290.183 267.239 290 266.828 289.635C266.372 289.252 266.15 288.363 266.15 287.022C266.15 286.468 266.19 285.634 266.269 284.52C266.348 283.407 266.389 282.574 266.391 282.022C266.384 281.807 266.363 281.592 266.33 281.379C266.294 281.166 266.272 280.951 266.265 280.735C266.265 280.107 266.556 279.792 267.138 279.792C267.317 279.791 267.492 279.845 267.64 279.946C268.092 279.831 268.55 279.742 269.012 279.677C269.419 279.618 269.83 279.587 270.242 279.586C271.092 279.555 271.94 279.677 272.747 279.946C272.917 279.995 273.065 280.099 273.168 280.242C273.272 280.385 273.324 280.559 273.318 280.735C273.32 280.948 273.241 281.153 273.096 281.31C273.019 281.388 272.926 281.451 272.824 281.493C272.722 281.535 272.613 281.556 272.502 281.555Z" fill="#0A7ABF"/>
<path d="M286.326 281.551C286.257 281.72 286.172 281.934 286.077 282.179C285.981 282.424 285.893 282.773 285.736 283.248C285.503 283.856 285.128 284.742 284.609 285.907C284.084 287.095 283.705 287.98 283.479 288.562C283.345 288.922 283.185 289.272 283 289.608C282.916 289.77 282.788 289.904 282.631 289.996C282.473 290.088 282.293 290.133 282.111 290.125C281.883 290.128 281.659 290.06 281.471 289.93C281.367 289.869 281.28 289.783 281.216 289.68C281.153 289.577 281.116 289.46 281.107 289.34C280.95 288.97 280.831 288.585 280.751 288.19C280.567 287.307 280.312 285.975 279.985 284.194C279.742 284.959 279.452 285.708 279.115 286.436C278.743 287.189 278.438 287.974 278.203 288.781C278.239 288.875 278.257 288.975 278.257 289.076C278.255 289.2 278.224 289.322 278.164 289.432C278.105 289.541 278.02 289.635 277.916 289.704C277.722 289.837 277.492 289.908 277.257 289.907C276.983 289.92 276.712 289.839 276.491 289.677C276.385 289.594 276.3 289.488 276.242 289.367C276.185 289.246 276.155 289.114 276.157 288.98L275.966 288.252C275.828 287.608 275.602 286.639 275.292 285.355C275.018 284.375 274.561 282.97 273.92 281.141C273.882 281.042 273.863 280.937 273.863 280.831C273.859 280.716 273.883 280.603 273.933 280.5C273.983 280.397 274.057 280.308 274.15 280.241C274.326 280.107 274.542 280.036 274.763 280.041C274.913 280.035 275.061 280.067 275.195 280.134C275.329 280.201 275.444 280.301 275.529 280.425C275.68 280.672 275.798 280.937 275.882 281.214C276.428 282.893 276.887 284.599 277.257 286.325C277.586 285.516 277.927 284.562 278.268 283.467C278.459 282.816 278.685 282.176 278.947 281.551C279.365 280.652 279.788 280.201 280.215 280.199C280.414 280.198 280.609 280.263 280.769 280.382C280.929 280.502 281.047 280.67 281.104 280.861C281.236 281.233 281.325 281.619 281.372 282.011C281.399 282.179 281.452 282.597 281.537 283.26C281.621 283.922 281.881 285.271 282.303 287.152C282.745 286.131 283.336 284.648 284.077 282.704C284.119 282.589 284.23 282.21 284.398 281.555C284.487 281.164 284.641 280.791 284.854 280.451C284.938 280.317 285.055 280.207 285.194 280.131C285.333 280.055 285.489 280.016 285.647 280.018C285.762 280.014 285.877 280.032 285.985 280.073C286.093 280.113 286.192 280.174 286.276 280.252C286.358 280.328 286.423 280.42 286.466 280.523C286.509 280.627 286.529 280.738 286.525 280.85C286.489 281.091 286.422 281.327 286.326 281.551Z" fill="#0A7ABF"/>
<path d="M295.616 284.616C295.432 285.286 295.168 286.302 294.85 287.654C294.769 288.125 294.693 288.589 294.62 289.056C294.448 289.642 294.137 289.937 293.681 289.937C293.554 289.944 293.426 289.921 293.309 289.87C293.191 289.82 293.087 289.743 293.003 289.646C292.862 289.483 292.785 289.273 292.789 289.056C292.809 288.227 292.945 287.404 293.191 286.612C293.62 285.164 293.85 284.363 293.884 284.202C294.003 283.566 294.126 282.926 294.248 282.286C294.339 281.667 294.546 281.071 294.858 280.528C294.948 280.393 295.071 280.282 295.214 280.206C295.358 280.13 295.519 280.09 295.681 280.091C295.862 280.088 296.039 280.141 296.188 280.244C296.337 280.346 296.451 280.492 296.513 280.662C296.769 281.379 296.949 282.121 297.049 282.876C297.253 284.056 297.524 285.222 297.861 286.371C298.336 285.137 298.776 283.786 299.179 282.317L299.528 280.884C299.754 280.294 300.099 279.995 300.566 279.995C301.034 279.995 301.355 280.34 301.574 281.03C301.712 281.532 301.81 282.045 301.869 282.562C302.059 284.096 302.363 285.613 302.777 287.102C303.16 288.386 303.328 289.079 303.328 289.194C303.33 289.312 303.305 289.428 303.254 289.535C303.204 289.641 303.13 289.734 303.037 289.807C302.865 289.953 302.646 290.033 302.42 290.033C301.968 290.033 301.631 289.708 301.413 289.06L301.064 287.558C300.865 286.81 300.65 285.738 300.421 284.344C300.233 284.899 299.922 285.769 299.493 286.961L299.11 288.11C298.985 288.494 298.824 288.866 298.631 289.221C298.549 289.395 298.419 289.542 298.256 289.644C298.093 289.747 297.904 289.801 297.712 289.8C297.509 289.792 297.314 289.721 297.154 289.598C296.993 289.474 296.875 289.304 296.815 289.11L296.467 287.961C296.158 286.901 295.874 285.786 295.616 284.616Z" fill="#0A7ABF"/>
<path d="M308.458 289.907C307.321 289.937 306.211 289.563 305.324 288.849C304.882 288.502 304.527 288.057 304.287 287.549C304.047 287.041 303.929 286.484 303.941 285.922C303.938 284.524 304.405 283.165 305.267 282.064C305.684 281.458 306.244 280.962 306.896 280.621C307.548 280.28 308.274 280.103 309.01 280.106C310.458 280.106 311.543 280.439 312.263 281.103C312.983 281.765 313.347 282.762 313.347 284.091C313.358 285.466 312.929 286.808 312.125 287.922C311.732 288.537 311.19 289.041 310.548 289.388C309.907 289.735 309.188 289.914 308.458 289.907ZM309.01 281.792C308.535 281.803 308.069 281.932 307.655 282.166C307.24 282.399 306.89 282.732 306.635 283.133C306.029 283.936 305.703 284.916 305.708 285.922C305.7 286.246 305.77 286.566 305.909 286.858C306.049 287.149 306.256 287.404 306.512 287.6C307.068 288.029 307.757 288.248 308.458 288.221C309.37 288.221 310.137 287.774 310.757 286.88C311.32 286.06 311.615 285.086 311.6 284.091C311.6 283.223 311.405 282.618 311.014 282.279C310.623 281.939 309.955 281.777 309.01 281.792Z" fill="#0A7ABF"/>
<path d="M320.738 289.6C320.623 289.6 320.51 289.576 320.405 289.531C320.3 289.487 320.205 289.422 320.125 289.34C318.953 288.214 317.535 287.376 315.983 286.892C316.025 288.099 316.048 288.765 316.048 288.899C316.051 289.011 316.03 289.122 315.988 289.226C315.946 289.329 315.883 289.423 315.803 289.501C315.72 289.581 315.623 289.644 315.516 289.686C315.408 289.728 315.294 289.749 315.179 289.746C315.064 289.749 314.95 289.729 314.843 289.687C314.737 289.644 314.64 289.581 314.558 289.501C314.478 289.423 314.414 289.329 314.371 289.226C314.328 289.122 314.307 289.011 314.309 288.899C314.309 288.589 314.309 288.133 314.309 287.505C314.309 286.876 314.309 286.417 314.309 286.106V281.091C314.307 280.826 314.392 280.568 314.55 280.356C314.648 280.218 314.781 280.11 314.936 280.042C315.09 279.975 315.26 279.951 315.428 279.973C316.435 280.045 316.96 280.087 316.96 280.091C317.474 280.141 317.975 280.282 318.439 280.509C320.209 281.398 321.094 282.502 321.094 283.823C321.098 284.355 320.9 284.869 320.539 285.26C320.073 285.738 319.501 286.099 318.868 286.313C319.796 286.796 320.635 287.432 321.351 288.194C321.497 288.353 321.574 288.562 321.567 288.778C321.559 288.993 321.466 289.197 321.309 289.344C321.157 289.497 320.953 289.589 320.738 289.6ZM316.753 281.781C316.719 281.781 316.477 281.758 316.025 281.731V285.034H316.297C317.07 285.077 317.843 284.946 318.558 284.65C318.773 284.54 318.968 284.395 319.136 284.221C319.313 284.045 319.401 283.907 319.401 283.838C319.401 283.371 319.106 282.926 318.52 282.493C318.006 282.101 317.396 281.855 316.753 281.781Z" fill="#0A7ABF"/>
<path d="M328.783 281.555C328.695 281.554 328.607 281.542 328.522 281.52C327.885 281.341 327.227 281.248 326.565 281.244C326.23 281.247 325.896 281.272 325.565 281.321C325.178 281.375 324.794 281.449 324.415 281.543C324.415 282.095 324.396 282.914 324.358 283.999C324.592 283.999 325.4 283.907 326.791 283.769C327.58 283.689 328.082 283.65 328.293 283.65C328.524 283.645 328.749 283.728 328.921 283.884C329.04 283.997 329.124 284.143 329.162 284.304C329.2 284.464 329.191 284.632 329.135 284.787C329.078 284.942 328.978 285.077 328.846 285.176C328.715 285.275 328.557 285.333 328.392 285.344C328.063 285.367 327.568 285.409 326.906 285.466C326.319 285.532 325.431 285.616 324.247 285.708C324.216 286.237 324.201 286.662 324.201 286.984C324.201 287.796 324.251 288.259 324.346 288.371C324.593 288.452 324.854 288.48 325.113 288.451C325.369 288.451 325.76 288.451 326.262 288.451C326.764 288.451 327.166 288.451 327.411 288.451C327.54 288.448 327.668 288.437 327.794 288.416C327.913 288.395 328.034 288.382 328.155 288.378C328.378 288.373 328.596 288.446 328.771 288.585C328.868 288.661 328.945 288.759 328.996 288.871C329.046 288.983 329.069 289.106 329.062 289.229C329.072 289.332 329.06 289.436 329.029 289.534C328.997 289.633 328.945 289.724 328.877 289.802C328.809 289.88 328.726 289.943 328.633 289.988C328.539 290.034 328.438 290.059 328.335 290.064C327.479 290.166 326.617 290.206 325.756 290.183C324.405 290.183 323.524 290 323.113 289.635C322.661 289.234 322.435 288.363 322.435 287.022C322.435 286.466 322.473 285.631 322.557 284.52C322.641 283.409 322.676 282.574 322.676 282.022C322.67 281.806 322.65 281.591 322.615 281.378C322.579 281.166 322.559 280.951 322.553 280.735C322.553 280.107 322.841 279.792 323.423 279.792C323.602 279.791 323.777 279.844 323.925 279.946C324.377 279.831 324.835 279.742 325.296 279.677C325.704 279.618 326.115 279.587 326.526 279.585C327.376 279.555 328.225 279.677 329.032 279.946C329.201 279.995 329.349 280.099 329.453 280.242C329.556 280.385 329.609 280.559 329.603 280.735C329.605 280.948 329.525 281.153 329.381 281.31C329.303 281.389 329.21 281.452 329.107 281.494C329.004 281.536 328.894 281.557 328.783 281.555Z" fill="#0A7ABF"/>
<path d="M254.399 485.515H838.81C844.991 485.553 851.05 483.802 856.258 480.473C863.491 475.78 868.185 468.236 868.185 459.735V395.304C868.185 387.676 864.407 380.822 858.407 376.102C852.795 371.785 845.898 369.472 838.818 369.532H254.399C248.675 369.501 243.046 370.999 238.093 373.869C230.216 378.489 225.033 386.366 225.033 395.324V459.761C225.033 467.309 228.726 474.098 234.611 478.81C239.837 482.967 246.779 485.515 254.399 485.515Z" fill="white"/>
<path d="M756.102 427.522C756.101 436.022 758.621 444.332 763.343 451.401C768.066 458.469 774.778 463.979 782.632 467.232C790.485 470.486 799.127 471.337 807.464 469.679C815.802 468.021 823.46 463.927 829.471 457.916C835.482 451.905 839.576 444.247 841.234 435.909C842.892 427.572 842.041 418.93 838.787 411.076C835.534 403.223 830.025 396.51 822.956 391.788C815.888 387.066 807.578 384.546 799.077 384.546C793.43 384.534 787.836 385.637 782.616 387.792C777.396 389.947 772.654 393.112 768.661 397.105C764.667 401.099 761.502 405.841 759.347 411.061C757.192 416.281 756.089 421.875 756.102 427.522Z" fill="#B3BBC3"/>
<path d="M799.943 435.567C792.198 435.567 785.92 429.289 785.92 421.545C785.92 413.8 792.198 407.522 799.943 407.522C807.687 407.522 813.965 413.8 813.965 421.545C813.965 429.289 807.687 435.567 799.943 435.567Z" fill="white"/>
<path d="M770.863 459.938C778.685 466.749 788.707 470.5 799.078 470.5C809.45 470.5 819.472 466.749 827.294 459.938C826.322 453.312 823.05 447.239 818.051 442.783C813.052 438.327 806.644 435.773 799.95 435.567H799.9C799.82 435.567 799.743 435.567 799.663 435.567H799.406C792.505 435.488 785.809 437.915 780.561 442.396C775.312 446.877 771.867 453.11 770.863 459.938Z" fill="white"/>
<path d="M366.398 402.902H724.747C725.259 402.902 725.674 403.317 725.674 403.829V406.603C725.674 407.115 725.259 407.53 724.747 407.53H366.398C365.886 407.53 365.471 407.115 365.471 406.603V403.829C365.471 403.317 365.886 402.902 366.398 402.902Z" fill="#B3BBC3"/>
<path d="M447 447.517H644.144C644.656 447.517 645.072 447.932 645.072 448.444V451.218C645.072 451.73 644.656 452.145 644.144 452.145H447C446.488 452.145 446.073 451.73 446.073 451.218V448.444C446.073 447.932 446.488 447.517 447 447.517Z" fill="#B3BBC3"/>
<path d="M366.398 425.211H724.747C725.259 425.211 725.674 425.627 725.674 426.139V428.912C725.674 429.424 725.259 429.84 724.747 429.84H366.398C365.886 429.84 365.471 429.424 365.471 428.912V426.139C365.471 425.627 365.886 425.211 366.398 425.211Z" fill="#B3BBC3"/>
<path d="M250.361 452.36H329.737C332.762 452.36 335.663 451.158 337.802 449.019C339.941 446.88 341.143 443.979 341.143 440.954V416.817C341.143 415.319 340.848 413.836 340.275 412.452C339.702 411.069 338.862 409.811 337.803 408.752C336.744 407.693 335.486 406.854 334.102 406.281C332.718 405.709 331.235 405.414 329.737 405.415H250.361C248.863 405.414 247.38 405.709 245.996 406.281C244.612 406.854 243.354 407.693 242.295 408.752C241.236 409.811 240.396 411.069 239.823 412.452C239.25 413.836 238.955 415.319 238.955 416.817V440.954C238.955 443.979 240.157 446.88 242.296 449.019C244.435 451.158 247.336 452.36 250.361 452.36Z" fill="#4A5A66"/>
<path d="M250.361 449.823H329.737C332.761 449.823 335.662 448.622 337.801 446.484C339.939 444.346 341.142 441.446 341.143 438.422V414.285C341.143 411.26 339.941 408.359 337.802 406.22C335.663 404.081 332.762 402.879 329.737 402.879H250.361C247.336 402.879 244.435 404.081 242.296 406.22C240.157 408.359 238.955 411.26 238.955 414.285V438.422C238.956 441.446 240.159 444.346 242.297 446.484C244.436 448.622 247.337 449.823 250.361 449.823Z" fill="#B3BBC3"/>
<path d="M254.005 428.437C254.631 426.861 255.116 425.607 255.461 424.675L256.001 423.188C256.187 422.695 256.454 422.235 256.79 421.828C256.868 421.735 256.964 421.659 257.072 421.605C257.18 421.55 257.299 421.518 257.42 421.512C257.541 421.505 257.662 421.523 257.776 421.565C257.89 421.607 257.994 421.672 258.081 421.756C258.168 421.83 258.237 421.922 258.283 422.026C258.33 422.13 258.352 422.243 258.349 422.357C258.347 422.534 258.288 422.706 258.181 422.847C257.934 423.213 257.729 423.605 257.568 424.016C257.568 424.016 257.403 424.445 257.108 425.246C256.733 426.204 256.177 427.64 255.442 429.556C255.243 430.074 255.007 430.577 254.737 431.062C254.668 431.207 254.56 431.33 254.424 431.416C254.288 431.502 254.131 431.548 253.97 431.548C253.775 431.557 253.581 431.503 253.419 431.393C253.257 431.283 253.134 431.124 253.07 430.939C252.401 429.236 251.838 427.493 251.384 425.721C251.216 425.162 251.043 424.602 250.867 424.043C250.688 423.517 250.572 422.972 250.522 422.418C250.519 422.303 250.541 422.188 250.588 422.083C250.636 421.977 250.706 421.884 250.794 421.809C250.962 421.661 251.179 421.58 251.403 421.583C251.592 421.58 251.776 421.64 251.927 421.753C252.078 421.866 252.188 422.026 252.239 422.208C252.319 422.568 252.403 422.928 252.484 423.284C252.622 423.729 252.817 424.403 253.078 425.296C253.392 426.483 253.701 427.531 254.005 428.437Z" fill="white"/>
<path d="M264.457 423.698C264.257 423.698 263.713 423.641 262.821 423.526C262.762 424.292 262.734 425.306 262.736 426.568V429.357C263.288 429.357 263.851 429.357 264.422 429.357C264.535 429.355 264.647 429.375 264.751 429.417C264.856 429.458 264.952 429.52 265.032 429.599C265.113 429.678 265.177 429.772 265.221 429.876C265.265 429.98 265.287 430.091 265.288 430.204C265.289 430.315 265.268 430.425 265.224 430.527C265.181 430.63 265.116 430.722 265.035 430.797C264.952 430.879 264.853 430.942 264.744 430.985C264.635 431.027 264.519 431.046 264.403 431.043H263.334C262.863 431.043 262.506 431.043 262.269 431.043C261.847 431.055 261.426 431.092 261.008 431.154C260.592 431.215 260.172 431.25 259.752 431.261C259.635 431.265 259.519 431.245 259.411 431.203C259.302 431.161 259.203 431.097 259.12 431.016C259.039 430.939 258.975 430.846 258.931 430.744C258.887 430.642 258.865 430.531 258.865 430.42C258.865 430.309 258.887 430.198 258.931 430.096C258.975 429.994 259.039 429.901 259.12 429.824C259.299 429.657 259.537 429.568 259.782 429.575C260.18 429.568 260.576 429.537 260.97 429.483C260.97 428.993 260.97 428.058 260.97 426.671C260.97 425.545 261.012 424.47 261.097 423.445L259.744 423.484C259.629 423.487 259.514 423.466 259.407 423.424C259.3 423.382 259.202 423.319 259.12 423.238C258.962 423.079 258.874 422.863 258.874 422.639C258.874 422.414 258.962 422.199 259.12 422.039C259.268 421.896 259.462 421.811 259.667 421.798C260.02 421.763 260.633 421.748 261.51 421.748C262.529 421.768 263.545 421.855 264.552 422.009C264.659 422.011 264.764 422.036 264.861 422.081C264.958 422.127 265.044 422.192 265.114 422.273C265.184 422.354 265.236 422.448 265.268 422.551C265.299 422.653 265.308 422.761 265.296 422.867C265.3 422.987 265.277 423.106 265.227 423.215C265.177 423.324 265.102 423.42 265.008 423.495C264.856 423.629 264.659 423.701 264.457 423.698Z" fill="white"/>
<path d="M272.502 423.077C272.414 423.077 272.326 423.064 272.242 423.039C271.604 422.863 270.946 422.772 270.284 422.767C269.948 422.768 269.613 422.792 269.28 422.84C268.893 422.895 268.51 422.971 268.131 423.066C268.131 423.618 268.131 424.434 268.077 425.522C268.307 425.522 269.119 425.43 270.506 425.292C271.299 425.211 271.801 425.173 272.012 425.173C272.243 425.168 272.468 425.252 272.64 425.407C272.759 425.52 272.841 425.666 272.879 425.826C272.916 425.985 272.906 426.153 272.85 426.307C272.794 426.461 272.694 426.596 272.563 426.694C272.432 426.793 272.275 426.852 272.111 426.863L270.625 426.989C270.035 427.054 269.15 427.135 267.943 427.23C267.916 427.759 267.901 428.184 267.901 428.506C267.901 429.318 267.947 429.782 268.043 429.893C268.295 429.977 268.563 430.005 268.828 429.974C269.085 429.974 269.472 429.974 269.977 429.974C270.483 429.974 270.885 429.954 271.127 429.954C271.255 429.952 271.383 429.939 271.51 429.916C271.629 429.897 271.749 429.885 271.87 429.882C272.092 429.876 272.308 429.948 272.483 430.085C272.607 430.191 272.698 430.33 272.745 430.487C272.791 430.643 272.792 430.809 272.746 430.966C272.7 431.123 272.61 431.263 272.487 431.37C272.363 431.476 272.212 431.545 272.05 431.567C271.193 431.668 270.33 431.706 269.468 431.682C268.119 431.682 267.239 431.501 266.828 431.138C266.372 430.755 266.15 429.863 266.15 428.525C266.15 427.971 266.19 427.137 266.269 426.024C266.348 424.91 266.389 424.077 266.391 423.526C266.384 423.31 266.363 423.095 266.33 422.882C266.294 422.669 266.272 422.454 266.265 422.238C266.265 421.61 266.556 421.292 267.138 421.292C267.318 421.292 267.493 421.347 267.64 421.449C268.093 421.336 268.55 421.245 269.012 421.177C269.419 421.121 269.83 421.091 270.242 421.089C271.092 421.059 271.94 421.181 272.747 421.449C272.917 421.498 273.065 421.603 273.168 421.746C273.272 421.889 273.324 422.062 273.318 422.238C273.32 422.45 273.241 422.655 273.096 422.809C273.021 422.893 272.93 422.96 272.827 423.006C272.725 423.052 272.614 423.076 272.502 423.077Z" fill="white"/>
<path d="M286.326 423.07C286.257 423.242 286.172 423.453 286.077 423.698C285.981 423.943 285.893 424.296 285.736 424.767C285.502 425.38 285.126 426.265 284.609 427.449C284.092 428.633 283.705 429.522 283.479 430.104C283.345 430.464 283.185 430.813 283 431.15C282.916 431.312 282.788 431.446 282.631 431.538C282.473 431.629 282.293 431.674 282.111 431.667C281.883 431.67 281.659 431.602 281.471 431.472C281.369 431.409 281.282 431.323 281.219 431.22C281.156 431.118 281.117 431.002 281.107 430.882C280.95 430.511 280.831 430.126 280.751 429.732C280.567 428.843 280.314 427.514 279.985 425.732C279.743 426.498 279.452 427.248 279.115 427.978C278.743 428.731 278.438 429.515 278.203 430.322C278.239 430.415 278.257 430.514 278.257 430.613C278.258 430.738 278.227 430.861 278.167 430.971C278.107 431.081 278.021 431.174 277.916 431.242C277.723 431.377 277.493 431.449 277.257 431.449C276.983 431.462 276.712 431.381 276.491 431.219C276.386 431.136 276.301 431.03 276.243 430.909C276.185 430.788 276.156 430.655 276.157 430.521L275.966 429.794C275.828 429.147 275.603 428.182 275.292 426.897C275.018 425.911 274.561 424.506 273.92 422.683C273.882 422.584 273.863 422.478 273.863 422.372C273.859 422.258 273.883 422.145 273.933 422.042C273.983 421.939 274.057 421.85 274.15 421.782C274.325 421.647 274.542 421.576 274.763 421.583C274.913 421.577 275.061 421.609 275.195 421.676C275.329 421.743 275.444 421.843 275.529 421.966C275.68 422.213 275.799 422.478 275.882 422.756C276.428 424.434 276.887 426.14 277.257 427.866C277.586 427.058 277.927 426.104 278.268 425.008C278.459 424.358 278.685 423.718 278.947 423.093C279.365 422.189 279.788 421.736 280.215 421.736C280.415 421.737 280.61 421.802 280.77 421.922C280.93 422.042 281.047 422.211 281.104 422.403C281.236 422.775 281.326 423.16 281.372 423.552C281.399 423.725 281.452 424.139 281.537 424.805C281.621 425.472 281.881 426.813 282.303 428.698C282.745 427.676 283.336 426.193 284.077 424.25C284.119 424.135 284.23 423.752 284.398 423.1C284.486 422.709 284.641 422.336 284.854 421.997C284.938 421.862 285.054 421.751 285.194 421.675C285.333 421.599 285.489 421.561 285.647 421.564C285.879 421.556 286.104 421.638 286.276 421.794C286.357 421.871 286.422 421.964 286.465 422.068C286.508 422.172 286.528 422.283 286.525 422.395C286.488 422.628 286.421 422.854 286.326 423.07Z" fill="white"/>
<path d="M295.616 426.138C295.432 426.809 295.168 427.82 294.85 429.177C294.769 429.644 294.693 430.111 294.62 430.575C294.448 431.165 294.137 431.46 293.681 431.46C293.554 431.466 293.427 431.442 293.309 431.392C293.192 431.341 293.087 431.265 293.003 431.169C292.862 431.004 292.785 430.792 292.789 430.575C292.817 429.74 292.962 428.914 293.218 428.119C293.647 426.675 293.877 425.87 293.911 425.713C294.03 425.077 294.153 424.437 294.275 423.797C294.366 423.18 294.573 422.584 294.884 422.043C294.975 421.907 295.097 421.796 295.241 421.719C295.385 421.642 295.545 421.602 295.708 421.602C295.889 421.6 296.066 421.654 296.215 421.757C296.364 421.86 296.478 422.007 296.539 422.177C296.796 422.893 296.976 423.634 297.076 424.388C297.279 425.568 297.55 426.736 297.888 427.885C298.363 426.652 298.8 425.303 299.206 423.828L299.555 422.399C299.781 421.805 300.126 421.51 300.593 421.51C301.06 421.51 301.382 421.855 301.601 422.541C301.739 423.051 301.838 423.571 301.896 424.096C302.086 425.63 302.389 427.147 302.804 428.636C303.171 429.913 303.355 430.609 303.355 430.724C303.358 430.843 303.333 430.96 303.282 431.067C303.232 431.174 303.157 431.268 303.064 431.341C302.891 431.486 302.673 431.565 302.447 431.563C301.995 431.563 301.658 431.242 301.44 430.594L301.091 429.092C300.892 428.346 300.677 427.274 300.447 425.874C300.258 426.428 299.949 427.302 299.52 428.495L299.137 429.644C299.012 430.03 298.852 430.403 298.658 430.759C298.575 430.932 298.445 431.079 298.282 431.181C298.119 431.283 297.931 431.338 297.739 431.337C297.536 431.33 297.341 431.259 297.18 431.136C297.02 431.012 296.902 430.842 296.842 430.648L296.494 429.498C296.167 428.428 295.874 427.308 295.616 426.138Z" fill="white"/>
<path d="M308.459 431.433C307.321 431.464 306.211 431.089 305.324 430.376C304.882 430.028 304.527 429.582 304.287 429.074C304.047 428.565 303.928 428.007 303.941 427.445C303.939 426.048 304.406 424.691 305.267 423.591C305.684 422.984 306.244 422.489 306.896 422.148C307.548 421.806 308.274 421.63 309.01 421.633C310.458 421.633 311.543 421.962 312.263 422.629C312.983 423.296 313.347 424.288 313.347 425.617C313.357 426.992 312.929 428.334 312.125 429.449C311.732 430.063 311.19 430.568 310.548 430.915C309.907 431.262 309.188 431.44 308.459 431.433ZM309.01 423.319C308.535 423.33 308.069 423.458 307.655 423.692C307.24 423.926 306.89 424.258 306.635 424.66C306.03 425.462 305.704 426.44 305.708 427.445C305.7 427.769 305.769 428.09 305.909 428.382C306.049 428.674 306.255 428.929 306.512 429.127C307.068 429.555 307.757 429.775 308.459 429.747C309.37 429.747 310.137 429.299 310.757 428.403C311.321 427.584 311.615 426.611 311.6 425.617C311.6 424.749 311.405 424.144 311.014 423.801C310.623 423.459 309.955 423.297 309.01 423.315V423.319Z" fill="white"/>
<path d="M320.738 431.123C320.623 431.122 320.51 431.099 320.405 431.054C320.3 431.009 320.205 430.944 320.125 430.862C318.953 429.737 317.535 428.899 315.983 428.414C316.025 429.617 316.048 430.288 316.048 430.422C316.051 430.533 316.031 430.644 315.989 430.746C315.947 430.849 315.883 430.942 315.803 431.019C315.721 431.101 315.624 431.165 315.516 431.208C315.409 431.25 315.294 431.271 315.179 431.268C315.064 431.271 314.949 431.251 314.843 431.208C314.736 431.165 314.639 431.101 314.558 431.019C314.477 430.943 314.414 430.85 314.371 430.747C314.328 430.644 314.307 430.533 314.309 430.422C314.309 430.111 314.309 429.656 314.309 429.023C314.309 428.391 314.309 427.939 314.309 427.629V422.61C314.307 422.346 314.392 422.089 314.55 421.878C314.648 421.74 314.781 421.632 314.936 421.565C315.09 421.497 315.26 421.473 315.428 421.495C316.435 421.568 316.96 421.61 316.96 421.614C317.474 421.664 317.974 421.804 318.439 422.027C320.209 422.919 321.094 424.024 321.094 425.342C321.099 425.875 320.9 426.39 320.539 426.782C320.073 427.261 319.501 427.622 318.868 427.836C319.795 428.317 320.635 428.952 321.351 429.713C321.49 429.865 321.568 430.063 321.569 430.269C321.57 430.381 321.547 430.493 321.502 430.596C321.457 430.7 321.391 430.793 321.309 430.87C321.155 431.021 320.952 431.111 320.738 431.123ZM316.753 423.299L316.025 423.25V426.552H316.297C317.07 426.596 317.843 426.465 318.558 426.169C318.772 426.057 318.967 425.913 319.136 425.74C319.313 425.56 319.401 425.426 319.401 425.334C319.401 424.87 319.106 424.422 318.52 423.993C318.003 423.609 317.393 423.37 316.753 423.299Z" fill="white"/>
<path d="M328.783 423.077C328.695 423.077 328.607 423.064 328.522 423.039C327.884 422.863 327.226 422.771 326.565 422.767C326.23 422.768 325.896 422.792 325.565 422.84C325.178 422.895 324.794 422.97 324.415 423.066C324.415 423.618 324.396 424.434 324.358 425.522C324.592 425.522 325.4 425.43 326.791 425.292C327.58 425.211 328.082 425.173 328.293 425.173C328.524 425.167 328.749 425.251 328.921 425.407C329.041 425.52 329.125 425.665 329.164 425.825C329.202 425.986 329.192 426.154 329.136 426.309C329.08 426.464 328.979 426.599 328.847 426.697C328.715 426.796 328.557 426.853 328.392 426.863L326.906 426.989C326.319 427.054 325.431 427.135 324.247 427.23C324.216 427.759 324.201 428.184 324.201 428.506C324.201 429.318 324.251 429.782 324.346 429.893C324.593 429.975 324.854 430.002 325.113 429.974C325.369 429.974 325.76 429.974 326.262 429.974C326.764 429.974 327.166 429.954 327.411 429.954C327.54 429.952 327.668 429.939 327.794 429.916C327.914 429.897 328.034 429.885 328.155 429.882C328.377 429.876 328.595 429.948 328.771 430.085C328.894 430.192 328.983 430.331 329.029 430.488C329.074 430.644 329.074 430.81 329.028 430.966C328.982 431.122 328.892 431.262 328.769 431.368C328.647 431.475 328.496 431.544 328.335 431.567C327.479 431.668 326.617 431.706 325.756 431.682C324.405 431.682 323.524 431.501 323.113 431.138C322.661 430.755 322.435 429.862 322.435 428.525C322.435 427.97 322.473 427.135 322.557 426.024C322.641 424.912 322.676 424.077 322.676 423.526C322.67 423.31 322.65 423.095 322.615 422.882C322.579 422.669 322.559 422.454 322.553 422.238C322.553 421.61 322.841 421.292 323.423 421.292C323.602 421.292 323.778 421.346 323.925 421.449C324.377 421.335 324.835 421.245 325.296 421.177C325.704 421.121 326.115 421.091 326.526 421.089C327.376 421.058 328.225 421.18 329.032 421.449C329.201 421.498 329.349 421.603 329.453 421.746C329.556 421.889 329.609 422.062 329.603 422.238C329.605 422.45 329.525 422.654 329.381 422.809C329.305 422.893 329.213 422.961 329.11 423.007C329.007 423.053 328.896 423.077 328.783 423.077Z" fill="white"/>
<path d="M262.766 672.281C263.31 671.462 263.616 670.508 263.651 669.526L269.67 483.496C269.695 482.798 269.583 482.103 269.339 481.449C269.095 480.795 268.725 480.195 268.25 479.684C267.774 479.173 267.203 478.76 266.568 478.47C265.933 478.18 265.247 478.018 264.55 477.992C263.852 477.967 263.156 478.08 262.502 478.323C261.848 478.567 261.248 478.937 260.737 479.413C260.226 479.888 259.814 480.46 259.524 481.095C259.234 481.73 259.071 482.415 259.046 483.113L253.027 669.143C252.987 670.299 253.325 671.437 253.991 672.384C254.656 673.331 255.611 674.035 256.713 674.389C257.814 674.744 259.001 674.729 260.094 674.348C261.186 673.967 262.124 673.24 262.766 672.277V672.281Z" fill="#192057"/>
<path d="M304.83 458.85C305.456 458.071 305.849 457.132 305.966 456.14C306.082 455.148 305.917 454.144 305.489 453.241C305.06 452.339 304.386 451.576 303.544 451.039C302.702 450.502 301.725 450.214 300.727 450.206L227.749 449.011C226.635 449.007 225.548 449.353 224.641 450C223.734 450.647 223.054 451.563 222.696 452.618C222.338 453.673 222.321 454.814 222.647 455.879C222.972 456.944 223.625 457.88 224.512 458.555L261.292 486.523C262.135 487.163 263.15 487.538 264.207 487.598C265.264 487.659 266.315 487.403 267.226 486.864L303.408 460.072C303.952 459.753 304.433 459.339 304.83 458.85ZM243.564 459.673L281.444 460.754L264.885 475.891L243.564 459.673Z" fill="#343D76"/>
<path d="M255.361 664.481H299.826C299.826 664.481 289.865 740.527 255.92 737.788C221.979 740.527 212.018 664.481 212.018 664.481H255.361Z" fill="#343D76"/>
<path d="M254.468 450.168C259.97 449.961 264.812 449.785 268.774 449.785C271.368 449.785 273.636 449.785 275.609 449.697C297.386 449.019 283.149 444.406 277.908 444.333C272.421 444.092 265.104 442.034 256.587 438.586C256.146 441.337 255.265 446.636 254.468 450.168Z" fill="#E9B9AF"/>
<path d="M99.0305 397.718C102.042 403.24 105.698 408.384 109.923 413.043C130.933 436.544 162.135 445.8 192.145 449.153C202.371 450.302 212.451 450.739 221.952 450.842C226.274 450.888 230.477 450.842 234.507 450.789C234.825 446.904 238.266 435.755 240.4 431.104C230.565 426.089 219.887 419.894 209.041 412.982C202.635 408.902 196.164 404.553 189.774 400.063C157.71 377.485 127.665 350.858 117.164 331.897C117.111 331.818 117.063 331.735 117.022 331.648C114.723 327.461 113.409 323.656 113.241 320.354C113.241 320.327 76.5986 356.084 99.0305 397.718Z" fill="#343D76"/>
<path d="M234.649 452.088C235.998 453.432 252.491 456.126 253.668 453.095C254 452.139 254.267 451.161 254.468 450.168C255.265 446.636 256.146 441.337 256.583 438.582C256.759 437.471 256.867 436.77 256.867 436.77C252.323 435.426 243.212 430.073 241.867 429.066C241.584 428.855 241.051 429.671 240.4 431.104C238.266 435.755 234.825 446.904 234.507 450.789C234.446 451.467 234.488 451.927 234.649 452.088Z" fill="#343D76"/>
<path d="M99.0303 397.718C102.041 403.24 105.698 408.384 109.923 413.043C130.933 436.544 162.135 445.801 192.145 449.153C198.022 440.004 205.623 426.434 209.041 412.982C202.635 408.902 196.164 404.553 189.773 400.063C184.18 408.948 177.786 426.763 159.759 422.131C135.841 416.001 118.505 338.077 117.164 331.898L117.083 331.514L117.022 331.641C116.026 333.694 103.245 360.808 99.0303 397.718Z" fill="#192057"/>
<path d="M221.952 450.842C226.274 450.888 230.477 450.842 234.507 450.789C234.825 446.904 238.266 435.755 240.4 431.104C238.185 432.636 232.967 448.157 231.117 449.153C230.201 449.643 225.987 450.302 221.952 450.842Z" fill="#192057"/>
<path d="M245.254 450.712C244.124 450.712 243.208 449.796 243.208 448.666C243.208 447.536 244.124 446.62 245.254 446.62C246.384 446.62 247.3 447.536 247.3 448.666C247.3 449.796 246.384 450.712 245.254 450.712Z" fill="#192057"/>
<path d="M254.468 450.168C259.97 449.961 264.813 449.785 268.774 449.785C271.368 449.785 273.636 449.785 275.609 449.697C273.284 449.145 259.729 449.455 258.549 448.957C257.369 448.459 257.579 439.276 256.583 438.563C256.146 441.337 255.265 446.636 254.468 450.168Z" fill="#EB928C"/>
<path d="M80.6138 304.236C87.7208 304.914 108.536 314.423 115.796 318.492C116.018 318.611 116.133 318.68 116.133 318.68C116.018 314.362 116.267 311.163 116.972 309.431C122.869 294.953 141.538 289.374 145.4 275.647C149.262 261.92 127.7 250.33 126.413 247.441C125.125 244.553 134.248 240.35 130.163 238.859C126.079 237.369 120.202 234.886 118.578 226.416C118.578 226.416 108.321 224.373 98.0268 232.672C92.801 236.886 92.8777 236.817 94.5251 239.879C95.4033 241.476 96.1515 243.142 96.7625 244.859C98.1532 248.69 99.6053 254.667 100.306 264.399C100.567 267.958 100.805 270.705 100.935 272.912C101.475 282.041 100.146 282.041 90.2839 292.964C89.2303 294.133 88.0886 295.42 86.8358 296.853C84.9891 298.968 82.9317 301.397 80.6138 304.236Z" fill="#F8BD88"/>
<path d="M90.284 292.968C93.0579 291.708 97.732 289.137 100.119 285.187C103.647 279.36 105.885 270.333 105.199 261.261C104.513 252.188 101.885 253.1 101.31 250.955C100.736 248.809 103.67 243.514 103.345 239.013C103.345 239.013 98.8392 242.744 96.7626 244.848C98.1534 248.679 99.6054 254.656 100.307 264.387C100.567 267.946 100.805 270.693 100.935 272.9C101.475 282.045 100.146 282.045 90.284 292.968Z" fill="#FC9D6B"/>
<path d="M54.8296 257.246C56.6916 266.257 68.8482 260.694 68.557 262.54C68.2659 264.387 61.8409 273.697 68.557 276.716C75.2732 279.735 84.0046 271.85 78.7175 278.433C78.0919 279.159 77.67 280.038 77.495 280.98C77.32 281.922 77.3981 282.894 77.7214 283.796C79.4569 288.834 88.039 292.911 96.5597 289.16C101.226 287.11 104.889 274.291 102.881 262.414C102.847 262.207 102.812 262 102.77 261.797C100.609 250.545 93.0158 250.545 93.0158 250.545L87.4183 243.928L84.7938 240.825L78.5375 233.434L77.6447 232.381L56.6917 243.829C56.3532 244.27 56.0629 244.747 55.8258 245.25C54.8527 247.189 53.5845 251.181 54.8296 257.246Z" fill="#343D76"/>
<path d="M229.377 630.658C232.764 635.769 244.365 647.286 259.065 660.925C273.862 674.676 291.784 690.568 307.626 704.28C313.871 709.666 319.794 714.731 325.082 719.183L359.728 714.946C339.169 681.763 301.788 602.782 283.93 559.344C280.413 550.788 277.651 543.635 275.927 538.44C275.938 538.421 218.013 613.506 229.377 630.658Z" fill="#FA993B"/>
<path d="M229.377 630.658C232.764 635.769 244.365 647.286 259.066 660.925C267.364 633.827 282.792 582.289 283.942 559.317C280.425 550.761 277.662 543.609 275.938 538.413C275.938 538.421 218.014 613.506 229.377 630.658Z" fill="#FF790B"/>
<path d="M110.049 730.079V559.887C110.049 557.048 108.134 554.75 105.774 554.75C103.413 554.75 101.494 557.048 101.494 559.887V730.079C101.494 732.914 103.41 735.217 105.774 735.217C108.137 735.217 110.049 732.914 110.049 730.079Z" fill="#C4CACE"/>
<path d="M96.6246 737.075H117.049C121.493 733.171 118.785 728.221 114.923 728.221H94.4982C90.0539 732.125 92.7627 737.075 96.6246 737.075Z" fill="#C4CACE"/>
<path d="M28.7501 564.401H182.793C184.216 564.401 185.58 563.836 186.586 562.83C187.592 561.824 188.157 560.46 188.157 559.037C188.157 557.615 187.592 556.25 186.586 555.244C185.58 554.238 184.216 553.673 182.793 553.673H28.7501C27.3275 553.673 25.9632 554.238 24.9573 555.244C23.9514 556.25 23.3863 557.615 23.3863 559.037C23.3863 560.46 23.9514 561.824 24.9573 562.83C25.9632 563.836 27.3275 564.401 28.7501 564.401Z" fill="#C4CACE"/>
<path d="M36.0945 424.292C55.404 318.316 78.1309 312.741 94.6628 324.925C109.551 335.901 116.398 376.24 124.723 383.06C124.669 382.727 124.608 382.393 124.558 382.048C130.163 415.61 136.358 449.977 135.489 459.758C135.489 459.854 135.489 459.938 135.489 460.026C134.872 469.696 147.81 472.669 165.315 474.508C182.418 476.305 203.873 476.998 221.316 481.787C256.79 491.507 310.278 493.798 277.666 578.335C254.319 638.869 230.017 680.388 217.627 701.192H217.6L183.502 689.763C184.326 683.284 185.218 676.078 186.084 668.423C186.797 662.251 187.49 655.78 188.126 649.19C191.295 616.345 193.107 580.078 188.203 559.048C188.203 559.048 186.651 553.685 182.839 553.685H64.032C61.4344 553.685 58.3272 552.723 54.9212 550.888C36.8569 541.137 10.5209 506.652 8.58994 459.394C20.5204 462.283 30.7422 453.674 36.0945 424.292ZM54.5458 450.85C62.8328 455.555 77.5601 450.321 79.6443 450.467C80.1768 450.501 80.2803 446.793 80.1002 440.659C79.2228 412.308 72.0776 332.158 72.0776 332.158C56.6913 356.295 50.4693 413.997 48.9674 437.594C48.5115 444.793 50.9061 448.774 54.5458 450.85Z" fill="#FA993B"/>
<path d="M120.191 212.983C121.371 222.423 120.083 231.756 112.359 234.223C104.636 236.691 104.314 234.867 103.992 238.514C103.67 242.162 99.9155 245.794 96.4865 244.947C93.0576 244.1 80.8589 243.591 80.2152 243.231C79.5716 242.871 77.6406 232.361 77.6406 232.361L120.191 212.983Z" fill="#343D76"/>
<path d="M74.8554 309.308C74.9435 309.462 75.3534 309.668 76.0048 309.952C80.5639 311.868 97.1341 316.971 101.885 327.472C107.318 339.487 107.892 350.923 112.038 340.2C113.953 335.246 115.566 330.932 116.689 327.557C117.995 323.633 118.639 321.009 118.329 320.166C118.252 319.944 117.451 319.4 116.133 318.634C109.199 314.676 87.8318 304.879 80.6138 304.19C79.6713 304.098 78.9663 304.159 78.5717 304.416C76.1005 306.029 74.1543 308.09 74.8554 309.308Z" fill="#343D76"/>
<path d="M54.829 257.245C56.691 266.257 68.8476 260.694 68.5564 262.54C68.2652 264.387 61.8402 273.697 68.5564 276.716C75.2726 279.735 84.004 271.85 78.7169 278.432C78.0912 279.158 77.6694 280.037 77.4944 280.98C77.3194 281.922 77.3974 282.894 77.7207 283.796C78.6325 283.842 79.5942 283.876 80.6133 283.907C99.3865 284.543 102.769 261.797 102.769 261.797C102.769 261.797 80.0463 244.717 80.8623 243.894C80.916 243.844 81.1038 243.69 81.4103 243.441C82.0539 242.936 83.2415 242.016 84.7932 240.825C94.5859 233.296 119.305 214.581 120.259 213.86C119.416 214.243 98.1873 223.772 78.5368 233.434L77.9008 233.752C69.6904 237.794 61.8096 241.851 55.8252 245.246C54.852 247.188 53.5838 251.181 54.829 257.245Z" fill="#192057"/>
<path d="M105.038 247.667C97.9577 241.154 78.1502 237.442 78.4375 249.966C78.7249 262.49 103.321 263.483 106.256 260.693C109.191 257.904 105.038 247.667 105.038 247.667Z" fill="#F8BD88"/>
<path d="M101.739 254.138C94.4595 255.2 88.6628 252.682 89.678 250.035C90.6933 247.388 96.8348 252.223 97.7237 251.951C98.6125 251.679 98.9382 250.165 99.9458 251.142C100.953 252.119 105.808 253.544 101.739 254.138Z" fill="#FC9D6B"/>
<path d="M45.8644 248.533L51.9178 244.936C51.8833 244.89 51.845 244.848 51.8144 244.802C51.7186 244.675 51.6266 244.545 51.5424 244.418C25.0684 208.022 78.6982 163.679 109.567 202.317C110.627 203.642 111.662 205.069 112.674 206.596C113.007 207.11 113.333 207.631 113.666 208.163L119.536 204.673C119.601 204.635 119.662 204.596 119.727 204.566C119.382 203.983 119.026 203.416 118.654 202.838C117.612 201.234 116.499 199.673 115.314 198.156C109.567 190.854 102.103 184.839 93.0922 182.164C81.6215 178.582 68.7408 180.751 58.6608 187.172C48.4926 193.505 40.9068 203.895 38.3858 215.615C35.8227 227.036 38.9835 239.239 45.8644 248.533Z" fill="#FF790B"/>
<path d="M51.5421 244.422C51.6264 244.545 51.7184 244.675 51.8142 244.805C51.8448 244.851 51.8831 244.894 51.9176 244.94L113.666 208.16C113.333 207.627 113.007 207.106 112.674 206.593C111.667 205.06 110.632 203.634 109.566 202.313C78.698 163.683 25.0682 208.041 51.5421 244.422Z" fill="#FF8736"/>
<path d="M49.8607 255.751L124.926 211.06C125.179 210.908 125.415 210.731 125.631 210.531C126.363 209.853 126.824 208.931 126.926 207.938C127.029 206.946 126.767 205.949 126.189 205.136C125.611 204.322 124.757 203.746 123.786 203.516C122.815 203.285 121.793 203.416 120.911 203.884L120.716 203.995L114.85 207.485L53.0981 244.265L47.0486 247.867L45.6502 248.698C44.7133 249.257 44.0368 250.165 43.7695 251.223C43.5022 252.28 43.6661 253.401 44.2249 254.338C44.7838 255.274 45.692 255.951 46.7496 256.218C47.8072 256.485 48.9277 256.322 49.8645 255.763L49.8607 255.751Z" fill="#FA993B"/>
<path d="M198.114 334.809C204.321 336.947 214.297 341.426 219.209 345.004C223.642 332.518 229.918 321.679 235.726 317.304C243.603 311.358 230.147 309.059 231.128 306.757C232.109 304.454 241.066 296.822 244.097 295.853C247.127 294.884 240.584 293.424 231.737 301.542C228.247 304.734 218.558 313.983 206.972 325.721C204.106 328.614 201.137 331.66 198.114 334.809Z" fill="#F8BD88"/>
<path d="M176.594 353.398C176.648 353.552 177.617 354.195 179.23 355.157C186.153 359.318 204.819 369.494 212.267 372.781C213.922 373.501 215.022 373.888 215.332 373.785C217.248 373.149 221.014 353.096 222.087 348.694C222.32 347.747 221.167 346.452 219.205 345.02C214.294 341.441 204.317 336.974 198.111 334.825C195.229 333.828 193.161 333.342 192.801 333.675C187.931 338.234 176.292 352.425 176.594 353.398Z" fill="#343D76"/>
<path d="M8.54037 459.363C20.5207 462.282 30.7424 453.674 36.0947 424.292C55.4042 318.316 78.1311 312.741 94.663 324.924C109.551 335.901 116.398 376.24 124.723 383.06C124.669 382.727 124.608 382.393 124.558 382.048C124.213 380.022 123.88 377.945 123.528 375.834C120.93 360.126 118.57 344.935 117.237 332.924C117.179 332.441 117.126 331.97 117.083 331.499C117.041 331.028 116.98 330.579 116.938 330.127C116.938 330.127 116.938 330.081 116.938 330.066C116.85 329.208 116.765 328.376 116.696 327.56C115.574 330.924 113.961 335.223 112.045 340.204C107.9 350.931 107.325 339.491 101.893 327.476C97.1418 316.975 80.5716 311.875 76.0125 309.956C66.6527 321.833 53.9253 339.318 36.6962 365.827C14.6244 399.768 7.41781 431.74 8.54037 459.363Z" fill="#192057"/>
<path d="M123.527 375.834C121.118 361.034 118.57 344.525 117.237 332.924C118.57 344.935 120.93 360.114 123.527 375.834Z" fill="#192057"/>
<path d="M116.689 327.568C116.758 328.365 116.842 329.196 116.93 330.074C116.827 329.216 116.758 328.373 116.689 327.568Z" fill="#192057"/>
<path d="M79.6442 450.467C82.6479 450.681 72.0775 332.158 72.0775 332.158C56.6912 356.295 50.4692 413.997 48.9673 437.594C47.4655 461.19 76.6405 450.252 79.6442 450.467Z" fill="#192057"/>
<path d="M179.828 720.624C181.261 722.202 224.596 737.784 228.868 739.5C233.14 741.217 207.98 721.773 209.267 716.049C209.65 714.421 212.673 709.425 217.593 701.18L183.448 689.74C181.169 707.762 179.364 720.118 179.828 720.624Z" fill="#343D76"/>
<path d="M54.5456 450.85C56.0206 459.792 60.0549 471.857 69.5603 486.937C91.4942 521.705 137.791 501.771 165.299 474.508C147.794 472.673 134.856 469.696 135.473 460.026L80.1 440.659C80.2801 446.789 80.1767 450.501 79.6441 450.467C77.5599 450.321 62.8326 455.57 54.5456 450.85Z" fill="#FF790B"/>
<path d="M168.786 467.025C195.463 440.341 206.849 397.504 212.282 372.777C204.823 369.509 186.176 359.34 179.253 355.18C175.272 359.666 171.445 364.118 167.935 368.428C163.633 373.617 159.602 379.025 155.859 384.631C137.764 412.422 112.482 381.42 106.409 354.253C100.337 327.085 64.3959 290.443 60.1892 392.807C55.0936 516.893 135.818 499.986 168.786 467.025Z" fill="#343D76"/>
<path d="M54.8716 550.857C58.2776 552.692 61.3848 553.654 63.9824 553.654H182.789C186.621 553.654 188.153 559.018 188.153 559.018C193.046 580.048 191.245 616.314 188.077 649.16C194.616 619.755 206.168 561.807 198.118 551.846C187.67 538.919 107.934 553.827 54.8716 550.857Z" fill="#FF790B"/>
<path d="M183.468 689.74L217.589 701.153C216.639 700.736 189.889 688.928 188.31 684.817C187.391 682.438 186.586 674.657 186.054 668.385C185.184 676.055 184.291 683.262 183.468 689.74Z" fill="#FF790B"/>
<path d="M325.082 719.199C337.763 729.884 346.74 737.075 347.587 737.075H402.55C402.55 737.075 384.926 733.627 372.045 730.21C369.666 729.574 365.325 723.945 359.739 714.934L325.082 719.199Z" fill="#343D76"/>
<path d="M307.623 704.295C313.867 709.682 319.791 714.747 325.078 719.199L359.728 714.946C359.728 714.946 328.124 715.057 323.978 713.203C322.001 712.298 314.707 708.256 307.623 704.295Z" fill="#FF790B"/>
<path d="M204.003 333.556C204.164 332.024 205.754 328.576 206.961 325.721C204.107 328.614 201.137 331.66 198.114 334.809C204.321 336.947 214.298 341.426 219.209 345.004C214.727 341.204 203.708 336.208 204.003 333.556Z" fill="#FC9D6B"/>
<path d="M167.928 368.405C169.652 368.746 172.836 365.666 177.322 362.938C182.977 359.49 197.988 366.517 212.274 372.754C204.815 369.486 186.168 359.318 179.245 355.157C175.265 359.643 171.437 364.095 167.928 368.405Z" fill="#192057"/>
<path d="M213.133 365.459C211.474 365.459 210.129 364.114 210.129 362.455C210.129 360.796 211.474 359.452 213.133 359.452C214.792 359.452 216.137 360.796 216.137 362.455C216.137 364.114 214.792 365.459 213.133 365.459Z" fill="#192057"/>
<path d="M80.6138 304.236C87.7208 304.914 108.536 314.423 115.796 318.492C112.731 316.756 89.4104 303.55 87.8281 302.607C86.5753 301.841 85.1462 300.496 86.8242 296.861C84.9891 298.968 82.9317 301.397 80.6138 304.236Z" fill="#FC9D6B"/>
</svg>
