<svg width="952" height="798" viewBox="0 0 952 798" fill="none" xmlns="http://www.w3.org/2000/svg">
<path d="M49.1558 276.959C94.9997 134.26 247.768 -30.5176 388.757 43.5169C519.477 112.158 428.79 200.221 529.392 296.414C629.995 392.607 790.74 275.761 878.534 394.446C929.492 463.334 919.574 571.158 842.258 651.954C764.942 732.751 620.227 786.519 401.591 747.296C195.063 710.246 100.296 613.386 60.49 515.428C20.6835 417.469 35.8393 318.41 49.1558 276.959Z" stroke="white" stroke-opacity="0.22" stroke-width="2.10293" stroke-miterlimit="10"/>
<path d="M397.15 733.495C207.674 699.791 120.008 611.283 82.8556 521.292C46.0933 431.84 59.318 341.151 71.3477 302.237C112.716 169.917 253.18 16.9224 384.484 81.5542C505.724 141.231 427.155 221.05 520.396 308.914C523.059 311.407 525.764 313.748 528.508 315.949C602.809 375.599 706.313 330.607 784.821 361.259C806.133 369.58 825.666 383.376 842.169 406.256C889.638 472.071 879.656 571.886 807.701 646.141C735.306 720.682 600.066 769.407 397.15 733.495Z" stroke="white" stroke-opacity="0.22" stroke-width="2.10293" stroke-miterlimit="10"/>
<path d="M392.71 719.692C220.284 689.335 139.72 609.178 105.221 527.156C71.5023 446.21 82.6759 363.858 93.5401 327.514C130.027 205.451 258.56 64.3668 380.212 119.591C491.943 170.312 425.246 242.179 511.402 321.414C513.885 323.698 516.42 325.832 518.981 327.851C588.099 382.465 682.616 345.125 753.731 375.444C773.149 383.723 790.938 396.849 805.804 418.068C849.774 480.827 839.737 572.615 773.143 640.329C705.67 708.613 579.906 752.293 392.71 719.692Z" stroke="white" stroke-opacity="0.22" stroke-width="2.10293" stroke-miterlimit="10"/>
<path d="M388.269 705.89C232.894 678.879 159.225 607.162 127.585 533.021C96.709 460.667 106.101 386.587 115.732 352.792C147.572 241.065 263.9 111.821 375.939 157.629C478.125 199.408 423.498 263.141 502.406 333.913C504.714 335.983 507.075 337.915 509.454 339.753C573.389 389.331 658.923 359.663 722.64 389.628C740.166 397.87 756.2 410.333 769.439 429.878C809.895 489.606 799.819 573.343 738.586 634.516C676.034 696.544 559.745 735.181 388.269 705.89Z" stroke="white" stroke-opacity="0.22" stroke-width="2.10293" stroke-miterlimit="10"/>
<path d="M383.828 692.087C245.456 668.71 178.877 605.084 149.95 538.884C122.063 475.062 129.533 409.318 137.924 378.067C165.146 276.691 269.187 159.293 371.666 195.664C464.259 228.527 421.773 284.085 493.411 346.412C495.544 348.267 497.73 349.997 499.926 351.653C558.679 396.195 635.233 374.23 691.549 403.81C707.184 412.023 721.448 423.826 733.074 441.687C769.994 498.41 760.04 574.213 704.028 628.701C646.542 684.624 539.53 718.392 383.828 692.087Z" stroke="white" stroke-opacity="0.22" stroke-width="2.10293" stroke-miterlimit="10"/>
<path d="M379.387 678.284C258.06 658.3 198.538 603.006 172.315 544.748C147.427 489.455 152.973 432.055 160.116 403.344C182.759 312.335 274.406 206.805 367.393 233.702C450.333 257.692 420.077 305.008 484.416 358.912C486.375 360.553 488.387 362.08 490.399 363.555C543.969 403.061 611.543 388.836 660.459 417.995C674.203 426.188 686.681 437.337 696.709 453.498C730.062 507.251 720.142 574.966 669.47 622.888C616.927 672.582 519.36 701.34 379.387 678.284Z" stroke="white" stroke-opacity="0.22" stroke-width="2.10293" stroke-miterlimit="10"/>
<path d="M374.947 664.482C270.668 647.872 218.212 600.925 194.681 550.612C172.808 503.845 176.428 454.798 182.309 428.622C200.422 347.998 279.539 254.39 363.121 271.74C436.33 286.936 418.419 325.898 475.421 371.412C477.207 372.838 479.042 374.164 480.872 375.458C529.259 409.928 587.841 403.496 629.369 432.18C641.221 440.366 651.893 450.864 660.345 465.31C690.081 516.136 680.232 575.711 634.913 617.076C587.304 660.533 499.195 684.273 374.947 664.482Z" stroke="white" stroke-opacity="0.22" stroke-width="2.10293" stroke-miterlimit="10"/>
<path d="M370.506 650.68C283.28 637.418 237.906 598.839 217.046 556.476C198.21 518.227 199.902 477.548 204.501 453.899C218.156 383.684 285.096 298.119 358.849 309.777C421.797 319.727 416.811 346.738 466.426 383.912C468.041 385.122 469.698 386.247 471.345 387.36C514.55 416.795 564.115 418.221 598.279 446.365C608.232 454.563 617.078 464.41 623.98 477.121C650.022 525.079 640.309 576.443 600.356 611.264C557.665 648.47 479.034 667.181 370.506 650.68Z" stroke="white" stroke-opacity="0.22" stroke-width="2.10293" stroke-miterlimit="10"/>
<path d="M366.065 636.878C295.899 626.924 257.636 596.738 239.41 562.341C223.648 532.594 223.407 500.305 226.692 479.177C235.988 419.394 289.537 350.102 354.575 347.814C408.091 345.932 415.269 367.5 457.43 396.411C458.875 397.403 460.353 398.33 461.817 399.262C499.839 423.661 540.328 433.028 567.188 460.549C575.225 468.783 582.225 477.976 587.615 488.932C609.83 534.095 600.366 577.154 565.798 605.452C528.006 636.388 458.881 650.046 366.065 636.878Z" stroke="white" stroke-opacity="0.22" stroke-width="2.10293" stroke-miterlimit="10"/>
<path d="M361.625 623.076C308.529 616.364 277.438 594.602 261.775 568.204C249.151 546.928 246.967 523.068 248.885 504.454C253.966 455.118 294.574 398.539 350.303 385.851C394 375.903 413.814 388.129 448.435 408.911C449.714 409.679 451.009 410.413 452.291 411.164C485.13 430.526 516.427 447.915 536.098 474.733C542.183 483.029 547.325 491.561 551.251 500.743C569.408 543.209 560.397 577.83 531.241 599.638C498.317 624.265 438.74 632.824 361.625 623.076Z" stroke="white" stroke-opacity="0.22" stroke-width="2.10293" stroke-miterlimit="10"/>
<path d="M346.03 423.889C381.701 405.524 415.106 408.739 442.763 423.066C470.42 437.393 492.329 462.832 505.007 488.918C531.022 542.441 524.784 575.589 496.683 593.826C468.583 612.064 418.62 615.391 357.184 609.274C295.749 603.157 269.991 568.636 271.077 529.732C272.162 490.827 300.092 447.539 346.03 423.889Z" stroke="white" stroke-opacity="0.22" stroke-width="2.10293" stroke-miterlimit="10"/>
</svg>
