<svg width="786" height="409" viewBox="0 0 786 409" fill="none" xmlns="http://www.w3.org/2000/svg">
<path fill-rule="evenodd" clip-rule="evenodd" d="M420.068 140.356C636.591 207.805 800 301.386 785.051 349.375C775.194 381.017 690.255 384.936 571.461 364.599C658.414 377.367 720.249 371.837 728.252 346.144C740.84 305.737 615.51 230.76 448.321 178.679C281.131 126.597 135.394 117.134 122.806 157.541C110.219 197.948 235.549 272.925 402.738 325.006C405.623 325.905 408.502 326.791 411.374 327.665C396.405 323.417 381.241 318.906 365.932 314.137C149.409 246.688 -13.9998 153.107 0.949134 105.118C15.8981 57.1296 203.544 72.906 420.068 140.356Z" fill="#0A7ABF"/>
<path d="M266.752 218.018V383.319H579.589L577.754 218.018H266.752Z" fill="#1967D2"/>
<path d="M577.754 218.018L421.231 102.925L266.752 218.018H577.754Z" fill="#858585"/>
<path d="M266.752 218.018L423.169 329.507L575.727 218.018H266.752Z" fill="#302226"/>
<path d="M547.663 122.491H295.847V304.788H547.663V122.491Z" fill="#E6E6E6"/>
<path d="M529.711 156.975C531.577 149.074 526.684 141.157 518.784 139.292C510.883 137.426 502.966 142.319 501.101 150.219C499.235 158.12 504.128 166.037 512.028 167.902C519.929 169.768 527.846 164.875 529.711 156.975Z" fill="#00395E"/>
<path d="M515.389 173.708C504.278 173.708 495.242 164.669 495.242 153.561C495.242 142.45 504.281 133.414 515.389 133.414C526.5 133.414 535.536 142.453 535.536 153.561C535.539 164.671 526.5 173.708 515.389 173.708ZM515.389 135.431C505.391 135.431 497.259 143.565 497.259 153.561C497.259 163.559 505.393 171.691 515.389 171.691C525.387 171.691 533.519 163.557 533.519 153.561C533.521 143.562 525.387 135.431 515.389 135.431Z" fill="#CCCCCC"/>
<path d="M457.715 138.68H333.438V153.561H457.715V138.68Z" fill="#00395E"/>
<path d="M451.534 180.39H312.324V187.377H451.534V180.39Z" fill="#00395E"/>
<path d="M451.931 194.81H312.721V201.797H451.931V194.81Z" fill="#00395E"/>
<path d="M451.534 226.285H312.324V233.272H451.534V226.285Z" fill="#00395E"/>
<path d="M467.671 241.329H312.721V248.316H467.671V241.329Z" fill="#00395E"/>
<path d="M496.68 256.754H312.721V263.741H496.68V256.754Z" fill="#00395E"/>
<path d="M496.68 287.226H312.721V294.213H496.68V287.226Z" fill="#00395E"/>
<path d="M575.727 218.018L538.392 232.006L462.06 300.668H382.71L305.887 234.495L266.752 218.018V306.846L577.754 304.777L575.727 218.018Z" fill="#1967D2"/>
<path d="M266.752 383.319L421.549 272.177L579.589 383.319H266.752Z" fill="#1967D2"/>
<path d="M266.752 383.323L382.327 300.342L266.752 365.556V383.323Z" fill="#858585"/>
<path d="M579.589 383.323L462.06 300.672L579.389 365.445L579.589 383.323Z" fill="#858585"/>
<path d="M267.76 229.777H265.743V383.319H267.76V229.777Z" fill="#302226"/>
<path d="M473.849 152.552H326.572V154.57H473.849V152.552Z" fill="#CCCCCC"/>
<path d="M344.768 186.368H307.877V188.385H344.768V186.368Z" fill="#CCCCCC"/>
<path d="M344.768 200.788H307.877V202.806H344.768V200.788Z" fill="#CCCCCC"/>
<path d="M421.238 232.263H395.576V234.281H421.238V232.263Z" fill="#CCCCCC"/>
<path d="M473.849 247.307H354.379V249.325H473.849V247.307Z" fill="#CCCCCC"/>
<path d="M500.69 262.732H456.341V264.749H500.69V262.732Z" fill="#CCCCCC"/>
<path d="M442.362 288.049L421.554 273.416L401.878 287.543L400.701 285.903L421.541 270.94L443.524 286.399L442.362 288.049Z" fill="#CCCCCC"/>
<path d="M239.635 364.376C239.42 364.321 217.897 358.785 195.966 347.085C183.055 340.196 172.519 332.546 164.649 324.345C154.747 314.026 149.057 302.8 147.738 290.979C145.496 270.893 155.837 248.958 178.47 225.785C205.195 198.423 249.552 168.867 310.309 137.935L311.249 139.782C250.694 170.611 206.52 200.034 179.953 227.232C157.773 249.94 147.627 271.31 149.797 290.747C152.675 316.544 177.023 334.625 196.941 345.252C218.649 356.834 239.931 362.309 240.143 362.361L239.635 364.376Z" fill="#E6E6E6"/>
<path d="M330.439 127.99L329.571 126.261C330.158 125.968 388.37 96.7717 401.296 91.3286L402.048 93.1117C389.179 98.5302 331.023 127.697 330.439 127.99Z" fill="#E6E6E6"/>
<path d="M422.78 85.252C422.782 85.2495 422.849 85.2002 422.918 85.0966L421.312 84.0164C421.625 83.5503 422.057 82.9115 453.29 70.4419C468.593 64.3329 483.983 58.3126 484.139 58.251L484.844 60.0538C460.926 69.406 424.659 83.8364 422.78 85.252Z" fill="#E6E6E6"/>
<path d="M511.847 46.6348L541.569 92.2218L639.246 53.9523L511.847 46.6348Z" fill="#1967D2"/>
<path d="M503.408 34.3105L485.566 6.20703L639.246 53.9521L503.408 34.3105Z" fill="#1967D2"/>
<path d="M511.847 46.6348L490.812 77.3698L528.695 72.4766L511.847 46.6348Z" fill="#0A7ABF"/>
<path d="M503.408 34.311L639.246 53.9526L511.847 46.6351L490.812 77.3701L503.408 34.311Z" fill="#00395E"/>
<path d="M600.143 330.807C627.293 330.807 649.302 308.798 649.302 281.648C649.302 254.499 627.293 232.49 600.143 232.49C572.994 232.49 550.985 254.499 550.985 281.648C550.985 308.798 572.994 330.807 600.143 330.807Z" fill="#FFD23C"/>
<path d="M616.118 313.421C610.467 316.401 604.716 317.53 597.832 317.53C580.985 317.53 566.708 305.204 566.708 285.481C566.708 264.32 581.397 246.035 604.203 246.035C622.076 246.035 634.097 258.566 634.097 275.721C634.097 291.131 625.467 300.17 615.812 300.17C611.703 300.17 607.902 297.395 608.211 291.131H607.799C604.203 297.191 599.477 300.17 593.314 300.17C587.356 300.17 582.221 295.341 582.221 287.227C582.221 274.488 592.288 262.882 606.566 262.882C610.983 262.882 614.887 263.807 617.558 265.04L614.066 283.633C612.524 291.439 613.757 295.035 617.148 295.139C622.387 295.242 628.242 288.255 628.242 276.341C628.242 261.447 619.304 250.763 603.382 250.763C586.638 250.763 572.565 264.014 572.565 284.867C572.565 302.022 583.762 312.603 598.964 312.603C604.819 312.603 610.265 311.369 614.475 309.007L616.118 313.421ZM610.467 269.045C609.439 268.737 607.693 268.325 605.33 268.325C596.291 268.325 588.996 276.851 588.996 286.815C588.996 291.336 591.255 294.623 595.776 294.623C601.734 294.623 607.177 287.022 608.307 280.652L610.467 269.045Z" fill="white"/>
<path d="M650.31 281.648H648.293C648.293 255.099 626.693 233.499 600.143 233.499V231.481C613.543 231.481 626.141 236.7 635.616 246.176C645.092 255.651 650.31 268.249 650.31 281.648Z" fill="#F3F3F4"/>
<path d="M589.568 330.789C576.457 328.015 565.213 320.302 557.905 309.071C550.598 297.839 548.099 284.435 550.874 271.324L552.847 271.741C550.183 284.324 552.581 297.191 559.595 307.968C566.609 318.749 577.402 326.153 589.985 328.814L589.568 330.789Z" fill="#F3F3F4"/>
<path d="M616.297 61.8664L537.613 93.7256L538.37 95.5955L617.055 63.7363L616.297 61.8664Z" fill="#302226"/>
<path d="M509.214 162.154L506.042 150.437L507.103 150.161L509.925 160.588L527.559 152.071L528.044 153.058L509.214 162.154Z" fill="#CCCCCC"/>
<path d="M156.008 96.3368C156.008 96.3368 140.203 138.593 142.417 158.344C142.417 158.344 150.573 169.892 155.868 161.068C156.378 160.217 165.743 125.483 165.743 125.483C165.743 125.483 174.538 88.3039 156.008 96.3368Z" fill="#313032"/>
<path d="M222.528 89.9053C222.528 89.9053 232.998 133.825 236.744 137.571C240.489 141.317 254.451 153.406 254.451 153.406L249.173 162.6C249.173 162.6 228.401 153.746 222.271 144.382C216.141 135.017 213.247 113.734 213.247 113.734C213.247 113.734 204.056 90.7648 222.528 89.9053Z" fill="#313032"/>
<path d="M156.009 96.3365L165.69 91.0635C173.061 93.3455 183.79 95.4098 192.426 94.6C200.774 93.8168 208.974 87.944 210.239 85.5103L222.528 89.9051C222.528 89.9051 223.017 93.6387 222.633 102.764C222.381 108.736 226.538 124.681 226.538 124.681C226.538 124.681 220.215 144.777 220.216 144.781C222.799 164.65 230.81 181.736 230.81 181.736C230.81 181.736 220.255 188.137 203.19 189.738C198.517 190.176 190.225 188.629 182.832 187.096C172.993 185.057 169.379 184.482 169.379 184.482L175.439 157.332L165.293 135.507L156.009 96.3365Z" fill="#FAB57A"/>
<path d="M199.655 332.241C197.585 314.023 201.877 303.673 202.844 293.584L194.002 212.232L201.43 181.459H230.08L224.421 276.606L219.469 293.584H219.265C216.523 315.898 213.444 364.714 213.194 375.363C212.887 388.418 225.05 399.485 227.188 401.654C229.326 403.822 236.518 405.391 236.518 408.893H218.247L206.585 394.414L207.751 408.893H206.585C206.585 408.893 196.478 391.365 196.478 386.412C196.478 381.46 202.309 375.363 202.309 375.363C202.309 375.363 200.437 339.117 199.655 332.241Z" fill="#FAB57A"/>
<path d="M236.518 408.894C236.518 405.392 229.327 403.822 227.188 401.654C227.016 401.48 226.76 401.227 226.469 400.94C220.692 401.971 216.259 399.783 212.103 394.901C207.883 389.945 196.478 383.512 196.478 386.413C196.478 391.366 206.585 408.894 206.585 408.894H207.751L206.585 394.414L218.247 408.894H236.518Z" fill="#292728"/>
<path d="M198.954 277.668C198.954 277.668 192.383 294.87 191.172 299.244C189.961 303.619 189.05 319.406 189.05 319.406C189.05 319.406 181.33 358.219 178.085 373.877C174.84 389.535 184.867 397.038 184.098 408.894H166.413C162.653 398.996 169.949 372.816 169.949 372.816C169.949 372.816 169.066 322.454 171.656 313.618C174.248 304.781 175.255 293.939 175.255 293.939C175.255 293.939 160.692 226.629 162.875 217.184C165.29 187.214 171.011 181.46 171.011 181.46H201.43L198.954 277.668Z" fill="#FAB57A"/>
<path d="M221.009 288.302C214.863 288.96 208.678 289.366 202.398 289.479L194.002 212.232L201.43 181.459H230.08L224.421 276.606L221.009 288.302Z" fill="#E78052"/>
<path d="M194.513 289.545C187.686 289.582 180.924 289.669 174.236 289.145C170.969 273.615 161.045 225.098 162.875 217.184C165.289 187.214 171.01 181.46 171.01 181.46H201.429L198.953 277.668C198.953 277.668 196.646 283.711 194.513 289.545Z" fill="#E78052"/>
<path d="M224.357 283.832C221.355 284.08 216.319 284.447 213.297 284.764C208.278 285.289 178.973 285.33 171.485 285.163C167.74 264.943 161.151 224.641 162.876 217.184C165.29 187.214 171.011 181.459 171.011 181.459H230.08L224.357 283.832Z" fill="#292728"/>
<path opacity="0.5" d="M162.876 217.184C163.371 210.328 164.279 203.509 165.594 196.762L165.597 196.747C167.287 188.494 169.127 184.451 170.168 182.676L170.174 182.666C170.378 182.319 170.55 182.058 170.685 181.87L170.7 181.848C170.829 181.671 170.92 181.56 170.968 181.506L170.981 181.491L171.011 181.459H230.08L229.109 197.797C224.291 199.083 219.642 201.001 214.622 201.559C207.958 202.301 201.16 202.063 194.465 202.018C188.33 202.01 182.2 201.689 176.097 201.056C175.689 210.985 175.629 220.929 176.084 230.798C176.936 249.284 181.574 267.277 185.743 285.25C179.61 285.256 174.157 285.222 171.485 285.163C167.74 264.943 161.151 224.641 162.876 217.184Z" fill="#231F20"/>
<path d="M183.204 401.291C183.933 403.755 184.236 406.326 184.098 408.893H166.413C165.48 406.438 165.229 402.98 165.377 399.17C169.823 403.056 177.285 403.599 183.204 401.291Z" fill="#292728"/>
<path d="M160.192 62.7739C156.955 56.4054 158.236 49.2575 163.055 46.8078C167.873 44.3584 174.404 47.5353 177.641 53.9036C180.878 60.2714 179.597 67.4195 174.778 69.869C169.96 72.3187 163.429 69.1423 160.192 62.7739Z" fill="#412917"/>
<path d="M178.431 64.0947C178.431 64.0947 184.336 81.7796 177.483 84.6382C175.253 85.5687 165.402 91.5211 165.402 91.5211L180.898 100.478L202.758 97.4182L210.644 85.8564L201.502 82.3858L196.379 64.7319L178.431 64.0947Z" fill="#FAB57A"/>
<path d="M177.483 84.6385L165.402 91.5215C165.402 91.5215 184.427 126.372 204.312 122.283C224.196 118.194 210.644 85.8568 210.644 85.8568L201.502 82.3862L200.868 105.928L177.483 84.6385Z" fill="#DDDCEE"/>
<path d="M199.04 79.949C198.198 81.6071 197.325 83.2762 195.855 84.355C192.694 86.6742 188.496 84.5426 185.354 83.1507C183.65 82.3754 182.021 81.4451 180.487 80.3717C181.804 74.2047 178.43 64.0947 178.43 64.0947L196.379 64.7319C196.379 64.7319 196.401 75.0199 199.04 79.949Z" fill="#E68052"/>
<path d="M165.293 135.508L156.009 96.3367L176.938 84.8377C184.309 87.1197 206.507 118.926 206.507 118.926C206.507 118.926 205.947 89.486 206.55 84.2349L222.528 89.9053C222.528 89.9053 223.017 93.6389 222.633 102.764C222.381 108.736 226.538 124.681 226.538 124.681C226.538 124.681 220.215 144.778 220.216 144.781C222.799 164.65 230.81 181.736 230.81 181.736C230.81 181.736 220.255 188.138 203.191 189.738C194.902 190.515 175.227 185.049 169.379 184.483L175.439 157.333L165.293 135.508Z" fill="#313032"/>
<path opacity="0.5" d="M156.716 99.3218C158.85 105.049 161.764 110.618 163.474 116.418C165.671 123.878 173.837 126.006 179.063 132.191C181.144 134.655 175.993 145.847 178.03 147.944C182.59 152.637 181.754 159.729 182.188 165.9C182.59 173.12 183.38 180.313 184.554 187.448C178.171 186.152 172.183 184.754 169.379 184.483L175.438 157.333L165.292 135.508L156.716 99.3218Z" fill="#231F20"/>
<path d="M173.084 52.9164C172.022 49.5917 170.133 47.5398 168.865 48.333C167.597 49.1257 167.43 52.4634 168.492 55.7873C168.824 56.9666 169.419 58.0554 170.232 58.9719C171.035 59.9074 171.348 60.9687 172.084 60.9427C173.347 60.8983 174.145 56.2406 173.084 52.9164Z" fill="#E68052"/>
<path d="M190.213 22.5567C170.415 23.2461 171.104 43.013 171.104 43.013C171.104 43.013 172.901 62.8605 174.921 66.4251C176.941 69.9888 187.827 78.1431 193.847 77.9337C199.868 77.7243 206.752 68.9514 208.519 65.2554C210.287 61.5593 210.699 41.6345 210.699 41.6345C210.699 41.6345 210.011 21.8676 190.213 22.5567Z" fill="#FBBE7D"/>
<path d="M179.853 43.9388C186.368 44.5333 192.917 44.6469 199.448 44.2784C203.217 44.1084 206.952 43.7772 210.656 43.2849C210.686 42.2666 210.699 41.6345 210.699 41.6345C210.699 41.6345 210.012 21.8676 190.213 22.5567C172.436 23.1757 171.18 39.1331 171.109 42.393C173.995 43.0588 176.914 43.5747 179.853 43.9388Z" fill="#E68052"/>
<path d="M210.389 49.9389C206.922 48.6951 203.49 47.3661 200.142 45.7931C194.612 43.1942 188.768 41.1945 183.69 37.732C182.848 37.1578 181.59 36.0871 180.468 36.5966C179.371 37.0959 178.874 39.0752 178.486 40.0609C176.659 44.418 174.55 48.6512 172.172 52.7333C171.518 47.5851 171.104 43.013 171.104 43.013C171.104 43.013 170.416 23.2461 190.213 22.5567C210.011 21.8676 210.699 41.6345 210.699 41.6345C210.699 41.6345 210.622 45.3882 210.389 49.9389Z" fill="#E68052"/>
<path d="M186.948 46.9872C185.769 46.7911 184.706 48.2234 184.574 50.186C184.441 52.1482 185.289 53.8977 186.468 54.0938C187.646 54.2898 188.709 52.8565 188.842 50.8939C188.974 48.9317 188.126 47.1827 186.948 46.9872Z" fill="#231F20"/>
<path d="M204.263 46.3837C203.084 46.1877 202.021 47.6194 201.889 49.5829C201.756 51.5444 202.604 53.2944 203.783 53.4898C204.961 53.686 206.024 52.2531 206.156 50.2904C206.29 48.3286 205.441 46.5789 204.263 46.3837Z" fill="#231F20"/>
<path d="M198.541 59.3162C198.879 59.8305 198.856 59.7378 198.659 60.1471C198.465 60.4363 198.238 60.7023 197.983 60.9398C197.543 61.4548 199.544 61.2529 199.881 60.8575C200.162 60.528 200.853 59.9778 200.981 59.547C201.134 59.034 200.769 58.8563 200.402 58.565C199.372 57.7525 198.623 56.6377 198.26 55.3773C198.108 54.8687 197.39 57.5636 198.541 59.3162Z" fill="#E58052"/>
<path d="M180.961 29.7535L171.854 50.1273C171.854 50.1273 160.105 43.4995 163.711 33.4268C167.317 23.3541 180.961 29.7535 180.961 29.7535Z" fill="#412917"/>
<path d="M210.948 48.7666C207.532 47.7938 175.305 32.335 169.775 27.6207C169.775 27.6207 172.077 12.6621 190.83 17.1129C217.313 23.3982 210.948 48.7666 210.948 48.7666Z" fill="#412917"/>
<path d="M176.681 21.9916C180.081 18.4127 185.81 17.388 190.961 17.1484C211.692 22.1408 212.167 38.8688 211.432 45.7577C203.324 33.9784 190.617 24.8761 176.681 21.9916Z" fill="#675445"/>
<path d="M188.24 41.862C188.118 41.8493 187.997 41.8304 187.877 41.8055C180.629 40.4974 177.103 44.4183 177.193 44.2435C176.899 44.5334 176.518 44.7192 176.109 44.7727C175.828 44.7618 175.834 44.4866 176.152 44.1589C176.167 44.3351 179.194 39.3653 187.849 40.6513C188.441 40.7682 188.676 41.9127 188.24 41.862Z" fill="#231F20"/>
<path d="M197.507 43.1124C197.615 43.0919 197.722 43.0651 197.828 43.0319C204.196 41.1525 208.272 44.4096 208.147 44.2954C208.475 44.5458 208.876 44.6814 209.289 44.6816C209.565 44.6349 209.518 44.3621 209.154 44.0775C209.193 44.193 205.329 39.8586 197.626 41.9276C197.107 42.0896 197.122 43.1909 197.507 43.1124Z" fill="#231F20"/>
<path d="M200.024 64.9134C200.024 64.9134 197.362 68.3208 194.178 68.248C190.994 68.1742 188.492 64.647 188.492 64.647L200.024 64.9134Z" fill="white"/>
<path d="M169.656 60.441C169.698 60.7314 169.826 61.0028 170.022 61.2208C170.219 61.4388 170.475 61.5936 170.76 61.6657C171.044 61.7379 171.344 61.724 171.62 61.6259C171.897 61.5279 172.138 61.35 172.314 61.1148C172.489 60.8796 172.591 60.5977 172.606 60.3046C172.622 60.0115 172.55 59.7205 172.399 59.4684C172.249 59.2162 172.028 59.0143 171.763 58.888C171.498 58.7617 171.202 58.7169 170.911 58.7591C170.718 58.787 170.533 58.8527 170.365 58.9524C170.198 59.0521 170.052 59.1838 169.935 59.34C169.819 59.4962 169.734 59.6738 169.686 59.8627C169.638 60.0517 169.628 60.2482 169.656 60.441V60.441Z" fill="#E4E5E5"/>
<path d="M179.348 112.298L185.89 104.895L175.216 106.272L171.889 87.6119L176.938 84.8379C182.329 86.5068 195.642 103.957 202.41 113.219L206.722 121.422C197.097 120.161 187.804 117.063 179.348 112.298V112.298Z" fill="#292728"/>
<path d="M180.64 79.415C180.64 79.415 176.94 84.0262 175.905 85.182C174.205 87.0803 175.096 99.5585 175.733 99.5576L182.361 94.4787L187.956 98.0944L198.113 107.305C198.113 107.305 182.189 85.9569 180.64 79.415Z" fill="#DDDCEE"/>
<path d="M209.907 102.312L216.277 105.325C214.241 112.274 210.922 117.454 206.722 121.422L206.496 118.337C206.422 114.212 205.997 89.0524 206.549 84.2349L214.919 87.2049L216.793 101.451L209.907 102.312Z" fill="#292728"/>
<path d="M200.739 79.5005C200.739 79.5005 209.134 83.061 214.512 94.9088C217.482 101.451 213.91 95.6408 213.91 95.6408L211.672 91.7243C211.672 91.7243 201.859 99.6867 200.998 101.494L201.402 82.8274L200.739 79.5005Z" fill="#DDDCEE"/>
<path d="M207.47 122.98C207.947 122.981 208.413 123.122 208.809 123.387C209.205 123.652 209.514 124.028 209.697 124.469C209.879 124.909 209.927 125.394 209.834 125.861C209.741 126.329 209.511 126.758 209.174 127.095C208.837 127.432 208.407 127.662 207.94 127.755C207.472 127.848 206.988 127.8 206.547 127.617C206.107 127.435 205.731 127.126 205.466 126.73C205.201 126.333 205.06 125.867 205.06 125.391C205.06 125.074 205.122 124.761 205.243 124.468C205.364 124.176 205.542 123.91 205.766 123.686C205.989 123.462 206.255 123.285 206.548 123.164C206.84 123.043 207.154 122.98 207.47 122.98V122.98Z" fill="#292728"/>
<path d="M208.503 144.845C208.98 144.845 209.446 144.987 209.842 145.251C210.238 145.516 210.547 145.893 210.73 146.333C210.912 146.774 210.96 147.258 210.867 147.726C210.774 148.193 210.544 148.623 210.207 148.96C209.87 149.297 209.44 149.527 208.973 149.62C208.505 149.713 208.021 149.665 207.58 149.482C207.14 149.3 206.763 148.991 206.499 148.594C206.234 148.198 206.092 147.732 206.092 147.255C206.093 146.616 206.347 146.003 206.799 145.551C207.251 145.099 207.864 144.845 208.503 144.845Z" fill="#292728"/>
<path d="M208.503 171.53C209.834 171.53 210.913 170.451 210.913 169.12C210.913 167.789 209.834 166.709 208.503 166.709C207.172 166.709 206.092 167.789 206.092 169.12C206.092 170.451 207.172 171.53 208.503 171.53Z" fill="#292728"/>
<path d="M198.599 34.0827C198.599 8.68541 195.846 4.91789 193.95 1.50476C192.017 1.08167 190.044 0.865168 188.065 0.858887H186.565C185.957 0.858887 185.361 0.901815 184.763 0.940033C185.368 1.49245 191.415 3.64989 191.415 34.0827H198.599Z" fill="#BC842C"/>
<path d="M213.14 29.7962V23C213.14 10.8225 201.856 0.858887 188.065 0.858887H186.566C172.775 0.858887 161.491 10.8225 161.491 23V31.7471C161.491 32.4625 161.521 34.0099 161.491 34.0827C162.968 37.7309 176.089 40.5976 188.721 40.5976C201.353 40.5976 218.393 37.8246 218.393 34.0827C218.393 32.4034 216.366 30.9222 213.14 29.7962Z" fill="#FBB03B"/>
<path d="M212.045 29.7915C212.045 29.7915 200.862 34.3099 168.911 34.0822C168.911 34.0822 201.997 38.7793 212.045 29.7915Z" fill="#BC842C"/>
<path d="M197.017 2.35137C195.302 1.77456 193.535 1.36532 191.741 1.12939C192.149 2.18463 192.531 3.22682 192.92 4.16895C194.503 8.01305 194.993 11.9096 195.543 16.0075C196.375 22.2022 197.041 28.0446 197.337 34.0828L200.023 33.4362C200.321 28.1818 200.063 8.6855 197.017 2.35137Z" fill="#BC842C"/>
<path d="M199.232 32.5509C199.232 7.1536 196.479 4.059 194.584 0.645874C192.65 0.222901 190.678 0.00639644 188.699 0H187.199C186.591 0 185.994 0.042928 185.397 0.0811463C186.001 0.633561 191.517 2.67171 192.048 33.2238L199.232 32.5509Z" fill="#FBB03B"/>
<path d="M185.396 0.0812109C185.396 0.0812109 183.44 0.0434638 182.577 1.14163C183.301 1.03206 184.031 0.964841 184.763 0.940313C184.763 0.940313 190.513 9.31831 191.286 33.3444H192.072C192.072 33.3444 191.978 4.35701 185.396 0.0812109Z" fill="#BC842C"/>
<path d="M177.352 147.066C177.352 147.066 179.337 147.183 184.888 138.768C190.44 130.354 189.489 130.776 190.446 130.581C191.403 130.385 197.557 129.712 197.557 129.712C197.557 129.712 202.371 129.754 202.952 130.304C203.533 130.855 209.354 134.72 209.935 135.271C210.516 135.822 210.665 137.177 209.65 137.317C208.634 137.457 205.644 135.725 205.644 135.725L208.252 137.977L207.801 140.197C207.801 140.197 206.18 140.976 205.869 139.909C205.557 138.842 202.649 138.07 202.649 138.07L197.386 138.153C197.386 138.153 201.899 139.675 202.715 140.559C203.531 141.443 202.83 142.764 202.83 142.764L201.946 143.58C201.946 143.58 203.273 144.508 203.163 144.624C203.053 144.74 203.615 146.707 201.859 146.697C200.104 146.687 198.061 146.515 198.061 146.515C198.061 146.515 195.174 150.918 192.816 151.66C190.457 152.402 188.323 152.945 188.323 152.945L182.753 156.378L177.352 147.066Z" fill="#FAB57A"/>
<path d="M177.352 147.066C177.352 147.066 147.354 151.022 143.779 155.108C140.203 159.195 144.034 166.09 148.887 166.346C153.739 166.601 182.752 156.378 182.752 156.378L177.352 147.066Z" fill="#313032"/>
<path d="M203.099 168.639L218.646 118.786C218.732 118.51 218.918 118.277 219.168 118.131C219.417 117.985 219.712 117.937 219.995 117.997L256.856 125.824C256.886 125.83 257.533 126.301 257.562 126.309C257.222 125.741 256.705 125.301 256.09 125.057L219.229 117.231C218.946 117.171 218.651 117.218 218.402 117.364C218.152 117.51 217.966 117.744 217.88 118.02L202.332 167.872C202.138 168.495 203.025 169.819 203.64 170C203.573 169.784 203.026 168.872 203.099 168.639Z" fill="#F0F1F1"/>
<path d="M256.936 125.86C256.907 125.851 256.886 125.83 256.856 125.824L219.995 117.997C219.712 117.937 219.418 117.985 219.168 118.131C218.919 118.277 218.733 118.511 218.647 118.787L203.099 168.639C203.036 168.862 203.043 169.099 203.119 169.317C203.175 169.515 203.283 169.693 203.432 169.834C203.581 169.976 203.765 170.074 203.965 170.119L240.826 177.946C241.109 178.006 241.404 177.958 241.653 177.812C241.902 177.666 242.088 177.432 242.174 177.156L257.722 127.304C257.767 127.158 257.783 127.004 257.767 126.851C257.752 126.699 257.706 126.551 257.633 126.416C257.56 126.282 257.46 126.163 257.34 126.068C257.221 125.972 257.083 125.901 256.936 125.86V125.86Z" fill="#E6E7E8"/>
<path d="M223.399 121.96C223.222 121.96 223.05 122.012 222.903 122.111C222.756 122.209 222.641 122.348 222.573 122.512C222.506 122.675 222.488 122.855 222.522 123.028C222.557 123.202 222.642 123.361 222.767 123.486C222.892 123.611 223.051 123.696 223.225 123.731C223.398 123.765 223.578 123.748 223.741 123.68C223.905 123.612 224.044 123.498 224.143 123.351C224.241 123.204 224.293 123.031 224.293 122.854C224.293 122.617 224.199 122.39 224.031 122.222C223.864 122.055 223.636 121.96 223.399 121.96V121.96Z" fill="#4D4D4D"/>
<path d="M223.399 121.449C223.121 121.449 222.85 121.531 222.619 121.685C222.388 121.84 222.208 122.059 222.102 122.316C221.995 122.572 221.967 122.855 222.022 123.127C222.076 123.4 222.21 123.65 222.406 123.847C222.602 124.043 222.853 124.177 223.125 124.231C223.398 124.285 223.68 124.257 223.937 124.151C224.193 124.045 224.413 123.865 224.567 123.634C224.721 123.403 224.804 123.131 224.804 122.853C224.803 122.481 224.655 122.124 224.392 121.861C224.129 121.597 223.772 121.449 223.399 121.449V121.449ZM223.399 123.747C223.222 123.747 223.05 123.695 222.903 123.597C222.756 123.498 222.641 123.359 222.573 123.195C222.506 123.032 222.488 122.852 222.522 122.679C222.557 122.506 222.642 122.346 222.767 122.221C222.892 122.096 223.051 122.011 223.225 121.977C223.398 121.942 223.578 121.96 223.741 122.027C223.905 122.095 224.044 122.21 224.143 122.357C224.241 122.504 224.293 122.677 224.293 122.853C224.293 123.09 224.199 123.318 224.031 123.485C223.863 123.653 223.636 123.747 223.399 123.747Z" fill="#CCCCCC"/>
<path d="M234.492 163.321C235.052 163.078 238.289 164.152 238.971 164.07C239.423 164.017 241.82 164.131 241.82 164.131C241.82 164.131 245.042 164.635 246.909 164.2C248.776 163.764 253.535 163.292 256.62 156.183C257.584 153.962 256.513 151.987 255.485 148.907C254.456 145.826 255.476 140.043 255.864 139.288C256.252 138.532 253.517 137.469 252.307 139.807C251.098 142.146 251.179 146.225 251.179 146.225L250.841 147.742C250.035 146.483 249.16 145.27 248.218 144.11C247.591 143.522 245.39 142.665 243.779 141.945C242.168 141.225 242.44 143.023 242.678 143.649C242.915 144.274 246.387 147.254 246.387 147.254C246.387 147.254 248.775 150.351 248.903 151.516C249.031 152.681 247.736 153.466 247.736 153.466L243.505 152.336C243.505 152.336 239.491 150.447 238.716 151.959C237.94 153.47 242.187 155.31 242.187 155.31C242.187 155.31 244.399 155.788 246.059 156.266C246.059 156.266 245.421 157.53 244.644 157.659C243.867 157.788 241.027 157.882 241.027 157.882C241.027 157.882 237.374 156.527 236.064 158.398C236.026 158.494 236.008 158.596 236.011 158.699C236.013 158.802 236.037 158.903 236.08 158.997C236.123 159.09 236.184 159.174 236.26 159.243C236.337 159.313 236.426 159.366 236.523 159.399C237.254 159.671 240.457 160.633 240.457 160.633L243.353 160.783L243.211 161.02L240.307 161.644C240.307 161.644 238.804 161.478 236.646 161.391C234.487 161.304 233.933 163.563 234.492 163.321Z" fill="#FAB57A"/>
<g opacity="0.5">
<path d="M169.266 23.9496C168.872 23.9492 168.494 23.7975 168.209 23.5258C167.924 23.2541 167.754 22.8832 167.735 22.4899C167.627 20.2105 167.987 17.933 168.794 15.7983C169.6 13.6636 170.836 11.717 172.425 10.0788C174.966 7.41016 178.174 5.75244 180.796 5.75244C181.203 5.75244 181.593 5.91407 181.881 6.20178C182.168 6.48949 182.33 6.8797 182.33 7.28659C182.33 7.69347 182.168 8.08368 181.881 8.37139C181.593 8.6591 181.203 8.82073 180.796 8.82073C179.335 8.82073 176.867 9.86413 174.647 12.195C173.349 13.5357 172.339 15.127 171.678 16.8714C171.016 18.6159 170.717 20.4769 170.8 22.3408C170.809 22.542 170.779 22.7432 170.711 22.9329C170.643 23.1225 170.539 23.2969 170.403 23.4462C170.268 23.5954 170.105 23.7165 169.922 23.8025C169.74 23.8886 169.543 23.9379 169.342 23.9477C169.317 23.9489 169.291 23.9496 169.266 23.9496Z" fill="white"/>
</g>
</svg>
