<svg width="39" height="64" viewBox="0 0 39 64" fill="none" xmlns="http://www.w3.org/2000/svg">
<path d="M4.30972 32.3943C4.30972 32.3943 -0.624677 47.0517 0.0663511 53.9027C0.0663511 53.9027 2.61277 57.9087 4.26581 54.8477C4.42523 54.5524 7.3488 42.5041 7.3488 42.5041C7.3488 42.5041 10.0946 29.6079 4.30972 32.3943Z" fill="#313032"/>
<path d="M27.7237 30C27.7237 30 31.0941 44.5 32.2998 45.7367C33.5056 46.9734 38 50.9645 38 50.9645L36.3009 54C36.3009 54 29.6142 51.0769 27.641 47.9852C25.6679 44.8936 24.7361 37.867 24.7361 37.867C24.7361 37.867 21.7773 30.2838 27.7237 30Z" fill="#313032"/>
<path d="M5 31.7367L8.23551 29.9167C10.6992 30.7043 14.2851 31.4168 17.1711 31.1373C19.9612 30.867 22.7017 28.84 23.1248 28L27.232 29.5169C27.232 29.5169 27.3954 30.8055 27.267 33.955C27.1826 36.0163 28.5722 41.5197 28.5722 41.5197C28.5722 41.5197 26.4589 48.456 26.459 48.4571C27.3223 55.315 30 61.2121 30 61.2121C30 61.2121 26.4723 63.4216 20.7689 63.974C19.2071 64.1252 16.4358 63.5914 13.965 63.0621C10.6764 62.3584 9.46859 62.1601 9.46859 62.1601L11.4939 52.7892L8.1028 45.2564L5 31.7367Z" fill="#FAB57A"/>
<path d="M6.59513 21.1152C5.51724 18.7961 5.94392 16.1931 7.54841 15.3011C9.15265 14.4091 11.3269 15.566 12.405 17.885C13.4827 20.2039 13.056 22.8069 11.4517 23.6988C9.8473 24.5909 7.67286 23.4342 6.59513 21.1152Z" fill="#412917"/>
<path d="M11.3196 21C11.3196 21 13.2776 27.3189 11.0054 28.3402C10.2661 28.6727 7 30.7995 7 30.7995L12.1376 34L19.3853 32.9066L22 28.7755L18.9692 27.5355L17.2706 21.2276L11.3196 21Z" fill="#FAB57A"/>
<path d="M11.3709 28.7278L7 30.952C7 30.952 13.8831 42.2134 21.0775 40.8922C28.2719 39.5708 23.3685 29.1215 23.3685 29.1215L20.0611 28L19.8317 35.6071L11.3709 28.7278Z" fill="#DDDCEE"/>
<path d="M19 26.2129C18.714 26.7581 18.4175 27.3069 17.9183 27.6616C16.8444 28.4241 15.4187 27.7233 14.3516 27.2656C13.7728 27.0107 13.2194 26.7048 12.6985 26.3519C13.1457 24.3242 12 21 12 21L18.0962 21.2095C18.0962 21.2095 18.1035 24.5922 19 26.2129Z" fill="#E68052"/>
<path d="M8.1028 45.4829L5 32.1265L11.995 28.2056C14.4586 28.9837 21.8773 39.8288 21.8773 39.8288C21.8773 39.8288 21.6904 29.7905 21.8917 28L27.232 29.9335C27.232 29.9335 27.3954 31.2066 27.267 34.318C27.1828 36.3544 28.5722 41.7913 28.5722 41.7913C28.5722 41.7913 26.4589 48.6438 26.4591 48.6449C27.3224 55.42 30 61.2458 30 61.2458C30 61.2458 26.4723 63.4286 20.769 63.9743C17.9987 64.2393 11.4231 62.3754 9.46859 62.1823L11.4939 52.9247L8.1028 45.4829Z" fill="#313032"/>
<path opacity="0.5" d="M5 33C5.68992 35.0146 6.63219 36.9737 7.18476 39.0141C7.89531 41.6383 10.5352 42.3869 12.2247 44.5625C12.8977 45.4291 11.2323 49.3661 11.8909 50.1038C13.3649 51.7547 13.0949 54.2493 13.2351 56.4203C13.3652 58.9599 13.6206 61.4901 14 64C11.9364 63.544 10.0004 63.0524 9.09385 62.957L11.0529 53.4064L7.77269 45.7291L5 33Z" fill="#231F20"/>
<path d="M10.3889 17.8034C10.0315 16.6849 9.39603 15.9946 8.96943 16.2614C8.54291 16.5281 8.48666 17.651 8.84407 18.7693C8.95583 19.166 9.15599 19.5323 9.42955 19.8407C9.69943 20.1554 9.80482 20.5125 10.0524 20.5037C10.4773 20.4888 10.7459 18.9218 10.3889 17.8034Z" fill="#E68052"/>
<path d="M16.1516 7.58795C9.49114 7.81991 9.72264 14.4701 9.72264 14.4701C9.72264 14.4701 10.3273 21.1474 11.007 22.3466C11.6866 23.5455 15.349 26.2889 17.3742 26.2184C19.3999 26.1479 21.7158 23.1965 22.3104 21.9531C22.905 20.7096 23.0437 14.0063 23.0437 14.0063C23.0437 14.0063 22.8123 7.35613 16.1516 7.58795Z" fill="#FBBE7D"/>
<path d="M12.6663 14.7815C14.8579 14.9815 17.0613 15.0197 19.2586 14.8958C20.5264 14.8386 21.7832 14.7272 23.0291 14.5615C23.0392 14.2189 23.0438 14.0063 23.0438 14.0063C23.0438 14.0063 22.8124 7.35613 16.1517 7.58795C10.171 7.79621 9.7485 13.1647 9.72432 14.2615C10.6954 14.4855 11.6773 14.659 12.6663 14.7815Z" fill="#E68052"/>
<path d="M22.9395 16.8002C21.7731 16.3817 20.6183 15.9346 19.4922 15.4054C17.6314 14.531 15.6655 13.8583 13.9571 12.6934C13.6737 12.5002 13.2505 12.14 12.8731 12.3114C12.504 12.4794 12.3368 13.1453 12.2063 13.4769C11.5918 14.9428 10.8823 16.3669 10.0822 17.7403C9.86221 16.0082 9.7229 14.4701 9.7229 14.4701C9.7229 14.4701 9.49124 7.81991 16.1517 7.58795C22.8124 7.35613 23.0438 14.0063 23.0438 14.0063C23.0438 14.0063 23.0179 15.2692 22.9395 16.8002Z" fill="#E68052"/>
<path d="M15.0531 15.8068C14.6566 15.7408 14.299 16.2227 14.2545 16.883C14.2098 17.5431 14.495 18.1317 14.8918 18.1977C15.288 18.2636 15.6456 17.7814 15.6903 17.1212C15.7347 16.461 15.4494 15.8726 15.0531 15.8068Z" fill="#231F20"/>
<path d="M20.8784 15.6037C20.4819 15.5378 20.1243 16.0194 20.0798 16.68C20.035 17.3399 20.3204 17.9287 20.717 17.9944C21.1134 18.0604 21.4709 17.5783 21.5154 16.918C21.5602 16.258 21.2748 15.6694 20.8784 15.6037Z" fill="#231F20"/>
<path d="M18.9536 19.9557C19.067 20.1287 19.0595 20.0975 18.9933 20.2352C18.9279 20.3325 18.8516 20.422 18.7658 20.5019C18.6178 20.6752 19.2908 20.6072 19.4044 20.4742C19.4989 20.3634 19.7312 20.1783 19.7744 20.0333C19.826 19.8607 19.7032 19.801 19.5796 19.703C19.2332 19.4296 18.9811 19.0545 18.8589 18.6305C18.8077 18.4594 18.5662 19.3661 18.9536 19.9557Z" fill="#E58052"/>
<path d="M13.0389 10.0101L9.9752 16.8645C9.9752 16.8645 6.02229 14.6347 7.23551 11.2459C8.44876 7.85718 13.0389 10.0101 13.0389 10.0101Z" fill="#412917"/>
<path d="M23.1275 16.406C21.9784 16.0788 11.136 10.878 9.27557 9.29195C9.27557 9.29195 10.0501 4.25944 16.3592 5.75684C25.269 7.87139 23.1275 16.406 23.1275 16.406Z" fill="#412917"/>
<path d="M11.5992 7.39891C12.7431 6.19485 14.6703 5.85012 16.4032 5.76953C23.3778 7.44912 23.5377 13.0769 23.2902 15.3945C20.5624 11.4316 16.2875 8.36933 11.5992 7.39891Z" fill="#675445"/>
<path d="M15.4877 14.0834C15.4467 14.0791 15.4059 14.0728 15.3655 14.0644C12.9272 13.6243 11.7408 14.9434 11.7714 14.8846C11.6724 14.9821 11.5443 15.0447 11.4065 15.0627C11.3121 15.059 11.3139 14.9664 11.4211 14.8561C11.426 14.9154 12.4443 13.2434 15.3561 13.6761C15.5555 13.7154 15.6344 14.1005 15.4877 14.0834Z" fill="#231F20"/>
<path d="M18.6053 14.5041C18.6419 14.4973 18.6779 14.4882 18.7134 14.4771C20.8557 13.8448 22.2271 14.9405 22.185 14.9021C22.2954 14.9864 22.4303 15.032 22.5692 15.0321C22.6622 15.0163 22.6463 14.9246 22.5239 14.8288C22.5369 14.8677 21.2368 13.4095 18.6455 14.1055C18.4709 14.16 18.476 14.5305 18.6053 14.5041Z" fill="#231F20"/>
<path d="M19.4522 21.8386C19.4522 21.8386 18.5568 22.985 17.4856 22.9605C16.4143 22.9357 15.5727 21.749 15.5727 21.749L19.4522 21.8386Z" fill="white"/>
<path d="M9.23567 20.3337C9.24988 20.4314 9.29274 20.5227 9.35883 20.5961C9.42492 20.6694 9.51128 20.7215 9.60698 20.7458C9.70268 20.77 9.80342 20.7654 9.89648 20.7324C9.98953 20.6994 10.0707 20.6395 10.1298 20.5604C10.1888 20.4813 10.223 20.3864 10.2282 20.2878C10.2333 20.1892 10.2091 20.0913 10.1586 20.0065C10.1081 19.9217 10.0336 19.8537 9.94443 19.8113C9.85531 19.7688 9.75559 19.7537 9.65789 19.7679C9.593 19.7773 9.53061 19.7994 9.47427 19.8329C9.41792 19.8665 9.36874 19.9108 9.32953 19.9633C9.29032 20.0159 9.26185 20.0756 9.24574 20.1392C9.22964 20.2027 9.22621 20.2689 9.23567 20.3337V20.3337Z" fill="#E4E5E5"/>
<path d="M11.5695 37.7576L13.8234 35.127L10.1462 35.6165L9 28.9857L10.7393 28C12.5966 28.593 17.1831 34.794 19.5147 38.0849L21 41C17.6843 40.5518 14.4828 39.4511 11.5695 37.7576Z" fill="#292728"/>
<path d="M12.972 27C12.972 27 11.6958 28.3227 11.3388 28.6542C10.7522 29.1987 11.0598 32.778 11.2794 32.7777L13.5659 31.3209L15.496 32.358L19 35C19 35 13.5065 28.8765 12.972 27Z" fill="#DDDCEE"/>
<path d="M22.3823 34.3194L24.8036 35.3726C24.0299 37.8019 22.7681 39.6128 21.1718 41L21.0858 39.9215C21.0577 38.4797 20.8961 29.6841 21.1063 28L24.2875 29.0383L25 34.0184L22.3823 34.3194Z" fill="#292728"/>
<path d="M20 27C20 27 22.8069 28.1332 24.6055 31.9041C25.5985 33.9862 24.4039 32.137 24.4039 32.137L23.6556 30.8905C23.6556 30.8905 20.3743 33.4247 20.0864 34L20.2215 28.0589L20 27Z" fill="#DDDCEE"/>
<path d="M21.5001 41C21.599 41 21.6956 41.0587 21.7778 41.1686C21.8601 41.2785 21.9241 41.4347 21.962 41.6174C21.9998 41.8001 22.0097 42.0012 21.9904 42.1952C21.9711 42.3891 21.9235 42.5673 21.8535 42.7071C21.7836 42.847 21.6945 42.9422 21.5975 42.9808C21.5005 43.0194 21.4 42.9996 21.3087 42.9239C21.2173 42.8482 21.1392 42.72 21.0843 42.5556C21.0293 42.3911 21 42.1978 21 42C21 41.8687 21.0129 41.7386 21.0381 41.6173C21.0632 41.496 21.1 41.3857 21.1465 41.2928C21.1929 41.2 21.248 41.1263 21.3087 41.0761C21.3694 41.0258 21.4344 41 21.5001 41V41Z" fill="#292728"/>
<path d="M22.5 48C22.7967 48 23.0867 48.0586 23.3334 48.1685C23.58 48.2784 23.7723 48.4346 23.8858 48.6173C23.9994 48.8001 24.0291 49.0011 23.9712 49.1951C23.9133 49.3891 23.7704 49.5673 23.5606 49.7071C23.3508 49.847 23.0835 49.9422 22.7926 49.9808C22.5016 50.0194 22.2 49.9996 21.9259 49.9239C21.6518 49.8481 21.4175 49.72 21.2527 49.5555C21.0879 49.391 21 49.1977 21 48.9999C21.0001 48.7347 21.1581 48.4804 21.4394 48.2929C21.7207 48.1054 22.1022 48 22.5 48Z" fill="#292728"/>
<path d="M22.5 58C23.3284 58 24 57.7761 24 57.5C24 57.2239 23.3284 57 22.5 57C21.6716 57 21 57.2239 21 57.5C21 57.7761 21.6716 58 22.5 58Z" fill="#292728"/>
<path d="M18.973 11.4675C18.973 2.92311 18.0467 1.65561 17.4091 0.50733C16.7587 0.364991 16.095 0.292152 15.4292 0.290039H14.9246C14.72 0.290039 14.5194 0.304481 14.3183 0.317339C14.5217 0.503187 16.556 1.22901 16.556 11.4675H18.973Z" fill="#BC842C"/>
<path d="M23.8649 10.0254V7.73896C23.8649 3.64208 20.0688 0.290039 15.4292 0.290039H14.9246C10.285 0.290039 6.48889 3.64208 6.48889 7.73896V10.6817C6.48889 10.9224 6.49887 11.443 6.48889 11.4675C6.98554 12.6949 11.4 13.6593 15.6498 13.6593C19.8996 13.6593 25.6323 12.7264 25.6323 11.4675C25.6323 10.9025 24.9503 10.4042 23.8649 10.0254Z" fill="#FBB03B"/>
<path d="M23.4966 10.0225C23.4966 10.0225 19.7343 11.5426 8.98512 11.466C8.98511 11.466 20.1163 13.0462 23.4966 10.0225Z" fill="#BC842C"/>
<path d="M18.4406 0.79099C17.8637 0.596935 17.2692 0.459255 16.6657 0.379883C16.803 0.734896 16.9316 1.08552 17.0622 1.40248C17.5948 2.69574 17.7599 4.00667 17.9449 5.38532C18.2247 7.4694 18.4488 9.43495 18.5484 11.4664L19.4521 11.2488C19.5524 9.48109 19.4656 2.92198 18.4406 0.79099Z" fill="#BC842C"/>
<path d="M19.186 10.9511C19.186 2.40668 18.2597 1.36557 17.6221 0.217291C16.9717 0.0749905 16.308 0.00215195 15.6422 0H15.1376C14.9331 0 14.7324 0.0144422 14.5314 0.0273C14.7348 0.213148 16.5905 0.89884 16.769 11.1775L19.186 10.9511Z" fill="#FBB03B"/>
<path d="M14.5312 0.0273963C14.5312 0.0273963 13.8731 0.0146971 13.5825 0.384153C13.8262 0.34729 14.0719 0.324675 14.3183 0.316423C14.3183 0.316423 16.2526 3.13503 16.5126 11.2181H16.777C16.777 11.2181 16.7453 1.4659 14.5312 0.0273963Z" fill="#BC842C"/>
<path d="M12 49.2063C12 49.2063 12.6008 49.2415 14.2809 46.717C15.9612 44.1927 15.6733 44.3192 15.963 44.2606C16.2528 44.2019 18.1153 44 18.1153 44C18.1153 44 19.5723 44.0125 19.7481 44.1777C19.9239 44.343 21.6859 45.5026 21.8617 45.6677C22.0375 45.833 22.0826 46.2396 21.7753 46.2816C21.468 46.3236 20.5629 45.8039 20.5629 45.8039L21.3522 46.4796L21.2159 47.1457C21.2159 47.1457 20.7252 47.3794 20.6309 47.0592C20.5366 46.739 19.6564 46.5073 19.6564 46.5073L18.0634 46.5324C18.0634 46.5324 19.4294 46.9889 19.6764 47.2542C19.9235 47.5195 19.7113 47.9158 19.7113 47.9158L19.4437 48.1606C19.4437 48.1606 19.8453 48.4388 19.812 48.4737C19.7786 48.5085 19.9487 49.0987 19.4174 49.0956C18.886 49.0926 18.2678 49.041 18.2678 49.041C18.2678 49.041 17.394 50.362 16.6802 50.5847C15.9664 50.8073 15.3206 50.9703 15.3206 50.9703L13.6345 52L12 49.2063Z" fill="#FAB57A"/>
<path d="M12.1275 50C12.1275 50 1.72606 51.2309 0.486244 52.5022C-0.753575 53.7736 0.574808 55.9191 2.25742 55.9985C3.93997 56.078 14 52.8972 14 52.8972L12.1275 50Z" fill="#313032"/>
<path d="M20.4867 56.7352L25.7174 39.9635C25.7464 39.8707 25.8089 39.792 25.8928 39.7429C25.9768 39.6937 26.076 39.6777 26.1711 39.6979L38.5721 42.331C38.5822 42.3331 38.8 42.4914 38.8097 42.4943C38.6955 42.3032 38.5214 42.1552 38.3144 42.0732L25.9133 39.4402C25.8182 39.42 25.719 39.436 25.6351 39.4851C25.5512 39.5342 25.4886 39.6128 25.4597 39.7056L20.2289 56.4774C20.1635 56.6871 20.462 57.1322 20.6688 57.1931C20.6465 57.1206 20.4621 56.8137 20.4867 56.7352Z" fill="#F0F1F1"/>
<path d="M38.5991 42.343C38.5894 42.3402 38.5823 42.3332 38.5723 42.331L26.1712 39.698C26.0761 39.6778 25.9769 39.6938 25.8929 39.7429C25.809 39.792 25.7465 39.8707 25.7175 39.9635L20.4868 56.7353C20.4655 56.8102 20.4679 56.8899 20.4937 56.9634C20.5124 57.0298 20.5487 57.09 20.5988 57.1374C20.6489 57.1849 20.7109 57.218 20.7782 57.2332L33.1793 59.8663C33.2744 59.8865 33.3736 59.8705 33.4575 59.8214C33.5414 59.7723 33.604 59.6936 33.6329 59.6008L38.8638 42.829C38.8789 42.7797 38.884 42.7279 38.8788 42.6766C38.8736 42.6253 38.8583 42.5756 38.8336 42.5303C38.8089 42.4851 38.7755 42.4452 38.7352 42.413C38.6949 42.3808 38.6487 42.357 38.5991 42.343V42.343Z" fill="#E6E7E8"/>
<path d="M27.3164 41.0313C27.2569 41.0312 27.1988 41.0489 27.1493 41.0819C27.0998 41.115 27.0613 41.1619 27.0385 41.2169C27.0158 41.2719 27.0098 41.3323 27.0214 41.3907C27.033 41.449 27.0616 41.5026 27.1037 41.5447C27.1458 41.5867 27.1994 41.6154 27.2577 41.627C27.316 41.6386 27.3765 41.6327 27.4315 41.6099C27.4864 41.5871 27.5334 41.5486 27.5665 41.4991C27.5995 41.4497 27.6172 41.3915 27.6172 41.332C27.6171 41.2523 27.5853 41.1758 27.529 41.1195C27.4726 41.0631 27.3961 41.0314 27.3164 41.0313V41.0313Z" fill="#4D4D4D"/>
<path d="M27.3164 40.8594C27.2229 40.8594 27.1316 40.8871 27.0539 40.939C26.9761 40.9909 26.9156 41.0647 26.8798 41.1511C26.844 41.2374 26.8347 41.3324 26.8529 41.4241C26.8711 41.5158 26.9161 41.6 26.9822 41.6661C27.0483 41.7322 27.1325 41.7772 27.2242 41.7954C27.3158 41.8136 27.4109 41.8043 27.4972 41.7685C27.5836 41.7328 27.6574 41.6722 27.7093 41.5945C27.7612 41.5168 27.7889 41.4254 27.7889 41.3319C27.7888 41.2067 27.7389 41.0866 27.6504 40.998C27.5618 40.9094 27.4417 40.8595 27.3164 40.8594V40.8594ZM27.3164 41.6327C27.2569 41.6327 27.1988 41.6151 27.1493 41.582C27.0998 41.549 27.0613 41.502 27.0385 41.447C27.0157 41.3921 27.0098 41.3316 27.0214 41.2733C27.033 41.2149 27.0616 41.1613 27.1037 41.1193C27.1458 41.0772 27.1994 41.0486 27.2577 41.0369C27.3161 41.0253 27.3765 41.0313 27.4315 41.0541C27.4864 41.0768 27.5334 41.1154 27.5665 41.1648C27.5995 41.2143 27.6171 41.2725 27.6171 41.3319C27.617 41.4117 27.5853 41.4881 27.5289 41.5445C27.4726 41.6009 27.3961 41.6326 27.3164 41.6327Z" fill="#CCCCCC"/>
<path d="M31.0717 55.5939C31.2688 55.5005 32.4094 55.9135 32.6497 55.8821C32.8088 55.8614 33.6531 55.9055 33.6531 55.9055C33.6531 55.9055 34.7884 56.0993 35.4461 55.9319C36.1038 55.7644 37.7804 55.5827 38.8672 52.8484C39.2068 51.9939 38.8297 51.2345 38.4674 50.0497C38.105 48.8648 38.4643 46.6404 38.601 46.3498C38.7376 46.059 37.7741 45.6501 37.3479 46.5496C36.9218 47.449 36.9505 49.0179 36.9505 49.0179L36.8315 49.6015C36.5476 49.1173 36.239 48.6509 35.9073 48.2044C35.6865 47.9783 34.9108 47.6487 34.3435 47.3717C33.776 47.0948 33.8718 47.7866 33.9555 48.0272C34.0391 48.2677 35.2622 49.4139 35.2622 49.4139C35.2622 49.4139 36.1036 50.6053 36.1487 51.0534C36.1938 51.5015 35.7373 51.8032 35.7373 51.8032L34.2468 51.3687C34.2468 51.3687 32.8329 50.642 32.5597 51.2235C32.2863 51.805 33.7825 52.5124 33.7825 52.5124C33.7825 52.5124 34.5619 52.6963 35.1466 52.8801C35.1466 52.8801 34.9219 53.3665 34.6482 53.416C34.3746 53.4656 33.374 53.5018 33.374 53.5018C33.374 53.5018 32.0869 52.9805 31.6254 53.7002C31.612 53.7371 31.6056 53.7765 31.6066 53.8161C31.6076 53.8557 31.6159 53.8946 31.631 53.9306C31.6462 53.9666 31.6678 53.9989 31.6947 54.0255C31.7215 54.0521 31.753 54.0725 31.7873 54.0855C32.0448 54.1898 33.173 54.5601 33.173 54.5601L34.1935 54.6175L34.1433 54.7088L33.1203 54.9488C33.1203 54.9488 32.5908 54.8848 31.8303 54.8515C31.0699 54.8182 30.8747 55.687 31.0717 55.5939Z" fill="#FAB57A"/>
<g opacity="0.5">
<path d="M9.10446 8.05761C8.97198 8.05748 8.84462 8.00643 8.74873 7.91502C8.65284 7.82362 8.59575 7.69885 8.58929 7.56653C8.5529 6.79965 8.67416 6.03345 8.94555 5.31528C9.21695 4.5971 9.63272 3.94221 10.1672 3.39105C11.0222 2.49325 12.1014 1.93555 12.9834 1.93555C13.1203 1.93555 13.2516 1.98992 13.3484 2.08672C13.4452 2.18351 13.4995 2.31479 13.4995 2.45168C13.4995 2.58856 13.4452 2.71984 13.3484 2.81664C13.2516 2.91343 13.1203 2.96781 12.9834 2.96781C12.4919 2.96781 11.6616 3.31884 10.9147 4.103C10.4782 4.55408 10.1383 5.08942 9.91578 5.6763C9.69324 6.26319 9.59272 6.88929 9.62035 7.51634C9.62365 7.58404 9.61358 7.65173 9.59071 7.71554C9.56785 7.77935 9.53264 7.83803 9.4871 7.88823C9.44155 7.93843 9.38657 7.97917 9.32528 8.00812C9.26399 8.03707 9.1976 8.05366 9.1299 8.05695C9.12146 8.05736 9.11292 8.05761 9.10446 8.05761Z" fill="white"/>
</g>
</svg>
